<svg width="22" height="22" viewBox="0 0 22 22" fill="none" xmlns="http://www.w3.org/2000/svg">
<path d="M21.9174 2.65421C21.5691 1.51016 20.8418 0.708321 19.7519 0.224335C19.427 0.0805815 19.0843 0.0328295 18.737 0H15.1721C15.1488 0.0497416 15.1 0.0343218 15.0607 0.0392959C13.4459 0.243237 12.0619 1.6564 11.9535 3.28046C11.8739 4.45833 11.8739 5.64022 11.9535 6.81808C12.0654 8.46503 13.5365 9.92793 15.1846 10.0513C16.284 10.1334 17.3884 10.1155 18.4878 10.0692C20.0588 10.0035 21.3358 9.01269 21.8154 7.5662C21.8905 7.33987 21.9403 7.10509 22.0014 6.87429V3.26355C21.9582 3.06259 21.9781 2.85368 21.9174 2.65421ZM19.2514 6.39329C19.2484 6.92403 18.8728 7.32048 18.3371 7.32843C17.4224 7.34203 16.507 7.34203 15.591 7.32843C15.0547 7.32147 14.6762 6.93448 14.6702 6.39727C14.6609 5.48899 14.6609 4.58071 14.6702 3.67242C14.6767 3.12527 15.0726 2.7527 15.6154 2.74872C16.0656 2.74524 16.5163 2.74872 16.967 2.74872C17.4177 2.74872 17.854 2.74872 18.2973 2.74872C18.8539 2.7527 19.2459 3.1377 19.2484 3.68983C19.2544 4.59115 19.2554 5.4923 19.2514 6.39329Z" fill="#404040"/>
<path d="M3.30396 10.0482C4.47515 10.128 5.65041 10.128 6.82159 10.0482C8.48415 9.93376 9.93975 8.46588 10.0616 6.79954C10.1412 5.70522 10.1243 4.61091 10.0785 3.51659C10.0079 1.84279 8.89754 0.517173 7.30911 0.107799C7.15341 0.0675082 6.98675 0.0754669 6.8395 0.000854492H3.18855C3.16368 0.0645238 3.10398 0.0406478 3.05921 0.0505961C1.32303 0.390331 0.0539758 1.81394 0.0166653 3.49869C-0.00555511 4.52137 -0.00555511 5.54456 0.0166653 6.56824C0.0534783 8.35048 1.53197 9.92779 3.30396 10.0482ZM2.75973 3.69616C2.76421 3.14154 3.15124 2.75107 3.70493 2.75107C4.60038 2.74775 5.49434 2.74775 6.3868 2.75107C6.93402 2.75107 7.332 3.12463 7.33946 3.6693C7.3524 4.58455 7.3524 5.49979 7.33946 6.41504C7.3315 6.9423 6.95243 7.32232 6.4256 7.33028C5.51025 7.34388 4.5949 7.34388 3.67956 7.33028C3.13532 7.32282 2.76321 6.9234 2.75923 6.37873C2.75625 5.92807 2.75923 5.47741 2.75923 5.02725C2.75923 4.57708 2.75674 4.13936 2.75973 3.69616Z" fill="#404040"/>
<path d="M20.7697 11.9235C20.371 11.8805 19.9689 11.8805 19.5703 11.9235C18.8445 12.0031 18.3565 12.5527 18.342 13.2819C18.3351 13.6107 18.3331 13.94 18.345 14.2688C18.3548 14.586 18.4772 14.8894 18.6902 15.1247C18.9032 15.36 19.1929 15.5119 19.5076 15.5532C19.9204 15.6041 20.3377 15.6074 20.7513 15.5631C21.3597 15.5059 21.7537 15.1562 21.9512 14.5812C21.9641 14.5434 21.9512 14.4927 22.0034 14.4733V13.0556C21.9915 13.0402 21.9731 13.0263 21.9686 13.0089C21.8199 12.3901 21.3945 11.9907 20.7697 11.9235Z" fill="#404040"/>
<path d="M6.81807 11.9389C5.71837 11.8658 4.61524 11.8602 3.51485 11.922C1.56426 12.0175 0.0479647 13.5634 0.0151315 15.4422C-0.00211416 16.4503 -0.00211416 17.4589 0.0151315 18.468C0.0479647 20.2015 1.45283 21.7405 3.16463 21.9499C3.79244 22.027 4.42274 21.9628 5.05104 21.9936C5.68681 21.9633 6.32358 22.0265 6.95885 21.9479C8.55076 21.7489 9.94966 20.3233 10.0576 18.7211C10.1372 17.5433 10.1372 16.3614 10.0576 15.1835C9.94667 13.5197 8.48211 12.0617 6.81807 11.9389ZM7.34141 18.3023C7.33544 18.8589 6.93945 19.2375 6.38328 19.2395C5.49678 19.2418 4.61012 19.2418 3.72329 19.2395C3.14373 19.2395 2.76217 18.851 2.75969 18.267C2.75969 17.8238 2.75969 17.3801 2.75969 16.9369C2.75969 16.4937 2.7572 16.05 2.75969 15.6068C2.76367 15.0631 3.13926 14.6657 3.68349 14.6592C4.59188 14.6476 5.5001 14.6476 6.40815 14.6592C6.95537 14.6652 7.33594 15.0522 7.34141 15.6009C7.35036 16.5005 7.35036 17.401 7.34141 18.3023Z" fill="#404040"/>
<path d="M15.5891 13.2785C15.5597 12.5379 15.0652 11.9852 14.3315 11.9206C13.9469 11.886 13.5599 11.886 13.1753 11.9206C12.4789 11.9833 11.9904 12.4787 11.9317 13.1746C11.9001 13.5523 11.9001 13.932 11.9317 14.3097C11.9904 15.0061 12.4789 15.4995 13.1753 15.5612C13.5599 15.596 13.9469 15.596 14.3315 15.5612C15.0428 15.4965 15.5254 14.9792 15.5821 14.2654C15.595 14.0948 15.5821 13.9222 15.5821 13.7506H15.5856C15.5901 13.5944 15.5955 13.4372 15.5891 13.2785Z" fill="#404040"/>
<path d="M14.5005 18.3545C14.2543 18.3013 14.0031 18.3346 13.7518 18.3307C13.5732 18.3307 13.3942 18.3242 13.2161 18.3307C12.9028 18.3435 12.604 18.466 12.372 18.6767C12.1399 18.8875 11.9893 19.1731 11.9465 19.4837C11.8906 19.9165 11.889 20.3546 11.9415 20.7879C12.0157 21.4251 12.5037 21.917 13.1355 21.9722C13.5492 22.0091 13.9654 22.0091 14.3792 21.9722C14.681 21.9434 14.9637 21.8116 15.1799 21.599C15.3961 21.3865 15.5326 21.1061 15.5666 20.8048C15.6184 20.3786 15.6184 19.9477 15.5666 19.5215C15.5362 19.2388 15.4165 18.9733 15.2247 18.7634C15.033 18.5535 14.7793 18.4103 14.5005 18.3545Z" fill="#404040"/>
<path d="M16.9582 15.5791C16.7757 15.5769 16.5946 15.6111 16.4254 15.6797C16.2563 15.7483 16.1025 15.8499 15.9731 15.9786C15.8437 16.1073 15.7412 16.2605 15.6716 16.4292C15.602 16.5979 15.5668 16.7788 15.5679 16.9613C15.569 17.1438 15.6065 17.3242 15.6781 17.4921C15.7498 17.6599 15.8541 17.8118 15.9852 17.9389C16.1162 18.066 16.2712 18.1657 16.4411 18.2322C16.6111 18.2987 16.7926 18.3307 16.9751 18.3263C17.3366 18.3197 17.6812 18.1725 17.9358 17.9158C18.1905 17.6592 18.335 17.3134 18.3387 16.9519C18.3385 16.7711 18.3026 16.592 18.233 16.4251C18.1635 16.2581 18.0617 16.1065 17.9334 15.979C17.8052 15.8514 17.653 15.7505 17.4857 15.6818C17.3183 15.6132 17.1391 15.5783 16.9582 15.5791Z" fill="#404040"/>
</svg>
