<svg width="24" height="24" viewBox="0 0 24 24" fill="none" xmlns="http://www.w3.org/2000/svg">
<g clip-path="url(#clip0_11_2952)">
<path d="M11.9999 24.0002C10.576 24.0032 9.20803 23.4457 8.1919 22.4482L4.2499 18.8052C3.20474 17.7906 2.37149 16.5785 1.79852 15.2393C1.22554 13.9001 0.924248 12.4605 0.912124 11.0039C0.9 9.54735 1.17729 8.10287 1.72789 6.75433C2.2785 5.40579 3.09145 4.18003 4.11958 3.14819C5.14771 2.11636 6.37053 1.29899 7.71708 0.743537C9.06364 0.188081 10.5071 -0.0944039 11.9637 -0.0875238C13.4203 -0.0806437 14.861 0.215464 16.2023 0.783616C17.5435 1.35177 18.7586 2.18065 19.7769 3.22215C21.8397 5.28504 22.9986 8.08285 22.9986 11.0001C22.9986 13.9174 21.8397 16.7153 19.7769 18.7782L15.7859 22.4671C14.7739 23.4551 13.4142 24.0056 11.9999 24.0002ZM11.9999 2.00015C10.2199 2.00013 8.47979 2.52797 6.99973 3.5169C5.51967 4.50583 4.36611 5.91144 3.68491 7.55599C3.00372 9.20053 2.82549 11.0101 3.17276 12.756C3.52004 14.5018 4.37722 16.1055 5.6359 17.3642L9.5699 21.0002C10.2206 21.622 11.0851 21.9705 11.9851 21.9741C12.8852 21.9776 13.7523 21.6358 14.4079 21.0191L18.3919 17.3372C20.0674 15.6466 21.005 13.3613 20.9995 10.9812C20.9941 8.60105 20.0461 6.31999 18.3629 4.63715C17.5294 3.79869 16.5378 3.1339 15.4456 2.68126C14.3533 2.22862 13.1822 1.99711 11.9999 2.00015ZM11.9999 18.0002C10.6154 18.0002 9.26206 17.5896 8.11091 16.8204C6.95977 16.0513 6.06256 14.958 5.53275 13.6789C5.00293 12.3999 4.86431 10.9924 5.13441 9.63452C5.4045 8.27665 6.07119 7.02937 7.05016 6.0504C8.02912 5.07143 9.2764 4.40475 10.6343 4.13465C11.9921 3.86456 13.3996 4.00318 14.6787 4.53299C15.9578 5.06281 17.051 5.96001 17.8202 7.11116C18.5894 8.2623 18.9999 9.61568 18.9999 11.0001C18.9978 12.856 18.2596 14.6353 16.9473 15.9476C15.635 17.2599 13.8558 17.998 11.9999 18.0002ZM11.9999 6.00015C11.011 6.00015 10.0443 6.29339 9.22205 6.8428C8.39981 7.39221 7.75894 8.1731 7.38051 9.08673C7.00207 10.0004 6.90305 11.0057 7.09598 11.9756C7.2889 12.9455 7.76511 13.8364 8.46437 14.5357C9.16363 15.2349 10.0545 15.7112 11.0245 15.9041C11.9944 16.097 12.9997 15.998 13.9133 15.6195C14.827 15.2411 15.6078 14.6002 16.1573 13.778C16.7067 12.9558 16.9999 11.9891 16.9999 11.0001C16.9983 9.67455 16.471 8.40371 15.5337 7.46637C14.5963 6.52903 13.3255 6.00174 11.9999 6.00015ZM13.7069 12.7072C13.8944 12.5196 13.9997 12.2653 13.9997 12.0002C13.9997 11.735 13.8944 11.4807 13.7069 11.2931L12.9999 10.5862V9.00015C12.9999 8.73493 12.8945 8.48058 12.707 8.29304C12.5195 8.10551 12.2651 8.00015 11.9999 8.00015C11.7347 8.00015 11.4803 8.10551 11.2928 8.29304C11.1053 8.48058 10.9999 8.73493 10.9999 9.00015V11.0001C11 11.2653 11.1054 11.5197 11.2929 11.7071L12.2929 12.7072C12.4804 12.8946 12.7347 12.9999 12.9999 12.9999C13.2651 12.9999 13.5194 12.8946 13.7069 12.7072Z" fill="#374957"/>
</g>
<defs>
<clipPath id="clip0_11_2952">
<rect width="24" height="24" fill="white"/>
</clipPath>
</defs>
</svg>
