<svg width="24" height="24" viewBox="0 0 24 24" fill="none" xmlns="http://www.w3.org/2000/svg">
<g clip-path="url(#clip0_11_3116)">
<path d="M9 23.9995H1C0.734784 23.9995 0.48043 23.8941 0.292893 23.7066C0.105357 23.5191 0 23.2647 0 22.9995C0 22.7343 0.105357 22.4799 0.292893 22.2924C0.48043 22.1049 0.734784 21.9995 1 21.9995H9C9.26522 21.9995 9.51957 22.1049 9.70711 22.2924C9.89464 22.4799 10 22.7343 10 22.9995C10 23.2647 9.89464 23.5191 9.70711 23.7066C9.51957 23.8941 9.26522 23.9995 9 23.9995Z" fill="#374957"/>
<path d="M7 20H1C0.734784 20 0.48043 19.8947 0.292893 19.7071C0.105357 19.5196 0 19.2652 0 19C0 18.7348 0.105357 18.4804 0.292893 18.2929C0.48043 18.1054 0.734784 18 1 18H7C7.26522 18 7.51957 18.1054 7.70711 18.2929C7.89464 18.4804 8 18.7348 8 19C8 19.2652 7.89464 19.5196 7.70711 19.7071C7.51957 19.8947 7.26522 20 7 20Z" fill="#374957"/>
<path d="M5 16.0005H1C0.734784 16.0005 0.48043 15.8951 0.292893 15.7076C0.105357 15.5201 0 15.2657 0 15.0005C0 14.7353 0.105357 14.4809 0.292893 14.2934C0.48043 14.1058 0.734784 14.0005 1 14.0005H5C5.26522 14.0005 5.51957 14.1058 5.70711 14.2934C5.89464 14.4809 6 14.7353 6 15.0005C6 15.2657 5.89464 15.5201 5.70711 15.7076C5.51957 15.8951 5.26522 16.0005 5 16.0005Z" fill="#374957"/>
<path d="M13.0002 23.9544C12.735 23.9662 12.476 23.8721 12.2801 23.693C12.0842 23.5138 11.9675 23.2641 11.9557 22.9989C11.9439 22.7337 12.0379 22.4746 12.2171 22.2787C12.3963 22.0829 12.646 21.9662 12.9112 21.9544C14.8037 21.7812 16.6076 21.0724 18.1117 19.911C19.6159 18.7495 20.7579 17.1835 21.4041 15.3964C22.0503 13.6093 22.1739 11.675 21.7604 9.82019C21.347 7.96536 20.4135 6.26674 19.0695 4.92329C17.7254 3.57983 16.0264 2.64718 14.1713 2.23455C12.3163 1.82193 10.3821 1.94642 8.59529 2.59344C6.80847 3.24047 5.243 4.38324 4.08225 5.88791C2.92149 7.39258 2.21351 9.19684 2.04122 11.0894C2.01735 11.3535 1.88953 11.5974 1.68586 11.7673C1.4822 11.9372 1.21938 12.0193 0.955226 11.9954C0.69107 11.9715 0.447216 11.8437 0.277309 11.64C0.107401 11.4364 0.0253573 11.1735 0.0492268 10.9094C0.328115 7.83269 1.78283 4.98208 4.11055 2.95095C6.43827 0.919813 9.45966 -0.135353 12.5458 0.00509434C15.6319 0.145542 18.5449 1.47078 20.6785 3.70495C22.8121 5.93912 24.0019 8.91008 24.0002 11.9994C24.0155 14.9977 22.9016 17.892 20.8801 20.1064C18.8586 22.3208 16.0775 23.6931 13.0902 23.9504C13.0602 23.9534 13.0292 23.9544 13.0002 23.9544Z" fill="#374957"/>
<path d="M12.0001 6C11.7349 6 11.4806 6.10536 11.293 6.29289C11.1055 6.48043 11.0001 6.73478 11.0001 7V12C11.0002 12.2652 11.1056 12.5195 11.2931 12.707L14.2931 15.707C14.4817 15.8892 14.7343 15.99 14.9965 15.9877C15.2587 15.9854 15.5095 15.8802 15.6949 15.6948C15.8803 15.5094 15.9855 15.2586 15.9878 14.9964C15.9901 14.7342 15.8893 14.4816 15.7071 14.293L13.0001 11.586V7C13.0001 6.73478 12.8948 6.48043 12.7072 6.29289C12.5197 6.10536 12.2653 6 12.0001 6Z" fill="#374957"/>
</g>
<defs>
<clipPath id="clip0_11_3116">
<rect width="24" height="24" fill="white"/>
</clipPath>
</defs>
</svg>
