
<?xml version="1.0" encoding="utf-8"?>
<svg version="1.1" id="Layer_1" xmlns="http://www.w3.org/2000/svg" xmlns:xlink="http://www.w3.org/1999/xlink" x="0px" y="0px"
	 viewBox="0 0 229.2 131.4" style="enable-background:new 0 0 229.2 131.4;" xml:space="preserve">
<style type="text/css">
	.st0{fill:#22C55E;}
	.st1{fill:#EF4444;}
	.st2{fill:#FACC15;}
	.st3{fill:#3B82F6;}
</style>
<path class="st0" d="M17.2,34.3H135c9.5-0.2,17-8.1,16.8-17.6C151.5,7.6,144.2,0.2,135,0H17.2C7.7-0.2-0.2,7.3-0.4,16.8
	c-0.2,9.5,7.3,17.4,16.8,17.6C16.6,34.4,16.9,34.4,17.2,34.3z"/>
<path class="st1" d="M135.6,97H17.2c-9.5,0.2-17,8.1-16.8,17.6c0.2,9.2,7.6,16.5,16.8,16.8h118.4c9.5,0.2,17.4-7.3,17.6-16.8
	s-7.3-17.4-16.8-17.6C136.2,97,135.9,97,135.6,97z"/>
<path class="st2" d="M166.5,48.5H93.6c-9.5,0.2-17,8.1-16.8,17.6c0.2,9.2,7.6,16.5,16.8,16.8h72.9c9.5,0.2,17.4-7.3,17.6-16.8
	c0.2-9.5-7.3-17.4-16.8-17.6C167,48.5,166.7,48.5,166.5,48.5z"/>
<path class="st3" d="M212.1,47.6L212.1,47.6c-9.5-0.2-17.4,7.3-17.6,16.8c-0.2,9.5,7.3,17.4,16.8,17.6c0.3,0,0.6,0,0.8,0l0,0
	c9.5-0.2,17-8.1,16.8-17.6C228.6,55.2,221.3,47.8,212.1,47.6z"/>
</svg>
