
<svg id="Layer_1" data-name="Layer 1" xmlns="http://www.w3.org/2000/svg" fill="#404040" viewBox="0 0 439.76 394.96"><path d="M474.24,197.12c-7.24-29.23-30.93-47.9-61.35-48-4.05,0-5.05-1.1-4.87-5,.33-7.39.17-14.8.12-22.19-.27-35.87-26.82-63.1-62.65-63.21q-123.92-.4-247.83,0c-34.28.1-61.46,27.88-61.49,62.18q-.14,135-.05,270A58.07,58.07,0,0,0,41.8,417c12,24.29,32,36.3,58.85,36.39,51.79.17,103.58.05,155.36.05,52,0,103.93.1,155.89,0,37.05-.1,63.94-27.17,64-64.08q0-88.24,0-176.5A64.75,64.75,0,0,0,474.24,197.12ZM97,92.54c1.57-.12,3.16-.08,4.75-.08H342.13c21,0,32.21,11.24,32.19,32.28,0,6.34-.33,12.7.07,19,.29,4.57-1.39,5.38-5.62,5.36C323.87,149,279,149,234.08,149q-66.83,0-133.65,0C83.06,149,70.26,137.29,70,121.37,69.71,106,81.22,93.73,97,92.54Zm314.64,327q-155.58.06-311.15,0C81.66,419.58,70,407.77,70,388.88q0-103.81,0-207.62v-5.37c14.7,7.87,29.91,7,45,7q148.19,0,296.37,0c16.21,0,27.28,8.47,30.16,23.07a37.55,37.55,0,0,1,.5,7.35q0,88,0,175.92C442,407.72,430.25,419.58,411.68,419.58Z" fill="#404040" transform="translate(-36.12 -58.52)" /><path d="M368.74,278.51a22.59,22.59,0,0,0-.26,45.17,22.59,22.59,0,1,0,.26-45.17Z" fill="#404040" transform="translate(-36.12 -58.52)"/></svg>