<svg id="Layer_1" data-name="Layer 1" xmlns="http://www.w3.org/2000/svg" viewBox="0 0 4190.42 4112.94"><path d="M1666.42,2975l-474-63.49c-6.51-79.08-90.65-1100.86-93-1129.75l337-36.88,47.82-5.23,139.22,944.34,3.59,24.65,10,67.57Z" transform="translate(-397.48 -438.82)" style="fill:#d1d5db"/><path d="M1668.38,2987.52c-707.82-94.94,132.82,18.29-474.94-64.8l-1-11.26,474,63.49Z" transform="translate(-397.48 -438.82)" style="fill:#d1d5db"/><polygon points="1272.7 2561.26 1021.02 2527.64 817.5 2488.14 1270.9 2548.7 1272.7 2561.26" style="fill:#d1d5db"/><path d="M4586.74,1713.55c-1.31-27.86-3.31-70-50.13-75.64-20.6-2.49-42.38,7-58.21,25.47-12.92,15-20,32.84-26.8,51.29-56.19,153.7-83.81,305.35-240.51,379.5l-3-23.5c-1115,184.36-1029,168.17-1070.4,181.65,5.31,5.24,3.94,15.78-4.3,19.42-63.89,27.12-102,42.13-125.55,56-78,45.86-117.51,131.57-138,219-13.06,55.71-6.52,52.78-10.57,106.09-5.64,78,8.37,174.27,19.17,252.16a12.34,12.34,0,0,1-24.46,3.27c-11.55-81.89-25.22-175.71-19.32-257.22,3.95-52.27-3-49.1,11.06-109.68,21.93-94.67,65.12-185.2,149.35-234.7,21.3-12.47,34.86-17.68,128.37-57.45a11.91,11.91,0,0,1,9.75,0L3075.09,1402H3050.4c14.5-66.31,61.8-119,38-179.42-13.37-33.91-48.65-58.55-96.8-67.58-36.93-6.93-75.64-5-110.43-12.2C2797.83,1125.48,2627.66,1009,2440.21,995c-41.41-3.47-78.33-5-89.78,38.62-5.23,20,1.47,42.66,17.94,60.66,52.72,57.58,275.25,104,366.28,250.62a306.44,306.44,0,0,1,27.32,57h-54.31s-23.67,827.14-33.81,1289.43c-807.56-107.52-763.25-103.21-769-101.65l-281.38,94.17,3.59,24.65,282.85-94.66,763.38,102c-.36,16.79-.71,33.14-1,48.79-118.44-13.22-518.45-56.95-764.8-84.22l-270.44,95.64L1666.42,2975,1070,2895.12l117.94-39.48-2.12-25.13c-183.57,61.55-175,57.83-178.24,60.93-1.93,1.83,3.87-13.48-105.43,245.09-30.45,71.35-55,147.58-80.46,218.87-3.92,11.09-8.65,24.8-2.77,38.84,12.07,28.89,79.64,31.69,119.63,38.35l43.77,7.53C963.85,3950.92,950.78,4142,957,4172.68c8.07,39.25,31.28,49,67.85,57.16,25.15,5.58,31,8.94,59.36,15,1172.92,250.8,1426.29,306.91,1452.29,306.91,76.92,0,136.89-40.2,187.76-64.27,30.62-14.33,757.73-357.45,773.32-364.34,18.73-8.28,38.09-16.83,49.4-32.64h0c13-18.09,12.18-37.94,11.5-55.44-.49-12.83-6.5-543.52-7.3-614.34,350.32-137.47,328.77-128.51,331.17-130.22,20.5-14.71,28.35-38.35,20.5-61.65-6.48-19.37-22-35.83-37.74-50.72-121.83-115-216-248-319.54-371.26a12.25,12.25,0,0,0-13-3.82l-50,15.23-49.29-202.16,821.1-181.82-8-62.86c65.81,2.15,97.17,26,147.34,26,67.23,0,101.68-50.54,105.36-115.51,1-18.38-.13-36.71-1.27-54.44-3.59-55.82-2.9-72.4,20.33-145,24.53-76.68,49.88-156,62.24-237.24C4591.9,1769.25,4586.77,1720.35,4586.74,1713.55ZM2755.45,1332c-94.6-152.36-322.91-203.88-369-254.24-8.36-9.14-16-23.9-12.31-37.92,7.62-29,35.25-21.58,64.27-20.41,120.72,9,236.49,62.59,346.12,113.29,71.7,33.14,91.37,36.76,150.69,40.76,18,1.22,35,2.38,51.86,5.54,39.11,7.33,68.47,27,78.53,52.5,16.11,40.87-13.28,87.63-27.82,126.41a281.36,281.36,0,0,0-12.51,44H2788A336.28,336.28,0,0,0,2755.45,1332ZM841.55,3384.77c-2.45-5.38.33-13.22,3.1-21.21,111-308.2,30.41-93.75,178.84-449.88l1534.35,205.23c-2.08,12.54-66,444.2-66.23,451.36-.41,10.63,1.15,17.95-1.52,24.88-11.87,30.12-30.47,49.23-61.54,58.07a91.35,91.35,0,0,1-34.07,3.28c-47.2-4.75,57,10.21-1451.74-247.9C926.14,3405.54,846.94,3398,841.55,3384.77Zm2685.24,45.52c7.74,667.37,6.59,568.46,6.91,595.1.17,19.22,3.32,36.93-6.64,50.88-7.42,10.36-22.95,17.22-39.38,24.49-15.6,6.9-749.91,353.38-773.85,364.58-43.25,20.44-80.06,44.59-129.56,56.18-2.74-36.73-1.22-508.63.5-822.74a12.23,12.23,0,0,0-12.18-12.3h-.06a12.24,12.24,0,0,0-12.24,12.17s-1.13,206.56-1.7,413.24c-.09,33.34-1.79,386.62,2.37,413.69-35.45,4.38-53.72-.74-75.64-5.95-64.12-15.21-1394.59-297.07-1434.57-308.61-36.82-10.8-62.3-6.91-69.77-43.23-3.75-18.47,17.39-496.56,25.67-723.48,84.5,14.48,1007.48,173,1131.28,194.32,228.33,39.55,257.46,48.69,295.65,38.57,38.53-10.16,64.08-34.49,79.32-73.17,3.13-8.12,3.39-16.93,3.2-25.36-.48-10.66.61-17.81,6.37-54,.25-1.65,3.42-22.61,3.17-21,.37-2.49,2.1-13.62,53.13-360.47,184.77,297.23,136.7,220,253.63,408.2,39.17,63.22,51,155.11,285.76,42C3189.79,3558.91,3056.53,3617.11,3526.79,3430.29Zm321.5-234.36c13.46,12.71,26.56,26.43,31.33,40.72,4.28,12.69.49,24.68-10.4,33.1l-732.81,287.33c-109,55.93-183.79,76.11-222.33,60-32.07-13.36-45.23-53.34-60.89-78.57-117.14-188.58-81.73-131.69-262.86-423L3532,2828.83C3633.59,2950.44,3726.76,3081.2,3848.29,3195.93Zm240.53-895.46-964.5,227.84,49.23,349.76c1.13,7.58-5.16,13.88-12.23,13.88a12.24,12.24,0,0,1-12.22-10.61l-50.88-360.54a12.28,12.28,0,0,1,9.41-13.7L4083,2276.64a12.26,12.26,0,1,1,5.79,23.83Zm383.55-130.12c-3,38.81,4.32,73.71,2.24,110.22-2.21,39.19-18,70.47-42.35,83.69-15.92,8.66-36.78,10.87-62,6.63-39.55-6.71-66.89-22.83-127.06-24l-28.88-227c170.35-76.73,200-232.18,260.24-396.8,5.93-16.26,12.12-31.84,22.37-43.76,8.09-9.43,21.93-18.91,36.71-17.11,30.23,3.64,26.28,30.22,29,60.1C4573,1903.1,4479.17,2081.8,4472.37,2170.35Z" transform="translate(-397.48 -438.82)" style="fill:#d1d5db"/><path d="M1178,1403.15c-31.62,24.88-44,61.36-56.86,97a438.6,438.6,0,0,0-23.53,117.73c-1.43,3.73-.58,6.24-.38,9.55-.6,15.21-2.5,21.84,3,27.19,7.32,46.48,18,85.7,13.53,125.47l24.81-2.61c4.48-53-13.42-103.31-16.89-150a430,430,0,0,1,23.56-122.19c10.09-28.64,21.1-60.07,45.15-80.81,12.66-11.32,27.83-14.74,49.37-2.82,36.52,18.69,70.41,76.43,61.31,106.23-3.39,10.82-13.21,17.27-19.18,16.88-9.78,0-19.4-9.38-28.35-19.52a12.24,12.24,0,0,0-18.76,15.72c9.86,12.39,2.54,33.08-10.3,43.37a12.24,12.24,0,0,0,15.3,19.11,64,64,0,0,0,6.3-5.79c41.55,119.42,76.44,233.62,149.44,305.36,14.87,14.69,36,28.07,50.89,18,12.06-8,13.38-27.09,13.21-43.9-.75-58.78-8.89-117.55-21.42-176.09,0-1.68.17-3.36.21-5a203.64,203.64,0,0,0,25.45-3.37l.08,0c26.83-5.6,72.24-25.44,87.41-57.12,13.42-28-1.9-58.06-26.86-71.58,22.78-30.45,7.63-70.19-26.62-80.69,6.68-35.59-18.39-67-54-69.32,0-14.61-6.91-29.15-19.31-37.63-26.46-18.21-57.16-23.16-89.56-18.59q-10.93-32.4-22-64.79l2.71-1.23c183.39-83.3,190.14-80.19,251.09-109.14l0,0c43.23-19.8,83.79-42.67,85.6-43.59,42.58-21.59,118.83-51.5,123.77-99.38,2.54-22.83-6.92-44.31-14.51-61.54-50.62-115.65-91.58-210.21-199-455.46-13.61-31.61-30.53-62.84-62-77.13-31.65-14.44-60-2.06-85.07,8.86-33,14.34-57.54,20.68-407.29,166.21-35.47-36.11-91-63-98.73,3.52-1.16,10.17.64,22.65,4.21,36.3-95,40.55-156.58,66.29-331.62,143.13-45.76,20.11-123.15,39.65-150,80.94-52.15,34.4-35.7,66.79-14.58,120.24,36.18,91.4,68.23,184.1,104.75,275.34,13.21,33.29,22.8,68.06,36.18,101.35,15.69,39.5,29.57,82.1,45.43,120,14.82,35.39,16.08,50.12,64.81,34.31,12.65,1.64,26.37-1.78,38.56-5.68,152.79-49.13,306-106.44,455.42-170.3C1164.81,1365.1,1176.07,1397.57,1178,1403.15Zm351.3,221.74c-9.57,20-51,47.07-102.23,47a2.27,2.27,0,0,0-.25-.06c-27.18-.6-87-8.46-101.31-30.6-3.7-5.7-4.38-15.91.93-21.46,100.83-2,170.58-35.65,175.41-38C1522.29,1585.78,1538.26,1606.21,1529.31,1624.89Zm-19.1-98.44c2.91,12.07-4.07,26-15.55,31.16a12.29,12.29,0,0,0-3,2c-33.29,16.21-96.41,33.39-159.89,35.52-6.41-3.35-11.93.82-22.75-7.33-7.78-5.93-7.25-9.19-8.43-16.15-.39-2.3-.76-4.51-.92-6.68a62.91,62.91,0,0,0,14.59-11.51c28.08-3.26,142.52-18.28,171.08-47.79C1496.73,1506.82,1507.64,1515.49,1510.21,1526.45Zm-42.89-75.63c7.5,9.25,9,23.24,4.28,34.33a12,12,0,0,0-3.1,3c-9.94,14.29-78.51,30.61-142.42,39.17,3.63-22.66-5.12-46.6-16.24-66.76,48.22-13.57,116-19,116.69-19a11.85,11.85,0,0,0,5.87-2.28C1444.94,1436.23,1459.19,1440.9,1467.32,1450.82Zm-56.53-54.4c6.57,4.5,9.54,13.37,8,21.17-18.88,1.72-79.54,8.06-123.08,21.64-11.84-15.16-14.06-15.82-19.36-20.57-3.21-2.88-6.23-6-9.67-8.57,13.83-8,25-14.77,42-20.91C1342.21,1377,1380.91,1375.85,1410.79,1396.42ZM592.1,825.8c532.25-233.62,791.11-330.74,833.37-349.13,16.09-7,30.66-13.36,45.29-13.36,35.65,0,55.79,37,69.54,68.94,255,582,205.12,466.67,211.66,504.71-4,38.86-107.23,75.54-154.71,101.86-76.23,42.64-81,34.89-291.57,130.52l-22.59,10.28c-185.63,84.78-376.82,160.56-583.16,226.92-35.11,11.26-33.91,6.9-47.93-28-27.29-65.16-75.2-205.16-81.54-221.12-36.26-91-81-217.59-109.6-287.16-20.73-50.35-23.78-70.74,22.34-98.46C515.41,852.83,558.42,840.61,592.1,825.8Z" transform="translate(-397.48 -438.82)" style="fill:#d1d5db"/><path d="M3118.21,3675.36c-119.78,22.53-228.65,100.38-243,173.82s71,114.74,190.82,92.22,228.65-100.38,243-173.82S3238,3652.84,3118.21,3675.36Zm131.17,94.34c-10.57,11.75-26.43,29.54-48.9,33-.2,0-4.6.75-4.79.81.33,0-.17.66-.66,1.31-15.44,20.79-32.4,23-46.59,15-11.13,23.19-37.44,33.22-57.33,17.14-13.19,20.1-33.45,28.78-50.22,26.44-7.77,9.14-16.36,14.69-25.78,16.81-40,7.43-71.8-41.46-44.44-76.22a12.48,12.48,0,0,1,17.35-2.28,12.15,12.15,0,0,1,2.31,17.13,23.51,23.51,0,0,0,10.24,36.4c7.84,2.71,12.56,1,18.67-4.73-9.08-11.59-9.58-28.24-6.77-40.81,8.08-34.44,53.51-9.66,42.79,27.43,9.1-4.15,17.46-13.79,20.65-26,2.42-10.23,16.73-13,22.8-3.26,4.3,7.51,9.09,11.91,13.22,12.4,3.3.33,8.09-2.12,11.23-6.36,9.32-12.15,6-27.42,19.33-28.73a12.85,12.85,0,0,1,12.23,6.37c10.77,19.88,18.37-2.72,28.09-9,14.17-8.82,17.35,4.82,48.07-29.21a12.43,12.43,0,0,1,17.51-1A12.07,12.07,0,0,1,3249.38,3769.7Z" transform="translate(-397.48 -438.82)" style="fill:#d1d5db"/><path d="M1102.6,4135.54,1280,4160.88c22.83,3.27,43.08-10.36,45.24-30.43l7.4-68.8c2.16-20.08-14.6-39-37.42-42.25l-177.4-25.35c-22.82-3.26-43.07,10.37-45.23,30.44l-7.4,68.8C1063,4113.36,1079.78,4132.28,1102.6,4135.54Z" transform="translate(-397.48 -438.82)" style="fill:#d1d5db"/><path d="M1910.8,3852l306.72,27.44a44.84,44.84,0,0,0,8-89.31l-306.72-27.44a45,45,0,1,0-10.09,89.38A6.36,6.36,0,0,0,1910.8,3852Z" transform="translate(-397.48 -438.82)" style="fill:#d1d5db"/><path d="M2204.48,4042.83l-308.28-27.58a45,45,0,0,0-8,89.57l308.28,27.58a45,45,0,1,0,10.1-89.38Z" transform="translate(-397.48 -438.82)" style="fill:#d1d5db"/><path d="M2296.23,3923.75l-189.81-17a45,45,0,0,0-8,89.57l189.81,17a45,45,0,0,0,10.1-89.38Z" transform="translate(-397.48 -438.82)" style="fill:#d1d5db"/><path d="M2415.17,3932h0a45,45,0,1,0-10.1,89.38l2.08.19h0a45,45,0,0,0,8-89.57Z" transform="translate(-397.48 -438.82)" style="fill:#d1d5db"/><path d="M734.5,1216.46a137.27,137.27,0,0,1-25,7.32q-10.43,1.77-18.08-1.12t-14-10.67q-6.32-7.77-13-21.23-3.39-6.19-6.33-12.93t-5.6-13.72a395,395,0,0,1-12.31-38.5q-5.46-20.47-11.5-43.17a5.6,5.6,0,0,1-5.67-.68,7.64,7.64,0,0,1-3.07-4,7.21,7.21,0,0,1-.06-5.25,6.53,6.53,0,0,1,4.11-3.76L752,1017q3.6-1.37,5.94.06a7.61,7.61,0,0,1,3.29,3.91,6.29,6.29,0,0,1,.6,5.31c-.58,1.86-2.08,3.24-4.48,4.15l-115.13,46.32q4.51,18.64,10.74,40.12t13.41,40.39q3.17,8.34,6.41,15.86t6.63,13.72q6.31,12.56,12.71,17.85a20,20,0,0,0,14.46,4.82q8.05-.49,19.55-4.85t26-10.91q14.52-6.55,29.09-14t26-13.88c2.33-1.57,4.49-1.75,6.5-.54a8.85,8.85,0,0,1,4,4.3,6.11,6.11,0,0,1,.09,5,8.49,8.49,0,0,1-3.32,3.45q-12.3,7-21.8,12.15t-18.22,9.37q-8.72,4.22-18.27,8.23T734.5,1216.46Zm-55.74-70.06c-2.25.85-4.18.77-5.77-.26a11.72,11.72,0,0,1-3.69-3.62,7.8,7.8,0,0,1,0-5.53,6.57,6.57,0,0,1,4.14-4l100.41-41c2.4-.91,4.42-.91,6.06,0a7.34,7.34,0,0,1,3.4,3.86,8,8,0,0,1,.19,5.6,6.33,6.33,0,0,1-4.07,3.86Z" transform="translate(-397.48 -438.82)" style="fill:#d1d5db;stroke:#d1d5db;stroke-miterlimit:10;stroke-width:6px"/><path d="M1014.61,1105.14a4.61,4.61,0,0,1-2.42.41c-3.61,0-6-1.44-7-4.29a7.39,7.39,0,0,1-.31-1.17,8.94,8.94,0,0,1-.18-1.48,364.14,364.14,0,0,0-4.42-44.19,207,207,0,0,0-10.61-40.81l-1.54-4.06a32.37,32.37,0,0,0-1.68-3.74,86.69,86.69,0,0,0-13.6-21.89,53.25,53.25,0,0,0-17.61-13.8,28.77,28.77,0,0,0-19.9-1.85A29.13,29.13,0,0,0,920,977.94a38.93,38.93,0,0,0-8,16.84,54.05,54.05,0,0,0-.37,20.37,8.63,8.63,0,0,1-.8,5.72,5.6,5.6,0,0,1-3.43,2.85,6.35,6.35,0,0,1-5.16-.36,9.65,9.65,0,0,1-4.24-4.06,66.1,66.1,0,0,0-15.4-16.44,49.27,49.27,0,0,0-18.28-8.78,31.48,31.48,0,0,0-18.71,1.31,27,27,0,0,0-15.53,14.4,54.49,54.49,0,0,0-4.59,23.53,107.61,107.61,0,0,0,3.48,26.12q1,4,2.28,8c.84,2.68,1.81,5.45,2.89,8.3a218.33,218.33,0,0,0,18,36.2q11.25,18.42,24.23,35.64a11,11,0,0,1,.81,1.11,5.62,5.62,0,0,1,.5,1,5.86,5.86,0,0,1,0,4.65,7.79,7.79,0,0,1-2.61,3.31,2.7,2.7,0,0,1-1,.66l-1.12.42q-4.29,1.63-7.88-2.42a374,374,0,0,1-26-37.43,239.9,239.9,0,0,1-19.47-39.38q-1.87-4.95-3.34-9.81t-2.63-9.31a102.63,102.63,0,0,1-3.3-30.06,69.48,69.48,0,0,1,6.38-27.29,39.15,39.15,0,0,1,17.12-18.36,47.16,47.16,0,0,1,7.4-3.59,48.27,48.27,0,0,1,29.94-1.58,59.59,59.59,0,0,1,26.65,14.87A47.15,47.15,0,0,1,907,969.1a43.37,43.37,0,0,1,44.49-16.9q13.21,2.58,25.8,13.65t22.09,32.71a42,42,0,0,1,1.81,4.08l1.67,4.4a233,233,0,0,1,11.66,44.27,319.8,319.8,0,0,1,4.46,47,6.21,6.21,0,0,1-1.19,4.32A7.25,7.25,0,0,1,1014.61,1105.14Z" transform="translate(-397.48 -438.82)" style="fill:#d1d5db;stroke:#d1d5db;stroke-miterlimit:10;stroke-width:6px"/><path d="M1085.57,1080.25a7.57,7.57,0,0,1-5.49.15,6.56,6.56,0,0,1-3.75-4.12l-63.45-151.4q-2.65-7,4.56-9.72,4.72-1.8,7.87,2.42,22.34-20.6,42.76-29.9c1.6-.78,3.24-1.53,4.94-2.27s3.37-1.41,5-2q24.76-9.4,48-6.9a74.77,74.77,0,0,1,41.67,18.45,76.72,76.72,0,0,1,20.91,29.94,70.21,70.21,0,0,1,4.59,25.31,75.69,75.69,0,0,1-28.06,58.09,133,133,0,0,1-36.88,21,166.1,166.1,0,0,1-21.84,6.62q-11.25,2.61-22.78,4.15a5.87,5.87,0,0,1-4.84-.87,7.34,7.34,0,0,1-2.65-3.24,8.16,8.16,0,0,1-.4-2.43q-.54-5.46,5.1-7.6a10.61,10.61,0,0,1,1.62-.49c.48-.09,1-.18,1.7-.26a175.57,175.57,0,0,0,21.85-3.54,150.71,150.71,0,0,0,20.6-6.15,107.3,107.3,0,0,0,30.1-17.1,62.19,62.19,0,0,0,19-26q8.16-21.91.38-42.42a60.31,60.31,0,0,0-19.14-26,64,64,0,0,0-34.77-13.85,87.23,87.23,0,0,0-38.38,5.82q-3.61,1.36-7.42,3.2t-7.47,3.74q-18.21,9.77-37.47,28.93l58.21,139c.91,2.4.87,4.44-.13,6.1A7.83,7.83,0,0,1,1085.57,1080.25Z" transform="translate(-397.48 -438.82)" style="fill:#d1d5db;stroke:#d1d5db;stroke-miterlimit:10;stroke-width:6px"/><path d="M1333.75,986a7.28,7.28,0,0,1-5.34-.16,6.62,6.62,0,0,1-4-4l-54-142.11-77.85,27.77a6.31,6.31,0,0,1-5.92-.33,8,8,0,0,1-3.4-3.86q-1.89-7,4.41-9.41l168.76-60.5a7.08,7.08,0,0,1,5.57.07,7.37,7.37,0,0,1,3.84,4.34,6.64,6.64,0,0,1-.12,5.46,7.58,7.58,0,0,1-4.38,3.73L1284,834.75l53.9,141.89a6.5,6.5,0,0,1-.22,5.88A7.81,7.81,0,0,1,1333.75,986Z" transform="translate(-397.48 -438.82)" style="fill:#d1d5db;stroke:#d1d5db;stroke-miterlimit:10;stroke-width:6px"/><path d="M1522.88,916.69a7,7,0,0,1-9.32-4.19l-15.14-39.87q-29.1,8.22-55.05-1.76t-44.48-35.68a83.12,83.12,0,0,1-7.09-11.87q-3.29-6.62-5.94-13.59-2.05-5.41-3.61-10.87t-2.77-10.68a6.73,6.73,0,0,1,.65-5.4,7.6,7.6,0,0,1,3.66-2.93,8.06,8.06,0,0,1,6.13-.14c1.84.76,3.09,2.48,3.76,5.14a96.61,96.61,0,0,0,2.56,9.46q1.53,4.71,3.24,9.21a121.79,121.79,0,0,0,12.29,24.2,88,88,0,0,0,25.73,24,71.34,71.34,0,0,0,30.77,10.09A73.06,73.06,0,0,0,1501,857a70,70,0,0,0,43.52-46.56,85.59,85.59,0,0,0,2.69-34.65A92.38,92.38,0,0,0,1544.9,764q-1.5-5.62-3.54-11t-4.52-10.52q-2.46-5.12-5.33-10c-1.23-2.79-1.35-5-.35-6.7a7.82,7.82,0,0,1,4-3.44,7.73,7.73,0,0,1,4.84-.16,7.5,7.5,0,0,1,4.28,3.14q3,5.29,5.56,10.9t4.75,11.47q2.39,6.31,4.18,12.71a96.58,96.58,0,0,1,2.67,12.78q4,31.71-9.07,56.53t-40.41,37.78l15.14,39.86c.91,2.4.86,4.4-.17,6A8.18,8.18,0,0,1,1522.88,916.69Z" transform="translate(-397.48 -438.82)" style="fill:#d1d5db;stroke:#d1d5db;stroke-miterlimit:10;stroke-width:6px"/></svg>