<svg id="Layer_1" data-name="Layer 1" xmlns="http://www.w3.org/2000/svg" viewBox="0 0 4300 3963.53"><g id="_36" data-name="36"><path d="M1857.39,3128.66c-2.37-123.83-4-217.86-8.71-490.58-.16-11.16,16.53-11.45,16.77-.29,4.62,266.52,6.39,369.69,8.71,490.54C1874.39,3139.45,1857.63,3139.85,1857.39,3128.66Z" transform="translate(-350 -518.24)"/><path d="M2292.28,3087.56c.3-76.52-23.32-345.19-28.48-454.93-.47-10.89,16.2-12.19,16.76-.79,5.85,125.49,28.82,368.13,28.49,455.79C2309,3098.85,2292.21,3098.66,2292.28,3087.56Z" transform="translate(-350 -518.24)"/><path d="M3226.14,4479.14c-13.41,7-34.87-2.34-48.95-2.34H1630.05c-.12-32.7-1.77-206.2-.68-684.72,7-182.67-13.22-371.61,2.69-721.59,14.18-2.84,132-13.82,138.15-14.42,30.18-2.68,70.08-12.41,98.24.67,26.49,12.07,41.25,45.94,57,68.41,108.19,154,331.16,91.92,348.39-9.39,11.4-72.77,26.49-52.65,91.88-51.31,430.81,9,664.78,141.24,797,585.46,73.43,249.46,61.11,517,70.08,769.55C3233.19,4435.89,3242.91,4470.43,3226.14,4479.14Z" transform="translate(-350 -518.24)" style="fill:#2c56fe"/><path d="M1074.61,2244C916.05,2178.9,833.54,2006.27,860,1857.2c41.57-234.33,321.65-360.75,480.9-246.45,9.06,6.5-.84,20.1-9.76,13.63-148.37-106.52-415,12.31-454.64,235.73-25.17,142.14,53.69,306.94,204.5,368.36C1091.2,2232.65,1084.9,2248.17,1074.61,2244Z" transform="translate(-350 -518.24)"/><path d="M1255.33,1679.65c9.79-50.05,24.92-97.17,44.89-140.05a8.4,8.4,0,0,1,11.14-4.06c16.67,7.75-16.2,28.17-39.59,147.34C1269.63,1693.8,1253.22,1690.54,1255.33,1679.65Z" transform="translate(-350 -518.24)"/><path d="M1910.67,2652c-80.56-10-159.11-35-233.58-74.33-9.75-5.15-2-20,7.86-14.84,72.63,38.36,149.26,62.76,227.81,72.53C1923.83,2636.7,1921.58,2653.44,1910.67,2652Z" transform="translate(-350 -518.24)"/><path d="M2277.71,2624.7c329-58.93,525.27-388.91,493.31-743.14-1-11,15.68-12.57,16.71-1.51,32.54,360.2-167.63,700.37-507.07,761.16C2269.51,2643.07,2267,2626.64,2277.71,2624.7Z" transform="translate(-350 -518.24)"/><path d="M1026.81,1334.23c-91.56-3.81-173.91-81.45-220.63-165-99.26-180.73-50-429.2,111-558,160.61-129.1,414.11-123.06,568.69,13.08,97.24,85.84,148.21,217.28,145.53,346-106.3-18.78-226.34,2.68-338.67,60.69-108.31,55.67-217.62,197.17-265.57,302.12A1.23,1.23,0,0,0,1026.81,1334.23Z" transform="translate(-350 -518.24)"/><path d="M2806.66,1294.66c31.86-84.5,0-183.75-60.69-250.81s-145.52-107.31-231-136.81c-285.86-98.71-604.58-93.88-872.49,59.35a83.7,83.7,0,0,0-7.38,4.36c2,.33,3.69.67,5.71,1,11.19,2.59,7.32,18.72-3.36,16.43-105-20.45-224.66,0-337,57.68-105.29,54.32-211.58,192.13-258.19,294.07a7.84,7.84,0,0,1-7.38,5,10.63,10.63,0,0,1-4.36-1c-34.4,92.93-28.78,200.54-24.47,299.44,73.06-54.29,170.93-82.11,259.86-57.68-5.36,30.18-9.72,59.36-13.41,86.85,53.65-46.27,119-75.78,190.12-94.89,109.32-147.88,251.83-271.61,410.76-340.35,102.5-10.19,271.63-6,427.2,20.46a8.59,8.59,0,0,1,.33-5c39.57-99.59,110.32-187.11,199.51-247.13,3.69-2.68,9.06-1.34,11.74,2.35a8.87,8.87,0,0,1-2.35,11.73c-86.51,57.68-154.91,142.85-193.14,239.42-.33.33-.33,1-.67,1.34,56.47,10.27,95.56,17.36,150.22,42.58,105.26-8.31,276.15,41.22,338.33,120.38C2773.27,1350.19,2788.08,1344.23,2806.66,1294.66ZM1917.41,934.87c-59.35,81.82-76.45,192.13-44.26,288,3.16,10.29-12.06,16.13-16.1,5-33.53-100.93-15.42-217,47-302.79C1910.45,916.27,1923.68,926.25,1917.41,934.87Z" transform="translate(-350 -518.24)"/><path d="M2065.68,2215.7c-33.07-21.6-49.41-63.15-38-96.69,3.5-10.39,19.47-5.15,15.85,5.41-9,26.51,4.42,59.69,31.3,77.23,23.61,15.42,56.06,20,91,12.9,10.94-2.3,14.19,14.24,3.34,16.44C2133.75,2238.14,2095.61,2235.23,2065.68,2215.7Z" transform="translate(-350 -518.24)"/><path d="M2016,1901.25c41.58,63.37-95.9,19.44-123.39,12.07-17.44-4.7-34.54-10.06-51.64-16.1,11.48-45.84-23-94.08-66.39-114-17.78-7.71-36.55-12.07-56-14.08,26.49-20.12,49.63-44.93,54-76.12,8-45.26-25.82-90.53-67.73-109.64-36.55-17.11-77.12-17.77-117-14.42,18.44-76.45,78.46-137.48,166.65-163.64,81.81-23.8,166.31-40.9,251.82-41.57,77.12-.68,7,82.15-8.38,112.66-26.49,51.64-47,108-50.3,166.32C1942.22,1733.25,1966,1825.46,2016,1901.25Z" transform="translate(-350 -518.24)" style="fill:#b0d8ff"/><path d="M2362.65,2118.45c-264,0-478-199.91-478-446.51s214-446.5,478-446.5c22.31,0,141.34,2.74,129,38-12.7,36.16-151.38,51.75-231.08,93.11-245.58,127.46-231.83,537.65,44.6,656.74,61.82,26.63,161,44.65,175.57,73.42,7.7,15.19-12.76,21.33-24,24.79C2426.48,2120.79,2393.88,2118.45,2362.65,2118.45Z" transform="translate(-350 -518.24)" style="fill:#2c56fe"/><path d="M2746.05,1884.23c6.73-19.81,37.48-21.77,37.33-133.51-.3-217.24-47-275.94-49.26-312.41-2-32,20.16-58.37,50.69-61.66,40.89-4.41,80.75-10.89,122.07-11.26,77.17-.69,7,82.25-8.49,112.58-26.51,51.83-46.87,108-50.22,166.51-5.19,90.42,18.46,182.64,68.3,258.42,41.72,63.44-95.86,19.37-123.11,12C2777.94,1910.75,2738.83,1905.51,2746.05,1884.23Z" transform="translate(-350 -518.24)" style="fill:#b0d8ff"/><path d="M3263.26,2120.16c-264,0-478-199.91-478-446.51s214-446.5,478-446.5c22.31,0,141.34,2.74,129,37.95-12.7,36.16-151.38,51.76-231.07,93.12-245.88,127.6-231.69,537.7,44.59,656.73,61.82,26.63,161,44.66,175.57,73.42,7.7,15.19-12.76,21.33-24,24.79C3327.09,2122.5,3294.49,2120.16,3263.26,2120.16Z" transform="translate(-350 -518.24)" style="fill:#2c56fe"/><path d="M3342,1335.2c158.45,2.81,301.54,121.14,329,262.16,37.7,191.32-58.33,374-260.49,420.16-2.47-2.65-7.6-1.42-10.47,1.37,81.32,1.56,164.43-25.16,233.79-80.38,101.52-81.23,135.17-223.83,110.53-347.42C3712.06,1427.94,3530.67,1297.44,3342,1335.2Z" transform="translate(-350 -518.24)"/><path d="M3039.23,1446.74c-84.65,134.09-84,316.47-.62,451.43,141.18,228.19,442.35,266.59,646.32,103.1C3811.22,1900,3853,1722.7,3822.5,1568.89c-23-116.32-106.42-214.78-208.5-271.42C3407.65,1182.69,3160.05,1254.59,3039.23,1446.74Zm75.06,45.88c46.45-74.19,129.19-138.46,226.85-157.53.24.16.49-.2.85.05,188.22-37.71,370.26,93.14,402.31,255.94,24.64,123.68-9,266.18-110.55,347.36-69.33,55.24-152.46,82-233.81,80.41C3129.43,2013.93,2975.08,1713.79,3114.29,1492.62Z" transform="translate(-350 -518.24)" style="fill:#f6d356"/><path d="M2419.93,1335.2c158.45,2.81,301.54,121.14,329,262.16,37.69,191.32-58.34,374-260.49,420.16-2.47-2.65-7.6-1.42-10.48,1.37,81.32,1.56,164.44-25.16,233.79-80.38,101.52-81.23,135.17-223.83,110.54-347.42C2790,1427.94,2608.65,1297.44,2419.93,1335.2Z" transform="translate(-350 -518.24)"/><path d="M2116.59,1898.17c141.18,228.19,442.35,266.59,646.33,103.1C2889.2,1900,2931,1722.7,2900.48,1568.89c-54.58-276.51-431.09-444.35-691-227.06C2029.51,1492.39,2015.28,1734.22,2116.59,1898.17Zm150.16-489.7c45.44-37.77,97.89-62.74,152.37-73.38.24.16.49-.2.85.05,188.22-37.71,370.26,93.14,402.31,255.94,24.64,123.68-9,266.18-110.55,347.36-69.33,55.24-152.46,82-233.81,80.41C2164.19,2013.14,2016.11,1617,2266.75,1408.47Z" transform="translate(-350 -518.24)" style="fill:#f6d356"/><path d="M2463,1433.48c-116-.85-197.48,115.08-156.26,225,149.89,271.85,138.72,254.89,145.19,255.51,8.71.75-.93,7.31,150.22-226.34C2671,1577.69,2592.78,1434.43,2463,1433.48Zm-2,250.14a74.61,74.61,0,1,1,75.45-74.1A74.48,74.48,0,0,1,2461,1683.62Z" transform="translate(-350 -518.24)"/><path d="M3406.21,1481.43c-88.49-.41-156.48,86.27-123.73,178.39,116.61,211.22,109.36,201.82,115,202.53,5.38.6,116.92-176,119-179.39C3570.66,1597.48,3510.47,1482.39,3406.21,1481.43Zm-1.34,198.17a59,59,0,1,1,59.68-58.68A58.88,58.88,0,0,1,3404.87,1679.6Z" transform="translate(-350 -518.24)"/><path d="M3139.31,1749.1c-26.36-85.64-8.74-182.88,46-253.76,6.73-8.81,20,1.46,13.3,10.25-51.51,66.64-68.08,158.06-43.26,238.57C3158.57,1754.76,3142.59,1759.7,3139.31,1749.1Z" transform="translate(-350 -518.24)"/><path d="M2199,1709.83c-19-100.11,20.83-211.07,99.16-276.15,8.48-7.07,19.27,5.76,10.74,12.9-73.81,61.3-111.37,165.83-93.46,260.1C2217.58,1717.6,2201.07,1720.7,2199,1709.83Z" transform="translate(-350 -518.24)"/><path d="M1621.65,4461.13c-1-96.34-1.31-390.23-.65-669.06,2.82-473.14-4.73-697.33,37.23-1131.48,11.9-118.05,25.27-163.7,140.45-221.29,44-22.82,82.25-58.52,107.53-100.43,7.5-12.46,15.3-27.3,15.89-42.95.29-21.66-23.78-51.1-44.47-54.08a8.29,8.29,0,0,1-2.85-1,72.39,72.39,0,0,0-21-7.49,8.39,8.39,0,0,1-3-15.29c39.82-25.47,62.48-52.9,67.33-81.52,6.71-43.58-27.77-84.4-63.63-100.62-39.3-17.91-94.73-18.39-137.53-11.25-6.62,1-13.85,2.49-15.94-5.24-3.07-11.31,7.94-7.79,57.82-40.41,75.93-48.85,72.64-84.82,74.89-88.18,7.57-42.56-26.65-83.46-62.74-100.06-15.91-6.89-33.43-11.3-53.34-13.36a8.38,8.38,0,0,1-4.22-15c30.78-23.37,47.38-46.47,50.72-70.6,7.73-43.46-26.62-84.32-62.87-100.86-40.56-18.93-86.45-16.87-132-12-177,19.38-335.39,84.74-406.8,248.54-34.87,79.79-41.81,159.86-49.15,244.66-25.55,294.45-342.55,1994-400.57,2354-1.88,11.35-18.25,8-16.57-2.68C753.76,4067.56,1071,2367.61,1096.74,2070.7c7.14-82.42,14.51-167.63,50.46-249.93,74-169.54,237-238.42,420.23-258.48,47.9-5,97.55-6.84,140.93,13.48,41.92,19.12,81.61,67.24,72.44,118.71-3.34,24-17.23,46.8-42.21,69.08,80.62,15.32,120.75,79.51,111.63,130.77-2.63,3.81,3,48.42-100.53,110.27,35.4-2.24,75.64-.41,111.83,16.1,42.5,19.22,81.3,66.13,73.22,118.55-5,29.67-25.22,57.5-60.16,83,2.42,1,4.75,2.1,7,3.29,28.52,5.23,57.7,41,57.27,70.86-.78,19.78-10.18,37.73-18.3,51.17-26.86,44.52-67.43,82.42-114.29,106.72-108,54-119.87,93.06-131.34,208-42,435.19-34.19,631.88-37.16,1129.9-.66,278.75-.36,572.54.65,668.83C1638.5,4472.12,1621.81,4472.29,1621.65,4461.13Z" transform="translate(-350 -518.24)"/><path d="M1373.8,1897.46c85.63-92.62,217.17-144.54,342.78-135.42a8.37,8.37,0,0,1,7.76,9,8.53,8.53,0,0,1-8.93,7.76c-121.29-8.94-247.07,41.15-329.29,130.08C1378.77,1916.86,1366.13,1905.77,1373.8,1897.46Z" transform="translate(-350 -518.24)"/><path d="M1624.7,2320.81a495.08,495.08,0,0,1,229.81-101.89c11-1.81,13.58,14.77,2.68,16.54a478.42,478.42,0,0,0-222,98.45C1626.52,2340.81,1616.05,2327.77,1624.7,2320.81Z" transform="translate(-350 -518.24)"/><path d="M1481.6,2159.52a435,435,0,0,1,231-153.18c10.62-2.89,15.09,13.31,4.32,16.21a418.1,418.1,0,0,0-222.08,147.25C1488.12,2178.53,1474.74,2168.36,1481.6,2159.52Z" transform="translate(-350 -518.24)"/><path d="M2308.2,3047.34c307.18-49.34,311.43-33.44,360.4-139.19,51.44-103.94,101.85-206.54,201.71-294.58,97.91-86.33,221.88-127.26,331.06-109.88,78,12.52,153.64,53.45,228.07,38.76,139.24-27.45,348.44-302.79,297.76-611.17-1.78-10.75,14.71-14,16.57-2.71,51.89,315.9-161.93,600.91-311.06,630.32-80,15.69-156.76-26.27-234-38.63-104.42-16.81-223.12,22.84-317.33,105.89-74.7,65.85-135.21,154.11-196.28,286.19l-1.31,2.83c-52.44,113.47-64.12,99.12-372.91,148.73C2299.58,3065.52,2297.52,3049.06,2308.2,3047.34Z" transform="translate(-350 -518.24)"/><path d="M3716.78,1369.14c76.94-132.2,27.93-295.69-44-338.49-31.7-18.86-74.76-20.19-115-3.54-80,33-152,138.82-185.8,219.68-4.34,10.26-19.74,3.68-15.46-6.49,35.46-84.8,110.21-193.75,194.84-228.68,187.93-77.61,279.49,195,179.94,366C3725.76,1387.12,3711.18,1378.81,3716.78,1369.14Z" transform="translate(-350 -518.24)"/><path d="M2608.28,4402.43c-41.52-120.73-99.25-248-212.75-276.27-150.76-37.6-279.34,110.28-433.12,120.78-78.59,5.48-170.74-37.61-186.33-119.13-21.66-112.88,106.94-179-151.77-471.87-7.28-8.29,5.19-19.42,12.57-11.1,261.33,295.83,136.09,377.36,155.64,479.83,13.72,71.4,98.76,110.63,168.74,105.53,151.51-10.33,278.38-160.16,438.33-120.32,121.26,30.26,181.54,162.11,224.54,287.08C2627.73,4407.46,2611.85,4412.94,2608.28,4402.43Z" transform="translate(-350 -518.24)"/><path d="M526.35,3125.14c-122.83-47.42-202.09-237.45-168.67-370.09,20.26-80.59,82.68-145,155.27-160.21,81.34-17,163,25.56,217.37,59.11,84.94,52.31,166,116.67,247.95,196.76,7.9,7.75-3.76,19.76-11.72,12-81-79.21-161.14-142.82-245-194.48-52-32-129.9-72.86-205.11-57-66.48,13.95-123.75,73.38-142.51,147.89-31.08,123.66,43.54,306,158.45,350.35,62,23.93,133.74,9.48,189.37-5.75,588.6-161.23,939.35-709.32,1242.76-1195.57,5.82-9.35,20.12-.59,14.21,8.87-154.33,247.36-313.9,503.15-515.48,722.06-227.88,247.49-475.86,409.27-737,480.82C661.05,3137.77,589.56,3149.56,526.35,3125.14Z" transform="translate(-350 -518.24)"/><path d="M3637.83,3707.21C3370,3506.38,3307.7,3134.1,3485.58,2858.6c18.89-29.26,33.11-45.6,20.79-80.24q-15-42.3-30.28-84.51c-7.53-20.79-12.42-45.75,5.84-63.56,42.14-41.12,114.06,65.55,172.64,50.09,30.73-8.1,52.95-31.78,80.71-45.59,212.24-105.56,472-82,661.61,60.24,279.51,209.62,336.19,606.21,126.57,885.72S3917.34,3916.82,3637.83,3707.21Z" transform="translate(-350 -518.24)" style="fill:#5fff9f"/><path d="M3387.76,3147.9c-10.5,0-11.39-15.53-.92-16.72l188.22-21c10.89-1.25,12.93,15.41,1.83,16.67l-188.22,21C3388.38,3147.88,3388.05,3147.9,3387.76,3147.9Z" transform="translate(-350 -518.24)"/><path d="M3824.68,3807.51c-7.38,8-19.78-3.35-12.07-11.4,829.57-876.51,786-847.68,797.71-836.28C4622.41,2971.92,4649.31,2925.05,3824.68,3807.51Z" transform="translate(-350 -518.24)"/><path d="M3687.54,3742.79c-7.38,8.05-20.12-3-12.41-11.4,149.89-161.95,304.13-323.57,458-483.86-60.69,11.41-232.71,39.91-727.63,117a2.05,2.05,0,0,1-1.34.33c-10.4,0-11.4-15.09-1.35-16.76,153.09-23.88,597.4-93.78,749.77-120.38,59-62,118.37-123.73,177.38-185.09L3779.75,3104c-10.4,0-11.4-15.43-.67-16.77l569-63.37q92-95.57,182.41-190.46c7.37-8.05,19.78,3.69,12.07,11.74C4260.1,3141.85,3972,3435,3687.54,3742.79Z" transform="translate(-350 -518.24)"/><path d="M3885.75,1367.16a878.42,878.42,0,0,1,67.32-120.42c6.14-9.21,20.11,0,13.95,9.3a855.85,855.85,0,0,0-66,118.13C3896.37,1384.25,3881.13,1377.23,3885.75,1367.16Z" transform="translate(-350 -518.24)"/><path d="M3940.83,1446.17l276.76-161.76c9.36-5.61,18.13,8.8,8.45,14.47l-276.76,161.77C3939.87,1466.29,3931.18,1451.83,3940.83,1446.17Z" transform="translate(-350 -518.24)"/><path d="M3950.29,1584.07c-10.06-4.64-3.13-19.79,7-15.23a215.32,215.32,0,0,0,122.34,16.9c11.27-1.56,13.36,14.88,2.62,16.57A232.74,232.74,0,0,1,3950.29,1584.07Z" transform="translate(-350 -518.24)"/><path d="M709.89,2456.65c-151.88-50.15-250.77-224.4-216-380.48,7.07-31.75,18.57-57,34.32-75.45-80.31-98.43-32.31-406.87,201.32-533.62,9.74-5.3,17.73,9.43,8,14.73-224.07,121.61-268.19,416.86-197.43,506.92,41.57-35.4,98.86-23,117.33,12.31a8.4,8.4,0,0,1-.72,8.93c-26.45,35.21-83.54,32.53-116.87,3-13.36,16.24-23.28,38.61-29.57,66.85-33,148.08,60.78,313.36,204.83,360.94C725.75,2444.24,720.27,2460.25,709.89,2456.65ZM551.66,2001c25,21.68,66.74,25.27,88.05,3.16C623.61,1981.58,581.73,1975.56,551.66,2001Z" transform="translate(-350 -518.24)"/></g></svg>