<svg id="Layer_1" data-name="Layer 1" xmlns="http://www.w3.org/2000/svg" viewBox="0 0 4300 4228.34"><g id="_12" data-name="12"><path d="M1317.38,2302.8c-49.83-43.92-85.25-101.59-118.28-159.22a737,737,0,0,0,140.33,64.16c-58.44-91.78-61.59-222.28-151.15-284.06,71.75,21.78,146.65,45.42,199.38,98.73q.69-74.57,8.38-148.85c2.5-24.13,11.7-28,28.14-24.31,138.17,31,234.24,169.85,247.37,310.83,4.54,48.66-.28,101.21-30.07,139.94C1560.44,2405.35,1406.5,2381.36,1317.38,2302.8Z" transform="translate(-350 -385.83)" style="fill:#f6d356"/><path d="M1440.38,2258q-32.07-53.36-60.7-108.68c-6.87-13.27-3.61-22.34,10.69-20.46,36.4,4.78,63.78,41.78,100.49,41.94-24.37-93.41-28.78-103.17-25.11-111.21,5.76-12.64,34.27,5.19,43.16,8.53,50,18.76,71.62,35.37,93.89,101.34,17.18,50.87,18.31,100.4-27.37,136.17-18.49,14.47-42,14-64,11.62-26.84-2.86-53.65-5.44-79.38-14.16-44.9-15.23-68.93-45.94-68.81-51.59.1-4.91,7.54-4.61,12.12-2.83A146.42,146.42,0,0,0,1440.38,2258Z" transform="translate(-350 -385.83)"/><path d="M2101.48,684,1961.06,841.19c-8.73,19.82-34.59,26.54-56.43,23.18-36.52-5.71-61.75-29.79-109.17-19.48-36.62,6.38-70.21,29.56-87.34,62.48-26.87,53.07-14.45,124.29-55.43,167.62-46.35,48.71-135.71,32.92-180.38,83.31-22.18,24.86-26.54,58.79-22.18,92.71-125.64-48.73-287.31,34.18-332.22,171-32.92,100.44,1.68,218.68,81.29,287.89-99.51,341-522.71,409.42-741.37,225.06-44.34-37.28-86.67-80.28-107.83-134,50.72,30.57,116.56,33.93,170,8.73,37.59-18.31,44.17-40.43,32.58-80.61-23.18-80-80.95-148.15-98.42-229.78-48.69-227.77,262.57-383.55,278.47-314.08-14.78-64.83-29.56-131-23.51-197.52,6.38-66.17,37.29-133.69,94.73-167.29C880.75,776,977.5,802.9,1061.48,830.78c-9.38-139.49,77.1-276.84,161.91-322.82,100.44-53.75,259.33-29.56,351.7,27.55-.33-38,21.17-73.9,51.06-97.76,74.17-59.83,252.86-79.42,371.53,3.7C2073.94,495.2,2121,593,2101.48,684Z" transform="translate(-350 -385.83)" style="fill:#2c56fe"/><path d="M2896.94,1420c-48.83-13.87-127.16-3-168,43.33-.67-51.73-5.38-101.78-22.51-151.83-39.64-117.24-127.65-211.63-235.14-250.94a1388.22,1388.22,0,0,0-375.23-80.95c-222.83-16.39-340,39.21-467.59,188.11-40.65,47.37-70.55,135.38-86.67,211l-.67-38c-16.92-60.62-81.45-95.37-142.77-102.45,26.09-113,109.71-286.76,197.86-355.07,90.54-69.27,228.48-56.5,304.34,18.47,10.75,10.42,29.23,10.08,38.63-1,89.07-105.83,238.88-116.83,376.9-104.81,165.61,14.78,328.2,63.15,435,193.49C2862.52,1124.79,2870.46,1287.64,2896.94,1420Z" transform="translate(-350 -385.83)" style="fill:#2c56fe"/><path d="M1218.53,1735.51c-99.26-66.65-145.94-202.61-108.58-316.28S1266.46,1224,1385.15,1229c65,2.87,144,38.29,164,109.29,3,10.65-13.15,15.31-16.14,4.56-18-64-92.6-97.28-158.81-97.28-108.71,0-214.27,75.37-248.33,178.9-35.06,106.76,8.76,234.48,102,297.09s228.09,55,313.67-17.76c8.58-7.19,19.32,5.65,10.89,12.79C1461.82,1793.72,1318.31,1802.56,1218.53,1735.51Z" transform="translate(-350 -385.83)"/><path d="M2839.64,1960.09c-73.95,0-143.72-30.86-192.34-88.6-7.1-8.48,5.6-19.35,12.86-10.83,65.91,78.28,173.83,103.57,274.71,64.45,104.87-40.29,176.09-155,165.66-266.87-10.89-118-113.7-217.33-212.21-231.63-69-12.83-128.92,12.67-152.81,42-7,8.59-20.07-2-13.05-10.6,3.43-4.2,12.39-13.23,16.56-15.32,35.66-33.42,113.81-44.09,160.22-30.79,113.41,24,207.39,129.32,218,244.79C3131.32,1807.67,3009.33,1960.09,2839.64,1960.09Z" transform="translate(-350 -385.83)"/><path d="M1983,2077.27h-.29c-201.72-7.18-384.15-149.13-443.62-345.18-77.55-255.63,12.2-611.78,248.43-705.79,10.41-4,16.49,11.5,6.23,15.61-228,90.74-314,436.65-238.59,685.29,57.41,189.31,233.47,326.35,428.14,333.28a8.4,8.4,0,0,1-.3,16.79Z" transform="translate(-350 -385.83)"/><path d="M2264.61,2118.41c-10.93,0-11.22-16.41-.3-16.8,255.22-8.93,484.5-247.43,463-610-.6-10.59,16-12.74,16.8-1,22,371.89-214.38,618.45-479.18,627.75Z" transform="translate(-350 -385.83)"/><path d="M1932.59,2485a7,7,0,0,1-1-.06,8.38,8.38,0,0,1-7.31-9.35c18-146.52,30.7-245.83,51-409.94,1.34-11,18-9,16.66,2.06-17.7,143.28-35.28,282-51,409.91A8.38,8.38,0,0,1,1932.59,2485Z" transform="translate(-350 -385.83)"/><path d="M2257.22,2491.51c11.2-76.83,20.87-309.15,32.19-386.32,1.5-11.06,18.24-8.56,16.59,2.43-11.19,76.83-20.86,309.14-32.18,386.32C2272.28,2504.85,2255.57,2502.56,2257.22,2491.51Z" transform="translate(-350 -385.83)"/><path d="M1395.51,1496c-37.46-51.61-111.1-74.35-171.07-53-10.56,3.76-16-12.14-5.64-15.82,66.92-23.81,148.67,1.6,190.3,59C1415.63,1495.16,1402,1505,1395.51,1496Z" transform="translate(-350 -385.83)"/><path d="M1293.85,1548.58c-3.87-35.76,8.27-72.83,32.51-99.17,7.54-8.12,19.86,3.19,12.34,11.38a111,111,0,0,0-28.12,86C1311.76,1557.78,1295.13,1559.77,1293.85,1548.58Z" transform="translate(-350 -385.83)"/><path d="M2822.94,1695.43c55-44.76,140.53-48.34,199.12-8.24,9.06,6.21-.16,20.13-9.51,13.85-52.59-36-129.58-32.86-179,7.41C2824.87,1715.43,2814.39,1702.45,2822.94,1695.43Z" transform="translate(-350 -385.83)"/><path d="M2902.69,1779.24a111.13,111.13,0,0,0-5.19-90.32c-5.13-9.92,9.72-17.57,14.9-7.81a128.28,128.28,0,0,1,6,104.17C2914.4,1795.66,2898.67,1789.59,2902.69,1779.24Z" transform="translate(-350 -385.83)"/><path d="M2138.54,1566.11c35-6.36,62.17-3.73,93.46-18.62,45-21.3,36.09-60.17,36.54-109.12,1.1-128.94-1.77-118-.72-248.81.08-10.68,16.88-11.25,16.8.14-.19,23.22.74,259,1,269.32.92,41.6,1.77,80.9-46.39,103.65-34.31,16.34-62.36,13.59-97.62,20C2130.26,1584.41,2127.88,1568.07,2138.54,1566.11Z" transform="translate(-350 -385.83)"/><path d="M2102,1382c-7.79,54.62-40.51,95.16-73,90.53s-52.65-52.71-44.86-107.33,40.5-95.15,73.06-90.51,52.58,52.69,44.8,107.31Z" transform="translate(-350 -385.83)"/><path d="M2051.13,1176.65c16.78,7.07,23.82,22.51,8.09,41.36-19.67,23.57-66.11,48.1-96.4,51.93-22.93,2.9-40.67-12.18-23.16-34.4,10.9-13.84,25-25,39.51-34.5C2001.4,1186.42,2024.7,1165.51,2051.13,1176.65Z" transform="translate(-350 -385.83)"/><path d="M2549.15,1276.53c3.86,17.79-4.71,32.44-29.18,30.41-19.75-1.63-38.36-9.7-56-18.77-76.09-39.15-69.06-93.15,23.81-56.47C2512.54,1241.48,2543.05,1248.5,2549.15,1276.53Z" transform="translate(-350 -385.83)"/><path d="M2385.64,1385.54c-7.79,54.62,12.3,102.68,44.8,107.32s65.27-35.9,73-90.52-12.3-102.68-44.85-107.32-65.22,35.9-73,90.52Z" transform="translate(-350 -385.83)"/><path d="M2122.76,1716.85c-14.89-23.82-33.66-50-60-63.22-23.36-11.71-57.61-11.08-74.5,10.24a8.37,8.37,0,0,1-11.81,1.36c-16-12.66,37.43-55,93.85-26.59,30,15.11,50.59,43.52,66.7,69.32C2142.92,1717.4,2128.56,1726.27,2122.76,1716.85Z" transform="translate(-350 -385.83)"/><path d="M2595.23,1179.25c-35.18,7.52-142.29-29-331-38.29-289.56-14.28-326.11-18.24-380-11.31-32.47,4.18-65.08,20.17-93.55-4.8-20-17.52-18.79-34.51-25.61-57.59-8.85-30-25.45-58.8-41.07-85.66C1654.6,862.14,1631.17,864,1670.86,822c79.14-83.73,214.63-112.34,320.07-65.44,106.2-95,262.55-130.24,399.24-90.07,97.12,28.53,155.72,124,185.7,214.84,15.67,47.45,20.05,96.39,30.94,144.68C2617.21,1072.18,2658.69,1165.7,2595.23,1179.25Z" transform="translate(-350 -385.83)" style="fill:#2c56fe"/><path d="M1734.48,1033.71c-7.48-15.39-15.18-31.3-21.75-47.42-4.15-10.26,11.36-16.68,15.55-6.33,14.63,35.9,34.9,70.18,48.13,107,12.83,35.88,20,39.44,50.85,39.56l348.45-1c11.11,0,11.09,16.76,0,16.8l-348.42.95C1766.07,1143.33,1776.48,1120.08,1734.48,1033.71Z" transform="translate(-350 -385.83)"/><path d="M1917.24,743.57A221,221,0,0,0,1800,752.23c-10.64,3.62-16-12.08-5.7-15.81,45.37-16.29,96-19.18,148.6-3.41,34.53,10.38,39.11,11.27,105.07-24,23.16-12.35,47.11-25.11,73.81-33,54.62-16.11,112.82-21.69,168.42-16,11,1.09,9.49,17.77-1.7,16.7a425.18,425.18,0,0,0-161.93,15.41c-45.73,13.54-84.81,43.45-130.39,60.07C1966.7,762.9,1943.22,748.68,1917.24,743.57Z" transform="translate(-350 -385.83)"/><path d="M2587.6,1170a8.38,8.38,0,0,1,6.82-9.71c35.7-6.24,39.75-15.51,42.45-34.86,14.13-101.2-37.51-138.27-46.15-207.32-1.39-10.83,15.2-13.43,16.66-2.1,7.8,62.31,60.63,107.45,46.16,211.74-3.83,27.26-13.86,41.69-56.23,49.07C2596.82,1177,2588.44,1174.81,2587.6,1170Z" transform="translate(-350 -385.83)"/><path d="M3133.09,3374.69c-201.22-29.23-407.81-43.33-617.76-48.71-375.89-9.4-755.82,22.84-1117.6,122.95,13.42-58.37,65-217.73,96.75-308.71,24.18-69.54,39.63-92.71,113.53-109.51a174.71,174.71,0,0,0,82.31-46c7.39-7.39,14.44-15.79,17.13-25.87,4-15.45-7.06-39.3-21.84-45.68a48.37,48.37,0,0,0-12.76-8.06c22.51-7.73,46-20.83,55.42-42.33,11.09-26.54-2-58.45-24.85-76.25-26.22-20.35-58.32-24.84-88-28.56,36.36-8.84,83.94-22.72,98.42-55.42,12.28-28.19-1.38-72-56.43-93.05,19.14-8.06,36.61-19.49,44-37.63,9.74-22.5,1-49-15.45-67.52,304.83-47.85,457.73-12.32,684.26-12.76,403.55-.79,600.64,145.82,709.13,512.61C3114.61,3122.75,3127.38,3248.05,3133.09,3374.69Z" transform="translate(-350 -385.83)" style="fill:#5fff9f"/><path d="M1821.58,1542.69c-15.92-24.31,3.91-77.73,20.08-102.07,6.11-9.25,20.1,0,14,9.28a141.26,141.26,0,0,0-22.67,63.31c-1,9.65-.19,15.9,2.66,20.24,4.92,7.47,16.5,9.11,25.46,8.19a65.85,65.85,0,0,0,41.13-20.5c7.69-8.16,19.84,3.32,12.34,11.41C1889.29,1559.79,1839.58,1570,1821.58,1542.69Z" transform="translate(-350 -385.83)"/><path d="M2397.53,1585.83c-1.08-10.85,15.51-13.09,16.73-1.71,6.62,65.46,82.49,100.84,80.4,45.42-2.06-56.25-32-68.44-17.25-77.47a8.39,8.39,0,0,1,11.55,2.76c16.29,26.46,31.69,79.36,16.43,102.87C2479.12,1698.17,2404.75,1656.81,2397.53,1585.83Z" transform="translate(-350 -385.83)"/><path d="M376.08,4038.15c472-572.57,1400.15-738.52,2139.45-720.57,798.83,20.47,1513.48,170.11,2100.31,711.69,8.09,7.47-3.12,19.93-11.42,12.34-581.72-536.89-1290.87-686.77-2089.32-707.23-737.14-18.23-1659.33,148.1-2126,714.46C382.07,4057.21,369,4046.84,376.08,4038.15Z" transform="translate(-350 -385.83)"/><path d="M2449.49,3439.52c-1,.34-2,1-3,1.35-61.81,30.23-136.38,40-202.56,56.77-66.51,16.79-130.67,51.73-194.83,77.26-95.74,38.63-191.14,77.59-286.88,115.55-43.67,17.47-92-11.76-96.74-58.78l-57.78-601c3.75-1.47,45.46-8.85,82.64-46,7.39-7.39,14.44-15.79,17.13-25.87,4-15.45-7.06-39.3-21.84-45.68a48.37,48.37,0,0,0-12.76-8.06c22.51-7.73,46-20.83,55.42-42.33,11.09-26.54-2-58.45-24.85-76.25-26.22-20.35-58.32-24.84-88-28.56,36.36-8.84,83.94-22.72,98.42-55.42,12.28-28.19-1.38-72-56.43-93.05,19.14-8.06,36.61-19.49,44-37.63,11.42-26.2-2.35-58.45-24.86-76.25-22.5-18.14-51.73-24.19-80.28-27.88a365.67,365.67,0,0,0-42.66-3.7c-.33-3.39-30.12-314.77-28.22-294.94a70.79,70.79,0,0,1,45-72.89l402.1-153.85c63.48-24.19,225.4-120.59,287.55-76.25,22.16,15.79,32.92,46,25.86,71.89-7.16,26.72-22,38.25-113.21,149.48,15.79,33.25,55.43,46.36,89.7,59.79,34.26,13.1,72.22,37.29,73.23,74.24,1,37.29-36.28,62.82-66.52,85.32-30.23,22.17-59.79,61.48-40.64,93.73,12.43,21.49,40,27.2,63.82,34.26s50.39,22.84,49.72,47.7c-1.27,41.85-96.29,102.92-101.11,180.05-1,11.08.67,23.18,8.06,31.92,15.45,18.14,46,9.4,67.18,20.82,24.52,13.78,26.2,50,14.11,75.24-12.43,25.53-33.93,45-48,69.54s-18.47,59.12,2.69,77.94c24.65,21.82,98.13,18.88,54.76,84-11.76,18.81-23.85,37.61-36,56.43-10.07,16.12-20.82,33.59-18.13,52.4,8.73,60.47,126.3,41.66,140.41,101.12,12.09,51.06-71.55,97.07-45.35,142.42C2400.45,3408.28,2439.41,3394.17,2449.49,3439.52Z" transform="translate(-350 -385.83)" style="fill:#2c56fe"/><path d="M3574.15,2176.47l-36.28,255c-46.65-3.47-138.22.57-176.7,31.57-22.5,17.47-36.27,49.72-24.52,75.92,7.06,18.14,24.86,29.9,43.67,38-53.6,18.91-69,64-56.1,92.72,13.66,32.3,63.86,47.57,98.43,55.76a59.58,59.58,0,0,0-8.07.67c-28.21,3.36-57.77,10.08-80.28,27.55-22.5,17.8-35.94,50.05-24.85,76.25,9.4,21.83,32.92,34.6,55.76,42.33a61.8,61.8,0,0,0-13.1,8.4c-14.78,6-25.87,30.22-21.84,45.34,3,10.08,9.74,18.48,17.13,25.87,40.28,40.28,82,45.25,108.84,53.07-9.86,69.13-34.92,244.91-44,310.06-8.73,60.8-5.37,268.73-60.79,298-23.52,12.42-51.4,11.75-77.94,10.75-198.22-9.86-400.05-49.44-581.48-128-20.15-8.73-42-19.82-50.05-40.31-36.28-92,139.08-100.78,149.82-179,6.72-50.72-57.78-87.33-58.79-138.73-1.67-74.24,117.91-93.39,136.73-164.93,22.17-84.66-112.87-152.85-87.34-236.49,13.77-45.69,70.88-66.85,88-111.86,15.45-39.64-5-83.31-20.83-122.95-16.12-39.64-25.19-90.7,5.71-120.26,18.48-17.47,49.72-25.53,55.76-50.39,9.07-39.3-47-56.43-53.41-91-7.39-40.31,25.87-65.17,58.45-76.25,65.17-21.84,153.52-17.47,222-25.53,119.26-13.77,238.85-27.22,358.09-41C3542.24,2091.48,3580.53,2131.12,3574.15,2176.47Z" transform="translate(-350 -385.83)" style="fill:#2c56fe"/><path d="M820.94,3675.43c95.14-225.53,157.21-357.73,388.31-906.31,47.55-111.82,71.81-354.87,388.18-309.72,29.39,3.78,60,10,84.4,29.65,39.82,31.52,47.92,89.43-4.72,120,44.15,23,57.3,67.27,44.42,96.8-12.44,28.12-43.7,41.58-66.1,49.26-.43.16-.89.31-1.32.46,18.83,4.43,38.15,11.61,54.46,24.27,23.78,18.55,40.84,54.08,27.46,86.12-7.25,16.56-22.51,30.42-44.55,40.67,17,9.27,29,35.61,24.11,54.29-9.78,36.58-82.95,78.16-107.9,78.16-67.64,15.65-81.29,34.89-105.27,103.88-26.47,75.85-79.71,237.13-96.51,307.88-2.67,11.11-18.88,6.74-16.33-3.87,19.67-83.09,79.37-259.12,97-309.54,24-69.14,40.54-97,119.27-114.93a163.85,163.85,0,0,0,78.57-43.76c6.1-6.12,12.66-13.53,15-22.1,3.05-11.69-6.2-31.13-17.06-35.82a7.45,7.45,0,0,1-2.29-1.48c-8.1-7.26-15.87-6.3-15.55-14.59a8.39,8.39,0,0,1,5.67-7.63c18.21-6.27,41.76-17.9,50.45-37.76,10-23.88-4-52-22.3-66.26-24.25-18.82-55.22-23.38-83.1-26.74-9.88-1.21-10.15-14.56-1.77-16.58,32.84-8.05,79.67-21.08,92.74-50.69,10.55-24.11-1.5-62.54-51.76-81.81a8.4,8.4,0,0,1-.23-15.58c21.12-8.88,34-19.68,39.49-33,10.3-23.65-3.8-51.87-22.3-66.48-21.16-17.08-49.11-22.65-76.18-26.15-297.71-42.76-319,178.07-370.43,299.62C1021.44,3257.38,911.51,3504,836.43,3682,832.15,3692.17,816.6,3685.69,820.94,3675.43Z" transform="translate(-350 -385.83)"/><path d="M1428.88,2633.54c67.08-44.4,152.8-56.21,229.46-31.46,10.52,3.41,5.53,19.39-5.18,16-70.56-22.79-153.06-11.5-215,29.49C1429,2653.71,1419.54,2639.71,1428.88,2633.54Z" transform="translate(-350 -385.83)"/><path d="M1518.17,2925.63a309.17,309.17,0,0,1,155.2-27.83c10.88.84,10,17.3-1.31,16.73a294,294,0,0,0-146.8,26.32C1515.24,2945.57,1508.06,2930.33,1518.17,2925.63Z" transform="translate(-350 -385.83)"/><path d="M1455,2807.65c78.67-62.52,167.36-59.63,164-59,11,0,11.2,16.56.16,16.8a256.46,256.46,0,0,0-153.72,55.35C1456.75,2827.73,1446.29,2814.55,1455,2807.65Z" transform="translate(-350 -385.83)"/><path d="M4231.93,3757.21C4132.53,3522,4184,3630.7,3813.11,2742.84c-50.62-119.63-68.11-339.2-370.46-299.55-27.16,3.61-55.21,9.27-76.24,26.14-18.47,14.54-32.51,42.6-22.21,66.11,5.45,13.64,18.31,24.53,39.4,33.52a8.42,8.42,0,0,1-.39,15.6c-11.71,4.35-21.33,9.46-29.36,15.63-18.34,14.4-32.38,42.47-22.08,66,12.7,29.28,59.45,42.82,92.77,50.78,9.15,2.19,8.23,15.62-1.15,16.52l-8,.7c-23.52,3-53.64,8.69-75.72,26-18.4,14.37-32.51,42.48-22.44,66.33,6.83,15.81,23.85,28.49,50.59,37.59a8.41,8.41,0,0,1,.75,15.6,46.13,46.13,0,0,0-10.85,7,8,8,0,0,1-2.3,1.42c-10.69,4.45-20,24-16.93,35.53,6.66,24.41,53.17,56.19,93.3,66,79,18,95.53,45.76,119.57,114.83,93.66,269.35,116,382.44,117.18,386.35,2.55,10.63-13.76,14.91-16.34,3.84l-10.33-44.33c-17.11-73.73-81.62-269.15-106.39-340.35-24-68.87-37.66-88.1-107.56-104-41.61-10.14-96.51-44.53-105.63-77.91-5.12-18.91,7-45.3,24.27-54.32-84.28-38.46-56-129.35,37.24-151.1-26.32-10.12-54.92-21-67.42-49.76-12.87-29.47.27-74,44.22-96.71-15.94-9.4-26.44-20.7-31.88-34.25-13.55-31,3.9-67.38,27.29-85.75,24.14-19.4,54.88-25.72,84.47-29.66,313.87-41.07,335.7,186,388.14,309.66,367.23,879.07,321.05,783.08,418.82,1014.4C4251.78,3761,4236.19,3767.39,4231.93,3757.21Z" transform="translate(-350 -385.83)"/><path d="M3599.68,2614.74c-61.93-41-144.4-52.31-215-29.51-10.86,3.36-15.58-12.64-5.18-16,76.56-24.7,162.38-12.94,229.47,31.47C3618.28,2606.91,3608.81,2620.89,3599.68,2614.74Z" transform="translate(-350 -385.83)"/><path d="M3512.59,2908.05a294.72,294.72,0,0,0-146.83-26.33c-10.81,1.15-12.59-15.85-1.32-16.73a309.5,309.5,0,0,1,155.23,27.84C3529.79,2897.53,3522.59,2912.76,3512.59,2908.05Z" transform="translate(-350 -385.83)"/><path d="M3572.39,2788a256.36,256.36,0,0,0-153.72-55.34,8.4,8.4,0,0,1-8.23-8.56c.09-4.64,4.59-8.23,8.56-8.23a273.36,273.36,0,0,1,163.82,59C3591.52,2781.72,3581.07,2794.91,3572.39,2788Z" transform="translate(-350 -385.83)"/><path d="M1631.81,685.16a473.43,473.43,0,0,1-61.51-156.62c-2.16-10.71,14.19-14.48,16.47-3.28a456.58,456.58,0,0,0,59.34,151.08C1652,685.85,1637.49,694.46,1631.81,685.16Z" transform="translate(-350 -385.83)"/><path d="M1128.72,1003c-40.51-60.9-83.09-126.84-73.85-203,1.37-11.26,18-8.88,16.67,2-8.49,70.5,32.85,134.14,71.15,191.66C1148.85,1003,1134.81,1012.16,1128.72,1003Z" transform="translate(-350 -385.83)"/><path d="M1553.38,3641.83c144.11-114.86,377.92-86.14,462.2-3.28,61.7,60.66,85.82,175.28,5.53,316.68-138,243.14-468.5,381.81-559.67,107.87C1415.5,3925.08,1432.44,3738.23,1553.38,3641.83Z" transform="translate(-350 -385.83)" style="fill:#b0d8ff"/><path d="M1453.48,4065.75c-46.42-139.42-28.83-332.05,94.64-430.48l5.25,6.57-5.25-6.57c148.21-118.17,386.35-88.28,473.37-2.7,64.84,63.77,88.86,182.37,7,326.81C1885.11,4211.57,1546.65,4345.69,1453.48,4065.75Zm105.14-417.35c-117.47,93.64-133.78,278.16-89.2,412,87.78,264,408.68,129.58,544.39-109.36,77.74-136.93,55.69-247.74-4.1-306.54C1926.21,3562.49,1697.6,3537.58,1558.62,3648.4Z" transform="translate(-350 -385.83)"/><path d="M683.52,3919.88c14.55-98.23,70.6-197.83,150.08-258,95.27-72.08,224.55-55.49,329.7-14.41,37.64,14.71,75.17,31.22,106.86,56.3,116.14,91.9,129.38,336.47-98.3,517.51-29.94,23.8-62.33,45.29-98.45,57.84-96.31,33.46-230.09-2.72-307.83-67.61S669.65,4013.59,683.52,3919.88Z" transform="translate(-350 -385.83)" style="fill:#b0d8ff"/><path d="M760.19,4218c-79.06-66-99.46-201.44-85-299.34h0c15.15-102.42,73.9-203.36,153.32-263.42,111.8-84.67,259.65-46.08,337.79-15.54,37.27,14.57,76.31,31.61,109,57.54,95.89,75.86,101.73,224.42,57.94,331.94C1283,4152.66,1159.1,4258.3,1076.16,4287.1,979.71,4320.61,844,4288,760.19,4218Zm78.47-549.38c-76,57.52-132.3,154.26-146.84,252.5h0c-13.81,93.42,5,222.13,79.13,284,70.86,59.11,202.34,100,299.7,66.11,30.25-10.51,60.76-28.45,96-56.47C1389.56,4037.51,1377,3799,1265,3710.41c-31-24.55-68.66-41-104.71-55.06C1054.36,3614,929.72,3599.75,838.66,3668.62ZM683.52,3919.89h0Z" transform="translate(-350 -385.83)"/><path d="M3222.82,2083.05c-9.08-78,17.68-159.38,71.23-216.76a519.88,519.88,0,0,0,78.56,111.06c-20.15-33.4-10.3-76.27,2.66-113.06a851.32,851.32,0,0,1,115.47-219.13C3485,1652,3562,1813,3583.45,1898.45a217.83,217.83,0,0,0,92.4-111.61c106.82,108.62,87.57,407.47-39.35,509.48-50.37,40.48-136.35,45.57-198,32.58C3324.19,2304.79,3236.1,2197.11,3222.82,2083.05Z" transform="translate(-350 -385.83)" style="fill:#f6d356"/><path d="M3458.08,2241c-41.92-5.17-72.38-30.72-102.15-58.14-14.44-13.3-24.23-30-30.44-48.55-2.2-6.55-5.54-45.39-8.12-46.94a834.19,834.19,0,0,1,104,74.14l45-180.67a637.28,637.28,0,0,1,50.15,132c16.26-53,79-76.19,109.48-122.47,11.36,65.46,17.93,158.53-28.09,206.44C3572.77,2222.88,3512.89,2247.71,3458.08,2241Z" transform="translate(-350 -385.83)"/><path d="M2329.16,4119.86c-23.06,0-45.92-13.59-56.91-33.88-5.27-9.8,9.49-17.77,14.76-8,12.2,22.52,41.08,29.24,52.49,23.08,4-2.19,18.67-16.42,23.75-27.29,5.84-12.49,4.07-30.86-5.25-54.62-47.4-120.46-102.32-243.89-205.82-313.4-8.59-5.79-25.06-13.53-32.18-5.66-8.55,9.4,5.11,30.47,2.5,50.22-3.58,27-40.68,40.24-60.56,22.08-8.22-7.43,3.08-19.92,11.28-12.4,10,9.11,30.83,1.53,32.61-11.89,2.24-16.76-14.67-41.25,1.71-59.29,13.94-15.23,37-8.45,54,3,107.5,72.2,163.69,198.27,212,321.2,19.54,49.68,8.36,70.75-15.87,94.66-8.11,8-14.58,12.17-28.35,12.2Z" transform="translate(-350 -385.83)"/><path d="M586.23,4124c-15.26-1.74-34-5.71-43.14-21.05-13.62-22.89,2.23-68.3,41.27-85.52,31.58-13.91,64.27-5.56,92.57-17.22,10.27-4.23,16.72,11.24,6.43,15.52-30.45,12.55-65.32,5.23-92.25,17.07-30.5,13.47-41.66,48-33.59,61.54,5.38,9,19.19,11.66,30.61,13a463.92,463.92,0,0,0,92.18,1.23c11.17-.84,12.43,15.8,1.44,16.73A481.87,481.87,0,0,1,586.23,4124Z" transform="translate(-350 -385.83)"/><path d="M1415.85,4269.19c-9-6.46.69-20.12,9.78-13.68,22.95,16.43,60.08,9.91,76-14,5.68-8.55,7.35-17.47,4.53-23.87-3.55-7.95-13.85-12.4-24.11-16.25-115.07-43.21-116.54-33.33-249.25-38a8.4,8.4,0,0,1-8.2-8.6c.09-4.61,4.88-8.51,8.59-8.2,131.88,4.87,135.45-5.74,254.76,39.07,10,3.78,26.87,10.09,33.56,25.15C1540,4252.33,1469,4307.06,1415.85,4269.19Z" transform="translate(-350 -385.83)"/><path d="M792.8,4074.64a81.16,81.16,0,0,1-45-34.23c-5.9-9.43,8.3-18.29,14.24-8.92a64,64,0,0,0,35.56,27.05,10.93,10.93,0,0,0,2.16.49c-.43,0,.36-1.13.76-1.68,46.79-63.18,142.43,21.13,167.23-58.52,8.73-28,34.09-49.7,63.12-53.9,11.15-1.61,22.21-.82,29.59-5.51,20.62-13,2.49-56.39,22.93-83.06,13-16.93,20.11-9.54,15.38-53a203.44,203.44,0,0,1,26.31-121.18c5.44-9.59,20.15-1.27,14.5,8.43-33.28,57.38-23.44,112.14-23.62,115.55,2.68,24.61,2.71,38.33-14,54.75-11.59,11.38-12.28,19.77-13.16,42-.72,18.47-1.54,39.41-19.35,50.67-11.54,7.28-25.18,6.34-36.15,7.94-22.44,3.23-42.78,20.61-49.54,42.25-29.47,94.93-131.66,12.09-169.7,63.47C808.49,4074.88,802.89,4077.58,792.8,4074.64Z" transform="translate(-350 -385.83)"/><path d="M894.43,4212.34c-7.78-8.2-15.82-16.67-21.16-27.46-6.53-13.2-7.22-27.23-1.87-38.46,6.79-14.36,19.7-19.52,25.45-30.07,5.92-11,3-25.93,11.62-39.59,6.08-9.41,20.09-.37,14.23,8.95-5.73,9.13-4,25.53-11.09,38.65-13.17,24.38-51.32,27.64-5,76.4C914.24,4208.8,902.16,4220.38,894.43,4212.34Z" transform="translate(-350 -385.83)"/><path d="M1001.83,4155.62l2.2-3c18.58-24.86,16.66-30.42,1.6-47.91-17.62-20.39-20.87-32.35-5.48-55.7l33.4-50.5c6.28-9.3,20.11.07,14,9.25-41.76,66.53-50.47,61.42-29.23,86,21.71,25.2,21.07,39.54-.85,68.93l-2.17,2.9c-6.79,9.15-12.63,22.42-6.89,29.77a8.38,8.38,0,0,1-1.41,11.79C995.73,4216,976.41,4190,1001.83,4155.62Z" transform="translate(-350 -385.83)"/><path d="M1131.5,4156.41a391.77,391.77,0,0,1-68.39-35.81c-9.35-6.09,0-20.17,9.18-14,55.86,36.66,75.8,31.18,70.14,45.19A8.4,8.4,0,0,1,1131.5,4156.41Z" transform="translate(-350 -385.83)"/><path d="M1543.73,4112.89c16.27-68.9,68-91.44,71.8-98.2,5.31-9.6-19.57-51.34,57.81-86,37.23-16.56,53.4-25.94,60.29-44.93,5.62-15.44,3-37.1,17.81-51.5,21.93-21.3,78.5-8.41,94.87-175.52,1.12-11.2,17.83-9.39,16.74,1.64-3.19,32.51-6.5,66.12-18.21,98.1-13.39,36.5-36.45,64.33-64.95,78.4-18.68,8.76-21.74,9.47-25.92,34.78-7.63,47.54-33.69,54.76-73.74,74.35-18.18,8.13-48.52,25.55-47.83,51,.12,7.06,3.21,18-2.2,27.8-3.25,5.79-8.53,9.28-12.76,12.09a136.73,136.73,0,0,0-57.38,81.79C1557.47,4127.63,1541.15,4123.64,1543.73,4112.89Z" transform="translate(-350 -385.83)"/><path d="M1698.56,4105.35c13.08-23.72,40-54.15,29.69-70.35-3.3-5.16-10.72-9.34-14.7-18-5.9-12.69-.26-26.42,7-35,6.77-8,15-13.1,21.75-19.45,18.34-17.23,25-46.75,15.85-70.17-4.1-10.4,11.69-16.44,15.61-6.14,11.78,30.05,3.58,66.47-20,88.54-8.87,8.35-31.14,21.84-25,35.19,2.15,4.59,9.14,9,13.64,16,15.91,24.95-8.68,52.52-29.62,88.24C1707,4123.65,1692.67,4114.78,1698.56,4105.35Z" transform="translate(-350 -385.83)"/><path d="M4556.37,4403.27c-40.31,24.19-98.42,30.23-130.67-4.37-17.13-18.47-30.23-48.7-55.42-46-12.1,33.93-11.76,72.23-27.21,104.81-24.19,50.72-84,77.6-140.09,75.58-37.95-1.34-84-13.77-115.21-36.61-10.08-7.39-39.64-53.75-51.74-52.41-10.07,1.35-28.21,60.47-38.29,72.9-23.18,27.88-57.77,49.71-94.39,53.07-226.75,19.49-365.15-374.88-267.06-541.5,57.78-97.41,209.62-132.69,290.23-55.76-10.63-.89-13.69,12.87-4.36,16.46,20.49,7,36.61,28.89,40.65,55.76,4,24.86-1,50.73-7.06,77.26-2.49,11.61,14.28,14.17,16.13,4,6.71-28.55,12.09-56.09,7.72-84-5-30.23-22.51-55.76-46-66.51-4-81.29,44.34-160.9,114.55-201.88,136.7-79.59,325.06-13.89,366.15,97.75,20.16,54.42,19.82,113.54,4.37,169.3-62,14.88-102.73,63.45-141.76,113.54-7.18,8.77,6.29,18.57,13.1,10.42,38.1-48.44,83.56-103.93,148.47-110.19a8.09,8.09,0,0,0,7.4-9.06c0-.68,0-1.35-.68-1.69,80.63-4,162.59,46.36,192.49,121.94C4670.92,4250.76,4634.64,4356.91,4556.37,4403.27Z" transform="translate(-350 -385.83)"/><path d="M1432.85,3928.58c-35-27.67-75.36-.84-77.09.34-9.26,6.19-18.57-7.59-9.48-13.86,17.81-12.26,61.08-28,97,.33C1452,3922.27,1441.58,3935.46,1432.85,3928.58Z" transform="translate(-350 -385.83)"/><path d="M3673.5,3897.63c-20.8-2-35.47-21.21-51-41.52-14.69-18.84-26-32.56-34.21-48.86-10.37-20.71-27.1-61.67-22.73-103.25,3-27.43,12.23-39.4,45.79-46.78a1318.4,1318.4,0,0,1,173.21-27.64c29.84-3.25,68.57-9.93,83.58,16,22.77,39.43-26.47,90.79-50.91,123.53a736.59,736.59,0,0,1-102.84,111.35C3702.72,3890.74,3688.82,3899.12,3673.5,3897.63Zm112.71-251.33c-87.33,7.9-145.39,22.31-171.21,27.31-26.9,5.95-30.64,12.35-32.73,32.16-4,37.32,11.48,74.88,21,93.95,7.28,14.51,16.84,26.07,32.55,46.19,24.53,32,37.69,48.12,67.44,22,57.45-50.58,85.1-90,110.82-121.94,20.14-25.06,53.86-67,39.46-92C3844.13,3637.62,3810.1,3643.71,3786.21,3646.3Zm-173,19.11h0Z" transform="translate(-350 -385.83)"/><path d="M3086.94,4293.4q302.54-178.74,593.15-378.14c37.22-25.55,45-41.29,29.87-91.45-19.78-65.61-55.17-144-123.64-146.75-21.58-.85-42.51,6.68-62.76,14.21-172.24,64-341.62,135.2-509.48,210-16.79,7.49-34.75,18.13-35,38.46-.52,36.93,57.76,1.41,89.18,30.66,13.45,12.51,16.42,33.36,11.73,51.11-8.4,31.79-53.84,79.28-77.46,102.08-11.38,11-24.27,24.58-21.15,40.08,3.38,16.82,24,24.17,41.11,22.67s33.63-8.6,50.76-7.65,35.76,15.23,31.87,31.94c-2.88,12.36-15.94,18.91-27.11,24.94s-23.17,16-21.29,28.58C3058.59,4276.85,3074.55,4289.91,3086.94,4293.4Z" transform="translate(-350 -385.83)" style="fill:#f6d356"/><path d="M2790,4462.33q58.05-31.77,115.71-64.29c14.78-8.33,91.21-40.65,73.7-69.37-6.18-10.13-20.59-7.14-28.86-6.06-19,2.47-23.24-10.06-13.37-19.92,3.62-3.62,8.15-6.41,10.95-10.69,17.17-26.19-34.79-37.06-46.83-45.22-9.83-6.66-12.22-20.64-9.11-32.09s10.53-21.17,17.17-31c16-23.78,43.18-69.52,23.3-89.91-11.69-12-39.62-12.3-56.4-8.39-5.77,1.34-11.68,3.28-17.49,2.13-12.88-2.55-18.24-19.29-14.34-31.83,7.69-24.75,41.09-40.77,34.25-68.3-8.48-34.1-61.77,3.47-77.72,10.85-103.25,47.81-206.49,96.59-309.11,145.09-116.61,55.1-244,138.75-205.53,287.31,23.24,89.76,106.06,173.71,202.54,168.18C2591.79,4592.9,2703.17,4509.82,2790,4462.33Z" transform="translate(-350 -385.83)" style="fill:#f6d356"/><path d="M3785.29,3637.94c26.36-2.82,63.19-9.54,75.55,11.85,7.5,12.18,2.88,28.29-2.76,41.69-6.55,15.9-15.65,37.4-27.52,60.56-21.32-16.89-31.61-64.5-41.47-88.32-2.83-7.13-6-14.62-5.13-22.34A5.73,5.73,0,0,1,3785.29,3637.94Z" transform="translate(-350 -385.83)"/><path d="M2533.37,4547.45c7.84-30.62-4.2-65.28-37.79-109.07-40-52.16-80-88.2-122.39-110.19-9.86-5.13-2.09-20,7.74-14.89,44.58,23.12,86.44,60.7,128,114.84,23.29,30.35,52.85,76.16,40.74,123.48C2546.84,4562.41,2530.63,4558.18,2533.37,4547.45Z" transform="translate(-350 -385.83)"/><path d="M3049.33,4444.09c4,7.73,2.25,17,1.79,25.73-1.15,21.36,9.4,45.53,30.05,51.13,6.31,1.71,13.07,1.57,19.22,3.78,17.82,6.42,23.25,31.12,14.78,48.07s-26.29,27.1-44,33.79c-67.28,25.39-120.3-15.37-121.35-86.41C2949.31,4486.54,3022.81,4393.34,3049.33,4444.09Z" transform="translate(-350 -385.83)" style="fill:#f6d356"/><path d="M3259.65,4372.25c8.65,13.05,18.74,28,34.31,29.69,12.13,1.34,25-6,36.13-.95,16.49,7.49,18.59,38.8-19.13,51.64s-103.46-3.87-117.17-46.65C3179,4359.71,3230.14,4327.76,3259.65,4372.25Z" transform="translate(-350 -385.83)" style="fill:#f6d356"/><path d="M725.19,3527.76c-231.55-112.62-278.74-422.19-152.54-526.5-78.34-215.42,76.28-506.07,250.79-658.37,8.36-7.28,19.43,5.35,11,12.66a816.59,816.59,0,0,0-230.81,337.87c-40.16,111.56-46,214.32-16.87,297.46,70.17-45.63,146.74-14.39,150.84,36.72,4.77,59.07-103.18,108.92-158.15-9.87-108.65,95.82-69.4,386.7,153.06,494.94C742.59,3517.54,735.05,3532.69,725.19,3527.76ZM593.12,3007.1c22.38,51.11,68.81,87.36,112,53.72C755.57,3021.46,678.45,2948.6,593.12,3007.1Z" transform="translate(-350 -385.83)"/><path d="M3629.57,1602.69A1020.74,1020.74,0,0,1,3668.74,1355c3-10.77,19.2-6,16.14,4.63a1003.21,1003.21,0,0,0-38.51,243.59C3646,1614.47,3629.18,1613.82,3629.57,1602.69Z" transform="translate(-350 -385.83)"/><path d="M3723.69,1658c101.69-120.54,207.91-240,315.67-355.2,7.48-8.1,19.92,3.32,12.27,11.48-107.56,114.94-213.59,234.24-315.08,354.55C3729.47,1677.17,3716.5,1666.54,3723.69,1658Z" transform="translate(-350 -385.83)"/><path d="M3833.15,1779.55a2126.59,2126.59,0,0,0,251-104.28c10-4.87,17.38,10.15,7.41,15.06a2139.1,2139.1,0,0,1-252.92,105.1C3827.91,1799.06,3822.79,1783.07,3833.15,1779.55Z" transform="translate(-350 -385.83)"/></g></svg>