<svg id="Layer_1" data-name="Layer 1" xmlns="http://www.w3.org/2000/svg" viewBox="0 0 481.45 419.83"><path d="M484.35,319.88c1.23,7,1.2,7-5.79,9.46-1.64-1-2.05-2.69-2.32-4.33-.93-5.6-4.25-10.59-4.19-16.44,1.56-2.39,4.48-2.84,6.51-4.57C481.61,308.88,482.45,314.58,484.35,319.88Z" transform="translate(-16.92 -51.94)" style="fill:#ee9912"/><path d="M16.92,234.34l.9,0c-.23,1.9.78,4-.9,5.68Z" transform="translate(-16.92 -51.94)" style="fill:#ebeced"/><path d="M196.49,51.94C209.27,59.43,222,67,234.85,74.4q32.84,19,65.76,37.88c12.47,7.14,25,14.09,36.83,22.35,18.69,13.1,34.74,29,48.84,46.84,10.59,13.42,19.09,28.16,26.83,43.35a18.9,18.9,0,0,0,3.77,4.74c13.52,13.52,27.24,26.83,40.48,40.62A92.93,92.93,0,0,1,478.56,304c-.85,3.35-4.51,3.25-6.43,5.27-4.23,2.05-8.11,4.69-12.17,7-1.58.89-3,2.36-5.11,1.88-6.1-9.65-11.56-19.67-17.15-29.61-10.42-18.55-21.08-37-31.39-55.57q-15.82-23.47-31.63-47c-5-7.43-12.26-11.34-21.34-11.59-5.83-.41-11,1.55-15.88,4.47-5.72,3.44-11.57,6.64-17.25,10.15C298,202.6,275.31,215.22,253,228.58c-8.35,5-14,11.86-15.4,21.82a26.29,26.29,0,0,0,3,15.87c7,13.84,15,27.09,22.41,40.73,1.12,2.07,2.27,4.11,3.3,6.22,10.57,8.58,21.79,16.3,32.7,24.43q25.82,19.23,51.71,38.36a3.15,3.15,0,0,1,1.13,1.46c-9,6.67-18.09,13.08-29.16,15.89a4.42,4.42,0,0,1-1.87-.13,3.87,3.87,0,0,1-1.29-.55c-4.66-7.39-8.08-15.53-13.74-22.32A202.64,202.64,0,0,0,289,352.16c-10.74-10.05-21.05-20.57-31.24-31.18-3.93-4.08-5.85-9.6-8.48-14.55C228.12,266.85,198,236.21,159,214S81.15,169.24,42.29,146.73c-1.48-.86-3.13-1.57-3.29-3.63.56-2.26,2.57-3.06,4.29-4,37.94-21.93,75.78-44,113.76-65.91,10.44-6,20.8-12.16,31.25-18.18,2-1.18,4.3-1.82,6.31-3Z" transform="translate(-16.92 -51.94)" style="fill:#eff5f7"/><path d="M39.46,143.18c6.39,5,13.73,8.51,20.69,12.58,20.07,11.74,40.26,23.27,60.4,34.89,16.35,9.44,32.83,18.67,49,28.38a207.42,207.42,0,0,1,45.81,37.62c12.92,14,24.33,29.26,33.18,46.22,5.3,10.17,11,19.83,19.86,27.5,8.5,7.36,16.11,15.7,24.21,23.5C304,364.81,314,377,319.68,392.14c-1.79,1.81-3.5.49-5.13-.23-4.73-2.08-8.95-5.11-14.1-7.62a17,17,0,0,0,1.64,8.21c4.83,11.09,13.26,17.84,25.15,20.19a16.43,16.43,0,0,0,9.48-2.1c8.22-4.78,16.65-9.23,24.68-14.35,29.54-16.83,58.85-34.08,88.33-51,9.72-5.16,19.18-10.74,28.52-16.54,4.68-1.1,5.64-4.78,6.1-8.8,3.19,1.62,6.43,3.17,9.55,4.91,2.12,1.18,4.06,3,4.13,5.43.37,11.37,1.37,22.8-3.81,33.61s-13.77,17.41-23.73,23.11c-27.93,16-55.72,32.19-83.58,48.28-10.68,6.17-21.16,12.78-32.17,18.3-14.85,7.45-30.33,7.68-45.82,1.55-1.7-.67-3.24-2-5.18-.7-4-3.39-9.47-4.7-12.95-8.89a93.1,93.1,0,0,0-8.27-47c-6.08-13.52-13.94-25.88-26.06-35a39.48,39.48,0,0,0-16.86-7.81c-8.06-1.45-14.49,1.16-19.41,7.51-5.52,7.12-7.07,15.49-7.46,24.25-.17,3.82,1.12,7.82-1.13,11.45-8.58-4.08-16.55-9.22-24.76-13.94-21.47-12.34-42.88-24.78-64.36-37.1-2.27-1.31-4.22-3.31-7-3.56-4.59-1-8.15-3.89-11.88-6.46a5.38,5.38,0,0,1-1.14-4.41c1.88-14.88-1.63-28.94-7.17-42.5C88.64,274.7,79.2,260.5,64.17,250.73a33.16,33.16,0,0,0-13-5.16c-8-1.27-14.51,1.25-19.33,7.72-4.93,6.62-7,14.17-7.18,22.4-.08,3.47,1.2,7.2-1.32,10.38a112,112,0,0,0-6.44-21.65V240c1-1.94.25-4,.48-6,0-20.18,6.23-38.75,14.66-56.72a25.63,25.63,0,0,0,2.47-8.95c.63-7.15,1.69-14.27,1.87-21.47C36.45,145.18,35.85,142.2,39.46,143.18Z" transform="translate(-16.92 -51.94)" style="fill:#dbdbdb"/><path d="M211.6,398.85c0-7.17-.52-14.34.88-21.49,2.52-12.83,9.81-21.41,20.15-23.13,5.77-1,11.16.63,16.28,3.15C261,363.32,269.54,373,276.35,384.2c11.43,18.87,18,39,15.16,61.48,1.6,4.24-.68,7.8-2.09,11.47a37.49,37.49,0,0,1-4.47,7.57c-13.64,11.07-26.21,8-38.63-1.64-17.87-13.91-27.45-33.08-32.85-54.62C212.68,405.3,212.21,402.05,211.6,398.85Z" transform="translate(-16.92 -51.94)" style="fill:#2e373d"/><path d="M23.36,286.07c-.18-8.76-.27-17.5,3-25.86,5.68-14.44,17.79-19.65,32.18-13.82a47.64,47.64,0,0,1,12.69,7.85c9.38,7.87,16.38,17.59,21.73,28.49,8,16.24,12.71,33.2,10.5,51.54a3.94,3.94,0,0,0,1,3.44c-1.93,5.93-3.56,12-7.62,17-13.72,11.09-26.06,8.06-38.27-1.27-17.89-13.65-27.53-32.66-33.06-54C24.38,295.08,24.05,290.53,23.36,286.07Z" transform="translate(-16.92 -51.94)" style="fill:#2e373d"/><path d="M285,464.72c-1.19-1.39.15-2.27.75-3.17a37.06,37.06,0,0,0,5.81-15.87c3.49,2,7,4,10.45,6,.93.56,2.59.83,1.78,2.65Z" transform="translate(-16.92 -51.94)" style="fill:#242a2f"/><path d="M96.83,354.68c2.57-5.65,3.83-11.87,7.62-17a53.16,53.16,0,0,1,11,6.54Z" transform="translate(-16.92 -51.94)" style="fill:#242a2f"/><path d="M407.08,232.46c5.91,10.24,11.86,20.46,17.73,30.73q13.54,23.76,27,47.59c1.29,2.29,2.85,4.5,3.22,7.22-.4,1.49-1.73,2-2.84,2.77q-48.63,28-97.26,56.08c-1.06.44-2.1,1-3.29.43-7.52-3.58-13.48-9.37-20.12-14.18-22-16-43.89-32.19-65.8-48.32-.22-.16-.27-.54-.4-.81,9.48-6.68,19.83-11.92,29.82-17.75q40-23.3,80-46.43,13.81-8,27.64-16C404.08,233.06,405.33,231.88,407.08,232.46Z" transform="translate(-16.92 -51.94)" style="fill:#dbdbdb"/><path d="M407.08,232.46l-86.55,50.33q-25.29,14.7-50.61,29.33c-1.42.81-2.67,2.27-4.62,1.85q-11.88-21.56-23.75-43.09c-10-18.13-5.74-33.76,12.13-44.14q33-19.2,66-38.44c2.62-1.31,4.43.61,6.38,1.69C348,202.19,369.81,214.66,392,227.1c-11.41-15.29-21.34-31.21-32.93-46-1.94-2.46-5.41-3.95-5.48-7.76,8.9.08,16.25,3.73,21.21,10.9C385.79,200.17,396.34,216.38,407.08,232.46Z" transform="translate(-16.92 -51.94)" style="fill:#304e75"/><path d="M353.56,173.38c15.69,17,27.13,37.08,40.33,56.11C381.2,222.32,368.56,215,355.79,208c-12-6.61-23.52-14.11-36.07-19.72a204.88,204.88,0,0,1,22.07-13A18.86,18.86,0,0,1,353.56,173.38Z" transform="translate(-16.92 -51.94)" style="fill:#59718a"/><path d="M351.62,377.28l2.8-1c5.91.05,8.56,2.2,8.77,7.86.16,4.3,1.12,8.77-1.21,12.87-8.43,5.89-17.64,10.47-26.57,15.51a14,14,0,0,1-8.19,1.41c-3-7-6.3-13.83-6.8-21.57a15.61,15.61,0,0,0,8.57-2C336.57,386.1,344.08,381.66,351.62,377.28Z" transform="translate(-16.92 -51.94)" style="fill:#fefefe"/><path d="M452.21,319.88,455,318c5.69-3.12,10.71-7.45,17-9.43,3.29,6.57,4.79,13.71,6.51,20.77-5.66,4.9-12.6,7.75-18.86,11.68-3,1.88-6.23,3.45-9.36,5.17C449,345,449,343.46,449,341.93c-.12-5.09-.09-10.18,0-15.28C449,323.88,449.82,321.51,452.21,319.88Z" transform="translate(-16.92 -51.94)" style="fill:#fefefe"/><path d="M320.42,392.36c2.59,7.08,5.59,14,6.8,21.57-11.43-.68-29-14.44-28-31.8,4.21,2.41,8.19,4.75,12.22,7,2.56,1.43,5,3.23,8.19,3A1,1,0,0,0,320.42,392.36Z" transform="translate(-16.92 -51.94)" style="fill:#ee9910"/><path d="M242.22,317.18c-33-18.63-65.75-37.13-98.52-55.56-1.84-1-2.69-2.15-2.66-4.36.11-11.41.05-22.83.05-34.22.46-.09.84-.29,1-.17,18.25,10.83,37.65,19.8,54.29,33.24a95.33,95.33,0,0,1,17.75,19.28q13.44,18.93,26.7,38C241.53,314.33,242.71,315.14,242.22,317.18Z" transform="translate(-16.92 -51.94)" style="fill:#243b58"/><path d="M127.2,252.2c-9.6-5.39-18.44-10.34-27.27-15.32-16.21-9.15-32.36-18.42-48.68-27.39-3.27-1.8-3.39-3.32-2.12-6.52,3.63-9.09,9.43-15.37,19.45-17.05a20.9,20.9,0,0,1,14.06,2.51c14.16,8,28.21,16.22,42.34,24.3a3.81,3.81,0,0,1,2.25,3.69C127.17,228,127.2,239.58,127.2,252.2Z" transform="translate(-16.92 -51.94)" style="fill:#243b58"/><path d="M452.21,319.88c-2.34,3.32-1.89,7.12-1.88,10.85q0,7.72,0,15.46-34.35,20-68.73,39.91c-6.48,3.75-13.08,7.28-19.63,10.91,0-3.07,0-6.15,0-9.23,0-8.46,0-8.46-7.54-11.5,9.46-6.6,19.74-11.81,29.68-17.6,19.77-11.53,39.63-22.9,59.47-34.29C446.39,322.77,449.33,321.38,452.21,319.88Z" transform="translate(-16.92 -51.94)" style="fill:#eff5f7"/><path d="M271.86,423.38c-.51,7.47-1.07,14.3-8,17.27-7.09,3.05-12.87-.88-17.58-5.72-10.1-10.36-15.18-22.84-14.06-37.44,1-12.69,10.9-17.55,21.12-10.1C265.75,396.41,270.67,409.47,271.86,423.38Z" transform="translate(-16.92 -51.94)" style="fill:#cdcdcd"/><path d="M83.71,314c-.62,6.87-1.12,13.71-8,16.71s-12.56-.75-17.23-5.43C48.21,315,43.1,302.56,44.06,287.94c.37-5.53,2.06-10.6,7.56-13.13s10.24-.21,14.37,3.08C77.65,287.16,82.55,299.84,83.71,314Z" transform="translate(-16.92 -51.94)" style="fill:#cdcdcd"/><path d="M262.47,418.44c0,3.71,0,7.69-4,9.31s-7.29-.5-10-3.46c-5.42-6-8.38-12.8-6.94-21,1.07-6.09,5.63-8.07,10.7-4.51C259,403.53,262,410.39,262.47,418.44Z" transform="translate(-16.92 -51.94)" style="fill:#627681"/><path d="M74.32,307.43c0,4.84-.4,8.22-3.65,10.06s-6.1.35-8.74-1.52c-5.75-4.05-10.35-15.67-8.85-22.18,1.6-7,6.56-8.77,12.07-4.23A24.94,24.94,0,0,1,74.32,307.43Z" transform="translate(-16.92 -51.94)" style="fill:#627681"/><path d="M103,246.63q1.42,45,2.83,89.91,57.47,31.68,113.66,65.51,3-45.84,6.1-91.69" transform="translate(-16.92 -51.94)" style="fill:#627681;opacity:0"/><path d="M124,317.2q23.67,13.11,47.17,26.53a7.48,7.48,0,0,1,2.44,10.53,8.06,8.06,0,0,1-10.52,2.68q-23.39-13.26-46.95-26.2a7.68,7.68,0,0,1-3.32-10.52,8.1,8.1,0,0,1,10.84-3.2Z" transform="translate(-16.92 -51.94)" style="fill:#22c55e"/><path d="M186.44,320q-23.81-13.8-47.78-27.27A7.55,7.55,0,0,1,136,282.12a8.37,8.37,0,0,1,10.9-2.59q24.09,13.64,48,27.61a7.36,7.36,0,0,1,2.89,10.39,8.25,8.25,0,0,1-10.95,2.7Z" transform="translate(-16.92 -51.94)" style="fill:#f43f5e"/><path d="M186.93,345.48q-14.4-8.34-28.85-16.58a7.51,7.51,0,0,1-2.56-10.58,8.19,8.19,0,0,1,10.72-2.59q14.52,8.34,29,16.78a7.39,7.39,0,0,1,2.85,10.36,8.14,8.14,0,0,1-10.81,2.8Z" transform="translate(-16.92 -51.94)" style="fill:#facc15"/><path d="M204.52,356.29h0A7.37,7.37,0,0,1,201.73,346a8.1,8.1,0,0,1,10.83-2.7,3.37,3.37,0,0,1,.32.19h0a7.3,7.3,0,0,1,2.21,10.43A8.13,8.13,0,0,1,204.52,356.29Z" transform="translate(-16.92 -51.94)" style="fill:#3b82f6"/></svg>