<svg id="Layer_1" data-name="Layer 1" xmlns="http://www.w3.org/2000/svg" viewBox="0 0 4182.73 4300"><g id="_50" data-name="50"><path d="M2798,4048.25H1644.55c-27.82,27.16-55.31,55-82.8,82.8H2798Z" transform="translate(-408.64 -350)"/><path d="M2824.28,4056.64c-1236.93-3.91-1188.11,8.14-1188.11-8.38s-53.91-4.47,1188.11-8.39C2835.37,4039.87,2835.36,4056.64,2824.28,4056.64Z" transform="translate(-408.64 -350)"/><path d="M933.08,3804.47c-10.61-44.46-15.72-91.14-19.65-135-47.93-558.78-54.24-1126.22-56.37-1614.24,1.6-118.66-11.39-258.75,65.38-361.09a22.64,22.64,0,0,1,2.78-3.56c65.92-84.27,167.52-106.77,274.94-109.42,1279.71,8.15,175.75,2.29,2851.41,0,109.25,0,198.14,85.43,198.14,190.43V3753.9c0,11.1-16.77,11.09-16.77,0V1771.63c0-95.76-81.35-173.66-181.37-173.66-2367.27,2-1698.1,8.25-2851.22,0-104.53,2.58-198.4,23.36-262.66,103.81-.1.15-1.73,2.32-1.83,2.45-72.85,97.15-60.54,236.44-62,351C876,2542.88,882.23,3109.92,930.13,3668c3.86,43.17,8.87,89.13,19.25,132.54C952,3811.32,935.65,3815.29,933.08,3804.47Z" transform="translate(-408.64 -350)"/><path d="M1739.42,2059.93c-103.62-13.49-149.18-14.46-149.18,88.51,0,53,18.66,86,72.08,84.48,38.34-1.24,86.94-29.35,101.58-49.61,12.4-18.11,13.41-41.58,13.74-66.38C1777.64,2067.28,1762.83,2063.13,1739.42,2059.93Zm0,0c-103.62-13.49-149.18-14.46-149.18,88.51,0,53,18.66,86,72.08,84.48,38.34-1.24,86.94-29.35,101.58-49.61,12.4-18.11,13.41-41.58,13.74-66.38C1777.64,2067.28,1762.83,2063.13,1739.42,2059.93Zm2016.82-227H2763.59c-420.4,0-842.13,9.73-1262.19,0h-34.53c-217.79,5.32-269.72,117.77-268.86,322.17,2.88,364.78,2.26,747.91,33.19,1189.78,9.83,0,25.41,8.31,34.53,28.16,86.09-105.18,223-263.65,341.27-307.42,53-19.44,99.23-12.07,102.59,68.05,1.71,47.06-25.41,89.39-54.65,127.06-62,80.46-87.16,113.32-125,156.22,43.58-8,94.2,6.37,105.26,53.64,8.72,36.54-6,74.42-20.11,109.29,38.55-24.81,95.54-14.75,123.7,21.79,26.15,33.86,23.8,86.16-4,118.34,23.8-21.12,65.71-16.09,87.83,8,18.78,20.12,24.81,49,21.79,76.78h1818c136.11,0,246.4-105.6,246.4-236V1979.14C3908.77,1898.35,3840.38,1833,3756.24,1833ZM1484,2056.92c-25.48,26.49-50.29,54.31-74.42,83.14q30.17,39.22,61.34,77.44c7.27,8.86-6.14,19.05-13.07,10.72-20.11-24.47-39.56-49.61-59-74.75-53.11,64.14-49.09,69.06-57.66,69.06-7.87,0-10.34-8.08-6.71-13.08,17.1-23.8,35.2-46.93,54-69.73-17.1-22.79-33.86-45.59-50.29-68.72-6.48-8.9,7.26-18.18,13.41-9.73,15.42,21.79,31.51,43.59,47.94,65,23.13-27.82,47.27-55,72.41-81.13C1478.77,2037.54,1491.66,2048.36,1484,2056.92ZM1777.64,2193c-17.32,24.59-71,55.41-114.65,56.65-3.45-2-101.8,15.68-88.17-127.39,8.92-95.51,71.92-91.17,166.61-78.78,32.76,3.78,53,16,53,73.42C1794.07,2143.41,1792.73,2170.9,1777.64,2193ZM2071,2121c-65.57-14.85-144.18,18.32-207.18,9.72-11.31-.81-8.9-18.05,1.67-16.42,70.71,7,139-25.59,209.19-9.73C2085.26,2107,2081.41,2123.36,2071,2121Zm-331.56-61c-103.62-13.49-149.18-14.46-149.18,88.51,0,53,18.66,86,72.08,84.48,38.34-1.24,86.94-29.35,101.58-49.61,12.4-18.11,13.41-41.58,13.74-66.38C1777.64,2067.28,1762.83,2063.13,1739.42,2059.93Z" transform="translate(-408.64 -350)" style="fill:#2c56fe"/><path d="M3470.79,2574.52H3057.31a65.68,65.68,0,0,1-65.61-65.61V1348c0-11.1,16.76-11.09,16.76,0V2508.91a48.9,48.9,0,0,0,48.85,48.85h413.48C3481.88,2557.76,3481.88,2574.52,3470.79,2574.52Z" transform="translate(-408.64 -350)"/><path d="M2003.16,3086.29H1748.3c-11.09,0-11.09-16.77,0-16.77h254.86c70.42,0,126.73-55,128.21-125.27,35.52-1675,57.81-1677.58,69.83-1679a8.39,8.39,0,0,1,6.61,14.52c-15.94,41-38.73,676.86-59.68,1664.81C2146.46,3024.05,2082.78,3086.29,2003.16,3086.29Z" transform="translate(-408.64 -350)"/><path d="M2570,3438.37l25.76-2140.14c.17-11.79,16.92-10.38,16.77.2l-25.77,2140.14C2586.63,3449.77,2569.87,3449.48,2570,3438.37Z" transform="translate(-408.64 -350)"/><path d="M3389.94,2485.21c35.73-36.54,99.35-44.19,139.34-12.37,88.38,70.33,6.82,215.89-90.58,206.17C3344.32,2669.59,3334.5,2541.92,3389.94,2485.21Z" transform="translate(-408.64 -350)" style="fill:#5fff9f"/><path d="M2455.17,3284.48c68-69.54,189.06-84.09,265.15-23.53,52,41.35,77.68,111.37,70.57,177.4-13.59,126.22-136.28,225.55-242.93,214.91C2368.35,3635.33,2349.67,3392.4,2455.17,3284.48Z" transform="translate(-408.64 -350)" style="fill:#5fff9f"/><path d="M1889.61,3037.84c-9.6,89-101.28,170-189.75,149.18,6.71-17.1,10.4-34.87,9.73-53.31-3.36-80.12-49.62-87.49-102.59-68.05-4.35-49.62,11.4-102.59,44.93-136.78C1741.06,2837.89,1904.93,2894.81,1889.61,3037.84Z" transform="translate(-408.64 -350)" style="fill:#5fff9f"/><path d="M2016.15,1256.49c-171.52-70.75-216.94-302.85-102.28-411,35.07-33.07,85.94-50.66,133-40.28-29.76-95.13,78-229.38,178.57-253.06,59.23-13.94,128.78,7.12,159.9,59.41-10.08-156.17,233.32-325.37,464.39-237.43C2976.32,422.32,3071.8,544,3088.53,678.37c47.83-32,116.44-10.69,166.81,17.19,125.45,69.41,192.29,227.28,161.6,367.33s-152.6,253.59-293.26,281.38-292.95-27.88-388.25-135c-30.88,86.11-116.81,149.51-208.19,153.62s-182.66-51.32-221.14-134.3C2245.3,1289,2095.4,1289.18,2016.15,1256.49Z" transform="translate(-408.64 -350)" style="fill:#b0d8ff"/><path d="M2526.19,1028.51c-136.92-93.45-139.53-295,74.52-368.48,10.32-3.69,16,12.21,5.43,15.84-62.07,21.33-112.49,58.82-138.32,102.87-43.11,73.46-19.14,176.55,67.8,235.93C2544.75,1020.91,2535.37,1034.77,2526.19,1028.51Z" transform="translate(-408.64 -350)"/><path d="M2598.81,704.44a55,55,0,0,0,11.29-29.35,7.14,7.14,0,0,0,0-2.31c.1.42-1.18-.18-1.61-.38a159.32,159.32,0,0,0-31.69-9.79c-10.88-2.17-7.61-18.73,3.28-16.43A176.92,176.92,0,0,1,2615.11,657c8.67,3.8,12.48,9.14,11.69,19.34A71.39,71.39,0,0,1,2612,714.72C2605.29,723.48,2592,713.2,2598.81,704.44Z" transform="translate(-408.64 -350)"/><path d="M2677.05,1045.9c-10.84-1-9.74-17.52,1.57-16.7,62.34,5.88,127.32-26.58,161.31-80.65,71.78-114.32-4.88-269.24-146.74-282.7-10.84-1-9.69-17.41,1.57-16.69,69,6.54,134.1,49.69,165.89,109.92,32.77,62,30.18,139.92-6.52,198.37C2817.16,1016.33,2746.3,1052.27,2677.05,1045.9Z" transform="translate(-408.64 -350)"/><path d="M2703.83,1065.1a157.21,157.21,0,0,1-36.67-14.31c-7.23-3.88-10.9-8.92-10.9-15,0-11.79,20.81-27.79,31.17-33.52,9.69-5.36,17.82,9.31,8.12,14.67a73.85,73.85,0,0,0-21.71,18.33c-3.35-2.66,9.14,7.29,34,13.54C2718.59,1051.52,2714.67,1067.68,2703.83,1065.1Z" transform="translate(-408.64 -350)"/><path d="M2293,1236.76a270.77,270.77,0,0,1,8.22-118.82c3.14-10.63,19.27-5.8,16,4.81a254.13,254.13,0,0,0-7.69,111.43C2311.25,1245.1,2294.71,1247.74,2293,1236.76Z" transform="translate(-408.64 -350)"/><path d="M2113.56,919.27c-3.44-22.1-8.68-47.52-21.61-68.56-13.19-21.49-33.33-35.32-53.85-37-10.68-.87-10.14-17.13,1.37-16.69,25.83,2.13,50.78,18.94,66.75,45,14.51,23.57,20.24,51,23.9,74.77C2131.84,927.62,2115.3,930.26,2113.56,919.27Z" transform="translate(-408.64 -350)"/><path d="M3008.17,748.47a205.35,205.35,0,0,1,94.51-80.57c10.2-4.31,16.73,11.16,6.49,15.45a188.32,188.32,0,0,0-86.73,74C3016.53,766.71,3002.37,757.91,3008.17,748.47Z" transform="translate(-408.64 -350)"/><path d="M4563.16,3859.84c-16.43-24.47-41.23-40.56-79.12-42.9-323.76-20.09-694-3.85-1492.16-9.73-71.07-.67-140.13-12.07-204.16,27.16-37.38,22.74-43.35,42.58-45.92,82.13-6.86,125.07-4.38,247,20.78,368.1,4.36,20.11,11.06,40.23,35.54,57.32,50.17,35.34,162.39,30.18,228.63,30.18H4187c112.64,0,242.38,16.09,350.66-21.46,37.55-13.08,50.29-40.9,47.94-77.78C4576,4087,4616.47,3939.32,4563.16,3859.84ZM3441.78,3965.11a63.66,63.66,0,0,1,63.69,63.69,16,16,0,0,1-.66,5.71c0,26.54-25.87,58-63,58-37.59,0-63-32-63-58a15.74,15.74,0,0,1-.67-5.71A63.67,63.67,0,0,1,3441.78,3965.11Zm-218.91-11.06a63.66,63.66,0,0,1,63.69,63.7,15.66,15.66,0,0,1-.67,5.69c-1,28.41-26.89,58-63,58s-62-29.55-63-58a15.66,15.66,0,0,1-.67-5.69A63.67,63.67,0,0,1,3222.87,3954.05ZM3004,3943a63.74,63.74,0,0,1,63.7,64,15.63,15.63,0,0,1-.67,5.69c-2.65,54.31-75.71,79.36-111,35.54-8.72-9.72-14.42-21.79-15.09-35.54a15.63,15.63,0,0,1-.67-5.69A63.73,63.73,0,0,1,3004,3943Z" transform="translate(-408.64 -350)"/><path d="M4484,3733.46c-330.74-20.21-624.72-3.34-1492.16-9.72-71.07-.67-140.13-12.07-204.16,27.15-38,23.14-43.4,43.47-45.92,82.14-6.24,122.38-5.25,246.64,20.78,368.09,4.36,20.12,11.06,40.23,35.54,57.33,23.8,16.76,61,24.47,102.58,27.83,46.84,3.44,11.81,3,1286.32,2.34,112.64,0,242.38,16.09,350.66-21.46,36.36-12.83,50.81-40.54,47.94-77.77C4571,3999.19,4647.13,3743.54,4484,3733.46ZM2940.26,4007a63.7,63.7,0,1,1,127.39,0,15.63,15.63,0,0,1-.67,5.69c-2.65,54.31-75.71,79.36-111,35.54-8.72-9.72-14.42-21.79-15.09-35.54A15.63,15.63,0,0,1,2940.26,4007Zm564.55,27.49c0,26.54-25.87,58-63,58-37.59,0-63-32-63-58a15.74,15.74,0,0,1-.67-5.71,63.7,63.7,0,0,1,127.39,0A16,16,0,0,1,3504.81,4034.51Zm-218.25-16.76a15.66,15.66,0,0,1-.67,5.69c-1,28.41-26.89,58-63,58s-62-29.55-63-58a15.66,15.66,0,0,1-.67-5.69,63.7,63.7,0,1,1,127.39,0Z" transform="translate(-408.64 -350)" style="fill:#f6d356"/><path d="M2096.8,4080.62c-1.07,108.34-2.23,112.29,2.38,123.18,7.42,17.48,28,24.88,46.76,28.07,72.82,12.42,147.06-10.08,215-39.09,25.64-10.95,21.08-13.21,25.76-109.44" transform="translate(-408.64 -350)"/><path d="M3573.29,4332.7c-3.57,15.51-7.16,31.41-5.17,47.21s10.75,31.71,25.46,37.78c6.59,2.71,13.84,3.29,21,3.7a573.57,573.57,0,0,0,161-13.6c18.89-4.35,22.2-9.94,24.64-23q4.46-23.85,6.52-48.07" transform="translate(-408.64 -350)"/><path d="M3966.91,4026.37c-10.85-1.08-9.63-17.53,1.64-16.7a2236.86,2236.86,0,0,0,378.68,4.9c10.87-1,12.42,15.89,1.18,16.73A2254.62,2254.62,0,0,1,3966.91,4026.37Z" transform="translate(-408.64 -350)"/><path d="M2184,4601.9c-14.43-9.24-31.88-22.46-38.53-42.78-19.8-60.23,52.11-76,116.09-76.44,34.88-.06,64.39,4.24,93.63-2.62,27.18-6.4,55.27-27.5,56.48-55.41,1.08-24.8-19.58-45.74-40.5-53.61-65.83-24.78-146.85,39.22-186.09,24.26-21.34-8.14-27.69-35-20.23-54.94,32.41-87.32,141.07-16.7,110.59-173.77-2.12-10.94,14.4-14,16.44-3.21,7.62,39.3,13.39,94.68-24.62,121.71-35.92,25.53-70.7,18.05-86.69,61.12-4.55,12.18-1,29,10.47,33.44,28,10.67,116.2-50.62,186-24.29,31.5,11.83,52.61,40.63,51.37,70-1.64,37.93-37.13,63.4-69.37,71-31.8,7.49-63.24,3-97.37,3.08-226.42,1.66-41,174.75,180.95,124.41,19.38-4.41,47.73-12.22,69.8-29.32,37.64-29.09,60.29-90.33,122.67-117.14,32.44-14,68.55-12.29,94.25,4.37,20.26,13.13,32.76,33.82,47.14,51.55a222.45,222.45,0,0,0,117,74.95c59.51,15.28,83.87-6.82,128.43-52.43,131.48-134.47,296.88-144.84,399.61-68.32,42.65,31.82,73.94,79.25,115.63,108.67,41.28,29.17,104.17,35.36,132-1.73,33.53-44.8-4.17-111.69.88-173.32.84-10.65,17.66-9.9,16.7,1.38-4.82,59.45,35,129.67-4.16,182-34.77,46.39-107.58,39-155.11,5.37-44.43-31.43-74.23-77.79-116-108.92-55.69-41.48-133.94-54.73-209.43-35.46-187.26,48-179.24,193.2-312.72,159-57.75-14.75-100.66-47.07-136.09-93.84-10.25-13.54-19.94-26.34-33-34.84-21.05-13.63-51.14-14.83-78.54-3-58.64,25.2-77.27,82.69-119,115C2461.71,4655.05,2297.63,4674.67,2184,4601.9Z" transform="translate(-408.64 -350)"/><path d="M2342.4,4458.76c14.75,5.08,28,16.75,31.32,32,2.74,12.56-3.73,18.92-15.61,24.31a143,143,0,0,1-81.82,10.81c-27.26-4.5-52.33-34.8-25.12-58.07C2270.3,4451.44,2320.52,4451.23,2342.4,4458.76Z" transform="translate(-408.64 -350)"/><path d="M2830.86,4546.37c0,16.42-19.65,36-32.29,41.91-28.75,13.45-68-7.43-75.32-57C2711.82,4453.88,2831,4493.24,2830.86,4546.37Z" transform="translate(-408.64 -350)"/><path d="M3480.27,4500.23c10.82,8.36,21.63,17.86,26.39,30.68s1.29,29.67-10.93,35.8c-5.22,2.62-11.27,3-17.1,2.66-26.89-1.56-49.65-20.79-70.71-35.86C3370.26,4506.56,3365.7,4411.75,3480.27,4500.23Z" transform="translate(-408.64 -350)"/><path d="M3059.94,4048.25c-24,45.07-88.77,44.26-111.64,0-8.55-14.44-9-31.58-7.37-35.54.67,13.75,6.37,25.82,15.09,35.54,24.07,29.93,71.77,30,95.87,0,8.72-9.72,14.42-21.79,15.09-35.54C3068.67,4016.94,3068,4033.83,3059.94,4048.25Z" transform="translate(-408.64 -350)"/><path d="M3283.21,4048.25c-17.71,59.3-103,59.26-120.69,0-2.86-7.36-4.38-20.55-2.68-24.81,1,28.44,26.94,58,63,58s62-29.55,63-58C3287.68,4027.92,3286.05,4040.94,3283.21,4048.25Z" transform="translate(-408.64 -350)"/><path d="M3504.47,4048.25c-3.69,31.18-30.51,55.31-62.69,55.31s-59-24.13-62.69-55.31c-.9-3.59-1.64-10.48-.34-13.74a38.44,38.44,0,0,0,2.69,13.74c17.56,58.81,103.09,58.9,120.68,0a38.44,38.44,0,0,0,2.69-13.74C3506.1,4037.76,3505.37,4044.64,3504.47,4048.25Z" transform="translate(-408.64 -350)"/><path d="M417,1633.19c-.26,0-.49,0-.75,0a8.37,8.37,0,0,1-7.6-9.09c2-21.91,95.5-308,324.83-463.16,151.88-102.78,328.14-125.05,523.92-66.2,10.53,3.16,5.89,19.23-4.85,16-190.18-57.13-361.4-35.83-508.69,63.35-224.16,151-316.51,430.09-318.51,451.48A8.39,8.39,0,0,1,417,1633.19Z" transform="translate(-408.64 -350)"/><path d="M705.18,1606.35c-2.58-9.61,23.74-89.41,81.75-154.82,53.92-60.83,151.42-128.55,309.58-105.81,10.83,1.54,8.77,17.91-2.36,16.59-99.13-14.25-184.48,6.27-253.4,61.09C753.64,1492.65,722.4,1594.64,721.62,1604,724.16,1613.67,708.37,1618.16,705.18,1606.35Z" transform="translate(-408.64 -350)"/><path d="M721.62,4175.56c19,63.49,66.71,114,116,158.38,57.82,52.18,119.72,99.51,181.54,146.82,39.58,30.23,81.81,61.62,131.32,67,34.85,3.8,124.67-26.54,107.81-77.85-4.79-14.52-59.4-47.63-73.33-59.33-40.57-33.93-123.47-88.52-353-351.61-36.84-42.35-70.79-78.39-99.77-10.86-14.68,34.26-21.35,91-10.49,127.43" transform="translate(-408.64 -350)"/><path d="M1014.33,3694.78c-4.25-65.15,5.86-138.21,25.77-186.12a323.58,323.58,0,0,1,137.63-157.27c49.38-28.38,80.66-14.38,95.63,18.18,4.62,10.07-10.62,17.07-15.26,7-14.46-31.65-41.85-28.07-72-10.67C1068.72,3433.47,1022,3554.32,1031,3693.7,1031.82,3704.8,1015,3705.93,1014.33,3694.78Z" transform="translate(-408.64 -350)"/><path d="M1235.22,4446.78c136-160,72.87-64.23,216.89-214.91,46.14-48.45,202.76-209.93,267.9-266.46,50.42-43.74,107.82-94.45,116-161.56,3-27.88-4.12-53.46-19.57-70-19.58-21.31-56.54-24.89-76.15-7.48-8.37,7.38-19.38-5.23-11.13-12.54,26.45-23.44,73.89-19.31,99.59,8.65,26.27,28.2,30.28,73.28,18.17,109.56-19.78,62.67-68.66,105.07-116,146.07-65.87,57.11-222.61,219.09-266.76,265.38-144.32,151-82,56.36-216.23,214.21C1240.75,4466.09,1228,4455.22,1235.22,4446.78Z" transform="translate(-408.64 -350)"/><path d="M1721.32,3722.08a50.68,50.68,0,0,1,8-8.39c24.39-28.39,26.09-76.73,2.81-106.86-25.3-32.86-77.88-42.12-112.55-19.86-6.77,4.41-15.36-2.61-12.28-10.2,13.13-32.54,28-69.43,19.71-104.19-10-42.79-56.47-54.52-95.56-47.35-10.92,2.14-14-14.47-3.08-16.47,46.65-8.68,102.44,6.47,114.94,60,7.73,32.28-1.67,65.43-12.63,94.47,39.9-13.61,88.49-.64,114.74,33.39,28.32,36.73,26.42,93.39-4.32,129a45.72,45.72,0,0,0-6.35,6.56C1728.16,3741,1714.66,3731,1721.32,3722.08Z" transform="translate(-408.64 -350)"/><path d="M773.74,3991.32c267.36-294.43,581.77-841.51,830.34-933.52,35-12.88,62.7-12.68,82.24.36,35.68,23.82,38.29,88.6,21.35,131.91-11.56,29.45-30.71,56-46.1,75.84C1551,3408.3,1564.22,3394,1433.45,3533.69c-7.59,8-19.83-3.36-12.24-11.46,142.09-153,104.34-109.62,227.1-266.59,28.24-36.36,54.51-77.15,52.91-121.64-2.59-61.6-30.87-82.69-91.34-60.47-241.85,89.53-557,635.18-823.7,929.06C778.63,4010.8,766.32,3999.48,773.74,3991.32Z" transform="translate(-408.64 -350)"/><path d="M1499.81,3720.59c103-117.18,95.41-152.19,111.61-143.77a8.39,8.39,0,0,1,3.5,11.33c-31.23,59.24-69.34,105.79-102.54,143.51C1505.27,3739.84,1492.39,3729,1499.81,3720.59Z" transform="translate(-408.64 -350)"/><path d="M1630.08,3807.81c100-60.48,85-96,102.63-86.35a8.4,8.4,0,0,1,3.31,11.39c-20.76,37.75-64.37,69.39-97.23,89.3C1629.2,3827.85,1620.66,3813.53,1630.08,3807.81Z" transform="translate(-408.64 -350)"/><path d="M1651,3201.67h0c-28.91,0-55.4-23.37-59.06-52s16.1-57.85,44.06-65.15c10.81-2.89,14.94,13.44,4.26,16.21-19.78,5.17-34.28,26.6-31.69,46.81s22,37.36,42.43,37.39C1662.06,3184.91,1662.11,3201.67,1651,3201.67Z" transform="translate(-408.64 -350)"/><path d="M1280.79,4483.32c-194-141.92-400.85-284.45-508-482.27-5.27-9.78,9.46-17.73,14.73-8,105.52,194.69,306.69,333,503.19,476.74C1299.68,4476.39,1289.62,4489.89,1280.79,4483.32Z" transform="translate(-408.64 -350)"/><path d="M4128.15,1461.76l-14-137.23c-1.07-10.78,15.47-13.13,16.7-1.7l14,137.23C4145.94,1471,4129.34,1473,4128.15,1461.76Z" transform="translate(-408.64 -350)"/><path d="M4220.7,1522.29a1538.76,1538.76,0,0,1,136.78-289.24c5.66-9.42,20.12-.87,14.34,8.71a1519.73,1519.73,0,0,0-135.27,286.06C4232.88,1538.27,4217.05,1532.84,4220.7,1522.29Z" transform="translate(-408.64 -350)"/><path d="M4310.7,1583.89c39.74-36.93,81.19-73,123.19-107.25,8.75-7,19.12,6,10.61,13-41.74,34-82.89,69.85-122.41,106.53C4314,1603.73,4302.52,1591.44,4310.7,1583.89Z" transform="translate(-408.64 -350)"/></g></svg>