<svg width="27" height="27" viewBox="0 0 27 27" fill="none" xmlns="http://www.w3.org/2000/svg">
<g clip-path="url(#clip0_204_3941)">
<path d="M21.4661 17.964L9.90138 22.0038C8.80591 22.385 7.60397 22.3161 6.55921 21.8123C5.51445 21.3084 4.71217 20.4108 4.32836 19.3163L2.59705 14.3599C2.21586 13.2645 2.28473 12.0625 2.78855 11.0178C3.29237 9.97301 4.19001 9.17073 5.28456 8.78692L16.8493 4.7472C17.9448 4.36601 19.1467 4.43488 20.1915 4.9387C21.2362 5.44252 22.0385 6.34016 22.4223 7.43471L24.1536 12.391C24.5348 13.4865 24.466 14.6884 23.9621 15.7332C23.4583 16.778 22.5607 17.5802 21.4661 17.964ZM5.86166 10.439C5.20441 10.6686 4.66529 11.1499 4.36289 11.777C4.06048 12.4041 4.01957 13.1256 4.24916 13.7828L5.98047 18.7392C6.21005 19.3964 6.69133 19.9355 7.31841 20.2379C7.9455 20.5403 8.66703 20.5812 9.32428 20.3517L20.889 16.3119C21.5463 16.0824 22.0854 15.6011 22.3878 14.974C22.6902 14.3469 22.7311 13.6254 22.5015 12.9681L20.7702 8.01181C20.5406 7.35456 20.0594 6.81544 19.4323 6.51303C18.8052 6.21063 18.0837 6.16972 17.4264 6.39931L5.86166 10.439ZM14.5295 16.6797C13.876 16.908 13.1695 16.9373 12.4993 16.7641C11.8291 16.5908 11.2253 16.2227 10.7643 15.7063C10.3034 15.1899 10.0058 14.5484 9.90944 13.8629C9.81304 13.1774 9.92208 12.4787 10.2228 11.8552C10.5234 11.2317 11.0023 10.7113 11.5987 10.3599C12.1951 10.0085 12.8823 9.84191 13.5735 9.88109C14.2646 9.92028 14.9286 10.1635 15.4814 10.5801C16.0343 10.9966 16.4513 11.5678 16.6796 12.2213C16.9857 13.0976 16.9311 14.0597 16.5279 14.8958C16.1247 15.7319 15.4059 16.3736 14.5295 16.6797ZM12.7982 11.7234C12.4715 11.8375 12.1859 12.046 11.9776 12.3224C11.7694 12.5989 11.6477 12.9309 11.6281 13.2764C11.6086 13.622 11.6919 13.9656 11.8676 14.2638C12.0433 14.562 12.3034 14.8014 12.6152 14.9518C12.927 15.1021 13.2763 15.1566 13.619 15.1084C13.9618 15.0602 14.2825 14.9115 14.5407 14.681C14.799 14.4505 14.983 14.1486 15.0696 13.8135C15.1563 13.4784 15.1416 13.1251 15.0274 12.7984C14.8744 12.3602 14.5535 12.0008 14.1355 11.7992C13.7174 11.5976 13.2364 11.5703 12.7982 11.7234ZM6.43877 12.0911C6.27539 12.1482 6.1326 12.2524 6.02847 12.3907C5.92433 12.5289 5.86352 12.6949 5.85372 12.8677C5.84392 13.0404 5.88558 13.2122 5.97343 13.3613C6.06128 13.5104 6.19137 13.6302 6.34725 13.7053C6.50313 13.7805 6.6778 13.8078 6.84917 13.7837C7.02054 13.7596 7.18092 13.6852 7.31002 13.5699C7.43912 13.4547 7.53115 13.3037 7.57447 13.1362C7.61778 12.9686 7.61044 12.792 7.55337 12.6286C7.47684 12.4095 7.31642 12.2298 7.10739 12.129C6.89836 12.0282 6.65785 12.0146 6.43877 12.0911ZM17.466 9.16602C17.5231 9.32939 17.6273 9.47218 17.7655 9.57632C17.9037 9.68046 18.0697 9.74127 18.2425 9.75106C18.4153 9.76086 18.5871 9.7192 18.7362 9.63135C18.8853 9.54351 19.005 9.41342 19.0802 9.25754C19.1554 9.10166 19.1826 8.92699 19.1585 8.75561C19.1344 8.58424 19.0601 8.42386 18.9448 8.29476C18.8296 8.16566 18.6786 8.07363 18.5111 8.03032C18.3435 7.987 18.1669 7.99434 18.0035 8.05141C17.7844 8.12794 17.6047 8.28837 17.5039 8.49739C17.4031 8.70642 17.3895 8.94693 17.466 9.16602ZM8.17007 17.0474C8.0067 17.1045 7.86391 17.2088 7.75977 17.347C7.65564 17.4852 7.59482 17.6512 7.58503 17.824C7.57523 17.9968 7.61689 18.1686 7.70474 18.3177C7.79258 18.4668 7.92267 18.5865 8.07855 18.6616C8.23443 18.7368 8.4091 18.7641 8.58048 18.74C8.75185 18.7159 8.91223 18.6415 9.04133 18.5262C9.17043 18.411 9.26246 18.2601 9.30577 18.0925C9.34909 17.925 9.34175 17.7483 9.28468 17.5849C9.20815 17.3659 9.04772 17.1862 8.8387 17.0854C8.62967 16.9846 8.38916 16.9709 8.17007 17.0474ZM19.1973 14.1223C19.2544 14.2857 19.3586 14.4285 19.4968 14.5326C19.6351 14.6368 19.8011 14.6976 19.9738 14.7074C20.1466 14.7172 20.3184 14.6755 20.4675 14.5877C20.6166 14.4998 20.7363 14.3697 20.8115 14.2139C20.8867 14.058 20.9139 13.8833 20.8898 13.7119C20.8657 13.5406 20.7914 13.3802 20.6761 13.2511C20.5609 13.122 20.4099 13.0299 20.2424 12.9866C20.0748 12.9433 19.8982 12.9507 19.7348 13.0077C19.5157 13.0843 19.336 13.2447 19.2352 13.4537C19.1344 13.6627 19.1208 13.9033 19.1973 14.1223Z" fill="#374957"/>
</g>
<defs>
<clipPath id="clip0_204_3941">
<rect width="21" height="21" fill="white" transform="translate(0 6.92523) rotate(-19.255)"/>
</clipPath>
</defs>
</svg>
