<svg id="Layer_1" data-name="Layer 1" xmlns="http://www.w3.org/2000/svg" viewBox="0 0 512 448.49"><path d="M419,472.25H93a46.79,46.79,0,0,1-46.79-46.8v-218H465.78v218A46.79,46.79,0,0,1,419,472.25Z" transform="translate(0 -31.75)" style="fill:#fff"/><path d="M161.84,207.45H46.22v218A46.79,46.79,0,0,0,93,472.25H313.45C223.89,417.59,163.65,319.62,161.84,207.45Z" transform="translate(0 -31.75)" style="fill:#f1f1f1"/><rect x="10" y="99.37" width="492" height="76.32" style="fill:#fff"/><path d="M214.43,131.12H76.22l23-57.84a49.79,49.79,0,0,1,66.9-27L173,49.4a70.82,70.82,0,0,1,41.43,64.48Z" transform="translate(0 -31.75)" style="fill:#22c55e"/><path d="M297.57,131.12H435.78l-23-57.84a49.79,49.79,0,0,0-66.9-27L339,49.4a70.82,70.82,0,0,0-41.43,64.48Z" transform="translate(0 -31.75)" style="fill:#ef4444"/><path d="M297.57,131.12H214.43V109.83A41.57,41.57,0,0,1,256,68.26h0a41.57,41.57,0,0,1,41.57,41.57v21.29Z" transform="translate(0 -31.75)" style="fill:#facc15"/><rect x="207.88" y="99.37" width="96.24" height="76.32" style="fill:#3b82f6"/><rect x="207.88" y="175.69" width="96.24" height="264.8" style="fill:#3b82f6"/><path d="M207.88,366.67V472.25h96.24v-5.92A317.75,317.75,0,0,1,207.88,366.67Z" transform="translate(0 -31.75)" style="fill:#d2dcfd"/><path d="M502,121.12H442.51c-.1-.34-.21-.67-.34-1L422.09,69.59a59.8,59.8,0,0,0-80.34-32.43l-6.89,3.14A80.81,80.81,0,0,0,296.2,77.56a51.53,51.53,0,0,0-80.41,0A80.75,80.75,0,0,0,177.14,40.3l-6.9-3.13A59.78,59.78,0,0,0,89.91,69.59L69.43,121.12H10a10,10,0,0,0-10,10v76.33a10,10,0,0,0,10,10H36.22v206A56.86,56.86,0,0,0,93,480.25H419a56.86,56.86,0,0,0,56.79-56.8v-206H502a10,10,0,0,0,10-10V131.12A10,10,0,0,0,502,121.12ZM343.15,58.51,350,55.37A39.79,39.79,0,0,1,403.51,77l17.54,44.15H326.66l31.59-18.67a10,10,0,0,0-10.18-17.22l-40.3,23.83A60.91,60.91,0,0,1,343.15,58.51ZM224.43,109.83a31.57,31.57,0,1,1,63.14,0v11.29H224.43ZM108.5,77A39.78,39.78,0,0,1,162,55.37l6.89,3.14a60.92,60.92,0,0,1,35.39,50.55L163.93,85.23a10,10,0,0,0-10.17,17.22l31.59,18.67H91ZM455.78,423.45A36.84,36.84,0,0,1,419,460.25H93a36.84,36.84,0,0,1-36.79-36.8v-206H455.78Zm36.22-226H20V141.12H492Z" transform="translate(0 -31.75)" style="fill:#404040"/></svg>