<svg id="Layer_1" data-name="Layer 1" xmlns="http://www.w3.org/2000/svg" viewBox="0 0 4318.91 4094.61"><path d="M1381.25,4025.91c71.23,194.19,315.8,304.37,545.58,245.92l1015.58-258.19c94.48,54.66,193.59,99.16,295.49,131.82,6.64,24.12,20.65,47.93,42.32,67.85l310.49,285.27c54.19,49.8,133.69,56.12,177.45,14.08,318.59-251.22,604.86-523.41,853.87-819.8,43-41.32,35.59-114.14-16.73-164l-307.75-293c-38.33-36.5-90.1-50.36-132.92-40.32-308.46-377.72-568.86-542.22-755.25-800.32l-467.43-647c-54.54-75.53-108.21-143.85-202-150.45L2416.25,725.15c-73.49-198.25-326.1-310-563.43-249L779.9,749.63C705.27,768.3,634.68,802.83,574.14,860c-177.13,81.39-267,258.86-204.06,428.67Zm2356.27,282.47a16.83,16.83,0,0,1-10.5-3.67c-81.49-65.19-167.71-147.93-249.27-239.26-14.72-16.52,10.08-39,25.07-22.38,80.31,90,165.15,171.35,245.2,235.39C3760.38,4288.41,3753.33,4308.38,3737.52,4308.38Zm296.12-363.79A1821.88,1821.88,0,0,1,3859,3743a16.78,16.78,0,1,1,26.9-20.08,1784.51,1784.51,0,0,0,171.45,197.86C4073,3936.39,4049.5,3960.29,4033.64,3944.59Zm359.23-272a16.82,16.82,0,0,1-23.09-5.68c-46.85-77.29-110.5-148.94-184-207.24a16.79,16.79,0,1,1,20.87-26.31c76.57,60.73,143,135.46,191.85,216.17A16.8,16.8,0,0,1,4392.87,3672.55ZM3382.15,2414.91c194.19,268.75,427.45,401.87,750.23,794.16-26.58,17.16-849.25,817.19-871.58,838.87-16.91,16.43-25.62,37.74-27.05,60.5a1476.3,1476.3,0,0,1-244.35-106.75c6.85-3.09,172.87-28.84,267.07-180.81,115.6-75.07,184.75-194,173.3-325.1,20.83,7.73,32-21.74,13-30.55-130.26-60.25-329.15-218.48-369.21-356.35-47-161.23,20.83-328.23-52-496.44-40.35-93.17-113.51-164.72-184.25-234-43-42.09-87.46-85.59-123.61-133.19-97-127.48-140.31-304.53-113.25-462.38,7.54-44.1,29.2-121.69,89.1-145.93,44.69-18,95.08,0,127.69,22.83C2871.15,1697.77,2857.75,1689,3382.15,2414.91Zm-228.07,880.41c58.63,160.46-43.55,322.48-220.14,366.94l-884.28,222.4c-180.76,45.51-375.51-46.75-433.64-205.83L752,1323.19C693.65,1164,795.49,1001.52,972.22,956.9l186.41-47c0,1.1-.71,2.07-.43,3.16L1179,992.35c10.07,38.29,49,61.81,88,51.06l413.89-108.18a72,72,0,0,0,51.72-88l-20.21-76.94,144.65-36.47c180.24-45.63,374.85,46.85,433.64,205.9l288.87,786.68c-35.81,112.74-26.76,286.78,41.76,431L2687.83,2336l-301.43,96.42c-21.09,6.8-11.1,38.59,10.23,32l318.16-101.8a16.82,16.82,0,0,0,10.63-21.88l-19.94-53.61c33.74,40.76,71.09,78.9,108.32,115.32,6.81,6.67,13.29,13.26,20,19.88l188.49,512.37c-1.94,160.83,20.6,243,131.49,359.94ZM1551.26,864c2.67,8.73-2.69,18.13-11.43,20.82C1340.45,941.34,1343.67,942,1336.92,942c-19.18,0-23.52-27.15-4.71-32.92l198.22-56.45A16.69,16.69,0,0,1,1551.26,864Zm1472.56,1977.5-132.2-359.22C3000.06,2600.47,3025.32,2682.9,3023.82,2841.52ZM788.1,782.2,1861.15,508.72c220.93-56.88,455.83,45.44,523.6,228.11l319.87,862.41c-9.45,1.58-19,3.06-27.69,6.58-36.25,14.68-61.13,42.7-78.32,74.85L2322.22,928.1c-64.56-174.77-276.95-276.47-473.4-226.83L964,924.36c-195.6,49.37-308.92,232-243.43,410.38l864,2355.64c52.88,144.78,207.66,239.43,371.31,239.43,95.8,0,110.94-19,986.24-234.93,168.2-42.33,285.23-187.23,257.63-355.34C3263,3397,3334,3445.84,3394,3478.18c27.95,173.12-104.86,326.46-290.78,372.89l-1073,274.13c-221.38,56.4-456.09-46.19-523.67-228.76l-995-2685.55C447,1037.78,560,839.22,788.1,782.2Z" transform="translate(-350 -459.52)"/><path d="M4616,3719c-115.21,132.17-244.21,270.3-388,411-143,139.89-283.08,265.2-417,377-21.72,17-56.29,38.25-102,45-135.59,20-234.19-107.58-239-114l-219-260c-2.07-2-37.05-37.3-26-87,11.13-50.09,58.41-67.12,61-68l841.75-822.81a100.71,100.71,0,0,1,142.44,0L4526,3423c41.88,28.8,90.34,72.93,122,137,25.72,52,21.52,79.1,19,90C4657.69,3690.3,4625.83,3712.64,4616,3719Z" transform="translate(-350 -459.52)" style="fill:#f6d356"/><path d="M3746.26,4272.38a16.83,16.83,0,0,1-10.5-3.67c-81.49-65.19-167.71-147.93-249.27-239.26-14.72-16.52,10.08-39,25.07-22.38,80.31,90,165.15,171.35,245.2,235.39C3769.12,4252.41,3762.07,4272.38,3746.26,4272.38Z" transform="translate(-350 -459.52)"/><path d="M4042.38,3908.59a1821.88,1821.88,0,0,1-174.6-201.6,16.78,16.78,0,1,1,26.9-20.08,1784.51,1784.51,0,0,0,171.45,197.86C4081.75,3900.39,4058.24,3924.29,4042.38,3908.59Z" transform="translate(-350 -459.52)"/><path d="M4401.61,3636.55a16.82,16.82,0,0,1-23.09-5.68c-46.85-77.29-110.5-148.94-184-207.24a16.79,16.79,0,1,1,20.87-26.31c76.57,60.73,143,135.46,191.85,216.17A16.8,16.8,0,0,1,4401.61,3636.55Z" transform="translate(-350 -459.52)"/><path d="M2039.23,1489.75l235.75-76,90.68,242c7.89,20.73,39.24,9.14,31.5-11.81l-96.33-256.95a16.84,16.84,0,0,0-20.93-10.07l-251,81C2007.87,1464.61,2017.82,1496.5,2039.23,1489.75Z" transform="translate(-350 -459.52)"/><path d="M1434.93,1684.72a16.8,16.8,0,1,0-10.37-32l-277,89.33A16.88,16.88,0,0,0,1137,1764l78.74,210.09a16.82,16.82,0,0,0,31.49-11.81l-72.57-193.59Z" transform="translate(-350 -459.52)"/><path d="M1832.48,2624.81l-296.77,104.85-93.63-312.26a16.78,16.78,0,1,0-32.15,9.65l98.68,329.15a16.77,16.77,0,0,0,21.65,11l313.38-110.72a16.8,16.8,0,0,0-11.16-31.69Z" transform="translate(-350 -459.52)"/><path d="M2198.16,2754.24c-213,69.54-324.87,286.05-249.89,483.61s308.41,301.32,521.39,231.79,324.87-286.06,249.89-483.61S2411.15,2684.7,2198.16,2754.24Zm385.18,493.19-366.07,119.51c-27.36,8.94-57.34-4.4-67-29.78l-97.91-258c-9.63-25.38,4.75-53.2,32.12-62.12l103.6-33.84-29-76.29,161.65-52.78,26,68.4,100.77-32.91c27.36-8.93,57.34,4.41,67,29.78l100.88,265.87C2625.07,3210.68,2610.7,3238.5,2583.34,3247.43Z" transform="translate(-350 -459.52)" style="fill:#2c56fe"/><path d="M2299.49,3028.24c-54,17.63-82.4,72.55-63.38,122.65s78.21,76.42,132.22,58.79,82.4-72.56,63.37-122.65S2353.49,3010.6,2299.49,3028.24Z" transform="translate(-350 -459.52)" style="fill:#2c56fe"/><path d="M2984.2,1149.58c80.45-24.22,148.55-70.87,191.79-131.43,48.49-67.91,64.5-155.64,41.87-228.93-25.07-80.8-97.83-142.12-177-149.17-10.37-.92-17.45,6-18.24,15.26a16.8,16.8,0,0,0,15.22,18.2c66,5.88,126.83,57.51,147.9,125.62,19.68,63.52,5.51,140-37,199.5-39,54.53-100.85,96.72-174.21,118.8a16.79,16.79,0,0,0,9.71,32.15Z" transform="translate(-350 -459.52)" style="fill:#5fff9f"/><path d="M3057.1,1307.74a16.76,16.76,0,0,0,23.43,3.87c196.84-141.07,425-247,659.94-306.42a16.73,16.73,0,0,0,12.14-20.37c-2.23-9.06-11.61-14.67-20.41-12.17-238.9,60.4-471,168.17-671.23,311.66A16.81,16.81,0,0,0,3057.1,1307.74Z" transform="translate(-350 -459.52)" style="fill:#5fff9f"/><path d="M3461,1607.73c8.4-19.33,17.26-42.36,18.7-66.9,1.64-28.31-7.41-54.42-24.8-71.62-22.7-22.53-55.51-26.86-81.62-28.11a482.73,482.73,0,0,0-247.76,55.18,16.79,16.79,0,0,0,15.61,29.72,451.92,451.92,0,0,1,230.57-51.37c20.08,1,45,3.93,59.58,18.44,26.07,25.82,13.38,68-1.12,101.21C3421.36,1614.69,3452.15,1628,3461,1607.73Z" transform="translate(-350 -459.52)" style="fill:#5fff9f"/></svg>