
<?xml version="1.0" encoding="utf-8"?>
<!-- Generator: Adobe Illustrator 25.2.0, SVG Export Plug-In . SVG Version: 6.00 Build 0)  -->
<svg version="1.1" id="Layer_1" xmlns="http://www.w3.org/2000/svg" xmlns:xlink="http://www.w3.org/1999/xlink" x="0px" y="0px"
	 viewBox="0 0 500 500" style="enable-background:new 0 0 500 500;" xml:space="preserve">
<style type="text/css">
	.st0{fill:#EBEBEB;}
	.st1{fill:#E0E0E0;}
	.st2{fill:#F5F5F5;}
	.st3{fill:#FFFFFF;}
</style>
<rect x="0.3" y="0.1" class="st0" width="499.3" height="499.2"/>
<polygon class="st1" points="322.2,360.4 360.8,447.4 455.7,445.6 450.3,351.2 "/>
<polygon class="st1" points="196.7,66.6 182.8,204.1 211.6,212.9 267.9,205.7 257.5,55.5 "/>
<polygon class="st2" points="109.3,348.1 42.7,348.1 42.7,245.6 115,246.5 "/>
<path class="st2" d="M383.2,351.2c0-2.9,11.7-104.7,11.7-104.7s45.9-16.1,46.1-13.8c0.2,2.3,9.1,115.8,9.1,115.8L383.2,351.2z"/>
<path class="st1" d="M50.4,90.5c0.1,2.5,31.8,83.9,31.8,83.9l36.7-12.4V68.3L81,67.2L50.4,90.5z"/>
<rect x="223.5" y="260.4" class="st1" width="50.7" height="30.6"/>
<polygon class="st1" points="274.4,301.1 223.4,304.4 220.8,366.4 279.1,360.4 "/>
<polygon class="st1" points="478.9,186.2 471.8,60.4 499.4,60.4 499.6,183.7 "/>
<polygon class="st1" points="365.6,39.8 377.1,196.5 437.6,189.6 427,55.9 379.2,39.8 "/>
<polygon class="st3" points="87.9,67.8 0.6,66.1 0.7,58.7 83.2,60.3 92.7,0.1 98.4,1.6 "/>
<polygon class="st3" points="42.3,188.9 0,67.6 1.3,66.8 43.1,186.7 118.6,161.1 119,162.9 "/>
<rect x="0.7" y="244.7" class="st3" width="114.4" height="3.7"/>
<rect x="42" y="187.8" class="st3" width="1.4" height="160.3"/>
<rect x="0.7" y="347.2" class="st3" width="109" height="1.9"/>
<polygon class="st3" points="104,493.1 0.2,463.8 1.5,456.6 98.7,484 115.4,187.2 117.9,63.8 121.8,0.6 127.6,1.2 123.7,64.2 
	121.2,187.6 "/>
<polygon class="st3" points="120.5,72.3 85.2,67.7 85.8,60.4 117,64.4 122.2,50.3 168.7,64.7 377.8,34.2 450.7,58.5 499.3,56.7 
	499.5,64 450,65.9 377.4,41.8 168.3,72.2 125.4,59 "/>
<polygon class="st3" points="363.7,357 357.9,356 374.2,196.5 361.7,39.9 361.7,0.1 367.5,0.1 367.5,39.7 380.1,196.6 "/>
<polygon class="st3" points="106.8,378.9 106.4,371.5 448.3,344.9 494.8,223.8 500,227.1 452,352.1 450.3,352.2 "/>
<polygon class="st3" points="277.9,364.9 256.1,55.7 254.9,0.9 257.8,0.8 259,55.5 280.8,364.6 "/>
<polygon class="st3" points="232.1,497.3 206.8,365.3 206.8,216 178.3,206.9 190.7,65.2 189.5,0.2 195.3,0 196.5,65.5 196.5,65.8 
	184.7,201.3 212.6,210.2 212.6,364.4 237.7,495.5 "/>
<rect x="115" y="245.6" class="st3" width="94.7" height="1.9"/>
<polygon class="st3" points="118.1,188.4 118.4,186.5 181.6,203.2 181.3,205 "/>
<polygon class="st3" points="209.5,307.9 187,301.5 187,246.5 188.5,246.5 188.5,300 209.8,306.1 "/>
<polygon class="st3" points="174.4,497.2 161.8,445.3 103.9,445.3 103.9,437.9 166,437.9 180,495 "/>
<polygon class="st3" points="360.4,448.4 321.6,360.9 322.8,360 361.2,446.5 499.2,443.9 499.3,445.7 "/>
<rect x="426.8" y="447.4" class="st3" width="1.4" height="50"/>
<polygon class="st3" points="455,445.7 449.6,351.3 421.9,0.2 423.4,0 451.1,351.1 456.5,445.6 "/>
<polygon class="st3" points="209.6,212.1 499.5,182.7 499.6,184.5 209.8,214 "/>
<polygon class="st3" points="470.3,63.7 473.2,63.4 481.8,186 478.9,186.4 "/>
<polygon class="st3" points="434,145.7 476.5,132.3 476.9,134.1 434.4,147.5 "/>
<polygon class="st3" points="457.8,138.5 450.3,84 429.1,81.1 429.3,79.2 451.6,82.3 459.3,138.1 "/>
<polygon class="st3" points="311.4,49.5 314.3,49.2 324.4,199.3 321.5,199.7 "/>
<polygon class="st3" points="319.2,145.7 370.6,131.3 370.9,133.1 319.6,147.5 "/>
<polygon class="st3" points="354.1,499.5 359.4,447.2 362.3,447.7 357,500 "/>
<polygon class="st1" points="120.8,249.7 115,364.7 205,359.1 205,314 181.4,307.3 181.4,254.6 "/>
</svg>
