<svg id="Layer_1" data-name="Layer 1" xmlns="http://www.w3.org/2000/svg" viewBox="0 0 4300 4084.52"><path d="M1926.56,898.66c-8.4,11.77-16.8,24.19-24.86,37-33.93,54.08-51.4,147.47-57.11,226.09l-6-38.31c-25.53-57.44-93-84-156.55-83-1.92,0-17.08.48-18.81,1.34,10-33.65,43.26-131.82,49.72-155.54Z" transform="translate(-350 -457.74)" style="fill:#2c56fe"/><path d="M3233.36,1046.48h-8.07c-63.21,0-130.62,27.88-154.53,86.33l-1.68,18.14a16.67,16.67,0,0,0-.33-4c-8.06-63.83-15.79-125.64-38.3-184.43l176,10.08C3208.63,978.7,3230.12,1037.45,3233.36,1046.48Z" transform="translate(-350 -457.74)" style="fill:#2c56fe"/><path d="M2397.54,2291.13l-771.31.67c4.31-68.91,7-295.09,7.39-364.49,1-114.56-4-230.46-7.39-346.35,91.37,21.16,193.5-6,260.35-72.23,33.64,88.31,113.36,177.6,225.42,229.44,90,41.66,188.79,55.77,286.21,55.77A2794,2794,0,0,0,2397.54,2291.13Z" transform="translate(-350 -457.74)" style="fill:#2c56fe"/><path d="M3341.87,2290.12l-603,.67c-5-167.3-15.12-333.58-18.82-501.55,149.83-49.72,270.77-162.93,323.18-324.18l-4.37,51.06c67.86,72.56,163.94,95.74,255.31,69.54.67,38.63,1.68,77.26,2.69,115.9C3302.9,1898.08,3315,2094.94,3341.87,2290.12Z" transform="translate(-350 -457.74)" style="fill:#2c56fe"/><path d="M3088.61,1045a8.4,8.4,0,0,1-8.33-7.48l-19.16-173.25c-1.21-11,15.47-13,16.7-1.84L3097,1035.71a8.4,8.4,0,0,1-7.43,9.26A7.5,7.5,0,0,1,3088.61,1045Z" transform="translate(-350 -457.74)"/><path d="M3225.29,1046.48c-63.21,0-130.62,27.88-154.53,86.33l-1.68,18.14a16.67,16.67,0,0,0-.33-4c-8.06-63.83-15.79-125.64-38.3-184.43C2985.59,840.74,2873.08,733,2739.19,704.83a1433.23,1433.23,0,0,0-391.37-27.55c-212.42,15.25-332.34,78.13-446.12,258.34-33.93,54.08-51.4,147.14-57.11,225.75l-6-38c-25.53-57.44-93-84-156.55-83,13.13-102.66,38.57-211.15,87-302.68,15.79-30.91,34.6-60.47,58.79-85.33,79.28-81,219.37-92.38,310.75-25.53,12.42,9.07,30.9,6.05,39-6.72,33.26-52.74,87-92.72,146.14-117.58,69.2-28.88,145.12-39,220-43,404.81-22.4,575.13,158.55,670.19,533.14A525.88,525.88,0,0,1,3225.29,1046.48Z" transform="translate(-350 -457.74)" style="fill:#2c56fe"/><path d="M1569.16,1569.71c-110.11-53-177-183.68-155.45-304,21.11-120.51,128.88-220.52,250.66-232.61,66.09-6.3,151.22,18.29,181.84,86.88,4.54,10.21-10.85,17-15.35,6.86-27.23-61-104.59-82.9-164.87-77-114.51,11.37-215.87,105.44-235.75,218.82-20.22,113.2,42.64,236.11,146.22,286,101.24,49,235.21,23.37,311.68-59.61,7.5-8.17,19.89,3.2,12.34,11.38C1818,1595.86,1678.69,1622.72,1569.16,1569.71Z" transform="translate(-350 -457.74)"/><path d="M3032.71,1521.86c-7.59-8.13,4.66-19.56,12.27-11.48,76.75,82.17,193.88,100.6,298.42,47,102.37-52.63,162.16-177.22,139-289.81-22.78-112.92-126.52-204.19-241.29-212.34-59.72-4.28-132.14,17.26-159.8,74.88-4.86,10-20,2.74-15.16-7.28,31.07-64.73,110.81-89,176.14-84.36,122.06,8.68,232.35,105.72,256.58,225.76,24.56,119.67-39,252.15-147.84,308.1C3240,1629.26,3115,1609.89,3032.71,1521.86Z" transform="translate(-350 -457.74)"/><path d="M1893.39,1519.85C1777.81,1272.42,1816.93,899,2042.3,769.61c9.52-5.59,18,9,8.36,14.57-217.7,125-254.54,487.73-142,728.55,85.61,183.34,283.89,296.65,481.94,275.29,11.47-.81,12.52,15.56,1.81,16.7C2184.25,1827,1980.79,1707,1893.39,1519.85Z" transform="translate(-350 -457.74)"/><path d="M2681,1788.86C2941,1742.21,3135.06,1465,3061.18,1104c-2.19-10.85,14.17-14.34,16.47-3.38,76.32,373-127.15,657-393.72,704.78C2672.77,1807.25,2670.2,1790.79,2681,1788.86Z" transform="translate(-350 -457.74)"/><path d="M2399.61,2224.82a8.4,8.4,0,0,1-8.4-8.23c-2.95-146.21-4.89-268.23-7.92-422.33a8.41,8.41,0,0,1,8.23-8.57h.17a8.4,8.4,0,0,1,8.39,8.24c2.91,147.73,4.83,269,7.93,422.33a8.39,8.39,0,0,1-8.24,8.56Z" transform="translate(-350 -457.74)"/><path d="M2730.54,2184.36c.23-78.81-23.73-316-23.5-395.7,0-11.22,16.84-11.09,16.8,0-.12,39.56,5.9,119.71,11.72,197.2,5.84,77.81,11.9,158.29,11.78,198.49C2747.3,2195.62,2730.51,2195.49,2730.54,2184.36Z" transform="translate(-350 -457.74)"/><path d="M1713.71,1301.7c-45.41-46.85-123.27-59.23-181.09-28.87-9.9,5.17-17.62-9.74-7.81-14.86,64.18-33.71,150.53-19.93,201,32C1733.49,1298,1721.46,1309.68,1713.71,1301.7Z" transform="translate(-350 -457.74)"/><path d="M1618.52,1369.74c-9.1-35.59-2.2-74.81,18.47-105,6.25-9.12,20.14.3,13.84,9.52a113.68,113.68,0,0,0-16,91.26C1637.57,1376.43,1621.27,1380.52,1618.52,1369.74Z" transform="translate(-350 -457.74)"/><path d="M3187.56,1296.55c49.06-53.26,135.08-69.3,200.1-37.22,10,4.94,2.43,20-7.42,15.06-58.56-28.84-136.09-14.45-180.32,33.54C3192.36,1316.1,3180,1304.73,3187.56,1296.55Z" transform="translate(-350 -457.74)"/><path d="M3280.5,1369.71a113.81,113.81,0,0,0-18.39-90.83c-6.48-9,7-18.88,13.61-9.84a130.86,130.86,0,0,1,21.15,104.44C3294.41,1384.27,3278,1380.59,3280.5,1369.71Z" transform="translate(-350 -457.74)"/><path d="M2644.74,901.81c-46.37-35.07-122.41-33.29-135-5.37-4.57,10-19.89,3.25-15.32-6.92,6.61-14.62,22-24.54,44.58-28.72,40.16-7.27,83.45,3.1,115.88,27.62a8.4,8.4,0,0,1-10.14,13.39Z" transform="translate(-350 -457.74)"/><path d="M2475.93,1265.07c11.24-3.74,21.84-6.44,32.06-9,93.07-23.68,94.76-55.51,84.42-118.11-.27-1.67-47.21-321.07-53.21-365.48-1.45-10.76,15.13-13.69,16.63-2.26,18,132.77,32.05,211.92,49.94,344.25,7.38,54.73,22.89,98.17-28.63,132.21-32.46,21.59-61.56,22.89-95.89,34.39C2476.92,1282.46,2465.37,1268.62,2475.93,1265.07Z" transform="translate(-350 -457.74)"/><path d="M2377,1165.81c0,29.76-36.22,53.92-80.86,54s-81-24.06-81-53.82,36.22-53.93,80.94-54,80.93,24.07,80.95,53.83" transform="translate(-350 -457.74)"/><path d="M2938.43,1165.56c0,29.62-36.23,53.68-80.87,53.72s-81-24-81-53.58,36.22-53.68,80.94-53.72,80.93,24,81,53.58" transform="translate(-350 -457.74)"/><path d="M2250.41,1457.28c-26.07-29.11-44.15-80.14-22.23-123.38,5.06-9.92,20-2.31,15,7.58-18.35,36.22-2.62,79.6,19.75,104.6,19.63,22.05,71.45,47.52,83.59,11.09,3.59-10.56,19.44-5.2,15.95,5.31-6.68,20-20.33,26.71-30.6,28.81C2305.17,1496.85,2267.9,1476.92,2250.41,1457.28Z" transform="translate(-350 -457.74)"/><path d="M2729.58,2327.36c51.27-7.29,95.26-50.61,103.51-101.66s-20-106-66.32-129c29-21,24.9-68.94.15-94.86s-62.39-34.4-98-38.37c-98.79-10.85-200.5,5.3-290.72,46.93-31.21,14.43-74,26.61-82.36,64.93-3.7,16.82,2.89,40.13,8.51,56.17,8.88,25.37,24.22,30.75,47.31,34.65,6.29,1.06-8.84,14.74-10.31,15.54-7.25,3.94-14.48,3.6-21.7,10-37,32.87-23.24,89.22,18.24,105.48,105.67,41.61,210.28,57.28,322.54,40" transform="translate(-350 -457.74)" style="fill:#f6d356"/><path d="M2967.29,2290.46l-228.43.33-583.86.67c259.07-47.23,442-14.7,627.86-15.11C2844,2276.35,2906.49,2280.05,2967.29,2290.46Z" transform="translate(-350 -457.74)" style="fill:#f6d356"/><path d="M2330.91,2170.81c-35.3-18.13-41.22-63.45-42.43-100.9-.35-10.95,16.39-11.94,16.79-.55,1.07,32.87,5.81,72.38,33.3,86.51,24,12.28,28.07,6,320.34-39.21,11-1.68,13.6,14.87,2.63,16.6C2362.51,2180.42,2359.2,2185.27,2330.91,2170.81Z" transform="translate(-350 -457.74)"/><path d="M2447.21,2312.25c-11.16-2-7.68-18.77,2.92-16.53a876.42,876.42,0,0,0,258.8,6.94c29.19-3.53,59.28-9.15,81.63-26.25,31.37-24,42.49-70.69,25.33-106.26a8.4,8.4,0,1,1,15.12-7.31c20.51,42.48,7.22,98.22-30.24,126.91-25.56,19.55-58.27,25.77-89.83,29.57A892.64,892.64,0,0,1,2447.21,2312.25Z" transform="translate(-350 -457.74)"/><path d="M1836.47,1106a1687.55,1687.55,0,0,1,207.11-175.09c9-6.53,18.84,7.18,9.77,13.65a1674.45,1674.45,0,0,0-205,173.34C1840.41,1125.76,1828.6,1113.86,1836.47,1106Z" transform="translate(-350 -457.74)"/><path d="M4402.42,2478.92c0-104.81-85-189.47-189.8-189.47l-870.75.67-374.58.34-228.43.33-583.86.67-818,.68c-168.64,0-305.71,137.06-305.37,306v158.56l3371.14-2.69ZM1430.71,2590.79c-37,6-71.89-18.82-77.93-55.1a67,67,0,0,1,55.76-76.93c37-6,71.89,18.48,77.94,55.1S1467.67,2584.74,1430.71,2590.79Zm247.93-4.37c-37,6-71.9-18.48-77.94-55.09s19.15-70.89,56.1-76.93,71.55,18.81,77.6,55.09C1740.78,2546.11,1715.59,2580.71,1678.64,2586.42Zm228.77,0c-37,6-71.89-18.81-77.94-55.43-6-36.28,19.15-70.89,55.77-76.93,37-6,71.89,18.81,77.93,55.43C1969.22,2545.77,1944.36,2580.37,1907.41,2586.42Z" transform="translate(-350 -457.74)"/><path d="M4394.36,2957.3l-.33-501.89c0-86.88-81.38-157.56-181.42-157.56L1337,2300.54c-161.42,0-297.28,114.44-297,260l.34,386.69a8.4,8.4,0,0,1-8.39,8.4h0a8.39,8.39,0,0,1-8.4-8.4l-.35-386.67c-.34-155.92,144.17-276.8,313.78-276.8l2875.62-2.69c109.29,0,198.22,78.21,198.22,174.35l.32,501.89C4411.15,2968.41,4394.36,2968.4,4394.36,2957.3Z" transform="translate(-350 -457.74)"/><path d="M1339,4542.26c-173,0-314.09-124-314.45-276.46l-.33-359.48a8.41,8.41,0,0,1,8.4-8.4h0a8.4,8.4,0,0,1,8.4,8.4l.33,359.46c.32,143.19,133.86,259.68,297.65,259.68l2759.38-2.36c163.94-.31,297.31-117.12,297.31-260.35l-.33-294.26a8.41,8.41,0,0,1,8.39-8.42h0a8.39,8.39,0,0,1,8.4,8.39l.33,294.27c0,152.5-140.9,276.84-314.09,277.17Z" transform="translate(-350 -457.74)"/><path d="M3856,3092.54c-10.78,0-11.28-16.17-.48-16.78L4395.92,3045c11.2-1,12,16.14.95,16.77l-540.37,30.8A4,4,0,0,1,3856,3092.54Z" transform="translate(-350 -457.74)"/><path d="M4200.82,3924.63a8.38,8.38,0,0,1,6.59,9.87c-4.49,22.46,10.86,44.83,28.34,55.33,22.26,13.35,49.56,13.09,68.47,10.63,106.59-14.21,171.84-107.73,228.45-199.64,20.23-32.79,41.19-68.73,57.48-109.27,76-193.41,0-399.65-73.95-589.1-75-190.63-105.05-141.69-514.62-111.91-35.27,2.27-72,4.32-105.55,15.08-60.13,18.42-52.6,18.41-101.9,56.41-15,11.22-21.44,33.72-15,52.42,3.07,14.55,19.8,25.7,32.2,33.65,55.72,37.08,35.47,27.13,268.67,58.52,36.14,4.47,53.63,46.83,31.08,76-102.69,132-213.38,126.82-279.58,157.69-38.23,16.71-64.54,43.1-72.35,72.5-7.27,27.52,2.2,59.84,23,78.59,70.17,64.11,323.56-15.31,450.2-216.59,6-9.41,20.11-.44,14.21,8.95-94.23,149.77-257.62,235.8-372.29,244.76-31.61,3-75.34,1-103.41-24.67-25.67-23.12-36.94-61.45-28-95.36,12.52-47.06,56.56-72.51,81.69-83.49,20.16-9.4,42-15.2,63.12-20.83,26.41-7.6,50-13.9,74.09-25.11,50.6-22.35,97.33-57,136-106.72,14.52-18.78,3.42-46.11-19.95-49-233.92-31.52-217.23-22.18-275.69-61.12-15.79-10.1-36.28-25.08-39.26-43.63-8.52-24.34.19-54.33,21.06-69.88,44.5-34.47,44.9-40,98.45-56.43,9.41-1.89,23.53-12.38,114-18.19,3.41-.31,252.44-22,267.29-23.11,86.08-6.51,166.27-23.87,221.74,52.13,21,28.72,33.89,61.53,46.35,93.27,76.14,195.1,152,402.78,73.92,601.42-27.6,68.7-88.07,162.32-129.24,213.82-47.77,59.81-108.17,97.29-170.06,105.54C4186,4033.15,4174.83,3919.54,4200.82,3924.63Z" transform="translate(-350 -457.74)"/><path d="M3972.78,3874.06a174.92,174.92,0,0,1,41.43-68.39c7.74-7.89,19.79,3.8,12,11.78a158.16,158.16,0,0,0-37.44,61.79c-14.69,45.32,44.11,107.55,130.1,85.71,90.39-23,265.48-188,323.86-423.55,2.74-10.83,19-6.7,16.31,4-34.76,140.23-113.17,270.56-220.77,367-28.67,25.69-67.68,56.72-115.27,68.83C4027.91,4005.48,3952.91,3935.28,3972.78,3874.06Z" transform="translate(-350 -457.74)"/><path d="M3914.22,3844.5c-47.69-2-89.27-25.58-108.44-61.55-40.87-77.89,36.7-149.77,118.59-181.42,82-32.92,159.49-64.05,227-128.6,8-7.71,19.63,4.48,11.61,12.14-90.44,86.47-206.2,118-250,139.85-165,79.63-101.92,198.49,2,202.8,100.23,5.18,322.61-117,428.81-336.91,4.82-10,20-2.7,15.13,7.32C4249.26,3725.22,4020.06,3850.07,3914.22,3844.5Z" transform="translate(-350 -457.74)"/><path d="M1103.51,3880.79C774.92,4078.25,350,3842.44,350,3453.81c0-203.24,121.61-377.93,296.3-455.2-146.14,86.68-243.89,245.91-243.89,428C402.41,3791.59,780.13,4027.63,1103.51,3880.79Z" transform="translate(-350 -457.74)"/><path d="M899.93,2929.07c-274.31,0-497.52,222.4-497.52,497.53,0,365,377.72,601,701.1,454.19,169-75.92,287.56-243.22,293.61-438.74.34-5,.34-10.07.34-15.11C1397.46,3151.67,1174.17,2929.07,899.93,2929.07ZM1082,3376.88a280.5,280.5,0,0,1-105.82,2.36c-12.12,301.78-8.87,319.51-25.87,349.37-20.49,35.61-69.2,49.72-107.5,35.27-87.34-32.25-65.51-174-56.77-243.89,8.48-68.38,31.23-147.11,7.05-163.6-19.48-14.11-62.15,5.71-98.43-1.68-10.08-2-20.15-5-27.21-12.09-9.07-9.41-11.08-23.52-8.4-36.28,3-12.43,9.75-23.52,16.46-34.61,49.39-81,117.58-137.06,187.12-202.23,48.11-45.29,82.4-45.06,120.6,20.15a2563.5,2563.5,0,0,1,122.62,240.2C1117.17,3356.24,1113.37,3370.22,1082,3376.88Z" transform="translate(-350 -457.74)" style="fill:#5fff9f"/><path d="M4650,2138.56c0,5.1,0,10.21-.41,15.31-8,267.79-227.45,482.48-497.28,482.44-274.94,0-497.59-222.95-497.55-497.89,0-274.73,222.75-497.59,497.69-497.55C4426.2,1640.87,4650,1862.77,4650,2138.56Z" transform="translate(-350 -457.74)" style="fill:#f6d356"/><path d="M514,2529c-234.56-251-91.42-669,128.24-683.09,6.61-82.71,44.62-172.19,115-271.39A1398.26,1398.26,0,0,1,1290,1124.87c10.06-4.81,17.27,10.35,7.29,15.13A1381.42,1381.42,0,0,0,771,1584.2c-68.16,96-105.11,182.22-111.82,261.41,146.32,4.81,180.09,165.69,86.39,176.63a78.58,78.58,0,0,1-57.34-16.3c-39.17-31.3-48.22-92.93-46.87-142.84-75.88,5-136.82,65.17-174.89,131.08C373,2156,398.73,2381,526.31,2517.49,533.87,2525.6,521.69,2537.08,514,2529Zm144.14-666.13c-1.28,44.08,6,102.36,40.54,130,21.18,17,57.13,18.86,73.72-2.4C801.41,1953.28,760.09,1866.53,658.18,1862.84Z" transform="translate(-350 -457.74)"/><path d="M1892,770.91c53.57-55.61,128.29-92.55,205-101.36a8.6,8.6,0,0,1,9.3,7.4,8.42,8.42,0,0,1-7.4,9.3c-72.91,8.37-143.92,43.47-194.82,96.3C1896.42,790.56,1884.29,778.9,1892,770.91Z" transform="translate(-350 -457.74)"/><path d="M2201.24,629.09c136.48-129.78,334-128.6,519.18-97.16a8.41,8.41,0,0,1,6.88,9.69,8.32,8.32,0,0,1-9.7,6.88c-73.43-12.5-170-25.22-266.47-12.65-67.38,8.77-163.42,34.2-238.3,105.41C2204.76,648.92,2193.2,636.74,2201.24,629.09Z" transform="translate(-350 -457.74)"/><path d="M2334.93,662.21a784.47,784.47,0,0,0,370.61,193.71c61,13,126.72,18.23,184-6.47,54.28-23.41,106-94.77,99-149.75" transform="translate(-350 -457.74)" style="fill:#2c56fe"/><path d="M2875.3,1232.94c-210.14,0-313.86-277.57-167.11-438.33C2856.9,631.7,3110.91,750,3111.12,975.73h0c.11,141.71-105.58,257.09-235.62,257.21Zm-154.71-427c-136.29,149.32-41.91,410.21,154.71,410.21h.2c120.76-.11,218.93-108,218.82-240.41h0C3094.11,766.71,2859.59,653.67,2720.59,805.93Z" transform="translate(-350 -457.74)"/><path d="M2115,1158.07C1966.47,996,2073.27,719.61,2281.52,719.45h.2c63.07,0,122.33,26.77,166.89,75.39,146.59,160,44.66,438.44-166.64,438.62C2276.48,1232.26,2188.67,1238.53,2115,1158.07Zm166.57-421.82c-192.89.16-293.54,258.3-154.19,410.47,70,76.37,158,70.68,154.64,70,195.75-.19,291.54-260.68,154.25-410.48C2366.24,729.82,2278.16,735.51,2281.52,736.25Z" transform="translate(-350 -457.74)"/><path d="M1927.73,1086.24c-34.64,4.48-68.12-8.15-96.3-27.57-21-14.44-56.93-39.63-56.72-67.93.44-61,69.13-124.13,112-158.76,97.72-78.94,213.57-131.57,328.11-183.14,23.85-10.74,49.58-21.73,75.31-17,108.63,19.81-16.61,210.69-52.62,252.8-65.72,76.85-153.36,131.76-243.54,177.52C1972.9,1072.82,1951.15,1083.22,1927.73,1086.24Z" transform="translate(-350 -457.74)" style="fill:#2c56fe"/><text transform="translate(3668.5 1921.35)" style="font-size:672px;fill:#684e04;font-family:Schoolbell-Regular, Schoolbell">P</text><text transform="translate(3604.17 1817.99)" style="font-size:851px;fill:#684e04;font-family:Schoolbell-Regular, Schoolbell">-</text><text transform="translate(3604.17 1914.63)" style="font-size:851px;fill:#684e04;font-family:Schoolbell-Regular, Schoolbell">-</text></svg>