<svg id="Layer_1" data-name="Layer 1" xmlns="http://www.w3.org/2000/svg" viewBox="0 0 3932.9 4300"><path d="M2875.5,2991.13a3.38,3.38,0,0,1-.56,0,8.39,8.39,0,0,1-7.84-8.92c16.22-248-63-501.39-242.26-774.67-6.09-9.28,7.92-18.46,14-9.19,181.31,276.43,261.44,533.18,245,785A8.41,8.41,0,0,1,2875.5,2991.13Z" transform="translate(-533.55 -350)"/><path d="M3269.92,2909.48C3247.74,2610,3156,2316.1,2997.36,2035.86c-5.42-9.59,9-18,14.63-8.26,159.89,282.4,252.32,578.68,274.7,880.63C3287.47,2919.32,3270.76,2920.67,3269.92,2909.48Z" transform="translate(-533.55 -350)"/><path d="M1498.06,3820.56c6.84-25.85-8.13-44.43-30.57-59.13-60.45-39.49-161-61-212.32-33.59,9.75-46,37-95.75,52.75-137.74,125.88-342.29,124.16-333.68,133.37-359.46,25.14,7.94,60.24,9.41,86.67,9.41-34.77,11.56-73.11,30.14-95.74,58.79-21.51,27.54-28.22,69.2-7.4,97.08,17.14,22.85,48.72,31.25,77.61,33.93a79.44,79.44,0,0,0-12.77,13.44c-15.79,11.42-21.83,43-12.76,60.14,6.38,11.08,16.79,18.81,27.88,25.52,58.29,35.7,119.57,30,125,30.58Z" transform="translate(-533.55 -350)"/><path d="M2003.65,2798.28a133.09,133.09,0,0,1-6,32.25l-87.35,173.35c-83.22-116-184.61-170.15-333.25-143.78,19.82-62.83,42.33-135.73,79.28-183.43C1747.7,2761.59,1876,2807.25,2003.65,2798.28Z" transform="translate(-533.55 -350)"/><path d="M1379.59,3876.36c-29.58-8.36-58.27-17.15-84.69-32.8-33.17-19.18-79.49-59.25-68.21-94.13,2-11.54,10.4-21.68,24.62-29,56.46-30.29,161.27-4.9,220.78,34,25.61,16.65,41.82,38.73,34.13,68.17C1494.28,3873.4,1427.85,3889.65,1379.59,3876.36ZM1243,3753.53l-8.88,1,8.32,1.12c-2.35,26.84,30,55.44,61,73.36,24.77,14.66,52.31,23.09,80.72,31.13,39.8,10.91,96.42-1.25,105.78-41.53,5.26-22.64-7-37.16-27-50.2-40.83-26.67-95.76-43.66-143.35-44.32C1295.69,3723.22,1247.29,3729.53,1243,3753.53Z" transform="translate(-533.55 -350)"/><path d="M3502.29,926.41c-115.92-110-307.37-120.82-414.21-21.5-12.74-12.74-34.26-29.57-51.07-22.85-7.05,2.69-12.43,9.08-17.8,14.79-25.87,26.53-64.84,38-102.13,38-31.58,0-61.14-10.08-92.38-13.1-19.82-2-36.28-1.35-55.77-8.4-60.13-22.51-113.88-55.43-177.71-67.53-59.8-11.08-121.28-5.37-182.08.68-30.91,3-62.15,6-92.39,13.43-171.42,43.16-316.22,243.26-385.66,407.17-70.21,167.44-51.93,288,20.49,479.38,15.79,41.33,32.59,83,53.08,122.29a363.09,363.09,0,0,1-64.84-11.09c-130.34-33.59-238.18-141.77-271.77-271.77-23.86-91.72,2.68-210.64,92.38-240.88C1262.9,1141.08,1836,352,2250.91,605.58c25.53-154.87,187.79-267.07,344-254.64,156.22,12.09,292.61,133.37,343,281.85,25.53-65.84,98.1-106.15,168.64-107.5,70.89-1.34,138.75,30.24,195.19,72.9,100.78,75.92,170.66,190.15,196.86,313.1C3499.61,916.33,3501,921.37,3502.29,926.41Z" transform="translate(-533.55 -350)" style="fill:#2c56fe"/><path d="M3282.58,1479.36c-11,0-11.19-16.56-.18-16.8,94-2,183.58-44.65,239.56-114.1,84-104.59,88.63-265.57,10.78-374.49C3426,824.72,3195.58,803.86,3086.43,918.75c-7.62,8.1-19.84-3.52-12.17-11.54C3191,784.1,3434,807.09,3546.4,964.19c82.08,114.83,77.2,284.54-11.35,394.8-59.08,73.26-153.39,118.27-252.28,120.37Z" transform="translate(-533.55 -350)"/><path d="M3282.58,1479.36c-11,0-11.19-16.56-.18-16.8,94-2,183.58-44.65,239.56-114.1,84-104.59,88.63-265.57,10.78-374.49C3426,824.72,3195.58,803.86,3086.43,918.75c-7.62,8.1-19.84-3.52-12.17-11.54C3191,784.1,3434,807.09,3546.4,964.19c82.08,114.83,77.2,284.54-11.35,394.8-59.08,73.26-153.39,118.27-252.28,120.37Z" transform="translate(-533.55 -350)"/><path d="M3233.75,1145.09c26.76-79.13,110.09-136.87,193.25-133,11.26.48,10.31,17.41-.66,16.8-76.24-3.58-152.22,49.21-176.68,121.55C3246.13,1161,3230.17,1155.64,3233.75,1145.09Z" transform="translate(-533.55 -350)"/><path d="M3366.82,1178.09a133.44,133.44,0,0,0-63-88.51c-9.67-5.63-1-20.17,8.46-14.5a150.46,150.46,0,0,1,71,99.8,8.4,8.4,0,0,1-16.5,3.21Z" transform="translate(-533.55 -350)"/><path d="M2459.24,840.07c260.39-10.19,543,117.67,736,302.75,13.4,12.9,26.31-.68,26.09-19.31-.74-65.45-209.51-356-337.11-491.64" transform="translate(-533.55 -350)" style="fill:#2c56fe"/><path d="M2458.48,813.79c-31.39,156.48-177.54,282.27-337,290-18.54.9-22.3,5.45-24.09,20.69-9.79,83.1-48.16,163.1-106.69,225.22-17.85,19-53.26,36.21-66.82,56.7-60.32,91.27,81.68,271.88,50.71,324.7-23.11,39.43-102.7,24.53-134.56,8.24-47.14-24.1-79.91-70.32-98.81-119.78-36.9-96.55,6.22-135.37,11-151.67,7.32-25-15.26-47.4-30.2-68.73-32.72-46.73-31.84-110.6-11.94-164.06s56.32-98.87,92.14-143.27" transform="translate(-533.55 -350)" style="fill:#2c56fe"/><path d="M3233.75,1145.09c26.76-79.13,110.09-136.87,193.25-133,11.26.48,10.31,17.41-.66,16.8-76.24-3.58-152.22,49.21-176.68,121.55C3246.13,1161,3230.17,1155.64,3233.75,1145.09Z" transform="translate(-533.55 -350)"/><path d="M3366.82,1178.09a133.44,133.44,0,0,0-63-88.51c-9.67-5.63-1-20.17,8.46-14.5a150.46,150.46,0,0,1,71,99.8,8.4,8.4,0,0,1-16.5,3.21Z" transform="translate(-533.55 -350)"/><path d="M2971.38,2038.42c181.5-116.1,297.43-329.48,302.51-556.8,4.25-190.24-55.33-446.7-235.27-595.9-8.56-7.07,2.17-20,10.72-12.93,184.54,153,245.68,415,241.35,609.23-5.22,232.83-124.11,451.45-310.26,570.57C2971,2058.51,2962.05,2044.46,2971.38,2038.42Z" transform="translate(-533.55 -350)"/><path d="M2523.5,2210.49c-59.14,0-118.37-10-177.21-30.15a8.38,8.38,0,1,1,5.41-15.87c102.59,35,206.41,38.61,308.52,10.59,10.78-2.9,15.12,13.31,4.43,16.21A532.15,532.15,0,0,1,2523.5,2210.49Z" transform="translate(-533.55 -350)"/><path d="M2046.17,1959c-30.13-37.28-81.59-121.74-112.21-205.31-3.83-10.5,12-16.13,15.78-5.77,21.47,58.62,49.27,112.26,90.15,174,5.41,8,12,17.45,19.34,26.54a8.4,8.4,0,0,1-13.06,10.57Z" transform="translate(-533.55 -350)"/><path d="M2459.24,840.07c260.39-10.19,543,117.67,736,302.75,13.4,12.9,26.31-.68,26.09-19.31-.74-65.45-209.51-356-337.11-491.64" transform="translate(-533.55 -350)" style="fill:#2c56fe"/><path d="M2440.25,835.72c-11.48-93.11-69.71-178.83-152-223.68-9.76-5.35-1.74-20.06,8-14.76,87,47.44,148.5,138,160.63,236.41C2458.3,844.75,2441.6,846.67,2440.25,835.72Z" transform="translate(-533.55 -350)"/><path d="M2923.89,947.26a406.14,406.14,0,0,0,22.67-155.5,8.41,8.41,0,0,1,7.94-8.83,8.54,8.54,0,0,1,8.82,8,422.59,422.59,0,0,1-23.62,162C2936,963.33,2920.16,957.79,2923.89,947.26Z" transform="translate(-533.55 -350)"/><path d="M2406.72,723c30.86,35.31,54.09,95.57,37.41,141.13-47.06,128.46-177.74,232.66-322.61,239.69-18.54.9-22.3,5.45-24.09,20.69-9.79,83.1-48.16,163.1-106.69,225.22-17.85,19-53.26,36.21-66.82,56.7-60.32,91.27,81.68,271.88,50.71,324.7-23.11,39.43-102.7,24.53-134.56,8.24-47.14-24.1-79.91-70.32-98.81-119.78-36.9-96.55,6.22-135.37,11-151.67,7.32-25-15.26-47.4-30.2-68.73-32.72-46.73-31.84-110.6-11.94-164.06s56.32-98.87,92.14-143.27" transform="translate(-533.55 -350)" style="fill:#2c56fe"/><path d="M2088.89,1107.69c-77.49-39.14-135.74-112.89-155.85-197.3a8.4,8.4,0,1,1,16.34-3.87c30.45,127.83,146.7,193.23,157.19,188.31,4.25-9.88,19.56-3.64,15.11,6.89C2116.51,1114.06,2101.32,1113.82,2088.89,1107.69Z" transform="translate(-533.55 -350)"/><path d="M2869.4,2106.23c-6.75-13.18,9.45-8.49,102-67.81,181.5-116.1,297.43-329.48,302.51-556.8,4.25-190.24-55.33-446.7-235.27-595.9-8.57-7.11,2.19-20,10.72-12.93,184.54,153,245.68,415,241.35,609.23-5.22,232.83-124.11,451.45-310.26,570.57a1148.62,1148.62,0,0,1-99.75,57.32A8.38,8.38,0,0,1,2869.4,2106.23Z" transform="translate(-533.55 -350)"/><path d="M2523.51,2210.49c-59.13,0-118.36-10-177.22-30.15a8.38,8.38,0,1,1,5.41-15.87c102.59,35,206.41,38.61,308.52,10.59,16.54-4.35,33.31-9.34,51.21-14.69,10.4-3.42,15.63,12.88,4.83,16.07C2650.93,2196,2599.82,2210.49,2523.51,2210.49Z" transform="translate(-533.55 -350)"/><path d="M2046.17,1959c-30.13-37.28-81.59-121.74-112.21-205.31-3.83-10.5,12-16.13,15.78-5.77,21.47,58.62,49.27,112.26,90.15,174,5.41,8,12,17.45,19.34,26.54a8.4,8.4,0,0,1-13.06,10.57Z" transform="translate(-533.55 -350)"/><path d="M2309.33,1347.18c-16.48-4.37-31-3.25-48.86-14.24-28.77-17.59-24.75-47.24-25.57-77.06-2.26-78.61-3.14-67.63-5.37-145.43-.3-10.8,16.47-12,16.8-.46,1.78,62.12,5.37,121.84,5.51,158,.17,37.27,3.46,52.5,45.57,59.71,5.13.85,10.45,1.77,16.16,3.25C2324.13,1333.68,2320.37,1349.75,2309.33,1347.18Z" transform="translate(-533.55 -350)"/><path d="M2440.25,835.72c-11.48-93.11-69.71-178.83-152-223.68-9.76-5.35-1.74-20.06,8-14.76,87,47.44,148.5,138,160.63,236.41C2458.3,844.75,2441.6,846.67,2440.25,835.72Z" transform="translate(-533.55 -350)"/><path d="M2923.89,947.26a406.14,406.14,0,0,0,22.67-155.5,8.41,8.41,0,0,1,7.94-8.83,8.54,8.54,0,0,1,8.82,8,422.59,422.59,0,0,1-23.62,162C2936,963.33,2920.16,957.79,2923.89,947.26Z" transform="translate(-533.55 -350)"/><path d="M2088.89,1107.69c-77.49-39.14-135.74-112.89-155.85-197.3a8.4,8.4,0,1,1,16.34-3.87c30.45,127.83,146.7,193.23,157.19,188.31,4.25-9.88,19.56-3.64,15.11,6.89C2116.51,1114.06,2101.32,1113.82,2088.89,1107.69Z" transform="translate(-533.55 -350)"/><path d="M2794.8,1711.51c-19.82-64.5-46.7-127.66-87.35-181.75-60.15-80.49-169.55-144.68-279.17-134.71-187.44,18.83-301.1,157.19-246.91,368.86,14.78,54.76,40,107.51,71.22,148.16,178.16,235.37,569.76,222.19,569.76-44.35C2824.36,1815,2811.93,1761.56,2794.8,1711.51Zm-437.74-188.13c-82.48,53.66-135.7,132.84-153.19,206.27-3.69,13.1-6.71,33.26-15.78,46.36-53.88-210.49,58.26-349.92,246.91-368.87,66.52-5.71,134,14.78,190.48,52.75C2612.6,1460.89,2486,1442.78,2357.06,1523.38Zm155.21,542.21c4.37-29.9,27.21-66.85,40-85.33,19.82-30.57,47.37-57.11,81.3-69.54,23.85-9.07,49-10.42,72.9-15.79,37-8.06,70.88-23.51,106.49-35.61C2812.94,2017.29,2671.09,2091.63,2512.27,2065.59Z" transform="translate(-533.55 -350)"/><path d="M2179.94,1778.07c-55.33-216.19,61.2-359.9,254.23-379.28,66.17-5.71,135.73,13.58,196,54.16a8.42,8.42,0,0,1,3.35,9.42c-2.53,8.2-10.71,5.3-14.08,5.93-185.52-12.62-364.78,87.53-410,273.42-3,12.33-6.65,27.72-14.5,39.07A8.41,8.41,0,0,1,2179.94,1778.07Zm255.78-362.55c-170.46,17.1-283.63,136.53-245.24,333,2.07-7.61,3.44-14.47,5.31-21.13,37.06-155.8,200.41-280.73,398-276.86C2545.39,1424.38,2490,1410.76,2435.72,1415.52Z" transform="translate(-533.55 -350)"/><path d="M2510.9,2073.89a8.42,8.42,0,0,1-7-9.52c4.87-33.2,30.57-73.22,41.4-88.9,52.77-81.38,112.34-78.16,159.24-88.75,67.41-14.68,116.75-50.24,116.75-27.39C2821.34,2019.62,2679.85,2101.46,2510.9,2073.89Zm11.3-15.29c143.39,20.25,274.58-43,282-187.33-52.79,19.13-70.68,28.3-121.73,36.58-15.34,2.53-31.22,5.12-46,10.73-37.17,13.58-62.51,43.53-77.22,66.24C2549.94,1998.4,2529.16,2030.55,2522.2,2058.6Z" transform="translate(-533.55 -350)"/><path d="M2351.26,1152.44a525.82,525.82,0,0,1,145.5-115.78c9.78-5.27,17.76,9.5,8,14.77a509.28,509.28,0,0,0-140.87,112.1C2356.58,1171.89,2343.9,1160.78,2351.26,1152.44Z" transform="translate(-533.55 -350)"/><path d="M2079,1212.77c37.08-9.28,75.15-17.81,113.17-25.33,11-2.08,14.05,14.38,3.25,16.47-37.73,7.48-75.54,15.95-112.35,25.13C2072.74,1232.07,2068,1215.5,2079,1212.77Z" transform="translate(-533.55 -350)"/><path d="M2040.3,1378.87c25.38-59.18,73.1-109.31,130.92-137.59a8.38,8.38,0,0,1,10.18,2.23c9.18,11.18-14.36,16.5-41,82.41-4.18,10.31-19.74,4-15.58-6.3a322.86,322.86,0,0,1,22.37-44.91c-40,27.39-72.42,66.4-91.45,110.79C2051.34,1395.69,2035.94,1389.1,2040.3,1378.87Z" transform="translate(-533.55 -350)"/><path d="M2477.63,1213.07c-41.39-7.19-57.64-7.43-74.32-10.27-7.89-1.35-16.06-2.79-22.26-1.15-10.21,2.43-14.77-11.92-5.36-15.88,36.13-15.19,73.48-30.94,113.23-37.17,45.29-7.18,87.63,0,119.11,20.27a8.38,8.38,0,0,1,2.52,11.59c-13.91,22-35-56-195.3,7.18,18.73,1.78,42.68,4.94,65.27,8.89C2491.57,1198.44,2488.37,1215.21,2477.63,1213.07Z" transform="translate(-533.55 -350)"/><path d="M1698.45,2289.1c68.2,13.44,152.42,32.14,245.84,57.33,60.34-176.39,121.47-337,136.28-375.59-76.22-20.75-150.84,9.15-212,57.74C1787.9,2092.79,1730.53,2188.88,1698.45,2289.1Z" transform="translate(-533.55 -350)" style="fill:#5fff9f"/><path d="M1684.61,2593.71c23.83,86.34,72.29,146.5,136.67,171.29,20.2-103.21,68.07-257,117.59-402.66-93.25-25.11-177.26-43.73-245.12-57.07C1664.37,2405.91,1660.83,2507.65,1684.61,2593.71Z" transform="translate(-533.55 -350)" style="fill:#5fff9f"/><path d="M2220,2455.53c.41-1.25.69-2.49,1.08-3.73-92.3-34.11-182.56-62.16-266-85.05-49.79,146.36-97.92,300.95-117.75,403.62C1979.44,2810.09,2149.79,2671.26,2220,2455.53Z" transform="translate(-533.55 -350)" style="fill:#5fff9f"/><path d="M2241.55,2441.53c48.51,18.22,97.48,38,146.25,59.71,60.37-199.35-39.27-412.09-228.71-508.17C2259.57,2075.1,2295.83,2255.75,2241.55,2441.53Z" transform="translate(-533.55 -350)" style="fill:#5fff9f"/><path d="M1677.21,2302.05c-88.73-17-146.2-24.46-154.71-25.52-37.76,182.08,52.65,376.65,235.38,470.28C1640.55,2649.16,1634.07,2451.19,1677.21,2302.05Z" transform="translate(-533.55 -350)" style="fill:#5fff9f"/><path d="M2382.08,2517.07c-48.41-21.54-97-41.23-145.2-59.35-50.2,157-177.64,325.24-336.09,335.72,217.32,33.7,415.69-86.22,481.93-276.23C2382.51,2517.13,2382.29,2517.17,2382.08,2517.07Z" transform="translate(-533.55 -350)" style="fill:#5fff9f"/><path d="M1681.91,2285.87c49.13-155.11,176.63-328.84,337.69-338-221.23-35-438.6,93.19-493.54,312.2C1538.74,2261.69,1595.89,2269.35,1681.91,2285.87Z" transform="translate(-533.55 -350)" style="fill:#5fff9f"/><path d="M2096.6,1976c-14.18,36.93-75.54,198-136.08,374.88,83.26,22.87,173.25,50.85,265.27,84.8C2286.31,2227.1,2230.36,2026.14,2096.6,1976Z" transform="translate(-533.55 -350)" style="fill:#5fff9f"/><path d="M3330.32,3341.59c71.75-10.13,133.38-70.7,145-142.14s-27.86-148.36-92.65-180.65c40.62-29.34,34.93-96.45.32-132.75s-87.27-48.22-137.08-53.81c-138.23-15.3-280.58,7.17-406.89,65.32-43.68,20.15-103.62,37.14-115.33,90.74-10,45.38,15.83,78.09,58.35,93,10.76,3.8,23.85,7,28.18,17.51,3.69,9.29-1.8,20.16-9.61,26.49s-17.72,9.5-26.69,14.14c-29.66,15.41-48.86,49-47.17,82.41s24.37,64.79,55.5,77c147.84,58.36,294.2,80.41,451.32,56.35" transform="translate(-533.55 -350)" style="fill:#5fff9f"/><path d="M2774.14,3119.05c-47.78-24.61-55.79-86.91-57.43-138.41a8.42,8.42,0,0,1,8.14-8.66c4.86.72,8.51,3.51,8.66,8.13,1.49,46.92,8.32,103.41,48.31,124,34.88,17.94,40.29,9,450.41-54.13a8.54,8.54,0,0,1,9.59,7,8.4,8.4,0,0,1-7,9.61C2830.7,3129.27,2814.7,3139.87,2774.14,3119.05Z" transform="translate(-533.55 -350)"/><path d="M2935.77,3316.81c-11.1-2-7.81-18.67,2.95-16.54a1234.08,1234.08,0,0,0,363.16,10.08c41.33-5,84-13,115.87-37.31,45.16-34.51,61.22-101.63,36.58-152.81-4.87-10.05,10.38-17.24,15.12-7.28,28,58.06,9.75,134.28-41.5,173.45-35.08,26.8-80.36,35.36-124.07,40.61A1245.26,1245.26,0,0,1,2935.77,3316.81Z" transform="translate(-533.55 -350)"/><path d="M1433.39,3069.87c82.76-50.92,186.74-61.58,278.22-28.67,10.33,3.72,5,19.48-5.71,15.81-85.38-30.77-186.44-20.37-263.72,27.17C1432.81,3090.05,1423.88,3075.71,1433.39,3069.87Z" transform="translate(-533.55 -350)"/><path d="M1500.25,3423.27a375.21,375.21,0,0,1,190.23-11.71c10.68,2.08,7.92,18.37-3.28,16.46a358.39,358.39,0,0,0-181.7,11.19C1495,3442.77,1489.66,3426.73,1500.25,3423.27Z" transform="translate(-533.55 -350)"/><path d="M1723.63,3269.3a312.91,312.91,0,0,0-198.38-21.22c-11,2.39-14.45-14-3.67-16.41a329.71,329.71,0,0,1,209.11,22.41,8.39,8.39,0,1,1-7.06,15.22Z" transform="translate(-533.55 -350)"/><path d="M2228.73,4515.43a1140.11,1140.11,0,0,1-141.87-200.63,6505.17,6505.17,0,0,1,553.77-486.73q156.69,197.58,330.95,380.33" transform="translate(-533.55 -350)" style="fill:#5fff9f"/><path d="M2222.43,4521c-89.34-101.1-131.92-185.2-146-207.7,41-38.21,242.15-243.68,559-491.85l6.58-5.11c38.33,46.16,143.56,184.91,335.63,386.27l-12.14,11.61C2851.8,4095,2742.06,3969,2639.26,3839.82a6525,6525,0,0,0-541.92,476.45A1133.1,1133.1,0,0,0,2235,4509.9Z" transform="translate(-533.55 -350)"/><path d="M3330.32,3341.59c71.75-10.13,133.38-70.7,145-142.14s-27.86-148.36-92.65-180.65c40.62-29.34,34.93-96.45.32-132.75s-87.27-48.22-137.08-53.81c-138.23-15.3-280.58,7.17-406.89,65.32-43.68,20.15-103.62,37.14-115.33,90.74-10,45.38,15.83,78.09,58.35,93,10.76,3.8,23.85,7,28.18,17.51,3.69,9.29-1.8,20.16-9.61,26.49s-17.72,9.5-26.69,14.14c-29.66,15.41-48.86,49-47.17,82.41s24.37,64.79,55.5,77c147.84,58.36,294.2,80.41,451.32,56.35" transform="translate(-533.55 -350)" style="fill:#f6d356"/><path d="M1502.76,4650c.67-3-6.72-92.05-6-95.07a3850.43,3850.43,0,0,1,140.08-506.6c53-151,78.14-240.54,168.31-354.09,128.6,203.1,194,318,361.81,649.38L2646,4009c-207.51-279.75-435.75-586.67-469-631.57,159.76-67.83,337.18-84.25,509.62-99.78,239.53-21.83,476.71,10.42,717.24,10.08,573.8-.8,845.45,208.75,997.75,721.27,52.75,177,57.45,451.51,64.84,641Z" transform="translate(-533.55 -350)" style="fill:#f6d356"/><path d="M2774.14,3119.05c-47.78-24.61-55.79-86.91-57.43-138.41a8.42,8.42,0,0,1,8.14-8.66c4.86.72,8.51,3.51,8.66,8.13,1.49,46.92,8.32,103.41,48.31,124,34.88,17.94,40.29,9,450.41-54.13a8.54,8.54,0,0,1,9.59,7,8.4,8.4,0,0,1-7,9.61C2830.7,3129.27,2814.7,3139.87,2774.14,3119.05Z" transform="translate(-533.55 -350)"/><path d="M2935.77,3316.81c-11.1-2-7.81-18.67,2.95-16.54a1234.08,1234.08,0,0,0,363.16,10.08c41.33-5,84-13,115.87-37.31,45.16-34.51,61.22-101.63,36.58-152.81-4.87-10.05,10.38-17.24,15.12-7.28,28,58.06,9.75,134.28-41.5,173.45-35.08,26.8-80.36,35.36-124.07,40.61A1245.26,1245.26,0,0,1,2935.77,3316.81Z" transform="translate(-533.55 -350)"/><path d="M2131.54,4292.52c-133.21-261.31-208.88-401-358.11-631.89-46-71.13-69.12-93.9-158.32-92.62a221.49,221.49,0,0,1-114.79-31.85c-10.34-6.3-23.17-15.23-30.65-28.81-11.17-20.27-4-55.57,13.91-69.88l1.1-1.47c-30.72-5.32-53.09-17.06-66.66-35-24.51-33.07-14.66-79,7.71-107.38,16.78-21.32,40-36,62.5-46.68-36.73-2.65-76.84-10-99-39.14-23.63-31-20.36-87.33,26.6-126.53-22.73-6.34-39.07-16.7-49.65-31.5-24.43-32-14.44-79,7.45-106.85,22.67-29.49,56.85-45.67,90.41-58.73,154.28-59.8,276.35-50.91,373.16,27.3,77.88,62.93,114.86,149.45,171.7,225.88,673.45,913,655.41,868.41,642.11,878.37a8.51,8.51,0,0,1-11.74-1.74c-688.55-930.63-631.84-843.15-695.2-943.3-34.23-54-66.56-105.05-117.43-146.15-91.68-74.11-208.31-82.15-356.51-24.67-31.28,12.17-63,27-83.23,53.34-18.05,23-26.68,61.05-7.22,86.58,10.66,14.89,29.34,24.27,57.25,28.87a8.45,8.45,0,0,1,6.84,6.49c2.34,10.74-13.2,10.11-34.09,36.06-17.91,22.8-26.52,60.89-7.09,86.41,17.7,23.26,51.56,29.27,79.1,31.89,24.12,2.29,49.81,2.07,46.42,2.07,9.44,0,11.67,13.25,2.74,16.33l-9.28,3.12c-27.13,10.4-61.32,25.89-82.64,53-18,22.77-26.69,61-7.45,86.94,12.93,17.1,37.09,27.43,71.77,30.55a8.41,8.41,0,0,1,4.42,15,56.8,56.8,0,0,0-11.13,11.74,9.24,9.24,0,0,1-1.91,1.94c-11.92,8.73-17.56,35.79-10.25,49,5.58,10.1,16.11,17.38,24.67,22.57A204.44,204.44,0,0,0,1615,3551.21c97.91-1.5,124.73,26.28,172.56,100.3,150.8,233.32,225.45,371.43,359,633.4C2151.56,4294.8,2136.55,4302.43,2131.54,4292.52Z" transform="translate(-533.55 -350)"/><path d="M1433.39,3069.87c82.76-50.92,186.74-61.58,278.22-28.67,10.33,3.72,5,19.48-5.71,15.81-85.38-30.77-186.44-20.37-263.72,27.17C1432.81,3090.05,1423.88,3075.71,1433.39,3069.87Z" transform="translate(-533.55 -350)"/><path d="M1500.25,3423.27a375.21,375.21,0,0,1,190.23-11.71c10.68,2.08,7.92,18.37-3.28,16.46a358.39,358.39,0,0,0-181.7,11.19C1495,3442.77,1489.66,3426.73,1500.25,3423.27Z" transform="translate(-533.55 -350)"/><path d="M1723.63,3269.3a312.91,312.91,0,0,0-198.38-21.22c-11,2.39-14.45-14-3.67-16.41a329.71,329.71,0,0,1,209.11,22.41,8.39,8.39,0,1,1-7.06,15.22Z" transform="translate(-533.55 -350)"/><path d="M2228.73,4515.43a1140.11,1140.11,0,0,1-141.87-200.63,6505.17,6505.17,0,0,1,553.77-486.73q156.69,197.58,330.95,380.33" transform="translate(-533.55 -350)" style="fill:#f6d356"/><path d="M2222.43,4521c-89.34-101.1-131.92-185.2-146-207.7,41-38.21,242.15-243.68,559-491.85l6.58-5.11c38.33,46.16,143.56,184.91,335.63,386.27l-12.14,11.61C2851.8,4095,2742.06,3969,2639.26,3839.82a6525,6525,0,0,0-541.92,476.45A1133.1,1133.1,0,0,0,2235,4509.9Z" transform="translate(-533.55 -350)"/><path d="M976.67,4592.6c-195.48-13.05-484.77-162.69-438.1-351.23,39.69-160.31,285-171.39,327.21-320.29,24.34-85.56-54.32-109.75-142-126.7-53.34-10.37-108.49-21.06-141.55-65.52-46.92-63.18-38.07-196.72,97.62-303.2,124.61-97.75,304.56-136.45,386.37-275,16.19-27.4,25.25-72.77-2.63-88.21-11.74-6.53-26.78-5.42-41.3-3.22-94.88,14.27-224.6,78.86-320.23,8.5-67.81-49.83-77.47-143.37-77.8-237a8.39,8.39,0,0,1,8.37-8.43h0a8.4,8.4,0,0,1,8.4,8.36c.31,89.27,9.12,178.14,70.94,223.58,87.94,64.65,214.64,2.41,307.8-11.58,16.58-2.46,35.79-3.84,51.93,5.12,37.36,20.75,30.49,75,9,111.44C1036,3235,959.18,3284,897.31,3318.29c-69.79,38.6-144.67,71.66-207.06,120.56-70.47,55.35-113,126.34-116.63,194.81-1.77,33.33,6.08,63.58,22.13,85.16,51.68,69.53,170.15,46.4,247.66,97.51,37.16,24.49,52.67,59.61,38.53,109.34-43.81,154.64-290.26,171.07-327.07,319.77-43.59,176.21,237.59,318,422.91,330.43,49,3.15,213.92,6.66,280.63-87.36,16.12-22.75,16.94-42.69-16.45-63.19-73.61-45.25-220.7-25.76-252.33-75.75-10.34-16.27-8.12-40.09,5.38-57.9,62.18-82.22,357.37-74.5,412.3-139.43,12.32-14.57,16.11-28.12,11.56-41.44-10.81-31.69-67.91-57.15-105-65.09-40.12-8.56-95.09-20.3-105.39-65.51-7-30.87,12.5-59.55,27.8-78.44a458.51,458.51,0,0,1,119.08-104c9.63-5.71,18.15,8.66,8.72,14.37a441.34,441.34,0,0,0-114.74,100.19c-20.82,25.69-28.59,46.09-24.49,64.14,7.92,34.74,54.84,44.78,92.53,52.85,78.24,16.7,155.58,71.35,102.74,133.75-17.52,20.74-43.83,30.68-67.24,37.7-93.61,28.21-301.74,44.71-344.51,101-7.64,10.11-12.33,26.54-4.59,38.78,5.87,9.25,17.88,14.24,27.69,17.52,69.6,23.5,153.48,12.46,219.26,52.92,35.9,22,46.62,51.53,21.38,87.2C1212.82,4581.82,1078.21,4599.47,976.67,4592.6Z" transform="translate(-533.55 -350)"/><path d="M1242.36,3883.25c12.55,2.47,21.13,15.27,22.18,28,1.77,21.67-16.94,53.83-35.85,63.44-11.22,5.7-26.18,5.47-35.22-3.28C1163.15,3942.1,1207.22,3876.33,1242.36,3883.25Z" transform="translate(-533.55 -350)"/><path d="M1265,4220.75c-22.65,57.69-123.75,56.94-138.59,28.44-9.79-18.82-.83-39.24,16.15-49.07C1167.5,4185.69,1286.62,4165.67,1265,4220.75Z" transform="translate(-533.55 -350)"/><path d="M1003.27,4631.6c-23,3.16-46.23-1.24-68.87-6.19-19.8-4.33-42.78-10.94-47.86-32.21-12.65-52.91,84-66.49,118-54.47,19,6.71,58.33,20,59,43.88C1064.42,4610.87,1026.09,4628.45,1003.27,4631.6Z" transform="translate(-533.55 -350)"/><path d="M600.26,4118.7c38.16-15.18,56.14,1.9,54.58,30.94-1.59,29.78-20.8,55.53-41.17,77.31-7.78,8.33-16.08,16.54-26.37,21.42-26.39,12.51-49.74-4-48.12-35.44C541.6,4166.34,554.59,4136.86,600.26,4118.7Z" transform="translate(-533.55 -350)"/><path d="M741.73,3813.7c-17.35,8.48-37.44,9-56.73,8.07-31.5-1.48-68.83-8.77-80.61-42.49-6.8-19.47-3.13-41.68,13.57-54.62,34.21-26.51,103.1-11,133.89,14C779.39,3761.09,773.58,3798.13,741.73,3813.7Z" transform="translate(-533.55 -350)"/><path d="M904.53,3270.86c9.87,2.3,20,7,24.87,15.88,7.09,12.76,5,41.33-17.45,65.49-20.38,22-59.46,40-83.1,41.37-26.3,1.49-43.35-13.17-46-25.82C777.52,3341.51,833.07,3254.22,904.53,3270.86Z" transform="translate(-533.55 -350)"/><path d="M1471.51,1948.86l-179.86-183.13c-7.79-8,4.2-19.67,12-11.74l179.87,183.12C1491.28,1945.07,1479.29,1956.8,1471.51,1948.86Z" transform="translate(-533.55 -350)"/><path d="M1570.05,1883.9a1730.3,1730.3,0,0,1-85.19-196.12c-3.81-10.45,12-16.14,15.78-5.71,65.67,181.06,97.84,196.81,80.71,205.51C1580.12,1888.2,1572.13,1888,1570.05,1883.9Z" transform="translate(-533.55 -350)"/><path d="M1463.8,2056.79l-218.89-50.68c-10.93-2.46-6.88-19,3.78-16.34l218.92,50.69C1478.51,2042.91,1474.47,2059.53,1463.8,2056.79Z" transform="translate(-533.55 -350)"/><path d="M4302.63,3355.19c149.83-184.37,185.59-454,89-671.06-84.64-190.23-226.67-239.73-332.35-203.21-46.63,195.26-172.26,50.54-14.41-12.5,21.15-100.91-6.57-210.85-76.14-288.14-83.07-92.29-218.74-130.05-337.62-94.16-10.4,3.35-15.65-12.81-4.85-16.07,125-37.89,267.6,1.93,355,99,70.86,78.74,100.42,189.72,81.95,293.06,316.78-92.13,572.24,510.27,252.5,903.64C4308.71,3374.42,4295.59,3363.78,4302.63,3355.19Zm-313.25-793.6c27.2,1,42.82-45.37,50.45-72.7-24.29,11.77-56.8,34.83-55.41,61.65A15.11,15.11,0,0,0,3989.38,2561.59Z" transform="translate(-533.55 -350)"/></svg>