<svg id="Layer_1" data-name="Layer 1" xmlns="http://www.w3.org/2000/svg" viewBox="0 0 4300 3884.85"><g id="_45" data-name="45"><path d="M2934.91,1088.06c-1.54-2.48-3.1-4.65-5-7.12-52.34-71.24-127.46-123.82-211.59-148.13-85.69-24.77-226-18.9-306.33,12.84-10.27,4.11-16.54-11.51-6.17-15.62,83.24-32.88,228.47-39,317.16-13.36,87.67,25.34,165.94,80.12,220.43,154.26,2.12,2.84,3.94,5.37,5.74,8.27C2955,1088.64,2940.78,1097.5,2934.91,1088.06Z" transform="translate(-350 -557.57)"/><path d="M4607.55,3735.4l-79.61-1179.76a69.08,69.08,0,0,0-58.12-64.16L3778.5,2380c-284.45,376.66-278.95,375-308.05,385.64-72.11,25.49-194.64-172.11-231.45-216q-70.55-84.65-138.73-171.32c-598.87,125-578.26,123.49-595.59,120.6l-322.82-41-659.75-83.64a69.57,69.57,0,0,0-66.85,30.91l-80,121.93c3.69,1.35,7,3,10.75,4.71,236.23,113.63,360.52,402.38,279.82,647.66-41.84,125.91-99.07,190.16-402.77,618.77-51.29,72.56-60.43,98.66-97.75,74.91-63.49-39-110.19-99.44-155.54-158.9q-83.64-110.85-165.27-223.05c-2.27-1.14,3.48,2.5-55.76-71.55L361.49,4070c-27.54,42-3,98.09,46.36,106.82C1760,4410,1706.41,4404.11,1726,4400.19c1418.27-309.24,1332.78-295,1356.45-289.9l1483.1,325.51c43.33,9.4,84-23.85,84.32-67.86C4590.94,3487.13,4612.44,3808.46,4607.55,3735.4ZM2266.17,2710.16c-62.81,80-141.42,147.14-229.43,198.2,103.7,121.3,122.64,121.57,111.86,132.35-3.31,3.31-7.86,3.72-12.09.34-40-40-78.61-81.3-114.55-124.63a803.33,803.33,0,0,1-156.88,65.84,5.65,5.65,0,0,1-2.35.34c-9.68,0-11.64-13.6-2.35-16.46a766.72,766.72,0,0,0,150.49-62.82c-12.09-14.45-24.19-29.23-35.94-44.34-37.62-48-72.56-97.42-105.48-148.48-5.62-8.83,7.84-18.48,14.11-9.07q51.39,80.12,110.52,154.86c10.41,13.1,21.16,26.2,31.91,39,87-50.06,164.94-116.57,226.75-195.51C2259.84,2691.06,2272.54,2701.41,2266.17,2710.16Zm1686,705.44c16.38,20.16,21.08,38.88,34.93,58.79,10.75,16.12,29.56,29.89,47,25.53,10.08-2.69,18.48-10.75,27.21-19.49,3.36-2.24,52.24-57.07,110.52-43.67,26,6.49,45.58,24.81,68.53,39.3,30.23,18.48,67.52,25.87,102.79,20.83,11-1.57,13.2,14.91,2.35,16.46-38.63,6.05-80.28-2.35-113.88-22.84-28.58-18.57-42.74-32.35-63.82-37.29-39.3-9.4-77.26,22.17-91.71,36.28-12.66,12.48-23.09,22.82-37.62,26.54-24.9,6.8-50.42-10.51-65.51-32.25-13.7-20.15-19.33-40.31-33.93-57.44-38.48-47.21-115.09-35.66-137.72,23.18-3.16,10.25-19.63,5.14-15.46-5.71C3811.58,3374.08,3904.11,3357.93,3952.17,3415.6Zm428,462.23c-81.15,46.4-178.7,4.34-208.94-64.5-10.54-23.56-14.3-51.39-24.52-74.57-17.63-39.48-47.09-53.64-84.66-29.57-37.62,24.53-67.85,67.19-89.35,127.32-9.41,26.2-24.52,39-40.65,34.94-9.07-2-15.12-9.07-19.48-13.78-125.08-143-139.13-205.36-230.78-192.48-54.77,7.14-99.14,45.15-139.07,82.3-8.29,7.47-19.4-5.25-11.42-12.43,29.89-27.54,59.79-53.75,96.41-70.88,36.45-17.46,81.51-23.94,120.59-8.06,38.76,16.26,64.07,50.47,89.36,83.64,8.48,11.17,87.22,112.3,98.09,115.56,11.75,2.35,19.48-19.82,21.16-24.52,22.84-63.49,55.09-109.17,96.07-135.71,47-30,88-11.48,109.18,36.95,10.75,24.87,13.57,49.41,24.52,74.24,29.52,68.4,127,95.71,184.42,57.44C4380.83,3858,4389.32,3872,4380.13,3877.83Z" transform="translate(-350 -557.57)" style="fill:#2c56fe"/><path d="M3330.71,2670.86c-90.45,471-187.85,1007.22-261.68,1437.75-19.87,0-1328.83,290.56-1352.43,292.92,88.75-266.23,562.93-1223.61,780-1842.87,7.4-19.82,14.11-40,21.5-59.46,4.78,0-38.8,8.73,582.16-120.93q68,86.67,138.73,171.32C3256.47,2570.42,3291.07,2622.82,3330.71,2670.86Z" transform="translate(-350 -557.57)" style="fill:#f6d356"/><path d="M1716.72,4402.06c119.34-299.51,245.44-600.94,374.81-895.94,4.39-10,19.87-3.52,15.38,6.76-129.3,294.8-255.32,596.07-374.58,895.39C1728.25,4418.53,1712.58,4412.52,1716.72,4402.06Z" transform="translate(-350 -557.57)"/><path d="M4649.88,4367.94c2.69,46.36-39.3,82.64-84.32,72.89l-787.06-173v-4.7c-3.7-95.06-2.36-205.92,109.17-237.49,81-23.18,160.24,33.59,231.78,78.26s175,75.25,232.13,13.11c54.08-58.79,21.16-148.82,14.44-231.79a141.46,141.46,0,0,0,14.11-7.39c9.2-5.85.71-19.82-9.07-14.11a55.25,55.25,0,0,1-6,3.36c-1-33.26,3.69-64.83,21.49-92,34.45-52.24,118.82-80.67,221-34.6C4616.81,3877.66,4584.68,3401.41,4649.88,4367.94Z" transform="translate(-350 -557.57)" style="fill:#b0d8ff"/><path d="M3669.66,3742.45c-20.16,36.28-56.1,61.14-93,80.29-51.07,26.54-113.21,44.34-164.94,19.14-24.86-12.09-45-33.25-71.55-42-47-15.78-96.41,12.77-140.08,37-43.34,23.85-100.11,43.67-140.08,14.11-75.19-55.74-118.36-399.86,41-514.64,98.09-70.88,340.62-67.18,355.07,87.34,3.7,40.65-12.76,85,7.39,120.6,41,71.54,174.53,21,213,104.81-57.13,8.33-103.86,48-145.12,86-8,7.17,3.12,19.9,11.42,12.43,40-37.22,84.31-75.16,139.07-82.3C3687.46,3690.72,3682.42,3719.61,3669.66,3742.45Z" transform="translate(-350 -557.57)" style="fill:#f6d356"/><path d="M3330.71,2670.86q-41.33,215.16-81.29,430.65c-19-2.37-35.4-10-51.4-14.11-44-11.42-90.36,1-136.38,1.68-79.62.67-161.58-40.64-198.2-111.86-36.28-71.21-17.13-169.3,49.38-213.31,44.68-29.22,107.16-37.29,132.69-83.64,30.57-56.44-16.12-128,2-189.46,11.42-39.31,44-62.15,76.92-82.64q55.93,71.55,114.55,141.42C3256.47,2570.42,3291.07,2622.82,3330.71,2670.86Z" transform="translate(-350 -557.57)" style="fill:#2c56fe"/><path d="M3093.05,3924.84c44.51-217.51,154.62-831.75,232.08-1252.14,2-10.84,18.54-7.94,16.53,3.05-75.91,411.64-187.48,1034.22-232.15,1252.47C3107.27,3939.08,3090.84,3935.76,3093.05,3924.84Z" transform="translate(-350 -557.57)"/><path d="M2173.46,2620.14c-13.44,59.12-32.59,118.24-70.21,165.6-27.54,34.61-66.51,61.48-109.17,70.55q-59-74.58-110.52-154.86c-6.28-9.42-19.72.25-14.11,9.07,32.92,51.06,67.86,100.44,105.48,148.48a142.32,142.32,0,0,1-29.23-1c-98.42-13.44-179-129.67-272.09-95.74a105.72,105.72,0,0,0-38,23.85c-56.32-117.56-146.74-204.82-249.59-254.29-3.7-1.68-7.06-3.36-10.75-4.71l80-121.93a69.57,69.57,0,0,1,66.85-30.91l659.75,83.64c0,.68.33,1,.33,1.69C2193.28,2512.31,2185.22,2567.4,2173.46,2620.14Z" transform="translate(-350 -557.57)"/><ellipse cx="855.31" cy="3337.83" rx="157.19" ry="61.93"/><ellipse cx="3091.68" cy="2250.27" rx="103.3" ry="44.4"/><path d="M3261.73,2593.92c-52.77-72.88-209.58-247.13-410.9-539.07-103.76-149-153.33-326.34-139.53-499.26.86-11.1,17.63-9.72,16.73,1.35-13.67,171.48,33.57,340.35,136.6,488.33,201.61,292.35,355,462,410.7,538.79,34.68,47.82,137,193.27,192.35,173.6,38-13.83,161.91-199.63,427.71-545,80.93-105.11,164.58-213.81,214.58-339,159.8-399.19-104-931.3-612.08-978.47-251.63-23-498.14,93.56-643.32,304.43-5.81,11.39-24.41.86-12.86-10.7,147.66-214.67,400.14-334.07,657.72-310.46,518.73,48.22,790,591.93,626.15,1001.43-59.78,149.63-165.37,274.23-260.76,400.37L3785.2,2385c-291.63,386-282.15,377.61-311.85,388.44C3405.51,2797.41,3305.29,2654,3261.73,2593.92Z" transform="translate(-350 -557.57)"/><path d="M3108,1597.68c-.57-10.66,16.14-12.54,16.76-.85,6.57,123.56,101.56,234.86,197.14,270.7,73.26,32.22,154.72,37.36,232.93,22.13,66.69-14.25,124.79-79.76,156.87-136.32,102.26-179.4,17-396.52-166.64-458.19-156-52.31-330.7,35-395.22,171-4.83,10-19.93,2.82-15.19-7.18,67.09-141.47,249.59-235.59,415.75-179.71,104.52,35.07,188.3,127.11,213.4,234.46,43.13,183-85.59,366.77-205.59,392.43-12.43,2.41-27.06,5-42.65,6.53C3297.45,1936.39,3117.11,1781.88,3108,1597.68Z" transform="translate(-350 -557.57)"/><path d="M3522.52,1902.61c-55.09,13.1-112.2-1.68-166.95-16.46-36.62-9.75-74.58-20.16-103.46-44.68-27.55-23.52-55.77-37-76.93-68.53-26.3-39.67-53.34-114.87-56.1-138.06-1.68-12.43-.34-25.87,1-38.63,63.49-21.84,56.77-73.91,25.86-127.65,29.66-78.78,105.89-151.22,179.72-170.65,9.74-2.36,47-1,52.74-6-52.07,48-89.69,111.86-107.49,180.39-18.81,71.22-8.4,123,16.12,189.79C3326.68,1770.59,3416.37,1857.59,3522.52,1902.61Z" transform="translate(-350 -557.57)"/><path d="M1617.51,3957.11c-11.12-.79-9.84-17.67,1.22-16.77,152.62,11,174.68-8.69,175.64,9.16a8.4,8.4,0,0,1-7.91,8.85A1321.94,1321.94,0,0,1,1617.51,3957.11ZM1951,3921.32c149.06-28.3,162.88-59,170.29-41.81a8.42,8.42,0,0,1-4.41,11c-46.09,19.76-99.32,35.23-162.74,47.27C1943.21,3939.87,1940.1,3923.4,1951,3921.32Zm-500.83,13a1298,1298,0,0,1-163-44.26c-10.53-3.57-5-19.52,5.45-15.88,143.22,49.15,171,36.06,167.5,53.57A8.42,8.42,0,0,1,1450.16,3934.28Zm797.26-149c36.76-35.09,69.76-77.8,100.87-130.58,5.62-9.55,20.13-1.07,14.47,8.53-31.92,54.14-65.86,98-103.76,134.18C2251,3805.08,2239.35,3793,2247.42,3785.28Zm174.88-280.06c22.19-51,42.55-101.76,65.78-154.64,4.48-10.1,19.87-3.44,15.38,6.76-23.21,52.83-43.3,102.94-65.74,154.57C2433.29,3522.09,2417.89,3515.43,2422.3,3505.22Zm141.57-305.64c30.07-50.3,62.59-93.53,103.11-134.59,7.82-7.89,19.75,3.92,11.94,11.81-39.9,40.41-71.51,82.65-100.61,131.4C2572.62,3217.68,2558.14,3209.19,2563.87,3199.58Zm235.79-240c45.87-28.67,96.9-54,151.64-75.19a8.39,8.39,0,0,1,6.07,15.65c-53.76,20.84-103.83,45.68-148.82,73.77C2799.26,2979.62,2790.12,2965.49,2799.66,2959.53Zm313.5-124a1455.1,1455.1,0,0,1,166.66-27.29,8.4,8.4,0,0,1,9.24,7.46c1.87,17.51-24.33,2.75-172.2,36.2C3106.15,2854.4,3102.2,2838,3113.16,2835.49Z" transform="translate(-350 -557.57)"/><path d="M1202.64,2481.74c-413.23-37.51-705.39,401.8-512.28,793.78,24.52,50.39,61.81,97.75,98.43,144.11,59.24,74,53.49,70.41,55.76,71.55,184.78,254.37,244.32,335,320.81,382,36.28,23.09,44.57.32,97.75-74.91,297.3-419.57,360.68-492.11,402.77-618.77C1762.38,2886.15,1568.11,2516.83,1202.64,2481.74ZM1245,3222.11c-154.47,32.74-296.75-60.77-319.8-197.86-28-169.08,157.83-301.57,313.42-249.25,74.57,24.86,134.37,90.69,152.17,167.29C1421.61,3072.32,1330,3204.09,1245,3222.11Z" transform="translate(-350 -557.57)" style="fill:#5fff9f"/><path d="M1505.55,1211.16c-102.12-85.9-151.09-105.91-115.17-232.72,50.27-177.76,197.91-299.26,357.65-391.92,68-39.31,103.13-42,174.35,13.26,28.73,22.26,119.51,78.69,119.45,118.54,0,30.11-58,71.24-77.1,92.83-43.14,48.79-110.38,109-137.28,169.23-26.54,59.43-77.9,106.24-89.5,172.77-10.85,62.36-33.4,117.12-57,176.47-5.79,14.74-13.94,17.53-28.18,5.58l-147.17-124" transform="translate(-350 -557.57)" style="fill:#f6d356"/><path d="M2333.07,1839c-71.76-14.45-124.72-63.67-176-111.27-110.7-102.87-238.79-181.2-341.43-277-98.93-91.88-135.3-92.76-129.27-145,3.63-30.43,10.88-62.61,22.83-101.29,43.9-142.86,108.24-238.86,188.57-337.84,138-169.88,168.81-166.62,292.17-73.43,201.87,152.17,816.58,409.75,963.3,671.33,45,78.31,27.14,133.94-62.23,147.12-54.77,8.07-108-18.92-152.75-46.5-88-53.33-120.74-72.4-171.39-109.29,2.71,8.65,3.32,37.08-3.66,58.68-8.87,26.62-27.54,46-52.59,54.74-34.21,12.19-70.56,6.67-108-3.09,21.06,42.78,12.92,98.86-22,131.93-29.4,28.23-75.08,37-114.08,24.44C2490.34,1788.74,2428.81,1857.77,2333.07,1839ZM1896.39,894.84c-115.61,138.06-180.76,307.57-193.29,412.83-4.74,41.2,22.29,35.81,124,130.76,97.77,90.81,237.53,180.51,341.42,276.94,49.51,46,100.72,93.61,167.79,107.12,32.43,6.33,76.37,2.36,102.52-27.83,21.29-24.61,20.81-66.58-1-86.38-7.71-7,1.83-19,10.38-13.15,36.43,24.91,89.49,20.83,120.79-9.2,33.84-32,37.71-92,8.35-128.42a8.4,8.4,0,0,1,8.86-13.33c43.73,12.64,82.83,22,118.82,9.21,26.83-9.34,46.81-34.28,46.81-77.07-.09-7.28,1-12.85-3.38-20.46-4.65-8.18-7.49-20.24.82-24.6,6.15-4.61,14,.33,41.55,21.62,22.74,17.5,130.38,82.26,154.56,96.91,55.78,34.38,110.49,59.83,171.86,38.51h0c56.21-19.34,51-63.9,21.32-115.52-143.19-255.31-763.78-519.11-958.81-666.22C2054.22,711.64,2042.7,719.71,1896.39,894.84ZM2761,1440.4c0,.1,0,.19,0,.29A1.42,1.42,0,0,0,2761,1440.4Z" transform="translate(-350 -557.57)"/><path d="M2575.39,1552.38c-69.5-27.48-125.55-64-171.23-96.17-9.08-6.41.58-20.14,9.68-13.75,144.15,101.47,179.68,86.87,172.44,105.19C2585,1551,2579.6,1554.08,2575.39,1552.38Z" transform="translate(-350 -557.57)"/><path d="M2429.75,1704c-44.17-18.28-84.38-62.69-110.32-96.71-6.72-8.78,6.55-19.06,13.35-10.18,20.22,26.51,60.54,73.63,103.4,91.38C2446.48,1692.78,2439.94,1708.33,2429.75,1704Z" transform="translate(-350 -557.57)"/><path d="M3008.51,1546.39c-3.41-31.54,18.91-63.23,49.78-70.63,50-12,91.67,43.48,71.55,51.18a8.48,8.48,0,0,1-10.84-4.87c-8.25-21.72-34.25-35.45-56.77-30s-39.52,29.44-37,52.49C3026.39,1555.69,3009.69,1557.51,3008.51,1546.39Z" transform="translate(-350 -557.57)"/><path d="M2750.2,1447.35a2018.82,2018.82,0,0,1-229.09-144.83c-9-6.52.91-20.09,9.91-13.55,190.59,139.28,240.48,136.71,230.57,155C2760.08,1446.78,2754.39,1449.61,2750.2,1447.35Z" transform="translate(-350 -557.57)"/><path d="M3995.51,921.21l66.43-182.76c3.73-10.34,19.61-4.77,15.81,5.75L4011.32,927C4007.5,937.4,3991.75,931.64,3995.51,921.21Z" transform="translate(-350 -557.57)"/><path d="M4080.41,1037.9c103-99.83,211.79-196.37,323.39-287,8.45-7,19.29,6,10.56,13-111.17,90.28-219.63,186.49-322.27,286C4084.05,1057.69,4072.44,1045.59,4080.41,1037.9Z" transform="translate(-350 -557.57)"/><path d="M4171.31,1172.41l208.38-98.8c10.33-4.62,17.07,10.45,7.22,15.18l-208.38,98.81C4168.34,1192.27,4161.37,1177.19,4171.31,1172.41Z" transform="translate(-350 -557.57)"/></g></svg>