<svg id="Layer_1" data-name="Layer 1" xmlns="http://www.w3.org/2000/svg" viewBox="0 0 4259.59 4300"><path d="M4321.88,3585.4c-1912.16-4-1809.51,8-1809.51-8.4,0-16.73-99.77-4.42,1809.51-8.41,160.52,0,291.11-130.58,291.11-291.11V3205.2c0-160.33-130.59-290.75-291.11-290.75-1715.66-4-1628.32,8.29-1628.32-8.41s-86.93-4.43,1628.32-8.4c169.78,0,307.92,138,307.92,307.56v72.28C4629.8,3447.26,4491.66,3585.4,4321.88,3585.4Z" transform="translate(-370.2 -350)"/><path d="M2617.25,2247.18a617,617,0,0,1-163,157.66c-68.91,45-143.2,59.83-222.2,80.34-106.15,28-226.27,33-344.89,5C1600.06,2667,1216.51,2682.83,936.5,2468,374.75,2867.81,175.84,4173.27,751.28,4561.58c234.06,157.38,546.18,70.12,604.73,2.35,18.49-21.51,23.2-54.45,20.85-90.42-117.63,10-255.45-68.62-321-279-73.95-238-32.94-623.56,135.81-818.86,67.23-77.32,167.4-117.32,266.9-142.53,158.82-39.41,316.35-47.7,474.65-6.05,27.56,7.4,55.8,16.81,76.64,36.3,20.84,19.17,32.94,51.1,21.51,77.32-8.06,18.15-25.55,30.59-42.69,40.67-128.65,75.05-276.2,88-486.75,120,160.39-10.82,327.53,16.21,474.65,77,138.24,57.14,118.81,151.62,43.7,183.2-29.23,12.92-63.11,14.49-93.79,15.13,52.44,2.69,75.3,75.3,51.1,121.68,155-83.36,307.91-170.09,461.2-256.82,22.52-12.77,45.71-25.88,64.2-44,79-77.65,98.16-237.32,124.38-340.52C2711.4,2925.19,2787.83,2561.84,2617.25,2247.18Zm-1100.55,633c-5.38-25.54,48.4-58.15,119.66-72.61,70.93-14.45,133.12-5,138.16,20.51C1786.82,2889.53,1527.89,2941.87,1516.7,2880.15Zm149.92-451.45c-76.87-43.12-152.08-96.58-214.8-164-114.42,27.37-227,55.73-339.52,105.55C1280,2474.42,1483.75,2487.19,1666.62,2428.7Z" transform="translate(-370.2 -350)" style="fill:#f6d356"/><path d="M1508.63,2319.12c-30.56-15.29-85.25-10.24-120.68-13.79-105.22-10.42-196.31-84.71-251.78-174.8-7.73-12.77-15.13-25.88-21.85-39.32,65.89,11.43,135.47,3.36,197.66-21.85,6.72,13.44,13.78,26.22,21.18,39,13.44,23.19,28.23,45.72,43.7,67.57A859,859,0,0,0,1508.63,2319.12Z" transform="translate(-370.2 -350)" style="fill:#2c56fe"/><path d="M1657.54,1108.64a644.4,644.4,0,0,0-65.55,20.84c-91.43,35-169.42,98.83-235,170.43-41.29,45.55-69.3,76.85-96.81,126.39-91.58-32.74-197-7.64-275.64,48.4-1-15.12-1.35-30.58-1.68-45.71-.68-45.38-.68-91.77,4.37-136.82C1171.8,1109.7,1439.38,1058.56,1657.54,1108.64Z" transform="translate(-370.2 -350)" style="fill:#2c56fe"/><path d="M2773.23,1297.55c27.23,190.94,16.81,387.25-28.91,574.48,5-61.51,3.7-124-2.69-184.88-10.76-97.48-20.51-190.93-63.53-279.68-68.91-142.52-195.31-248.07-338.51-281a1761.85,1761.85,0,0,0-390.94-45.71C1814,975.29,1646.75,928.46,1477,928.46c51.38-39.85,104.45-91.67,157.65-120.68,269-148.24,589.45-148.18,875.68-43.7C2595.74,795,2680.11,837,2740,905.6c59.5,68.24,89.75,168.41,56.14,252.79C2772.06,1218.94,2760.89,1213.47,2773.23,1297.55Z" transform="translate(-370.2 -350)" style="fill:#2c56fe"/><path d="M1175,2104.7c-236,0-379.38-225.13-341.56-417.8,37.46-188.57,241.3-323,414.29-273.05,10.66,3.05,6,19.17-4.66,16.15a259.66,259.66,0,0,0-90.82-9.1c-144.12,11.43-274.1,127.18-302.34,269.25-27.87,142,48.56,298.37,177.76,363.66,85.73,43.3,192.78,45.5,286.39,5.78a8.42,8.42,0,0,1,6.56,15.5A374.22,374.22,0,0,1,1175,2104.7Z" transform="translate(-370.2 -350)"/><path d="M1207.55,1737.46c-56.33-60.34-154.53-77.9-228.26-40.87-10.11,4.87-17.39-10-7.55-15,80.18-40.24,186.85-21.14,248.09,44.42a8.41,8.41,0,0,1-12.28,11.49Z" transform="translate(-370.2 -350)"/><path d="M1087.37,1821.13c-10.42-43.92-1-92.17,25.23-129,6.43-9.09,20.15.66,13.69,9.72-23.45,33-31.89,76.13-22.57,115.42C1106.28,1828.05,1090,1832,1087.37,1821.13Z" transform="translate(-370.2 -350)"/><path d="M1662.85,2436.22c-150.61-75.31-274.2-201.33-348-354.83-1.67-3.32-3.39-6.76-5.13-10.6-52.81-113.29-85-242.5-90.47-363.73-.51-11.13,16.3-11.86,16.77-.79,5.43,119.1,37,246.07,89,357.52,1.66,3.68,3.28,6.93,4.92,10.18,72.29,150.32,193.17,273.58,340.47,347.21C1680.25,2426.11,1672.91,2441.11,1662.85,2436.22Z" transform="translate(-370.2 -350)"/><path d="M2083.4,2513.33c-11-1.66-8.49-18.33,2.5-16.61,135.44,20.2,326.36-37.89,460.76-168.47,156.11-151.58,218.45-368.63,203.09-582.22-.76-10.67,15.9-12.84,16.77-1.19,15.76,218.93-48.78,440.69-208.14,595.49C2419.87,2474.87,2223.51,2534.26,2083.4,2513.33Z" transform="translate(-370.2 -350)"/><path d="M2001.25,1829.31c-253.92-4.61-372.94-420.72-191-657.83a8.4,8.4,0,0,1,13.33,10.24c-174,226.85-61,626.44,178,630.78,50.35,1.44,115.4-15.13,149.56-62.86,6.33-9,20.19.67,13.65,9.78C2129.52,1808.69,2061.3,1830.74,2001.25,1829.31Z" transform="translate(-370.2 -350)"/><path d="M2259,1559.37c35-102,12.33-255-71.05-341.24-48.13-49.74-105.82-66.84-159.39-58.5a8.5,8.5,0,0,1-9.6-7,8.41,8.41,0,0,1,7-9.59,180.72,180.72,0,0,1,33.52-1.77c51.44.82,100.09,23.37,140.55,65.19,87.62,90.62,111.94,250.65,74.86,358.38C2271.3,1575.37,2255.42,1569.84,2259,1559.37Z" transform="translate(-370.2 -350)"/><path d="M2479.76,1693c-144.11-202.66-31-547.3,179-541,213.06,3.82,309.49,351.4,159.31,547.17C2722.75,1823.41,2570.69,1820.91,2479.76,1693Zm13.69-9.75c137.58,193.57,376.05,56.81,380.81-208h0c1.48-81.24-20.44-158-61.72-216-40.72-57.25-95.44-89.39-154.05-90.44C2464.2,1162.39,2356.16,1490.2,2493.45,1683.23Z" transform="translate(-370.2 -350)"/><path d="M2421.23,1371.83c-45.38-44.25-121.47-44.48-135.41-8.54-4,10.45-19.72,4.27-15.66-6,6.79-17.56,23-29.74,45.54-34.3,41.12-8.47,84.94,5.32,117.25,36.86C2441,1367.57,2429.1,1379.62,2421.23,1371.83Z" transform="translate(-370.2 -350)"/><path d="M2286,1819.26c0-12.39,18.82-5.76,49.67-30.72,38.19-29.84,33.69-69.7,28-120.15-8.94-78.1-15.8-196.27-28.4-337.83a8.42,8.42,0,0,1,7.64-9.12c15.83-2.16,6.93,13.93,34.66,318.23,6.08,70.45,30.49,151.45-80.39,187.57A8.55,8.55,0,0,1,2286,1819.26Z" transform="translate(-370.2 -350)"/><path d="M1981.68,1507.19c28.88,132.33.63,250.73-63,264.62s-138.62-82-167.5-214.32-.63-250.74,63-264.62,138.63,82,167.5,214.32" transform="translate(-370.2 -350)"/><path d="M2590.65,1500.25c-1.7,93.87-39.71,169.2-84.83,168.39s-80.37-77.48-78.67-171.35,39.71-169.2,84.83-168.39,80.37,77.48,78.67,171.35" transform="translate(-370.2 -350)"/><path d="M1467.62,1091.83C1415,1122,1367,1135.27,1310.3,1146.62c-37.31,5.72-74.29,3.7-111.27,3.36C1282.8,1114.29,1377.17,1095.13,1467.62,1091.83Z" transform="translate(-370.2 -350)" style="fill:#2c56fe"/><path d="M1601.07,937.2c-229.32-32-494.1,20-698.86,186.9C692,978,689.43,611.46,913.64,438.35c163.37-126.39,417.5-116,570.11,23.53C1612.2,579.58,1655.39,777,1601.07,937.2Z" transform="translate(-370.2 -350)" style="fill:#2c56fe"/><path d="M1821.88,1478c-186.68-35.42-343.22-52.65-540.33-59.48-11.12-.39-10.45-17.14.59-16.81,198,6.86,355.3,24.16,542.86,59.75a8.42,8.42,0,0,1-3.12,16.54Z" transform="translate(-370.2 -350)"/><path d="M1738.89,1134.18c-213.12,123.37-389.6,341.87-481.7,572.13-7.4,18.49-26.22,10.76-34.29-7.39-14.45-33-2-147.57,22.52-277a3167.45,3167.45,0,0,1,75.3-310.94C1460.42,1079.92,1609.45,1083.39,1738.89,1134.18Z" transform="translate(-370.2 -350)" style="fill:#2c56fe"/><path d="M2069.47,2096.78c-25.3-135.54-155.42-213.21-278.26-189.9-10.77,2.1-14.18-14.4-3.12-16.55,132.84-24.95,271,59.06,297.89,203.37a8.4,8.4,0,1,1-16.51,3.08Z" transform="translate(-370.2 -350)"/><path d="M1841.07,1020.21a8.41,8.41,0,0,1-8.34-7.45c-9.76-85.81,13.86-173.88,64.84-241.64,6.61-8.86,20.14,1.18,13.42,10.11-48.42,64.34-70.85,148-61.55,229.63a8.38,8.38,0,0,1-7.4,9.29C1841.71,1020.18,1841.4,1020.21,1841.07,1020.21Z" transform="translate(-370.2 -350)"/><path d="M2269.78,1106.71c41.33-99.2,113.91-186,204.4-244.3,9.32-6,18.46,8.13,9.09,14.12-87.65,56.53-157.95,140.57-198,236.62C2281.05,1123.43,2265.52,1117,2269.78,1106.71Z" transform="translate(-370.2 -350)"/><path d="M1139.42,979.54c48-51.64,97.55-90.86,143.31-113.42,117.24-57.28,241.53-76.25,350-53.11,11,2.32,7.16,18.93-3.51,16.41-104.82-22.29-225.25-3.9-339.11,51.8-43.9,21.64-91.77,59.62-138.4,109.75C1144.23,999.14,1131.81,987.67,1139.42,979.54Z" transform="translate(-370.2 -350)"/><path d="M1415.66,2634c-772.84,0-1129.21-1018.78-518.77-1516.36,302-246.15,787.1-272.17,1076.33-27.83,186.9,157.3,306.7,381.61,328.7,615.41h0c9.8,102.65-5.37,216.13-45.11,337.2C2139.49,2401.83,1780.53,2634,1415.66,2634ZM907.51,1130.61C469,1488.07,530.27,2144.76,941.62,2461.36c438.17,336.08,1127.82,100.91,1299.22-424.19,39-118.9,53.92-230.05,44.33-330.41h0c-23.3-247.91-158.37-475.58-341.73-619.41C1662.79,867.68,1200.26,892,907.51,1130.61ZM1447.6,2471.84c-599.33,0-894.32-765.09-466.24-1185.66,257.31-254.38,683-264.8,920.25-65.65,151.12,127.07,248.12,308.64,266.17,498.12,7.8,84.56-4.54,176.51-36.68,273.28C2036.6,2282.64,1746.23,2471.84,1447.6,2471.84ZM993.16,1298.16c-330,324.24-216.73,854.75,123.56,1064.89,352,218.83,866.7,28.83,998.39-376.3,0,0,0,0,0-.07,31.42-94.57,43.5-184.22,35.91-266.46-17.63-185.11-112.48-362.54-260.25-486.82C1663.11,1042.28,1245.74,1048.32,993.16,1298.16Z" transform="translate(-370.2 -350)"/><path d="M1855.54,3210.25c-85.72-13.78-173.8-13.78-260.52-3-42.16-179.73-74.48-299.51-72.61-317,43.35,44.18,246.93-2.39,252.11-56.48C1777.4,2837.59,1851.29,3190.18,1855.54,3210.25Z" transform="translate(-370.2 -350)" style="fill:#5fff9f"/><path d="M1930.16,3560.52a1060.59,1060.59,0,0,0-263.88-57.14c-2.35-8.74-4.37-17.15-6.38-25.89,81.68-12.44,164.37-26.55,241-54.79C1901.68,3426.44,1918.2,3505.76,1930.16,3560.52Z" transform="translate(-370.2 -350)" style="fill:#5fff9f"/><path d="M1840.75,4176.35c41.73-31.3,83.72-81,76.3-132.44-5-32.61-37-61.85-68.91-54.46,49.41-19.83,102.53-42.69,128.41-89.08s3-121-50.09-123.7c16.14-.34,32.61-1,48.75-3,.74,3.38,59.29,279.75,64.54,305.23C2066.42,4202.65,1917.7,4268.5,1840.75,4176.35Z" transform="translate(-370.2 -350)" style="fill:#5fff9f"/><path d="M1173.25,4407.82c-236.59-211.63-197.17-795.55,12-1037.67,58.19-66.93,144.36-113.05,271.19-145.19,159.74-39.62,319-48.1,478.85-6,28.64,7.68,58.15,17.63,80.24,38.31,21.06,19.37,37.43,54.82,23.48,86.79-9.24,20.82-28.5,34.21-46.14,44.58-110.14,64.24-234.94,83.09-371.16,103.24,128.48,6.14,250,34.06,358,78.72,161.72,66.87,127.68,199.46-15.09,212.66,30.66,25.66,40.7,80,20.32,119l-.93,1.9c-22.49,40.35-64.51,63.88-102.8,80.69,60.35,26.35,70.28,118.92-35.49,198.28-71.61,53.28-169.81,71.43-256.25,84.26-31.63,4.55-27.86,13.15-29.13,32.7-.75,89.43-80,173.95-182.9,181.83C1371.3,4482.41,1228.09,4457.17,1173.25,4407.82Zm287.3-1166.58c-123.29,31.25-206.74,75.7-262.58,139.91-169.83,196.57-206.47,578-134.12,810.87,69.31,222.2,222,295.24,338.06,269.25,78.87-17,141.07-88,141.68-161.61l.12-4.3c.48-27.24,9.07-39.83,43.41-44.62,105.69-15.71,224-38.82,291.47-121.69,13.46-16.31,35.23-48.78,30.14-83.94-4.22-27.42-31.08-53.47-58.7-47.5-9.72,2.52-14.78-12.05-5-16,52-20.85,100.62-43.07,124.2-85.35l.76-1.55c21.61-41.4,1.88-107.38-43.93-109.67a8.4,8.4,0,0,1-8-8.54c.18-12.7,13.07-5.84,56.08-11.23,17.57-2.65,30.8-6.17,42.7-11.42,29.9-12.57,50.71-37.29,53.18-63,0,0,0-.06,0-.1,5.88-55.93-65.67-91.81-96.71-104.62-93-38.56-198.42-64.93-307.77-74.38-146.56-13.39-170,8.71-172-9.46a8.4,8.4,0,0,1,7.09-9.22c206.15-31.31,357.61-45.29,483.77-119,15.32-9,32-20.42,39.25-36.83,10.16-23.31-2.12-51.7-19.54-67.72-19.43-18.19-46.63-27.25-73.12-34.37C1773.11,3193.57,1616.49,3202.58,1460.55,3241.24Z" transform="translate(-370.2 -350)"/><path d="M1501.83,3509.87H1326.19c-11.12,0-11.11-16.81,0-16.81h175.64C1513,3493.06,1513,3509.87,1501.83,3509.87Z" transform="translate(-370.2 -350)"/><path d="M1315.75,3798.19c-11,0-11.17-16.58-.18-16.81,226.13-4.86,615.76-13.13,611-13.13,11,0,11.17,16.57.18,16.81l-610.8,13.13Z" transform="translate(-370.2 -350)"/><path d="M1324.63,4063.46a8.42,8.42,0,0,1,3.12-16.54c187.54,35.45,514.49-64.34,517.77-65.36,10.83-3.07,15.44,12.82,5,16.09C1708.93,4041,1470.24,4090.77,1324.63,4063.46Z" transform="translate(-370.2 -350)"/><path d="M1556.39,4282.19H1349.76c-11.12,0-11.11-16.8,0-16.8h206.63C1567.51,4265.39,1567.51,4282.19,1556.39,4282.19Z" transform="translate(-370.2 -350)"/><path d="M1634.69,2799.32c181.94-37.17,205.3,72.31,22.17,109.58C1475,2946,1450.46,2836.72,1634.69,2799.32ZM1528,2867.67c-4.81,7.31-4,12.24.4,16.67,13.34,13.56,61.74,21,125.12,8.08,67.39-13.69,110.94-41.53,112.64-59.45a9.91,9.91,0,0,0,.15-3.22.12.12,0,0,1,0-.06c-.62-3.12-3-6.08-7.14-8.84C1714.07,2790.86,1557.69,2822.44,1528,2867.67Z" transform="translate(-370.2 -350)"/><path d="M1517.57,2619.87,1563,2838.63a34.55,34.55,0,0,0,30.48,27.69c31.74,3,86.34,2.33,124-29.14,9.19-7.67,12-20.74,9.36-32.42l-49.06-219.2" transform="translate(-370.2 -350)"/><path d="M623.82,3969.15c55.87-231.53,251.23-422,475.09-463.06,10.87-2,14,14.5,3,16.55-217.51,39.91-407.4,225.16-461.76,450.45C637.53,3983.91,621.19,3980.07,623.82,3969.15Z" transform="translate(-370.2 -350)"/><path d="M393,1087.35c-9.67-5.6-1-20.2,8.47-14.51a889.44,889.44,0,0,1,150.74,111,8.41,8.41,0,0,1,.54,11.89C538.88,1210.73,527.53,1166.05,393,1087.35Z" transform="translate(-370.2 -350)"/><path d="M590,1126a451.66,451.66,0,0,1-40.46-116.61c-2.18-11,14.35-14,16.48-3.28,19.48,97.56,51.64,115.25,35.27,123.56A8.38,8.38,0,0,1,590,1126Z" transform="translate(-370.2 -350)"/><path d="M377.34,1247.35a694.63,694.63,0,0,1,171.6-3.55c11.11,1.19,9.22,17.94-1.74,16.74A677,677,0,0,0,379.77,1264C368.86,1265.7,366.27,1248.93,377.34,1247.35Z" transform="translate(-370.2 -350)"/><path d="M2302.31,4229.6a8.4,8.4,0,1,1,12.9-10.76c116.08,139.15,307.45,215.44,487.26,194.73,92.9-10.77,188.74-61.62,230.43-134.76-37.4-18.34-74.76-42.14-89.06-81.41-13.91-38.22,6.22-88.84,46.73-94.84,57-8.28,107,75,65.65,168.54,255,112.08,613.85,7,838-399.84a8.4,8.4,0,0,1,14.7,8.14c-228.41,414.54-596.88,522.91-860.19,406.76-43.53,78.92-143.9,132.46-244.35,144.08C2621.59,4451.58,2423.4,4374.79,2302.31,4229.6Zm662.62-90.11c-9.16,15.37-11.24,35.82-5.3,52.13,12.48,34.32,47.74,56.06,80.88,72.22C3089.51,4154.8,3000.05,4080.44,2964.93,4139.49Z" transform="translate(-370.2 -350)"/><path d="M3042.54,1850.53,3559,2240.15c42.32,30.54,101.33,20.71,131.87-21.6,28.78-40.89,21.25-97.48-18.42-128.78L3156,1700.15c-41-32.3-100.43-25.55-132.72,15.44s-25.55,100.43,15.44,132.73A13.84,13.84,0,0,0,3042.54,1850.53Z" transform="translate(-370.2 -350)" style="fill:#22c55e"/><path d="M3887,3243.92l-657,239.46c-52.32,20.32-78,79.32-57.63,131.64,19.71,50.64,75.54,76.19,127.2,59.25l657-239.46c53.12-18.1,81.79-75.69,63.69-128.82s-75.7-81.79-128.82-63.68Z" transform="translate(-370.2 -350)" style="fill:#ef4444"/><path d="M3547.16,3034.83l196.58-312.78c24.76-41.3,11.09-94.78-30.21-119.54-40-24-91.29-11.88-117.38,26.78l-196.58,312.78c-26.48,40.22-15.6,94.33,24.62,120.81s94.34,15.6,120.81-24.62Z" transform="translate(-370.2 -350)" style="fill:#facc15"/><path d="M2920.41,3154.31h0c-48.14-1-88.17,37-89.19,85.14s37,88.17,85.14,89.18h4c48.14-1,86.15-41,85.14-89.18C3004,3192.83,2967,3155.33,2920.41,3154.31Z" transform="translate(-370.2 -350)" style="fill:#3b82f6"/></svg>