<svg id="Layer_1" data-name="Layer 1" xmlns="http://www.w3.org/2000/svg" viewBox="0 0 475.37 453.32"><path d="M492.64,400.37c-8.13,16.61-20.28,30.13-33.73,42.38a142.48,142.48,0,0,1-72,35.63c-9.07,1.62-18.07,4-27.39,3.68a34.31,34.31,0,0,1-17.41-5.54c-3.16-2-4.83-5.12-6.46-8.29-2-3.16-1.41-6.27.82-8.87,2.4-2.79,5.66-3.4,9.19-2.22,2.91,1,5.43,2.76,8.24,3.93a5.05,5.05,0,0,0,1.4,0c16.39-2.21,32.7-4.68,48.36-10.43a146.63,146.63,0,0,0,52-32.19c7.56-7.3,14.86-14.83,20.83-23.57,2.45-3.6,5.12-7,4.92-11.7-.05-1.05.06-2.65,2-2.4,5.37.87,6.56,5.85,9.23,9.38Z" transform="translate(-17.26 -29.6)" style="fill:#cdcdcd"/><path d="M52.47,104.17c13.72-8.89,28.14-16.58,42.24-24.81,18.78-11,37.66-21.75,56.49-32.63,8.28-4.78,16.37-9.92,24.85-14.31a22.48,22.48,0,0,1,22.59.46q42.29,24.39,84.56,48.78,37.65,21.77,75.26,43.6c20.43,11.8,40.93,23.49,61.33,35.34,17.09,9.93,28.22,24.71,33.8,43.48,6.88,23.17,13.56,46.4,19.8,69.75a252.56,252.56,0,0,1,7.37,44.49c.5,6,.53,12,.71,18-2.51-.34-1.89-2.43-2-3.94-.24-2.27,0-4.59-.22-7.81a80.93,80.93,0,0,0-12.54,9.24c-16.1,14.44-25.89,32.44-30.58,53.43-1.92,8.6-4.15,17.13-6.42,25.65-1.47,5.56-2.71,5.76-6.81,1.69-3.83-3.81-6.79-8.42-11.09-11.81-16.11-12.69-33.64-15.29-52.67-7.63-4.65,1.87-4.8,1.8-6.54-3-2.43-30.29-11.1-59.18-19.75-88.08-2.39-8-4.6-16.06-6.9-24.08-5.61-19.58-16.74-34.92-34.54-45.27C249,210,206.42,185.71,164,161.16c-30.25-17.5-60.59-34.84-90.81-52.41-5.53-3.21-11.21-5.15-17.67-3.93A3,3,0,0,1,52.47,104.17Z" transform="translate(-17.26 -29.6)" style="fill:#ececec"/><path d="M353.37,392c1,2.8,2,3.68,5.35,2.13a50.71,50.71,0,0,1,60.92,15.16c2.06,2.66,4.58,5,7.3,7.85,2.58-6.56,3.62-13.19,5.33-19.62,3.51-13.21,6.11-26.73,13-38.82A97.1,97.1,0,0,1,480,322.59c1.66,4.75-.66,9.53,1.52,13.72q0,19.6,0,39.21c0,2-.21,4,1.91,5.26-1.49,13.14-10.82,21.49-18.93,30.46a145.55,145.55,0,0,1-27.89,24.14A155.4,155.4,0,0,1,371,459.86c-5.3.72-10.55,1.79-15.82,2.7-.83-1.62-.41-3.35-.42-5,0-18.25,0-36.51,0-54.76q0,29,0,58a3.26,3.26,0,0,1-.43,1.76c-2.31-1.14-4.6-2.32-6.92-3.43-7.27-3.51-11.57-.83-11.67,7.26,0,.62,0,1.23-.05,1.84-3.39-.39-5.56-3.73-9.1-3.74a143.44,143.44,0,0,1-17.47-10.05c-1.28-1.33-1.3-3-1.53-4.73C305,431,297.49,414.9,283.27,402.19a31.42,31.42,0,0,0-10.3-6.08C264.5,393,256.91,396,252.62,404a27.8,27.8,0,0,0-3,10.12c-.18,1.49.43,3.59-2.06,3.95Q223.25,404.19,199,390.34c-20-11.48-40-23-60.09-34.48-6.27-3.57-12.31-7.58-19-10.46-6-1.71-10.88-5.59-16.21-8.6-2.06-1.39-2-3.57-2.33-5.74-2.58-19.13-10.18-35.69-25-48.54a31,31,0,0,0-9.48-5.62c-6.56-2.51-12.36-1.49-17.5,3.32a6.51,6.51,0,0,1-3.13,1.88c-3.6-.07-6.11-2.57-9-4.17-4.1-2.28-8.28-4.47-11.82-7.63l.15-84.44c2-1.32,3.52.25,5,1.13q55.26,31.9,110.51,63.86,62.29,36,124.61,71.92A366.25,366.25,0,0,1,346.65,386a42.49,42.49,0,0,1,4.81,5.65A1.16,1.16,0,0,0,353.37,392Z" transform="translate(-17.26 -29.6)" style="fill:#dbdbdb"/><path d="M353.37,392c-.06,4.09-1.83,1.72-2.64.54-3.38-4.89-7.9-8.69-12.06-12.81a355.51,355.51,0,0,0-73.33-55.87c-31.3-18-62.45-36.19-93.71-54.23-29.12-16.8-58.33-33.47-87.45-50.28-18.56-10.71-37-21.58-55.57-32.35a18.66,18.66,0,0,0-3-1.13c.32-7.1,2.42-13.88,3.68-20.81,2.47-13.58,5.16-27.12,7.61-40.7,1.72-9.48,6.48-16.47,15.58-20.18,12.26-3.79,21.27,3.57,30.8,9q29.07,16.72,58.09,33.54,29.25,16.88,58.51,33.71,28.86,16.62,57.73,33.23c12.16,7,24.38,13.91,36.4,21.15,16.33,9.84,27,24.28,32.31,42.44,7.12,24.54,14.91,48.9,20.87,73.75A214.39,214.39,0,0,1,353.37,392Z" transform="translate(-17.26 -29.6)" style="fill:#cdcdcd"/><path d="M46.26,281.67c8.2-8.66,15.94-9.81,26.37-3.22,14.32,9,22,23,27.05,38.56a56.54,56.54,0,0,1,2.86,15.41,4.66,4.66,0,0,0,1.89,3.9c-1,7.45-1.72,15-6.43,21.35-11,9.13-20.76,6.46-29.42-.21-15.06-11.57-22.73-27.57-26.31-45.83a61,61,0,0,1-1-11.52C40.08,293.19,41,286.83,46.26,281.67Z" transform="translate(-17.26 -29.6)" style="fill:#2e373d"/><path d="M247.53,418c1.18-4,1.15-8.17,2.71-12.08,4.32-10.83,13.49-14.91,24.28-10.54,7.83,3.17,13.67,8.84,18.64,15.44A77.1,77.1,0,0,1,308.8,450.7a6.91,6.91,0,0,0,1,3.48c.73,8.57-.29,16.66-6.47,23.32-10,7.21-17.34,7.33-27.72-.3-14.33-10.52-21.95-25.41-26.16-42.25A64.18,64.18,0,0,1,247.53,418Z" transform="translate(-17.26 -29.6)" style="fill:#2e373d"/><path d="M46.26,281.67c-3.3,5.71-4.35,12-5,18.44C36,297,30.6,293.92,25.38,290.66c-3.6-2.24-6.37-5.19-7.56-9.51-1.82-6.54.87-10.52,7.63-10.85C33,273,39,278.49,46.26,281.67Z" transform="translate(-17.26 -29.6)" style="fill:#cdcdcd"/><path d="M303.31,477.5c-.48-2.57,2.12-3.6,2.8-5.68,1.38-4.23,2.84-8.36,2.7-12.91-.05-1.6-.62-3.42,1-4.73,5.69,3.28,12,5.59,16.77,10.31Z" transform="translate(-17.26 -29.6)" style="fill:#242a2f"/><path d="M98,357.67c.73-5.23,4-9.65,4.6-15,.23-2.1-1.68-5.12,1.83-6.36,5.33,2.73,10.68,5.45,15.48,9.08Z" transform="translate(-17.26 -29.6)" style="fill:#242a2f"/><path d="M354.29,462.56V403.37h.9v59.19h-.9Z" transform="translate(-17.26 -29.6)" style="fill:#e3e3e3"/><path d="M437.09,203.41c3.45.38,5.06,2.77,6,5.7,8.37,27.3,16.64,54.62,25.11,81.88,1.06,3.4-1.17,4-3.07,5.11Q416.75,324,368.38,351.92c-3.31,1.92-7.51,5.77-9.91,4.89-2.86-1-2.56-6.72-3.54-10.4q-9.76-36.69-19.4-73.4c-2.18-8.31,0-13.71,7.42-18,12.3-7.09,24.68-14.05,37-21.07,2.58-1,4.44.66,6.4,1.82,20.37,12,40.81,23.87,61.23,35.78a6.41,6.41,0,0,0,2.88,1.21c-1.48-8.37-3.44-16.53-5.34-24.68-3.24-13.83-5.55-27.89-10.17-41.38C434.39,205,433.62,202.72,437.09,203.41Z" transform="translate(-17.26 -29.6)" style="fill:#304e75"/><path d="M437.09,203.41c-1.57.27-1.87.92-1.3,2.55,6.23,17.6,8.9,36.08,13.22,54.15,1.16,4.84,2.16,9.72,3.48,15.71-10.71-6.27-20.38-11.91-30-17.57Q402.72,246.69,383,235.11a18.73,18.73,0,0,0-3-1.15c12.08-8,25-14.56,37.45-22,4.37-2.61,8.8-5.12,13.25-7.57C432.65,203.31,434.66,201.83,437.09,203.41Z" transform="translate(-17.26 -29.6)" style="fill:#59718a"/><path d="M43.2,219.25c8.08,4.64,15.4,8.83,22.7,13,4.94,2.84,9.79,5.86,14.85,8.49,2.93,1.53,4.36,3.35,4.28,6.84-.22,9.11-.13,18.24,0,27.36,0,3.37-.21,5.1-4.21,2.7-11.62-7-23.41-13.7-35.19-20.43a4.08,4.08,0,0,1-2.42-4C43.24,242.29,43.2,231.32,43.2,219.25Z" transform="translate(-17.26 -29.6)" style="fill:#eff5f7"/><path d="M367.22,430.71C367.88,420,372.06,411.52,380,405a9.11,9.11,0,0,1,10-1.41c4.59,2.19,5.15,7.13,5,11.22-.46,9.33-3.88,17.75-11.05,24.11-3,2.64-6.65,5-10.88,3.08C368.07,439.74,367.49,435,367.22,430.71Z" transform="translate(-17.26 -29.6)" style="fill:#fefefe"/><path d="M455.53,374.47c0-9.7,3.19-18.11,10.32-24.76,4.34-4.06,9.17-2.88,11.51,2.46,4.15,9.51-1.88,28.11-10.85,33.42-5.06,3-10.13.45-10.94-5.58A42.64,42.64,0,0,1,455.53,374.47Z" transform="translate(-17.26 -29.6)" style="fill:#fefefe"/><path d="M113.06,222.87C95,211,74.84,204.05,62.51,186.09,52,170.73,48,153.88,50.78,135.46c1.61-10.47,9.41-14.27,18.57-9C82.9,134.18,96.4,142,109.93,149.81c1.59.92,3.18,1.61,3.17,4C113,176.42,113.06,199,113.06,222.87Z" transform="translate(-17.26 -29.6)" style="fill:#243b58"/><path d="M247.38,301c-7.9-4.57-15.49-8.95-23-13.36-9.62-5.6-19.2-11.26-28.84-16.81-1.87-1.07-3.06-2.1-3.05-4.57.1-22.12.06-44.24.08-66.36a15,15,0,0,1,.39-2.18l24.32,14c9.24,5.32,18.45,10.7,27.73,15.95a4.76,4.76,0,0,1,2.84,4.72c-.09,22.12-.06,44.24-.07,66.36A18,18,0,0,1,247.38,301Z" transform="translate(-17.26 -29.6)" style="fill:#243b58"/><path d="M263.71,238.54c10.44,6.27,21,11.25,30.32,18.07,10.78,7.86,17.42,18.64,20.33,31.68q6.33,28.26,12.66,56.5c.16.73.19,1.48.29,2.3-1.9.07-3-1.11-4.3-1.84-18.83-10.95-37.63-22-56.47-32.92-2-1.17-3.27-2.28-3.25-4.94.12-22.28.07-44.55.08-66.83A16.68,16.68,0,0,1,263.71,238.54Z" transform="translate(-17.26 -29.6)" style="fill:#243b58"/><path d="M128.69,160.64c16.05,9.27,31.26,18.08,46.51,26.84,1.46.84,1.68,2,1.67,3.49q-.06,33.65-.09,67.27c0,.25-.25.49-.44.84-2.08-.16-3.59-1.57-5.27-2.54-13.22-7.69-26.41-15.44-39.62-23.14-1.49-.87-2.82-1.52-2.81-3.71C128.72,207,128.69,184.26,128.69,160.64Z" transform="translate(-17.26 -29.6)" style="fill:#243b58"/><path d="M87.19,327a47.37,47.37,0,0,1-.57,5.65c-1.68,7.48-7.72,10.1-14.4,6.34-9.69-5.45-17.24-22.57-14.71-33.36,2-8.51,8.56-11.25,15.67-6.05C82.38,306.3,86.31,316,87.19,327Z" transform="translate(-17.26 -29.6)" style="fill:#cdcdcd"/><path d="M293.69,446.93a46.51,46.51,0,0,1-1,6c-1.91,6.5-7.39,8.74-13.48,5.65-10.51-5.33-18.41-24-14.91-35.29,2-6.49,7.41-8.89,13.42-5.54,9.07,5.05,13,13.68,15.22,23.27C293.33,442.81,293.4,444.68,293.69,446.93Z" transform="translate(-17.26 -29.6)" style="fill:#cdcdcd"/><path d="M80.33,322.74c-.06,3.56-.54,6.39-3.52,7.65s-5.2-.62-7-2.49c-4.09-4.29-6.48-9.44-5.53-15.51.87-5.54,5-7,9.34-3.28A19.71,19.71,0,0,1,80.33,322.74Z" transform="translate(-17.26 -29.6)" style="fill:#627681"/><path d="M270.53,433.71c0-2.86.09-5.8,3.25-7s5.3.79,7.26,2.81a18.51,18.51,0,0,1,5.47,14.19c-.1,2.4-.56,4.75-3.07,5.71-2.34.89-4.57.1-6.42-1.51A18.61,18.61,0,0,1,270.53,433.71Z" transform="translate(-17.26 -29.6)" style="fill:#627681"/><path d="M127,255.83q1.38,44.31,2.78,88.63,56.64,31.21,112,64.57,2.92-45.19,6-90.38" transform="translate(-17.26 -29.6)" style="fill:#627681;opacity:0"/><path d="M147.7,325.39q23.34,12.93,46.5,26.15a7.36,7.36,0,0,1,2.4,10.38,7.93,7.93,0,0,1-10.36,2.64Q163.19,351.5,140,338.74a7.59,7.59,0,0,1-3.27-10.38,8,8,0,0,1,10.69-3.15Z" transform="translate(-17.26 -29.6)" style="fill:#22c55e"/><path d="M209.24,328.19q-23.46-13.59-47.1-26.88a7.45,7.45,0,0,1-2.67-10.5,8.24,8.24,0,0,1,10.74-2.55q23.74,13.44,47.3,27.22a7.24,7.24,0,0,1,2.85,10.23,8.14,8.14,0,0,1-10.79,2.67Z" transform="translate(-17.26 -29.6)" style="fill:#f43f5e"/><path d="M209.72,353.27q-14.19-8.22-28.44-16.35a7.41,7.41,0,0,1-2.52-10.43,8.09,8.09,0,0,1,10.57-2.55q14.31,8.22,28.57,16.55a7.26,7.26,0,0,1,2.8,10.21A8,8,0,0,1,210,353.46Z" transform="translate(-17.26 -29.6)" style="fill:#facc15"/><path d="M227.06,363.92h0a7.25,7.25,0,0,1-2.75-10.18A8,8,0,0,1,235,351.08l.31.18h0a7.2,7.2,0,0,1,2.18,10.28A8,8,0,0,1,227.06,363.92Z" transform="translate(-17.26 -29.6)" style="fill:#3b82f6"/></svg>