<svg id="Layer_1" data-name="Layer 1" xmlns="http://www.w3.org/2000/svg" viewBox="0 0 441.65 449.48"><path d="M33.77,165c6.85-6.35,12.24-14,18.46-20.9,5.17-5.75,10-11.82,15.16-17.58,2-2.2,2.35-3.41-.11-5.8-8.44-8.18-12.41-18.52-13-30.16C53.84,81.9,58.22,76.12,68,72A11.6,11.6,0,0,1,79,72.51c12,6.65,24.12,12.95,35.25,21,6.64,4.79,11,11.56,15,18.54,2.1,3.66,4,7.42,6.39,10.92,1.29,1.89,3.32,2.81,5.18,4,17.6,10.69,35.42,21,53,31.69,1.79,1.09,4.22,1.83,3.62,4.78-.72,1.52-2.17,2.29-3.37,3.32-5.12,4.39-8.76,9.57-9.19,16.59a11.62,11.62,0,0,1-1.53,5.38c-1.84,1.31-3.27,0-4.76-.78-3.58-1.9-6.94-4.19-10.66-5.83a11.79,11.79,0,0,1-1.18-.42c-5.39-2.84-10.5-6.19-16.58-9.44A149.15,149.15,0,0,1,167.83,207c.25.8.42,1.61.6,2.43.37,2.51,2.29,4.62,1.91,7.33a1.58,1.58,0,0,1-2.51.79c-8.06-4.85-16.73-8.72-24.11-14.7-4.65-9.2-10.25-17.69-18-24.64a43.31,43.31,0,0,0-12.42-8.11c-11-4.54-21.4,0-25.67,11.07a45.1,45.1,0,0,0-2.58,21.58c2.38,20.51,10.08,38.65,25.12,53.22,4.44,4.29,9.39,7.86,15.46,9.66,8.44,2.51,16.12-.11,21.13-7.38a17.94,17.94,0,0,1,2.26-3.22,3,3,0,0,1,3.63-.46c6.61,3.61,13.17,7.3,19.44,11.49a3.1,3.1,0,0,1,1,1.41c.05,8.35-4.42,14.84-8.8,21.37-.4.59-1,1-1.27,1.74-14.56,11.54-29.6,10.89-45,1.74-14.66-8.73-25.36-21.29-34.21-35.58A143.81,143.81,0,0,1,62.08,190a79.67,79.67,0,0,1,4.09-31c1-7.42,5.65-12.49,11-17.15,2.85-2.5,6.44-3.83,9.53-5.94-8.63,5.68-18.29,9.94-25.76,17.22A98.85,98.85,0,0,0,47.17,169.5c-2.55,2.72-5.05,3.06-8,.4-1.51-1.35-3.07-3-5.38-3.16Z" transform="translate(-33.77 -34.93)" style="fill:#2e373d"/><path d="M433.17,476.57c-4.49,3.6-9.75,5.74-15,7.83H405c-14.76-4.62-26.78-13.28-36.88-24.85A145.89,145.89,0,0,1,346,424.78c-.9-2,.61-3.3,1.51-4.72,3.29-5.18,4.39-10.58,2.7-16.67a80.44,80.44,0,0,1-2.5-29.86c.8-7.84,3.39-15.06,8.58-21.14,1.89-2.21,4-4.24,7.28-4.28,3.61,5.06,3.5,7.11-.15,11.52-6.59,8-7.91,17.56-7,27.28A89.22,89.22,0,0,0,375.69,435a54.58,54.58,0,0,0,16.67,14c12.23,6.69,24.29,1.73,28.66-11.55,3.6-10.95,2.55-22-.24-32.83-4.23-16.5-12.24-30.86-25-42.35a42.28,42.28,0,0,0-7.92-5.43c-2.84-1.59-4.92-3.68-4.21-7.34,1.88-1.29,3.33.11,4.73.92a46.29,46.29,0,0,1,9.66,7.37c6.28,6.22,12.6,10.11,23,4.15a2.69,2.69,0,0,1,2.87-.35c5.39,6.14,8.33,13.68,11.62,20.95a134.75,134.75,0,0,1,11.8,50.39,71.72,71.72,0,0,1-4.55,29.2C440.55,467.59,437.71,472.65,433.17,476.57Z" transform="translate(-33.77 -34.93)" style="fill:#2e373d"/><path d="M384,349.64c.35,3.35,2.36,5.07,5.25,6.77,14.83,8.68,23.48,22.41,29.52,37.93,4.83,12.4,7.12,25.25,4.66,38.6a33.2,33.2,0,0,1-2.51,7.9c-4.89,10.61-14.36,14.77-25.3,10.75C384.29,447.42,376.49,439,370,429.21c-8.46-12.74-13.66-26.77-14.71-42.06-.75-11.1.38-21.89,9-30.43,2.68-2.64-.76-5.36-.63-8.11-1.55-.88-1.92-2.45-2.34-4-2.19-7.95-4.37-15.91-6.65-23.85a33.3,33.3,0,0,1-1.46-10.11c-2.12-7.55-2.2-7.68-9-3.83-16.56,9.43-33,19-49.57,28.5-.62.35-1.31.58-2,.87,3.62-10.95,2.38-22.7,5.61-33.72s7.38-21.51,10.84-32.35a27,27,0,0,1,2.43-5.61,6.28,6.28,0,0,1,.88-1.05c5.72-4,11.94-7.25,18-10.77,4.91-2.87,4.91-2.89,3.5-8.22-1.72-6.48-3.51-12.94-5.27-19.4-.56-2-1.59-4.15-.44-6.36,1-.91,1.93-.3,2.76.2,6.83,4.1,13.77,8,20.59,12.12a4.49,4.49,0,0,1,1.86,1.78c.26.8.18,1.67.45,2.47.33,1,0,2.55,1.43,2.71a2.55,2.55,0,0,0,2.53-1.86c-7.34-12.56-6.76-25.73-2.71-39,4.74-15.57,12.25-29.41,26.2-38.81,5.24-3.53,10.87-5.57,17.31-3.73,9.54,3.33,13.2,10.88,14.17,20.16,2.26,21.56-5.72,39.78-19.63,55.43-3.46,3.89-3.69,6.48-2.43,10.85,4.39,15.26,8.38,30.62,12.52,45.94a1.61,1.61,0,0,1-1.38,2.52c-5.77.43-11.13,2.95-16.92,3.17-1.79-1.11-2.24-3-2.71-4.84-3.65-13.93-7.74-27.74-11.11-41.24-.64,4.38-2.38,8.89-4.14,13.3a29.8,29.8,0,0,0-.43,22.18c2.19,6,3.47,12.38,5.26,18.56,1,4.27,2.06,8.51,3.41,12.68,3,10.37,5.51,20.9,8.48,31.3C384.24,346.24,385.15,347.91,384,349.64Z" transform="translate(-33.77 -34.93)" style="fill:#cdcdcd"/><path d="M312.73,264.37c-5.16,14.48-11.11,28.72-14.34,43.8a98.76,98.76,0,0,0-2.06,17.22c-.13,4.12-.8,7.72-3.59,10.8-5.22,4.34-10.52,4-16.16.65-9.4-5.61-18.92-11-28.4-16.47a32.19,32.19,0,0,1-13.69-14.89,8.32,8.32,0,0,0-2.36-3.58c-1.17-2.9-1.25-5.93-1.32-9-.18-7.57.57-15.16-.59-22.72a27.4,27.4,0,0,0-3.92-11c-1.52-4.1-4.54-7-7.72-9.84-1.54-1.35-3.18-2.59-3.4-4.86-.24-10.16-.07-20.31-.09-30.47a7.33,7.33,0,0,1,.69-3.8c2.1-2.18,4-.68,5.89.39q24.65,14.25,49.31,28.49c12.51,7.25,25.06,14.42,37.54,21.7C310.13,261.69,312,262.38,312.73,264.37Z" transform="translate(-33.77 -34.93)" style="fill:#81a4b8"/><path d="M226.77,258c4.08,4.35,4.75,10,5.14,15.44.66,9.27-.49,18.62.78,27.9,0,.18-.37.41-.56.61q-20-11.52-40-23c-1.49-.86-3.09-1.54-4.64-2.3-5.37-2.37-10.63-4.92-15-8.93-6.52-4.78-13.85-8.2-20.68-12.46-.73-.45-1.38-.06-2,.23-10.08-5.26-19.88-11-29.55-17s-14.93-15.32-16.26-26.68c-.92-7.9,4.62-14.51,13-15.7,5.14,0,9.07,3,13.19,5.4,31.08,18,62.25,35.77,93.2,53.95A15.41,15.41,0,0,1,226.77,258Z" transform="translate(-33.77 -34.93)" style="fill:#525e65"/><path d="M353.23,310.65q5.24,19,10.45,38c-10.42,4.88-13.34,14.38-14.78,24.56a66.79,66.79,0,0,0,2,27.7c2.37,8.37,1.77,15.78-4.45,22.28-.35.37-.33,1.08-.48,1.63-2.17-.39-3.5,1.3-5.08,2.21-2.44,1.42-3.38.77-4.41-1.74-7.08-17.38-11.86-35.17-12.4-54.12-.37-12.83.89-25.15,5.93-37a39.38,39.38,0,0,1,20-21C351.22,312.54,353.11,312.69,353.23,310.65Z" transform="translate(-33.77 -34.93)" style="fill:#dbdbdb"/><path d="M47.17,169.5c-1.67-1.06-.48-1.86.21-2.77a95.74,95.74,0,0,1,34.36-28.84,21.59,21.59,0,0,0,3.68-2.33c1.7-1.35,2.81-.68,4.11.87-12,3.35-18.73,11.92-23.36,22.58Z" transform="translate(-33.77 -34.93)" style="fill:#23292e"/><path d="M172.43,267.63c5.21,2.62,10.55,5,15,8.93-7.76,5.35-16.07,9.72-24.41,14.05-1.48-1.22.19-1.67.62-2.35C167.74,281.87,171.69,275.44,172.43,267.63Z" transform="translate(-33.77 -34.93)" style="fill:#24292e"/><path d="M134.69,123.74c-3.45-5.9-6.76-11.88-10.38-17.66-5.32-8.49-13.18-14.17-21.75-19C96,83.38,89.3,79.8,82.91,75.79A24.14,24.14,0,0,0,68,72l45.89-26.35c4.69-2.69,9.39-5.35,14.07-8,4.86-2.79,10.15-3.74,15.09-1.12,12.12,6.42,24.27,12.86,35.44,20.87,8.09,5.8,12.55,14.49,17.3,22.88,1.36,2.41,2.6,4.87,3.9,7.31.54,2.07-1.3,2.37-2.42,3-14.64,8.41-29.37,16.67-44,25q-6.24,3.57-12.54,7.08C138.88,123.71,137,125.28,134.69,123.74Z" transform="translate(-33.77 -34.93)" style="fill:#627680"/><path d="M134.69,123.74a6.08,6.08,0,0,0,3.74-1q30.4-17.25,60.77-34.53c.23-.13.35-.46.51-.69q26.79,15.84,53.58,31.69c3.12,1.85,6.27,3.63,9.41,5.44.55,2-1.09,2.44-2.21,3.15C257,130,253.34,132,249.71,134c-15.26,6.33-29.79,13.9-42.46,24.7-3.57,1.11-6.07,4.78-10.29,4.38.07-1.64-1.18-2.15-2.33-2.83q-27.6-16.41-55.17-32.9C137.74,126.36,135.72,125.68,134.69,123.74Z" transform="translate(-33.77 -34.93)" style="fill:#525e65"/><path d="M398.68,154.59c-20.63.59-29.84,15.4-38.07,31a66.28,66.28,0,0,0-7.2,27.62c-.38,7.27.73,14.47,4.84,20.88.51.78,2.06,1.44,1.05,2.86a6.81,6.81,0,0,1-6.05-3.64l-24.72-14.69c-5.37-1.79-8.1-6.41-11-10.67a40.84,40.84,0,0,1-5.92-13.11c-1.44-5.85-1-11.78-.81-17.7,3.38-17.35,13.07-29.39,29.8-35.62a30.24,30.24,0,0,1,10.94-1.94l12.08-.16c7-1,13,1.13,18.46,5.39Z" transform="translate(-33.77 -34.93)" style="fill:#81a4b8"/><path d="M433.17,476.57c-.94-.73-.21-1.24.26-1.74,8.07-8.62,11-19.23,11.93-30.65,2.45-29.59-6.37-56.16-21.51-81.07a6.73,6.73,0,0,1-.49-1.65c-.19-2.58,2.08-3.51,3.4-5.08,6.69-4.36,13.67-8.24,20.66-12.11,1.51-.84,3.09-1.83,4.73-.18,9.72,15.93,17.18,32.79,20.78,51.19,3.08,15.8,3.93,31.58-1.07,47.22-3.24,10.15-9.08,18.14-18.77,23.14C446.36,469.1,439.81,472.91,433.17,476.57Z" transform="translate(-33.77 -34.93)" style="fill:#23292e"/><path d="M351.58,139.61c-6.18,1.62-12.43,3.07-18,6.36-10.82,6.39-18,15.55-20.82,27.91-.2.84-.57,1.64-.85,2.47-2.79,2-5.93,1.28-8.85.8a33.16,33.16,0,0,1-18.37-9.34c-9.18-9.12-18.16-18.46-27.56-27.35-1.78-3.1-4.79-4.9-7.43-7.09,3.8-3.71,9.32-4.84,13-8.71,7.85-2.48,15.28-6.16,23.63-7.27,16.42-2.16,31.74.61,46.1,8.85a108.3,108.3,0,0,1,16.46,12.08A4.69,4.69,0,0,0,351.58,139.61Z" transform="translate(-33.77 -34.93)" style="fill:#eff5f7"/><path d="M452.15,344.09c-1.88-.43-3.33.5-4.87,1.39-6.78,3.93-13.61,7.78-20.43,11.66-2.41,1.16-3-1.07-3.89-2.29a187.6,187.6,0,0,0-16.76-20.07c-8.63-8.69-18.19-15.84-29.75-20.11a5.42,5.42,0,0,1-2.16-1.43c-1.81-3.9-2.44-8.15-3.49-12.27,3.85-4.22,8.89-6.53,14-8.74,5.41-1.51,10.67-3.73,16.45-3.51a1.83,1.83,0,0,0,2.07-1.75c1,1.12,1.34,2.44,3.43,2.74,11.73,1.68,21.39,7.72,30.48,15,9.31,7.42,16.55,16.63,23.51,26.14,3.76,5.13,3.66,6.83-1.82,10.25A51.47,51.47,0,0,1,452.15,344.09Z" transform="translate(-33.77 -34.93)" style="fill:#eff5f7"/><path d="M382.12,144.84c-6-2.42-12-4.57-18.46-5.39-.25-8.48-3-16.5-4.63-24.72-2.35-11.93-5.26-23.74-7.94-35.61-1.11-4.86,2.76-10.07,8.63-11.55,4.64-1.14,8,1.06,10.23,4.67a16.63,16.63,0,0,1,2.56,11.93c2.18,10.52,4.44,21,6.5,31.56,1.58,8.11,4.4,16,4,24.46C383,141.8,383,143.4,382.12,144.84Z" transform="translate(-33.77 -34.93)" style="fill:#cdcdcd"/><path d="M372.51,84.17a34.58,34.58,0,0,1-1.19-4.63c-.87-6.94-4.26-11.34-11.6-12,7.25-4.3,14.4-8.77,21.78-12.83a9.35,9.35,0,0,1,12.57,3.58c2.61,4.32,1.52,9.51-2.72,12.83-.87.67-1.79,1.29-3.53,2.54,3.66,0,6.36,0,9.05,0,3.85.09,6.4,2.2,6.1,5.28-.34,3.45-2.53,5.13-5.94,5.15C388.86,84.17,380.69,84.16,372.51,84.17Z" transform="translate(-33.77 -34.93)" style="fill:#2e373d"/><path d="M197,163.12l9.75-5.17c1.07,1,.94,2.39,1.16,3.66,1.28,7.43,6.78,10.16,13.56,6.69,5.6-2.87,10.83-6.37,16.35-9.37.64-.35,1.23-.8,1.89-1.1,1.43-.62,3-2,4.43-.71,1.24,1.07.49,2.77.16,4.15-1.21,5.11-2.21,10.28-3.55,15.37a29.15,29.15,0,0,0-.86,4.73c-.23,2.29.5,4.16,2.9,4.72s3.95-.88,4.6-3c1.41-4.76,2.55-9.6,3.65-14.44a11.56,11.56,0,0,1,1.54-4.53c2.14-2.23,3.71-.52,5.15.87,4.82,4.65,9.58,9.37,14.22,14.19a48.47,48.47,0,0,0,27.65,14.61c1.44.24,3,.35,3.18,2.32.46,3.09,2.06,5.76,3.31,8.52,5.34,11.75,7.31,24.21,8,36.94.29,5.81.05,11.65.05,17.48a8.17,8.17,0,0,1-1.2,5l-.14.34q-46-26.53-91.92-53.07c-1.12-.65-2.36-1.11-3.54-1.65-.76-.42-1.66,0-2.43-.41-9.83-5.32-19.39-11.13-29.08-16.7-1.43-.82-3.23-1.58-2.77-3.85C183.33,177.81,187.28,168.9,197,163.12Z" transform="translate(-33.77 -34.93)" style="fill:#dbdbdb"/><path d="M117.21,196.68c-10,1.88-14.35,9-11.13,20.86a33.85,33.85,0,0,0,16.41,21.1q12.08,7,24.15,14c1.22.71,2.8,1,3.08,2.78-6.86,12.59-16.94,15.73-29.68,9.1-9.76-5.08-16.83-13-22.45-22.24-10.14-16.62-15.9-34.39-13-54.17a34.21,34.21,0,0,1,1.8-6.74c4.69-12.63,15.55-17.56,27.79-12,14.68,6.69,23.85,18.71,30,33.27-1.55.65-2.9-.08-4-.89A28.78,28.78,0,0,0,117.21,196.68Z" transform="translate(-33.77 -34.93)" style="fill:#cdcdcd"/><path d="M183,188.69c.62,1.9,2.42,2.45,3.89,3.31q14.3,8.43,28.65,16.77c.72,11.76.11,23.53.32,35.28-.75,4.24-3.16,1.39-4.38.71-5.58-3.12-11.07-6.4-16.66-9.52s-11.31-6.56-16.95-9.87c-3.48-2-7.1-4.13-8.08-8.6l-2.52-7.14c-.34-7.66-.63-15.33-.45-23,.05-2-.32-4.12,1.21-5.82C173.23,183,177.56,186.89,183,188.69Z" transform="translate(-33.77 -34.93)" style="fill:#525e65"/><path d="M169.78,216.77c4.2,6.16,10.9,8.92,17,12.46,9.53,5.53,19.11,11,28.67,16.45.39-.38.64-.28.78.22,4,3.59,8.66,6.6,10.53,12-7.87-3.15-14.81-8-22.12-12.19-25.56-14.58-51-29.37-76.46-44.14-3.5-2-7-4.1-11-4.94,6.14-2.68,12.12-2.1,17.93.95,3.06,1.61,6.06,3.34,9.08,5q12,7.1,24,14.19C168.75,217.13,169.3,217.38,169.78,216.77Z" transform="translate(-33.77 -34.93)" style="fill:#23292e"/><path d="M167.05,207.08c-5.28-12.56-10.85-25-19-36.06l.82-.81,18.29,10.57A144.41,144.41,0,0,1,167.05,207.08Z" transform="translate(-33.77 -34.93)" style="fill:#23292e"/><path d="M167.05,207.08l.09-26.3.88,0c0,8.24,0,16.49,0,24.73,0,1.39.51,2.93-.75,4.1Z" transform="translate(-33.77 -34.93)" style="fill:#666f74"/><path d="M374.29,313.24c8.6,1.83,15.8,6.4,22.56,11.71,10.45,8.21,19.11,18.12,26.72,29,.87,1.24,1.35,3,3.28,3.21l-3.49,4.32c-10.16,6.86-16.15,6.35-25.08-2.07-4.24-4-8.73-7.65-14.28-9.75Q379.16,331.45,374.29,313.24Z" transform="translate(-33.77 -34.93)" style="fill:#dbdbdb"/><path d="M404.09,186.46c-.34,15.26-6.28,27.94-17.81,37.92a20.39,20.39,0,0,1-9.85,4.52c-5.22.93-10.51-2.75-12.59-8.7a30.6,30.6,0,0,1-1-16.76c2.73-12.94,7.94-24.38,19-32.36a16.28,16.28,0,0,1,7.93-3.46c8-.73,13.52,4.46,14.33,13.58C404.22,182.94,404.09,184.71,404.09,186.46Z" transform="translate(-33.77 -34.93)" style="fill:#fefefe"/><path d="M312.87,264c-.25-11,.42-22.08-.92-33.08A98.47,98.47,0,0,0,302,198.71c-.5-1-2.77-2.32.28-3.06a10.31,10.31,0,0,1,10.56,0,49.52,49.52,0,0,0,15.67,23c1.68,9.48,4.78,18.59,7.29,27.85.74,2.73.57,4.12-2.11,5.56C326.66,255.85,319.8,260,312.87,264Z" transform="translate(-33.77 -34.93)" style="fill:#eff5f7"/><path d="M394.82,389.15c.87-.42,1.49-.41,1.86.1,5.89,8,9.56,16.73,7.48,26.87-1.72,8.37-8.55,11-15.4,5.88-9.55-7.13-13.5-17.08-13.06-28.92,1.26,4.5,2.45,9,3.8,13.49,1.95,6.43,6.38,9.21,12.06,7.72,5.52-1.45,8.08-6.41,6.51-12.73C397,397.39,395.9,393.24,394.82,389.15Z" transform="translate(-33.77 -34.93)" style="fill:#627681"/><path d="M353.25,233.34,359.3,237c-.31.29-.58.73-.94.84-1.46.42-3,2.67-4,1.65A5.15,5.15,0,0,1,353.25,233.34Z" transform="translate(-33.77 -34.93)" style="fill:#ebf1f3"/><path d="M245.18,287.17c.47-6.61,1-13,7.37-15.79,6.64-2.95,12,.85,16.27,5.41,9.65,10.25,14.94,22.29,12.37,36.61-1.76,9.82-9.69,13.19-18,7.62C251.15,312.9,246.52,300.59,245.18,287.17Z" transform="translate(-33.77 -34.93)" style="fill:#fefefe"/><path d="M216.24,245.9a6.94,6.94,0,0,1-.78-.22q0-18.45.07-36.91l1.74.88c-1.5,1.23-.94,2.95-1,4.47C216.26,224.71,216.26,235.31,216.24,245.9Z" transform="translate(-33.77 -34.93)" style="fill:#8da4b1"/><path d="M223.81,154.29l1.56,49.62q31.69,17.53,62.73,36.16,1.65-25.31,3.37-50.61" transform="translate(-33.77 -34.93)" style="fill:#627681;opacity:0"/><path d="M235.39,193.24q13.1,7.19,26,14.64a4.11,4.11,0,0,1,1.34,5.81,4.44,4.44,0,0,1-5.8,1.48q-12.89-7.35-25.92-14.46a4.25,4.25,0,0,1-1.83-5.81,4.48,4.48,0,0,1,6-1.77Z" transform="translate(-33.77 -34.93)" style="fill:#22c55e"/><path d="M269.85,194.81q-13.11-7.67-26.37-15.06a4.18,4.18,0,0,1-1.5-5.88,4.63,4.63,0,0,1,6-1.43q13.31,7.5,26.48,15.24a4.07,4.07,0,0,1,1.6,5.74,4.57,4.57,0,0,1-6.05,1.49Z" transform="translate(-33.77 -34.93)" style="fill:#f43f5e"/><path d="M270.12,208.85c-6.31-3.68-9.5-5.51-15.92-9.16a4.15,4.15,0,0,1-1.41-5.84,4.53,4.53,0,0,1,5.91-1.43c6.46,3.7,9.66,5.55,16,9.27a4.07,4.07,0,0,1,1.57,5.72,4.5,4.5,0,0,1-6,1.54Z" transform="translate(-33.77 -34.93)" style="fill:#facc15"/><path d="M279.83,214.81h0a4.07,4.07,0,0,1-1.54-5.7,4.47,4.47,0,0,1,6-1.49l.18.1h0a4,4,0,0,1,1.21,5.76A4.49,4.49,0,0,1,279.83,214.81Z" transform="translate(-33.77 -34.93)" style="fill:#3b82f6"/><path d="M253.33,164.1c-1.48,6.08-3,12.14-4.41,18.25-.78,3.46-2.53,5.65-6.28,5.15-3.3-.44-4.75-3.41-3.84-7.43,1.69-7.5,3.43-15,5.38-23.44L224.38,168a37.17,37.17,0,0,1-4.63,2.44,9.52,9.52,0,0,1-13.09-8.53c-.06-1.31,0-2.62.05-3.93,6.25-7.73,15.72-10.66,23.75-15.72,6-3.77,11.92-7.89,19.23-8.86,3.7.67,6.11,3,7.75,6.21a5.11,5.11,0,0,1,1.26,4.06C257.69,150.66,257,157.79,253.33,164.1Z" transform="translate(-33.77 -34.93)" style="fill:#2e373d"/><path d="M253.33,164.1c1.2-5.33,2.27-10.69,3.65-16a20,20,0,0,0,.46-8.55c5.05,3.56,8.82,8.45,13.24,12.67,4.22,4,8.43,8.1,12.36,12.42,7.79,8.57,17.28,12.62,28.86,11.68.05,6.45-.4,12.92,1,19.31H302.3c-4.56-1.24-9.3-1.76-13.7-3.73a54.38,54.38,0,0,1-18.15-12.63c-4.35-4.72-9-9.15-13.61-13.65C255.92,164.74,255.24,162.92,253.33,164.1Z" transform="translate(-33.77 -34.93)" style="fill:#cdcdcd"/></svg>