<svg id="Layer_1" data-name="Layer 1" xmlns="http://www.w3.org/2000/svg" viewBox="0 0 4300 4044.33"><g id="_20" data-name="20"><path d="M4456.55,2611.82c17.4-17.4,9-91.68,12.72-117.45,6.35-48.19,5.85-92.76-1.18-140.95-2.34-15.39-2.17-35.74-6.52-50.79l118.46-93C4606.8,2352.82,4559.28,2508.08,4456.55,2611.82Z" transform="translate(-350 -477.83)" style="fill:#2c56fe"/><path d="M1229.8,1093.69c76.08-74.38,149.44-153.23,218.1-234.37,7.06-8.44,19.94,2.36,12.74,10.81-69,81.54-142.7,160.78-219.14,235.52C1233.59,1113.32,1221.91,1101.42,1229.8,1093.69Z" transform="translate(-350 -477.83)"/><path d="M358.37,3222.18a8.36,8.36,0,0,1-1.93-16.5C3172.9,2543,3081,2551.59,3085,2568.4c3.85,16,92.1-17.18-2724.72,653.55A8.19,8.19,0,0,1,358.37,3222.18Z" transform="translate(-350 -477.83)"/><path d="M1976.63,2831,1571.4,2971.21a22.26,22.26,0,0,1-29.11-18.07l-11-83c37.48-12.37,69.27-37.14,100.06-61.57,20-15.75,27.51-25.5,24.42-51.19,20.94,2.24-56.82.36,315.56,30.78C1995,2790.18,1999.05,2823.3,1976.63,2831Z" transform="translate(-350 -477.83)" style="fill:#5fff9f"/><path d="M2022.53,2915.76c-10,17.22-20.77,18.58-38.26,24.35-17.68,5.83-1.92.64-431.43,144.45L1545.93,2980l346.93-120.09c32.41-11.22,84.39-29.3,83-63.67C1974.4,2762.46,2050.36,2867.69,2022.53,2915.76Z" transform="translate(-350 -477.83)"/><path d="M1104.93,2581.37a32.93,32.93,0,0,0,.33,5.69l-321.57,74.29c-117.79,27.1-233.91-52.54-251.64-173.34L401.21,1600.25c-14.39-96.72,39.48-187.73,124.81-223.54a92.85,92.85,0,0,0-33.46,86L658.87,2581a92.57,92.57,0,0,0,112.44,76.62Z" transform="translate(-350 -477.83)"/><path d="M1450.6,2502.06a55.84,55.84,0,0,0-3.35,6l-31.12,7a33.89,33.89,0,0,1-2.68-4.68Z" transform="translate(-350 -477.83)"/><path d="M1527.18,2862.85c11.36-6.5,22.69-.3,98.92-60.82,19.53-15.34,24-22,20.94-46.16-12.83-92.84-30.69-190.89-35-210.54-2.36-10.85,14-14.25,16.34-3.53,16.32,76,35.93,217.33,35.61,214.6,3.4,29.15-5.61,41.49-27.58,58.77-29.21,23.18-62.35,49.47-102,62.73C1523.57,2882.93,1517.21,2867.28,1527.18,2862.85Zm3.43,7.64h0Z" transform="translate(-350 -477.83)"/><path d="M2192,2323.91c37.9-11.54,73-7.69,100.43-41.61,6.88-8.61,20,1.88,13,10.52-32.08,39.73-72.87,35.87-109.7,47.4C2185,2342.75,2181.08,2326.4,2192,2323.91Z" transform="translate(-350 -477.83)"/><path d="M2303,2168.69l-7.72-50.52c-1.63-10.87,14.88-13.6,16.54-2.52l7.71,50.53C2321.18,2177.14,2304.63,2179.61,2303,2168.69Z" transform="translate(-350 -477.83)"/><path d="M1411.63,2502.27l37.15-8.36c10.73-2.51,14.53,13.86,3.66,16.3l-37.15,8.37C1404.47,2521.14,1400.85,2504.69,1411.63,2502.27Z" transform="translate(-350 -477.83)"/><path d="M750.15,2668.43a101,101,0,0,1-99.54-86.16L484.28,1463.93A100.46,100.46,0,0,1,570.75,1349l249.3-33.46c10.49-1.84,13.53,15.07,2.22,16.56L573,1365.59a83.84,83.84,0,0,0-72.16,95.89L667.15,2579.8a84.17,84.17,0,0,0,102.28,69.71l333.65-76.29c10.7-2.52,14.59,13.82,3.72,16.3l-333.64,76.29A103.6,103.6,0,0,1,750.15,2668.43Z" transform="translate(-350 -477.83)"/><path d="M2240.74,1763.48l-81-527.71c-7-45.31-49.77-77-94.64-70.62l-864.74,116.11c-10.72,1.7-13.4-15.09-2.22-16.57l864.67-116.1c53.95-7.55,105.1,30.35,113.46,84.63l81,527.71C2258.93,1772,2242.38,1774.35,2240.74,1763.48Z" transform="translate(-350 -477.83)"/><path d="M1505.81,2380.24c-49.52-42.46-90.88-94.16-120.13-153.57a16.54,16.54,0,0,0-1.34,3.68c-20.41,67.25-20.08,140.88-.33,208.47l112.62-25.51A83.62,83.62,0,0,1,1505.81,2380.24Z" transform="translate(-350 -477.83)" style="fill:#b0d8ff"/><path d="M2169.71,1659.81c-212.57-210.28-563.21-182.9-740.2,58.9-85.22,116.17-111.21,258.15-86.32,382.47-17.41,30.45-32.8,62.25-42.17,96.37-4.08-20.85-39.2-37.23-73,7.36-24.09,33.14-36.81,74.62-34.47,115.45-.33-14.39-18.4-22.76-32.12-18.4-13.38,4.34-22.42,17.06-29.11,29.44-28.11,51.87-33.8,112.44-32.12,171.33L820.16,2566a78.89,78.89,0,0,1-94.7-64.24L569.19,1512.9a78.69,78.69,0,0,1,66.93-90L868,1391.77c-3.68,9-7,19.07-3.34,27.44,5.33,16,45.68,12.18,57.89,13,149.59,12.14,228,20.78,239.92,18.07,6.44-1.28,14.49-10.27,12.72-22.09-5.65-31-8.07-47-23.09-74.62l884.42-118.78a78.24,78.24,0,0,1,88,67.92Z" transform="translate(-350 -477.83)" style="fill:#b0d8ff"/><path d="M2288.58,2166.29c-10.07-4.8-2.65-19.9,7.19-15.1,45.13,21.55,84,38,125.13,37-16.3-51.36-67.77-97.5-112.28-127.55-9.27-6.2.2-20,9.28-13.92,3.35,2.21,5.86,4.45,8.69,6.34,48.1,35.64,98.82,80,113.26,140.91a8.37,8.37,0,0,1-7.35,10.26C2381.36,2209.07,2335,2188.44,2288.58,2166.29Z" transform="translate(-350 -477.83)"/><path d="M2629.81,2482.76c-125.2,0-209.48-78.68-295.08-157.57-32.73-30.1-49.4-30.48-41.8-41.93a8.37,8.37,0,0,1,11.6-2.32c31.82,21.2,42.37,33.16,49.77,39.53,71.11,65.53,138.3,127.44,238.29,142.54,87.75,13.35,136.26-22.47,148-63,7.52-24.77,1.6-51.37-5.06-76.5-37.37-141.9-96.18-227-161.86-286.75-62.1-55.91-166.08-121.11-249.2-112.66-11.39,1.16-25.11,4.57-25.59-6.62a8.37,8.37,0,0,1,8-8.72c15.14-.61,31.37-4,48.43-2.29,101.38,10.91,225.49,98.54,287.51,179.58,48,62.5,84.6,141,108.88,233.18,7,26.24,13.66,56.67,4.94,85.52C2744.86,2445.46,2700.9,2482.76,2629.81,2482.76Z" transform="translate(-350 -477.83)"/><path d="M3961.31,3502.6c-22.09,22.76-43.51,47.18-76.63,56.22-55.55,15-111.77-17.07-159.62-49.2-243.61-161.62-472.5-344-697.37-531q-119-99.37-237.24-200.1c-312.86-264.37-295.8-248.45-301.17-259.67-17.06-33.8,45.84-110.1,64.58-138.54,37.82-56.89,139.54-186.72,208.81-203.79,79-19.41,185.39,31.79,241.94,83.32a504.11,504.11,0,0,0,44.84,36.47c7.69,79.31,19.74,159.62,24.43,242.95,1.67,25.42,3.34,53.87,19.74,74.29,19.74,24.76,54.54,32.12,86,26.77,16.07-2.68,75-39.16,84.67-33.14,7,4.36,11.71,39.16,14.38,47.53,48.36,142.34,168.24,336.6,308.86,404.55,50.87,24.77,113.11,38.83,173,42.17,15.06,78.3,24.76,157.61,28.1,236.25,1.68,39.48-13,100.72,12.72,134.85C3833.14,3515,3909.44,3514,3961.31,3502.6Z" transform="translate(-350 -477.83)" style="fill:#f6d356"/><path d="M3794.67,3477.49c-28.06-37.15-12.71-100.17-14.41-139.5-3.24-76.34-12.65-155.42-27.94-235-2.13-10.94,14.45-14,16.4-3.17,15.49,80.42,25,160.32,28.27,237.47,1.67,39.1-12.37,99.17,11,130.16,32.48,43.44,122.6,37.81,171.83,22.17,83.72-24.82,149.56-85.71,197.6-136,76.46-79,95.49-123.43,102.74-244.69,10.64-183.48-20.56-219.57-.06-222.28a8.5,8.5,0,0,1,9.38,7.22c12.83,98.28,18.73,276-22.13,366.26-18.66,40.88-48.46,74.67-77.87,105.1-60.05,62.84-140.33,130.58-226.79,145.63C3906.63,3523.16,3828.87,3523.28,3794.67,3477.49Z" transform="translate(-350 -477.83)"/><path d="M3553.11,2855.49c-42.12-1.5-83.75-38.53-78.3-81.41,1.4-10.9,18-8.92,16.6,2.12-4.15,32.43,29.48,61.4,62.29,62.56,99.63,2.84,208.87-177.39,123.75-326.44-5.5-9.65,9.05-17.9,14.51-8.3C3782.3,2662.12,3668.38,2858.7,3553.11,2855.49Z" transform="translate(-350 -477.83)"/><path d="M1135.89,2756c-19.9-40.7-32.65-95.75-39-168.24a38.73,38.73,0,0,1-.36-6.41c-8.34-85.53-11-181.1,28.43-254,13.89-25.68,35.42-43.51,60.53-31.16,6-75.82,66-158.09,112.8-118.51,8.46-24.95,20.65-51.06,37.61-80.71,4-7.06,14.1-4.73,15.49,2.6a457.88,457.88,0,0,0,41.7,123.24,8.31,8.31,0,0,1,.07,7.45,7,7,0,0,0-.72,2c-19.77,65.17-19.9,137.51-.43,204.14,9.41,32.72,19.07,50.76,28.53,69.69,6.57,13.37,11.26,12.46,18,.22l8.53,2-7.36-4c5.32-9.76,19.65-2.12,15,7.4-7.67,13.83-14,19.86-23.13,20.73-7.75.77-16.21-3.54-22.39-12.64-8.61-13.35-23.74-45.58-33.27-78.71-20.35-69.68-20.22-145.42.36-213.22.07-.27.14-.53.2-.79a474.65,474.65,0,0,1-36.83-102.18c-34.93,66.35-26,81-38.69,81h-.33a8.37,8.37,0,0,1-7.87-6.76c-2.06-10.56-15.69-16-26.28-13.55-11,2.39-21,10.12-31.79,24.36-25.15,34.6-32.78,68.74-32.78,110.21.24,11.25-16.07,10.89-16.73.67,0-.31,0-.62,0-.93-.84-8-12.77-12.62-21.21-10-8.66,2.82-16.4,10.91-24.28,25.45-38.09,70.34-34.38,162.49-26.44,245.19.51,36,13.3,118.31,37.65,168.11,26.66,54.92,81.83,58,132.35,53.91,124.1-9.55,225.69-46.68,332.43-268.68,3.25-6.59,4-8.21,5.56-11.07,5.14-9.66,20-1.85,14.7,8-1.07,2-4.27,8.49-5.26,10.5-109.1,226.85-216.56,268-346.09,277.93C1220.31,2824.65,1164.28,2814.52,1135.89,2756Z" transform="translate(-350 -477.83)"/><path d="M1251.5,2430.59c-39.55-75.63,11.79-164.71,47.39-243.66,4.47-10.12,19.78-3.27,15.22,6.86-33.33,73.95-83.63,160.53-47.77,229.06C1271.44,2432.66,1256.66,2440.4,1251.5,2430.59Z" transform="translate(-350 -477.83)"/><path d="M1169.45,2416.18a114.76,114.76,0,0,1,12.06-89.08c5.76-9.42,20-.82,14.31,8.66a97.8,97.8,0,0,0-10.29,75.88C1188.59,2422.33,1172.38,2426.87,1169.45,2416.18Z" transform="translate(-350 -477.83)"/><path d="M4225.14,2929.27c243.52-173.84,254.34-434.28,220.51-622.15-1.95-10.93,14.52-13.83,16.47-3,34.68,192.64,23.4,459.82-227.24,638.75C4226,2949.21,4216,2935.8,4225.14,2929.27Z" transform="translate(-350 -477.83)"/><path d="M3583.89,3066.74c-161.72-78.16-264.76-292.42-292.5-356.22-28.16-63.94-25-83.55-31.44-95.62-13.82,1.82-63.94,31.13-78.95,33.61-38.17,6.49-74.12-5-93.92-29.8-17.84-22.18-19.77-51.83-21.5-78-11.18-191.08-57.93-361.42-10.85-545.35,2.82-10.73,18.94-6.53,16.21,4.15-46.05,180,.11,349.89,11.31,539.19,1.66,25.77,3.36,51.45,17.9,69.54,19.15,24.05,52.88,28.09,78.07,23.76,5.39-.9,19.94-8,32.75-14.35,59.76-29.42,62.54-28.57,73.13,23.1,3.85,18.81,16.21,48.54,22.61,63,27.19,62.51,127.91,272.23,284.44,347.88,101,48.82,247.21,56.39,332.89,17.32,10-4.6,17.07,10.63,6.93,15.23C3837.07,3127,3683.84,3115.1,3583.89,3066.74Z" transform="translate(-350 -477.83)"/><path d="M3161.25,2224c28.49,75.16,88.66,122.05,134.19,104.75s59.46-92.26,30.88-167.4-88.66-122-134.19-104.74-59.37,92.23-30.88,167.39" transform="translate(-350 -477.83)"/><path d="M3563,1941.9c511.74-234.69,522.43-284.21,534.35-263.63a8.39,8.39,0,0,1-3,11.45C3911,1796.39,3768.62,1866,3570,1957.1,3559.84,1961.73,3553,1946.51,3563,1941.9Z" transform="translate(-350 -477.83)"/><path d="M4187.13,2339.85c-10.27-3.71-4.94-19.39,5.69-15.76,105.91,38.22,235.61,8.68,322.7-73.57,82.15-77.51,125.71-196.45,116.56-318.14-27.41-365.89-421-533.81-538.8-223.82-21.92,57.57-29.93,120.15-37.68,180.68-1.5,11.13-18,8.75-16.6-2.12,7.88-61.5,16-125.09,38.66-184.5,124.86-328.76,542.44-154.41,571.09,228.52,9.54,126.66-36,250.61-121.73,331.54C4436.5,2348.17,4300,2380.59,4187.13,2339.85Z" transform="translate(-350 -477.83)"/><path d="M4171.12,2009.7c.23-71.42,4.41-145.29,51.41-194.74,33.43-35,87.9-53.26,145.61-49.06,52,3.82,101.27,23.76,146.76,44.72,10.06,4.6,3.11,19.81-7,15.19-44.09-20.31-91.67-39.59-141-43.21-53-4-102.25,12.5-132.25,43.92-42.78,45-46.57,112.36-46.8,183.24C4187.85,2020.81,4171.12,2020.91,4171.12,2009.7Z" transform="translate(-350 -477.83)"/><path d="M4331,2065.54c103.26-54.69,115.16-199.5,22.09-270.23-8.86-6.8,1.43-20,10.13-13.33,102.73,78.08,89.65,237.93-24.38,298.33C4329.1,2085.56,4321.2,2070.71,4331,2065.54Z" transform="translate(-350 -477.83)"/><path d="M4437.81,1568.45c-65.92-25.76-139.21-47.85-207.13-27.43-82.32,24.42-136.19,105.74-160,188-11.38,38.82-22.09,82.65-19.75,122.48s13.06,68.93-7.36,107.42c-25.16,46.4-64.42,32.66-77-26.11a859.25,859.25,0,0,1-13.72-243.27c-94,82.9-240.49,61.25-305.85-47.18,3.68-.67,6.36-4.35,6.36-8.37a480.77,480.77,0,0,0-30.12-147.24c-3.81-9.88-19.5-4.65-15.39,6a478,478,0,0,1,28.78,141.88,7.32,7.32,0,0,0,3.68,6.69c-12.05,55.55-25.77,112.77-60.24,157.61-44.17,57.56-101.39,68.27-162.62,43.51-63.59-25.44-131.85-30.8-196.77-4.69-77,31.12-136.52,103.06-152.25,184.71-63.91,4-134.52-11.37-174.34-61.57-39.49-50.52-26.77-140.54,33.79-160.62-43.83-23.75-66.59-77-63.57-126.49,7.7-114.81,144.43-242.63,268-215.16,45.57,51.94,108.49,81.31,117.46,81.31,9.5,0,11.22-12.9,3-16.06a293.85,293.85,0,0,1-113.77-82.65,8.14,8.14,0,0,0-11.72-1c-.33.34-1,.67-1,1.34-35.5-77.36,4.15-191,191.41-241.93,81.65-22.09,180.36-27.78,238.92,33.13-3.1-116.88,195.11-253.93,390.18-183.38,82.31,29.44,155.26,104.4,154.93,190.4-7.57-5.4-16.22,3.57-12.05,10.7,9.43,16.77-3.8,38.36-42.83,148.25-3.36,10.9,12.6,16.14,15.73,5.69,40-112.77,52-131.06,45.17-154.6,79.31-45.18,187.73-14.73,249.29,53.54C4420.41,1374,4440.82,1473.76,4437.81,1568.45Z" transform="translate(-350 -477.83)" style="fill:#2c56fe"/><path d="M3068.06,2252.14c-57.8-214.52,44.18-394.12,185.26-432,249.86-67.15,478.11,283.45,363.12,553.83C3500.52,2646.55,3153.19,2568.5,3068.06,2252.14Zm246-423.32c-158.81,0-293.71,181.92-229.86,419,80.42,298.61,406.15,380,516.84,119.6C3698.3,2138.64,3537.17,1828.82,3314.07,1828.82Z" transform="translate(-350 -477.83)"/><path d="M4585.65,4021.57c1,96.7-13,190.06-56.22,278.4-64.58,133.52-256.66,218.18-405.23,218.18H3299c-7.36,2.34-15.06,4-22.42,4H2310.86c-394.53,0-876.39-56.56-1127.7-400.22-126.15-172.67-126.82-365.41-141.88-567.53-16.06-209.81.67-413.26,27.11-623.41,17.39-139.87,47.51-192.74,215.16-234.23,66.26-16.07,177.35-36.82,228.22,25.09,43.16,52.21,47.51,194.76,64.92,261.35,53.2,202.11,68.59,559.83,312.2,633.44,84,25.1,173.67,18.08,261,9.71Q2830,3562.13,3501.46,3433c29.78-5.68,59.23-11.71,89-18.07,26.77-20.74,60.9-33.79,93.36-45.84,563.51-207.13,493.24-211.48,628.43-256,37.47-12.38,104.4-28.44,142.55-18.07,122.47,33.13,107.42,294.14,114.44,420.63C4578.29,3683.92,4584,3852.91,4585.65,4021.57Z" transform="translate(-350 -477.83)" style="fill:#f6d356"/><path d="M1517.53,2390.63c-9,14.39-18.08,28.11-26.78,42.16a213.56,213.56,0,0,1-17.06-14.38c-210.39-181.26-227-497.74-44.18-699.7-143.53,195.65-118,455.89,32.13,619.38.34.35.34.67.67.67a332.18,332.18,0,0,0,26.43,26.77c.34.34.34.67.67.67C1498.45,2374.9,1507.82,2382.93,1517.53,2390.63Z" transform="translate(-350 -477.83)"/><path d="M2189.45,2337.1c-133.12,180.1-360.42,240.73-552.8,174.67,7.7-13.39,16.07-27.44,23.09-41.16C1834.94,2534.32,2046.67,2494.08,2189.45,2337.1Z" transform="translate(-350 -477.83)"/><path d="M1656.91,2478.48c-10.33-3.72-4.86-19.41,5.69-15.75,212.22,76.57,453.11-4.35,574.58-203.94,5.61-9.41,20.09-.88,14.31,8.69C2125.8,2474.19,1875.92,2557.44,1656.91,2478.48Z" transform="translate(-350 -477.83)"/><path d="M1512.31,2397.15c-203.43-163.06-250.8-463.53-89.54-683.41,178.31-243.57,534.26-276,752.81-59.88,136.82,134.64,180.84,332.46,124.9,506.78-3.43,10.53-19.3,5.4-15.95-5.13C2385.21,1842,2144.29,1513.09,1805.3,1527c-147.44,6-282,77.75-369,196.68-155.71,212.28-110.25,502.72,86.5,660.48C1531.43,2391,1520.89,2404.09,1512.31,2397.15Z" transform="translate(-350 -477.83)"/><path d="M2025.49,1977.37a25.17,25.17,0,0,1-4.68,1.34,121.53,121.53,0,0,0,4-15.73Z" transform="translate(-350 -477.83)"/><path d="M1562.08,2052.32c-37.39-12.89-63.86-52.43-61.57-92s33.24-75.74,71.93-84.2c41.89-9.19,70.5,21.42,60.81,27.14a4.17,4.17,0,0,1-5.72-1.49c-10.45-17.71-35-21.47-53.33-17.48-35.13,7.7-63.2,40.59-65.32,76.52s22,71.84,55.94,83.56,75.1-1.72,95.62-31.24c3.06-4.52,10,.15,6.86,4.77C1644.78,2050.39,1599.52,2065.27,1562.08,2052.32Z" transform="translate(-350 -477.83)"/><path d="M2022.78,1982.56c-4.19-3.57,1.19-10,5.42-6.38,60.88,51.83,152.19-15,127-91.45-11.21-34.1-46.83-58.8-82.74-57.17-18.76.84-41.5,10.75-47.09,30.57-1.52,5.37-9.53,3-8-2.28,6.7-23.7,33.49-36.72,58.3-36.72,38.36,0,75.55,26.54,87.54,63C2191,1967,2089.9,2039.6,2022.78,1982.56Z" transform="translate(-350 -477.83)"/><path d="M1798.51,2099.89c-171.57.05-217.75-246.06-116.89-320.87,4.51-3.25,9.39,3.43,5,6.73-63.59,47.15-61.66,162.28-17.48,233.72,33.56,54.31,99.8,82.48,161,68.52,5.37-1.22,7.24,6.92,1.83,8.17A150.53,150.53,0,0,1,1798.51,2099.89Z" transform="translate(-350 -477.83)"/><path d="M1921.93,2077.52c70.33-21.31,103.79-89.59,105.75-147.81,1.91-66.34-19.39-83-9.21-86.3a4.19,4.19,0,0,1,5.29,2.66c38,115.39-15.39,214-99.41,239.46C1919,2087.09,1916.66,2079.11,1921.93,2077.52Z" transform="translate(-350 -477.83)"/><path d="M1849.22,2228.84c-5.19,0-2.83,6.35-22.32-136.91-.7-5.5,7.53-6.57,8.3-1.14,10.15,74.59,13.71,100.82,18.17,133.29a4.19,4.19,0,0,1-3.59,4.72A4.6,4.6,0,0,1,1849.22,2228.84Z" transform="translate(-350 -477.83)"/><path d="M1951.21,2202.4c-2.9-25.16-19.24-99-22.09-124.29-.63-5.62,7.71-6.21,8.3-1,2.9,25.15,19.25,99,22.09,124.29C1960.13,2206.92,1951.81,2208,1951.21,2202.4Z" transform="translate(-350 -477.83)"/><path d="M1597.37,1961.9c-15.55-12.69-39.9-13.71-56.57-2.33-4.55,3.13-9.31-3.77-4.7-6.9,19.54-13.4,48.2-12.22,66.57,2.76C1607,1958.9,1601.65,1965.38,1597.37,1961.9Z" transform="translate(-350 -477.83)"/><path d="M1569.33,1986.35a43,43,0,0,1,2-35.15,4.23,4.23,0,0,1,5.65-1.73c7.66,4.07-8,12.78.1,33.87C1579.15,1988.51,1571.26,1991.51,1569.33,1986.35Z" transform="translate(-350 -477.83)"/><path d="M2063.14,1903.56c21.55-29.75,70.16-25.91,66.2-14.4a4.13,4.13,0,0,1-5.36,2.53c-18.92-6.7-42.22.49-54.05,16.77C2066.68,1913,2059.92,1908,2063.14,1903.56Z" transform="translate(-350 -477.83)"/><path d="M2099.12,1928.6a3.44,3.44,0,0,1-.46,0c-8.37-.9,2.58-15-12.49-31.47-3.72-4,2.35-9.77,6.15-5.65a43.06,43.06,0,0,1,10.95,33.43A4.18,4.18,0,0,1,2099.12,1928.6Z" transform="translate(-350 -477.83)"/><path d="M1847.56,1984.91c-3.84-8.19,16.12-7.67,29.54-19,13.82-11.67,6.4-14.2-26.63-143-1.41-5.35,6.68-7.43,8.1-2.1,10.9,42.42,18.52,67.9,28.56,107.06,7.2,28.16,11,41.6-24.7,55.21-3,1.14-6.08,2.32-9.32,3.84A4.19,4.19,0,0,1,1847.56,1984.91Z" transform="translate(-350 -477.83)"/><path d="M1826.39,1921.11c2.37,20.07-5.41,37.49-17.35,38.9s-23.58-13.72-26-33.78,5.41-37.49,17.37-38.9,23.56,13.72,25.93,33.78" transform="translate(-350 -477.83)"/><path d="M1957.72,2247.51c16-4.21,28.26-19.54,29-36s-10.26-32.79-25.76-38.36c8.4-7.72,5.32-22.73-3.48-30s-21-8.57-32.42-8.51a176.37,176.37,0,0,0-90.22,25.64c-9.34,5.72-22.43,11.16-23.65,23.59-1.05,10.52,5.67,17.22,15.68,19.45,2.53.57,5.57.94,6.83,3.21,1.09,2,.14,4.6-1.46,6.24s-3.75,2.62-5.66,3.91c-14.06,9.55-10.33,31.49,6.15,35.82,35,9.24,68.64,10.31,103.51.68" transform="translate(-350 -477.83)" style="fill:#2c56fe"/><path d="M2169,2358.17c-131,131-330.8,176.77-509.3,112.44,21.44-39.88,32.3-93.22,8.37-131.51,23.15-36.19,42.42-56.6,82-72.95,76.21-31.51,175.3-30.9,222.53-36.81,48.19-5.69,100.05-4.35,141.21,21.42S2178.08,2311.66,2169,2358.17Z" transform="translate(-350 -477.83)" style="fill:#2c56fe"/><path d="M1807.13,2182.65c-.75-5.28,7.39-7,8.3-1.25,4,27.18,13.45,28.19,29.81,23.58,78.22-20.14,84.91-27.67,87-20.05s-8.25,4.91-84.8,28.11C1825.57,2219.19,1811.88,2214.37,1807.13,2182.65Z" transform="translate(-350 -477.83)"/><path d="M1867.75,2254.72c-5.19-.33-5.51-8.33.46-8.37,26.43,1.63,89.1-2.12,105.88-18.3,8.4-8.15,10.1-22.81,3.82-32.66-3-4.76,4.2-9.1,7.06-4.51,8.43,13.25,6.21,32.22-5.07,43.19C1960.41,2252.85,1896.7,2256.35,1867.75,2254.72Z" transform="translate(-350 -477.83)"/><path d="M1786.07,1882.55c-12.53,8.51-26.81,9.35-31.87,1.9s1-20.43,13.51-28.94,26.81-9.35,31.88-1.88-1,20.41-13.52,28.92" transform="translate(-350 -477.83)"/><path d="M1899.45,1907.52c8.21,18.46,23.8,29.46,34.78,24.58s13.27-23.84,5.06-42.3-23.79-29.46-34.79-24.57-13.25,23.82-5,42.29" transform="translate(-350 -477.83)"/><path d="M1912,1854.1c15.15.1,27.48-7.14,27.53-16.16s-12.18-16.42-27.32-16.52-27.48,7.15-27.53,16.18,12.18,16.41,27.32,16.5" transform="translate(-350 -477.83)"/><path d="M1804.91,2001.59c7.35-3.17,3.94,10.09,21.5,14.58,15.68,4.1,25.8-5,27.52,2.46a4.2,4.2,0,0,1-3.14,5C1813.28,2032.6,1796,2005.55,1804.91,2001.59Z" transform="translate(-350 -477.83)"/><path d="M2072.27,1823.4a65.71,65.71,0,0,0-28.45,7.69c0,2-9.36,8.9-12.38,16.06-4.66,11.22-3,28.43-6.36,31.8-3.34,4.68-10.37,0-13.71-4.69-17.3-26.87-13.71-41.25-24.43-50.19-15.23-13.24-75,4.6-161.29-52.87-6-4-13.39-15.73-21.09-15.73-7.7.33-12.71,12-16.39,17.73-31.79,44.51-94.36,125.16-148.91,125.49a25.7,25.7,0,0,1-5.35-.33c0,4,.33,8.37.33,12.38l-3-11c-10.53-17.54-34-23.45-54.54-20.07-3.35-34.47,7.69-84.66,18.06-111.43a267.19,267.19,0,0,1,42.5-72.28c-63.58-2.35-106.08-61.91-89.35-100.05,8.7-20.08,38.15-29.79,53.21-14.06-27.44-41.16-12.72-103.73,29.45-129.17,42.49-25.76,104.07-10,129.84,32.13-7.7-31.79,54.2-76.63,104.73-59.9,34.8,11.71,56.22,53.88,44.84,89,10.71-15.73,39.15-14.06,53.54,16.4,11.71,25.1,11.38,58.22-10,91.68C2033.78,1659.1,2063.23,1738.4,2072.27,1823.4Z" transform="translate(-350 -477.83)"/><path d="M1615.64,2534c12.33-26.69,40.56-70,47.19-90.11,11.93-33.07,16.67-70.53-1.8-100.42-13.61-21.58-34.45-31.84-51.6-31.18-40.88.59-59.39,42.2-80.81,76.4-22.38,35.19-55.78,86.55-73.89,123.12-4.93,9.83-19.93,2.41-15-7.52,20.67-40.76,50.42-86.4,74.8-124.7,23.58-37.5,44.78-83.3,94.51-84,35.52-.67,65.25,27.1,75.39,58.71,25,74.14-33.64,143.18-53.59,186.72C1626.15,2551.1,1611,2544,1615.64,2534Z" transform="translate(-350 -477.83)"/><path d="M2297.9,2296.33c-32.3-14.85-55.88-20.17-84.21-43.8-60.16-50.13-82-143.8-7.19-135.54,36.62,3.9,85.7,33.4,128.59,51.93,10.19,4.43,3.4,19.8-6.67,15.36-41.21-17.85-91.21-47.18-123.69-50.65-10.91-1.16-23.89,1.35-27.61,9.75-5.82,12.73,2.45,59,47.28,96.31,26,21.66,47.58,26.34,80.49,41.45C2315,2285.78,2308,2300.94,2297.9,2296.33Z" transform="translate(-350 -477.83)"/><circle cx="1261.64" cy="249.79" r="249.78" style="fill:#5fff9f"/><path d="M1491.45,791.53c-3.8-8.68,2.44-20,6-27.75,4-8.53,8.06-17,13.3-24.86,49.55-73.85,163.88-57.88,197,12.55a138.15,138.15,0,0,1,9.76,30.69c3.78,18.11,4.45,21.54-.48,28.24-6.08,8.28-4.93,5.79-182.87-9.24C1523.06,800.22,1496.72,803.56,1491.45,791.53Z" transform="translate(-350 -477.83)"/><circle cx="1618.41" cy="628.62" r="55.79" transform="translate(-439.54 -161.18) rotate(-10.88)"/><path d="M1451.56,1682.26l-180.48-137.37c-8.86-6.7,1.43-20,10.13-13.3L1461.69,1669C1470.55,1675.66,1460.29,1689,1451.56,1682.26Z" transform="translate(-350 -477.83)"/><path d="M1056.07,994.9C825.28,975.43,642.85,1189,698.69,1414.53a339.48,339.48,0,0,0,300.5,255.65c186.38,15.73,350.35-122.81,366.08-309.2C1381,1172.26,1241.1,1010.5,1056.07,994.9Zm-12.71,127.83a75.73,75.73,0,1,1-82,69.26A76,76,0,0,1,1043.36,1122.73Zm119.12,327.6c-12.5,2.84-78.08-4.93-239.92-18.07-12.87-.92-52.59,2.86-57.89-13-5.13-11.66,3.32-26.88,8-37.48,15.88-34.77,26.54-50,59.23-73.61,71.53-50.77,184.94-25.66,226.21,56.88,10.47,22.7,13.91,45.93,17.06,63.24C1176.93,1439.83,1169,1449,1162.48,1450.33Z" transform="translate(-350 -477.83)" style="fill:#f6d356"/><path d="M4016.19,4159.1c33.89-75.8,38.83-168.23,14-260.25-21-77.55-61.76-154.57-124.67-235.48-89.64-115.27-186.66-184.21-288.32-204.89-10.8-2.22-7.58-18.56,3.33-16.41,200.36,40.8,378.86,278.89,425.8,452.4,25.88,95.75,20.62,192.15-14.8,271.46C4026.91,4176.05,4011.73,4169.2,4016.19,4159.1Z" transform="translate(-350 -477.83)"/><path d="M1623.94,3729.87a439.82,439.82,0,0,1,164.4-138.18c-81.73-19.49-165.41-28-243.78-24.46-11.64-.21-11.28-16.27-.72-16.72,87.22-3.9,181.37,6.8,272,30.82a8.38,8.38,0,0,1,1.08,15.8,423.1,423.1,0,0,0-179.34,142.54C1631,3748.63,1617.51,3738.89,1623.94,3729.87Z" transform="translate(-350 -477.83)"/><path d="M3354.55,1069.59c42.55-118.17-32.31-250.4-128.26-320-101.5-73.61-232.8-99.57-355.11-76.53,47.35,72,19.94,137.13-39.12,159.11C2736,867.83,2603.24,785.27,2707,719.55a455.35,455.35,0,0,1,135.06-57.2c-55.07-63.13-154.57-97.86-236.82-114.9a979.77,979.77,0,0,0-398.22.85c-10.86,2.28-14.27-14.06-3.46-16.37a995.93,995.93,0,0,1,405.08-.85c88.22,18.25,195.45,56.51,251.72,127.15,128.75-26.39,268.39,0,375.74,77.84,101,73.23,179.56,213.26,134.21,339.17C3366.52,1085.66,3350.8,1080,3354.55,1069.59Zm-501-392.81A440.14,440.14,0,0,0,2716,733.67c-85.81,54.53,37.93,109.76,110.29,82.85C2877.44,797.46,2899.42,740.92,2853.53,676.78Z" transform="translate(-350 -477.83)"/><path d="M615.22,884c-8.07-7.61,3.38-19.77,11.44-12.23a1347.74,1347.74,0,0,1,115.39,122.7,8.37,8.37,0,0,1-1.11,11.78C727.39,1017.64,726.11,987.91,615.22,884Z" transform="translate(-350 -477.83)"/><path d="M804.17,980.93a8.35,8.35,0,0,1-8.33-7.66L785.41,851.05c-.93-11,15.72-12.56,16.67-1.44L812.5,971.86a8.36,8.36,0,0,1-7.61,9Z" transform="translate(-350 -477.83)"/><path d="M600.88,1032.76c-11-1.1-9.52-17.72,1.7-16.64a384.18,384.18,0,0,1,133.58,38.66,8.37,8.37,0,0,1,3.76,11.23C730.93,1083.89,707.92,1043.53,600.88,1032.76Z" transform="translate(-350 -477.83)"/><path d="M2629.16,3446.94c13.69-23.38,27.87-47.56,31.44-74.1,3.07-22.43-3.83-52.35-26.18-65.06-10.55-6-23.92-8.28-43.3-7.4-85.08,3.91-162.14,53-246.17,77.14-35.73,10.28-47.56-15.84-37.93-46.24,32.43-102.23,128.2-167.87,192.11-250.35,32.38-42,21.39-70.39-38.3-70.39a718.42,718.42,0,0,0-296.06,67.59c-64.09,30.12-137.65,76.25-170.32,70.41-40.28-7.18-44.56-63.25-24.71-97.91,49.58-86.25,162.8-106.82,215.48-184.7,16.74-24.78,5.71-36.59-24.21-39a358.92,358.92,0,0,0-150.22,20.18c-10.3,3.83-16.17-11.94-5.69-15.72a372.15,372.15,0,0,1,157.28-21.13c45.79,3.71,59.21,31.76,36.7,65.05-53.9,79.75-169.31,104.42-214.83,183.67-13.87,24.17-14.24,68.23,13.14,73.1,25.43,4.44,106.14-43.67,160.25-69.07a735.19,735.19,0,0,1,303-69.19c36.73.29,60.48,9.83,69.54,30.42,31.31,70.82-164.73,178-207.22,312.11-3.3,10.44-3.85,23.12,2.75,26.24,25.16,11.91,236.27-115.23,317-69.34,29.22,16.63,38.37,53.08,34.48,81.84-4.06,29.87-19.74,56.67-33.6,80.32C2637.94,3465,2623.62,3456.47,2629.16,3446.94Z" transform="translate(-350 -477.83)"/><path d="M2204.34,3014.58c18.42-9.67,58.86-21.93,71.15,4,8.09,17-9.48,43.63-24.48,51.53C2209.85,3091.75,2143.71,3046.42,2204.34,3014.58Z" transform="translate(-350 -477.83)"/><path d="M2469.11,3164.69c6,18-6.05,34.72-20.89,46.61-50.89,40.78-78.25-20.55-57.49-47C2407.59,3142.77,2457.94,3131.21,2469.11,3164.69Z" transform="translate(-350 -477.83)"/><path d="M2591.28,3285.83c-2.3-38.95,71.69-17.08,90.44,12.66,12.33,19.56,1.18,42.8-30.24,37.13C2625,3330.85,2593.1,3316.57,2591.28,3285.83Z" transform="translate(-350 -477.83)"/></g></svg>