<svg id="Layer_1" data-name="Layer 1" xmlns="http://www.w3.org/2000/svg" viewBox="0 0 3908.77 4300"><g id="_8" data-name="8"><path d="M2084.08,1864.38c42.3-15.24,90.91-17.29,138.47-3,15.43,4.7,28.84,8.72,43.93,3,52.7-19.16,82.1-50,152.89-63.71a2.07,2.07,0,0,1,1.35-.33,417.38,417.38,0,0,1,57.67-8,7,7,0,0,0,0-3.69c-6.76-144.1-165.23-237.13-263.55-207.21-38.22,12.07-71.08,46.94-71.41,87.18-17.44-52-82.15-78.46-134.79-63.37-100,29.28-146,175.26-85.84,232.69-40.57-18.11-92.54,3.69-112.66,43.25-39.68,78,30.29,176,139.49,171l202.52-58,170.66-49c.33,0,.33-.33.67-.33L2441.84,1911c22.46-28.83,34.53-65,36.55-101.92-112.57,7.85-142.38,48-206.21,71.08-.34,0-.67.33-1,.33-25.47,9.57-51.07-3.71-72.76-8a202.73,202.73,0,0,0-108.63,8C2080.62,1883.8,2072.85,1868.69,2084.08,1864.38Z" transform="translate(-545.61 -350)"/><path d="M3109.07,2500.1c-2.34-.34-4.36-1-6.71-1.34-53.3-9.73-115,2.68-149.2,42.24-.67-47.94-5-94.89-20.78-141.49-17.1-49.29-42.92-94.22-75.44-131.77,17.62-7.66,24.1-19.9,26.48-38.9,13.72-98-35.28-137.56-42.92-196.81-1.64-11.53-17.94-8.64-16.43,2,7,60.75,54.88,99.8,42.92,192.46-2.32,16.24-6.24,22.33-21.79,28.16-37.22-39.56-82.48-70.08-131.77-88.18A1299.47,1299.47,0,0,0,2364.72,2091c-112.86-8.32-215.13.13-312.16,62.7-4.13-9.19-19.4-39-29.17-62.37-1.34-3.69-5-6-8.72-5-4.91,0-8.83,6-6.7,11.07,10.39,26,24.62,52.75,30.51,65.72-38.56,27.49-73.43,62-108.3,102.93-37.55,43.59-65,124.73-80.47,194.47l-.67-33.86c-16.09-55.66-74.77-88.52-132.78-94.89,24.47-105.29,100-264.41,184.08-330.27,82.09-62.88,211.48-54,282.65,17.1,10.06,9.73,27.16,9.39,35.88-1,27.49-32.19,64-56.33,103.94-72.43.33,0,.33-.33.67-.33,78.79-30.73,156.67-32.25,245.77-24.48C2919.17,1951,3055,2125.18,3096,2429,3099.35,2452.82,3104,2476.63,3109.07,2500.1Z" transform="translate(-545.61 -350)"/><path d="M1548.8,2794.21c-92.47-62.08-136-188.75-101.18-294.65s145.15-181.21,256.35-177.2c60.61,2.7,134.35,35.75,153,102,3.06,10.65-13.13,15.24-16.11,4.55-16.44-58.23-82.84-87.38-137.62-89.82-103.27-4.2-207.17,66.7-239.72,165.7s8.16,217.44,94.63,275.49,211.53,51.05,290.83-16.48c8.5-7.19,19.31,5.62,10.87,12.77C1775.61,2848.28,1641.92,2856.77,1548.8,2794.21Z" transform="translate(-545.61 -350)"/><path d="M3056.21,3002.83c-69,0-134.25-28.65-179.86-82.2-7.19-8.4,5.57-19.33,12.77-10.87,62.41,73.28,160.15,96.15,255.17,59.63,97.28-37.28,163.3-143.72,153.57-247.55s-94.4-196.08-197-214.83c-52.56-9.54-106.19,3.92-136.84,34.24-7.9,7.82-19.66-4.16-11.79-11.92,34.94-34.58,92.9-49.4,151.64-38.82,109.72,20.07,200.29,118.84,210.67,229.76C3327.77,2861.22,3214.1,3002.83,3056.21,3002.83Z" transform="translate(-545.61 -350)"/><path d="M2259.66,3112h-.29c-187.76-6.68-357.53-138.78-412.87-321.25-60.51-199.54-2-507.29,178.62-629.9,9.21-6.2,18.58,7.67,9.43,13.88-174.66,118.52-230.81,417.21-172,611.15,53.3,175.73,216.73,302.94,397.41,309.36C2270.85,3095.57,2270.57,3112,2259.66,3112Z" transform="translate(-545.61 -350)"/><path d="M2521.38,3150.2c-10.9,0-11.19-16.38-.29-16.77,211.32-7.42,354.74-172.52,403.13-332.87,51.68-174.91,10.79-240.89,34.52-242.32,4.09-.42,8.57,3.26,8.87,7.88,20.47,345.36-199,575.4-445.94,584.08Z" transform="translate(-545.61 -350)"/><path d="M2195.09,3514.12c16.57-134.72,39.28-272.7,55.86-407.13,1.36-11.16,18-8.88,16.63,2.06-16.72,135.38-39.21,272.08-55.86,407.14C2210.34,3527.37,2193.77,3525.07,2195.09,3514.12Z" transform="translate(-545.61 -350)"/><path d="M2511.36,3527.22c10.33-70.53,22-318.23,32.51-390,1.55-10.83,18.23-8.64,16.57,2.42-10.32,70.53-22,318.23-32.51,390C2526.36,3540.75,2509.72,3538.17,2511.36,3527.22Z" transform="translate(-545.61 -350)"/><path d="M1713.11,2571.47c-34.61-47.76-102.69-68.79-158.35-49.08-10.47,3.75-16.07-12.1-5.63-15.79,62.41-22.18,138.7,1.49,177.53,55C1733.18,2570.61,1719.6,2580.43,1713.11,2571.47Z" transform="translate(-545.61 -350)"/><path d="M1618.51,2620a119.67,119.67,0,0,1,30.39-92.63c7.43-8.14,19.85,3.16,12.31,11.33a102.69,102.69,0,0,0-26,79.5C1636.37,2629.15,1619.8,2631.29,1618.51,2620Z" transform="translate(-545.61 -350)"/><path d="M3040,2756c51.25-41.77,131.14-45.11,185.76-7.7,9,6.2-.17,20.09-9.5,13.82-48.69-33.35-119.91-30.4-165.65,6.88C3041.87,2776,3031.45,2763,3040,2756Z" transform="translate(-545.61 -350)"/><path d="M3113.91,2834.17a102.87,102.87,0,0,0-4.78-83.51c-5.15-9.9,9.75-17.52,14.86-7.76a119.84,119.84,0,0,1,5.57,97.3C3125.6,2850.56,3109.9,2844.5,3113.91,2834.17Z" transform="translate(-545.61 -350)"/><path d="M2397.35,2645.44c-3.6-20,48.66-5.66,93.48-27,41.79-19.77,33.2-54.69,33.66-100.92,1-121-1.66-110.85-.69-231.27.09-12.28,16.84-10.19,16.77.13-.2,23.9.83,248,.88,250.38.79,37.13,1.61,75.52-43.45,96.82-32.12,15.3-58.53,12.7-90.89,18.6C2406.58,2652.28,2398.14,2649.71,2397.35,2645.44Z" transform="translate(-545.61 -350)"/><path d="M2370.2,2465.1c-7.24,50.77-37.65,88.44-67.86,84.14s-48.92-49-41.69-99.75,37.65-88.45,67.91-84.14,48.87,49,41.64,99.75Z" transform="translate(-545.61 -350)"/><path d="M2323,2274.28c7.92,3.34,15.06,10.23,15.72,18.8,2.18,28.19-66.73,64-97.8,67.91-21.31,2.69-37.8-11.32-21.53-32,10.14-12.87,23.24-23.2,36.73-32.07C2276.74,2283.36,2298.4,2263.92,2323,2274.28Z" transform="translate(-545.61 -350)"/><path d="M2785.85,2367.11c1.83,8.4.29,18.21-6.33,23.68-21.81,18-90.73-17.78-111.81-40.93-14.46-15.88-12.5-37.43,13.76-36,16.36.89,32.35,5.66,47.36,11.59C2751.83,2334.53,2780.19,2341.06,2785.85,2367.11Z" transform="translate(-545.61 -350)"/><path d="M2633.88,2468.44c-7.24,50.76,11.43,95.44,41.64,99.74s60.66-33.36,67.9-84.13-11.43-95.44-41.69-99.75-60.62,33.37-67.85,84.14Z" transform="translate(-545.61 -350)"/><path d="M2858.94,2247c-8.91,8.11-21.29,9.54-31.18,11.74-10.13,1.55-10.46,21.7,9.39,15.08-9.9,7.42-37.15,3.13-49.29,1-177.23-32-236.74-31.57-341.33-37.22,2.22-6.65-2.49-11.4-7.71-11.4-353,1-340.47,3.16-351.72-3.69-14.14-8.29-15.41-28.23-34.54-68.73-4.13-9.19-19.4-39-29.17-62.37-1.34-3.69-5-6-8.72-5-58.16-102.9-82.26-101.55-45.26-141.83,29.84-31.85,68.4-54.65,110.31-68.06,2,3.35,6.37,5.36,10.06,4,44.38-15.94,91.59-15.07,127.75-3,14.89,4.66,31,8.56,46.27,5,1,.34,2.34,1,3.35,1.35,1.34-1,2.69-2.35,4-3.36.34,0,.67-.33,1-.33,42-15.22,79.54-43.63,121-55.66a392.44,392.44,0,0,1,150.21-14.42c10.94,1.46,13.24-15.11,1.68-16.76a409.58,409.58,0,0,0-124.39,7c67.87-19.39,144.88-21.49,217.27-.34,81.47,23.81,133.44,97.91,163.28,174,26.15,67.92,24.38,98.42,38.23,160.27C2845.2,2160.11,2866.66,2212.75,2858.94,2247Z" transform="translate(-545.61 -350)"/><path d="M3337.74,4650l-1661-22.8a546.07,546.07,0,0,1-271.25-31.52c-72.85-28.22-84.72-62.88-73.77-132.77,23.47-158.93,67.73-313.17,120.7-464,61.62-173.63,61.38-183.77,200.51-336,60.77-67.22,141.29-106.56,228.67-132.43,218.47-62.24,216.23-26.05,329.26,32.85,45.6,24.14,97.91,30.85,148.87,37.56,107,14,225.8,25.94,311.83-44.26,13.41-11.4,25.81-24.14,40.57-33.87,51.3-34.2,127.07-8.38,180.72,7.72,89,26.09,161.22,71.72,189.44,99.91Q2877,3817,2661.46,3988.47c-8.58,7,1.65,20.06,10.39,13.07Q2888.62,3829,3095,3641.77c60,55.66,104.28,126.74,137.47,203.19-112,97.91-226.32,193.8-341,286.34-8.07,7.26,1.77,20.25,10.72,13.08q170-137.8,337-283.33a1053.48,1053.48,0,0,1,39.56,111.66C3342.37,4187,3326.67,4427.09,3337.74,4650Z" transform="translate(-545.61 -350)" style="fill:#f6d356"/><path d="M4417.39,3080.16q-130.26-172-277-348.71c-25.34,35-58.27,76.4-98.58,83.49-25.15,4-53.31-7.38-63.7-31.19-9.06-20.78-3.36-43.92,6.36-65a94.77,94.77,0,0,1-6.7,9.39c-26.49,34.2-50.63,78.45-98.24,78.45-35.88-.33-70.08-27.83-78.8-64.37-12.4-52.31,35.55-100.59,61.7-140.83l23.13-35.2c-31.18,31.52-65.71,52-100.92,43.92-32.19-7.71-58-38.56-58.68-73.09-.67-28.5,14.76-55,30.18-79.13,15.42-23.81,31.19-46.94,47.95-69.74-18.78,16.09-41.91,27.83-66.06,27.83-95.21,0-79.94-107.59-30.51-181.73-411.74-453.65-884.5-923.4-1392.48-1402.54-107.62-114.67-262.53,17.1-354.4,84.5C1713.25,1100,1323.23,1425.81,1044,1706.46c-63,63.37-121.71,130.76-184.75,194.13-114.68,114.67-284.64,269.73-173.68,388.61,44.5,44.55-338.75-362.37,2137.84,2286,52.3,55.66,139.81,58.68,195.47,6.37,488.8-406,965.68-842,1392.14-1306.31C4466.35,3223,4469,3135.81,4417.39,3080.16ZM1388.68,2506.47c0-569.33,461.7-1031.37,1031.37-1031.37,570,0,1031.36,462,1031.36,1031.37,0,569.9-461.32,1031.36-1031.36,1031.36C1850.38,3537.83,1388.68,3076.13,1388.68,2506.47ZM3383.34,3734.31q-71.41,63.89-144.17,126.74c-170.48,148.85-337.65,285.34-342.34,285.34-7.79,0-11.17-9.87-5.36-15.09,114.67-92.54,229-188.43,341-286.34,46.94-40.57,93.55-81.81,139.82-123.05C3380.61,3714.42,3391.86,3727.35,3383.34,3734.31Zm204.2-575.7c-157.26,167-321.88,328.59-492.55,483.16-199.74,181.23-421.7,361.78-428.17,361.78-7.23,0-12.16-9.52-5.36-15.08a8760.19,8760.19,0,0,0,914-841.59C3582.59,3139,3595.2,3150.1,3587.54,3158.61Z" transform="translate(-545.61 -350)" style="fill:#2c56fe"/><path d="M1551.45,1391.3c33.28-26.89,69-53.81,111.13-61.36,63.83-11.45,107.3,33.87,59.86,113.33-59.45,99.56-155.67,173.76-269.78,270-31.19,26.3-83.19,64.6-124.78,35.36-38.67-27.18-22.57-82.49-3.41-115.8C1379.63,1536.94,1466.41,1460,1551.45,1391.3Z" transform="translate(-545.61 -350)"/><path d="M1338.09,1594c46.84,48.75,74.41,47.1,119,.58,172-179.46,173.12-177.56,177.5-192.87,6.13-21.43-9-42.6-23.51-59.56-142.78-167.47-307.37-314.77-471.4-461.5-25.46-22.78-40-30.06-79-17.08-73.27,24.42-241.35,144-192.76,239,26.07,51,91.15,97,130.55,138Z" transform="translate(-545.61 -350)" style="fill:#5fff9f"/><path d="M2344.11,2762.15c-46.81-3.18-69.62-40.78-60.19-75,3-10.65,19.09-6.26,16.18,4.45-6.77,24.53,9.25,51.36,45.12,53.78,30.27,1.93,45.7-12.08,49,1.65a8.38,8.38,0,0,1-6.19,10.1C2373.75,2760.59,2358.89,2763.14,2344.11,2762.15Z" transform="translate(-545.61 -350)"/><path d="M2326.46,3122.17c-10.92-1.08-38-1.32-81-11.76a8.39,8.39,0,0,1-6.19-10.13c3.61-14.55,17.66,1.49,87.65,5.14C2337.67,3106,2337.32,3122.17,2326.46,3122.17Z" transform="translate(-545.61 -350)"/><path d="M1992,3454.42C1267.4,3118.88,1170.89,2244.55,1693.79,1753c8-7.59,19.58,4.56,11.46,12.21-514.1,483.38-420.21,1343.35,293.84,1674C2009.1,3443.85,2002.14,3459,1992,3454.42Z" transform="translate(-545.61 -350)"/><path d="M3263.64,1935.41a1031.78,1031.78,0,0,0-852-450c-11.09,0-11.09-16.77,0-16.77A1048.47,1048.47,0,0,1,3277.46,1926C3283.75,1935.11,3269.83,1944.57,3263.64,1935.41Z" transform="translate(-545.61 -350)"/><path d="M993.23,1019.64c15.94-30.43,52.86-48.55,86.54-41.76s60.9,38.37,61.86,72.71-25,67.72-58.7,74.48C1022,1137.28,961.81,1079.65,993.23,1019.64Z" transform="translate(-545.61 -350)"/><path d="M3617.4,2121.38c116.87-167.18,178.82-371.56,174.5-575.5-1.94-91.33-17.88-158.94-50.14-212.8-160.79-268.63-407.49-219.78-678.31-267.39C2906,1038.07,2871.81,958,2837.13,818.18c-43.88-176.52-143-316.3-368.4-394.13-152.46-52.65-319.94-57.17-478.42-57.29-157-.93-307.92,5.13-441.22,70-233.72,113.65-347.86,379-444.79,641.14-3.81,10.31-19.57,4.63-15.71-5.83,98.1-265.27,213.88-534,453.17-650.37,138.29-67.24,294-71.66,448.55-71.66,159.92.11,329,4.7,483.92,58.2,231,79.81,334.37,225.7,379.17,405.94,33.81,136.19,64.21,208.9,212.93,235.05,262.44,46.08,524.56-.8,689.84,275.27,33.79,56.47,50.46,126.71,52.49,221.06,4.39,207.48-58.64,415.4-177.5,585.45C3624.8,2140.06,3611,2130.47,3617.4,2121.38Z" transform="translate(-545.61 -350)"/><path d="M2188.64,4549.51c-148.65,0-247.64-126.14-340.14-238.69-368.68-453.84-512.76,53.3-769.51-23.15-151.38-45.16-233.91-287.71-98.16-476.1,77.9-108.07,214.89-181.37,375.83-201.08,150.34-18.44,314.38,6.39,447.7-62,9.87-5,17.53,9.84,7.66,14.93-137.64,70.61-303,45.3-453.33,63.72-156.32,19.16-289.09,90-364.24,194.24-129.76,180.07-50,408.7,89.32,450.24,239.53,71.58,401.66-434.24,777.76,28.65,79.13,97.54,168.31,211,292.7,229.89,69.15,10.49,127.14-12.75,188.76-37.34,89.67-35.78,167.43-53.3,225.61-141.65,6.05-9.2,20.16-.07,14,9.23-60.65,92.07-140.57,111-233.43,148C2296.37,4529.42,2246,4549.51,2188.64,4549.51Z" transform="translate(-545.61 -350)"/><path d="M1831.57,4636a413.69,413.69,0,0,1,3.18-115.31c1.84-11.11,18.37-8.06,16.5,2.79a398.66,398.66,0,0,0-3,110.65C1849.46,4645.11,1832.76,4647.08,1831.57,4636Z" transform="translate(-545.61 -350)"/><path d="M1048,1073.39h-.23c-78.95-2.08-154.62-69.19-176-156.11C824.51,725,1020.52,424.17,1325.32,391c87.72-9.59,199.64,10.45,251,95.22,29,47.89,31.77,105.94,46.63,157.84,13.26,46.12,47.18,100.7,99,102.72,22,1.19,44.62-8.28,67-17.42,88.8-35,157.92-42.21,205.37-21.4,56.36,24.72,67.79,78.34,77.18,133.27,1.88,10.92-14.61,13.78-16.51,2.84-8.75-50.69-18-99.07-67.38-120.75-43.26-18.95-108-11.68-192.5,21.62-24.43,9.65-47.22,19.22-73.84,18.6-60.8-2.37-99.7-63.36-114.5-114.85-15.17-52.88-17.66-108.87-44.86-153.79C1466.2,336.69,1085.49,383.71,927.19,686,897.69,742.3,867,827.5,888.07,913.29c19.64,79.83,88.5,141.45,160.18,143.33a8.39,8.39,0,0,1-.23,16.77Z" transform="translate(-545.61 -350)"/><path d="M719.83,1851A751.19,751.19,0,0,0,551.2,1720.63c-9.69-5.48-1.31-20.13,8.25-14.57a768.27,768.27,0,0,1,172.43,133.2C739.55,1847.2,727.59,1858.78,719.83,1851Z" transform="translate(-545.61 -350)"/><path d="M816.82,1787,767.14,1593.6c-2.75-10.77,13.5-14.91,16.25-4.16l49.67,193.43C835.84,1793.74,819.59,1797.76,816.82,1787Z" transform="translate(-545.61 -350)"/><path d="M693,1951.77a803.74,803.74,0,0,0-139.42-19.67c-11.56-.57-9.75-18.11.85-16.73a818.83,818.83,0,0,1,142.37,20.06C707.36,1937.89,704,1954.24,693,1951.77Z" transform="translate(-545.61 -350)"/><path d="M3965.24,2759c-21,27.88-45.64,55.83-85.56,55.83h-.23c-39.81-.1-77.08-30.42-86.67-70.55-12.47-52.31,28.07-97.92,57-139.17-21.51,12.65-44.07,18.45-67.09,13.05-36.35-8.5-64.38-43.26-65.2-80.85-.86-39.27,25.68-76.73,55.64-120.17a94.72,94.72,0,0,1-35.07,7.09c-3.36-1-48.69,3.32-68.83-34.53-23.31-43.79,3.14-118.27,29.37-157.18h0c44.3-66,76.39-142.42,161.56-123.36,32.28,7.25,60.12,25.46,85.39,44.07,89.3,65.75,166.57,152,223.48,249.33,21.45,36.67,46.53,85.73,50.16,140,6.32,93.9-64.47,189-107.23,237.38-21.81,24.64-45,39.16-68.8,43.15C4003.11,2829.84,3963.57,2803.16,3965.24,2759Zm26.75-35.87c-9.23,20-13.91,39.8-6.32,57.25,9.33,21.4,35.2,29.44,54.78,26.15,19.94-3.34,39.78-16.05,59-37.72,33-37.36,109.24-134.05,103.11-225.16-3.44-50.74-27.44-97.55-47.93-132.65-55.77-95.39-131.47-179.86-219-244.28-134.06-98.65-164.32-12.27-223.12,75.16h0c-23.18,34.43-48.26,102.7-28.45,140,15.72,29.59,69.17,38.3,113.46,1q26.52-36.2,55.07-70.5c6.67-8,19.11,1,13.52,9.86-16,25.2-33.21,52.32-56.22,72.1q-24.41,33.42-46.79,68.17c-14.89,23.14-29.4,48-28.81,74.51.65,29.68,23.61,58.19,52.23,64.87,31.72,7.48,63.78-11.92,93-41.57,31.53-47.27,65-95.4,101.47-146.1a8.38,8.38,0,0,1,11.4-2.13c9.24,6-1.17,16.46-2.36,19.86-21.45,36.87-55.66,95.66-96.59,137.73q-12.13,18.18-23.91,36.22c-25.92,39.77-71.94,86.44-60.47,134.56,7.72,32.27,38.63,57.61,70.43,57.68h.16c36.05,0,57-28.46,79.14-58.6,6.78-9.2,17.51-23.26,18.83-25.1,6.21-13.23,94.33-167.12,99.31-175.57,5.43-9.49,20.13-1.14,14.41,8.51C4063.24,2595.06,4026.83,2674.12,3992,2723.12Zm-286.41-485.93h0Z" transform="translate(-545.61 -350)"/></g><path d="M2993.71,730.21q-2.51,5.38-7.3,6.42a13.89,13.89,0,0,1-9-.94,13.24,13.24,0,0,1-6.4-6.26q-2.13-4.27.37-9.66a192.78,192.78,0,0,1,24.92-40.1,395.83,395.83,0,0,1,31.63-34.55,13.39,13.39,0,0,1,2.7-8.74c3-3.44,6.58-4.74,10.8-3.93q12-11,24.37-21.56t24.37-21.56q12-11,23.29-22.59a267.57,267.57,0,0,0,21.15-24.62,17.37,17.37,0,0,1,7-5.71,10.35,10.35,0,0,1,9,.39,13.33,13.33,0,0,1,6.69,7.09,9.76,9.76,0,0,1-.65,9.52,216.43,216.43,0,0,0-13.5,30.43A291.06,291.06,0,0,0,3134.6,613q-3.45,14.78-6.18,29.88t-5.83,29.87q-2.84,14.19-6.22,28.13a115.94,115.94,0,0,0-3.29,28.47q.06,7.26.6,14.24t1.58,14.36a121,121,0,0,1,1.28,13.53,46.63,46.63,0,0,1-1.66,13.88,16.81,16.81,0,0,1-5.23,7.9,11,11,0,0,1-9.17,2.28,12.74,12.74,0,0,1-8-5.1,10.26,10.26,0,0,1-2.21-9.3,34.64,34.64,0,0,0,1-13.66c-.59-4.42-1.17-8.94-1.77-13.59q-1.07-8.07-1.34-16a140.65,140.65,0,0,1,.34-15.88,145.77,145.77,0,0,1,1.86-16.54q1.38-8.14,3.12-16.3-12.35-6.8-24.47-13t-23.92-13.4a371.71,371.71,0,0,0-28.64,31.46A184.56,184.56,0,0,0,2993.71,730.21Zm73.39-87.83a4.79,4.79,0,0,0-1.56,1.51,4.92,4.92,0,0,1-1.57,1.51q8.67,5.07,17.38,9.31t17.51,9q3.22-15.06,6-30.15t6.38-30.31q-10.9,10.1-21.91,19.61T3067.1,642.38Z" transform="translate(-545.61 -350)"/><path d="M3162.1,763.25q1.16-8.41,2.89-16.93t2.9-16.92a129.88,129.88,0,0,0,2-28.72q-.22-7.68-.35-15.51a61.33,61.33,0,0,1,1.61-15.28c.91-3.94,2.92-6.62,6-8.06a15.58,15.58,0,0,1,9.12-1.44,12.72,12.72,0,0,1,7.66,4.27c2.12,2.37,2.71,5.52,1.8,9.46a50.26,50.26,0,0,0-1.27,14.92q.46,7.47.69,15.15a130,130,0,0,1-.83,15.82c-.61,5.24-1.3,10.43-2.1,15.58q-1.17,8.42-3,17.06a170.74,170.74,0,0,0-2.68,17.2c-.31,2.16-.56,4.28-.73,6.38s-.33,4.28-.45,6.52q6.64-6.9,11.2-12.19a123.56,123.56,0,0,1,9.45-9.9q7.07-7,13.8-14.08t13.1-14.75a138.67,138.67,0,0,0,11.12-15,138.3,138.3,0,0,1,11.13-15q3.8-4.44,8.83-4.15a13.74,13.74,0,0,1,8.48,3.26,13.92,13.92,0,0,1,4.48,7.78q1,4.8-2.76,9.23a120.56,120.56,0,0,0-12.75,17,113.8,113.8,0,0,1-12.62,16.7q-6.78,7.88-14.19,15.27t-14.76,15q-4.91,5.31-10,11a128.39,128.39,0,0,1-10.68,10.7,64.79,64.79,0,0,1-12.08,8.51,39,39,0,0,1-14.14,4.44c-4.55.4-8-.95-10.17-4.06a17.71,17.71,0,0,1-3.36-10.53q.42-9.81,1-19.54T3162.1,763.25Z" transform="translate(-545.61 -350)"/><path d="M3363.85,748.41a124.63,124.63,0,0,1,19.31,8.14,77.52,77.52,0,0,1,17.39,12.25,56.93,56.93,0,0,1,12.26,16.58,42.32,42.32,0,0,1,4.06,20.86,41.53,41.53,0,0,1-3.43,15.13,43.6,43.6,0,0,1-8.19,12.38,51.46,51.46,0,0,1-11.91,9.27,69.88,69.88,0,0,1-14.45,6.2,139.75,139.75,0,0,1-33.81,5.95,147.59,147.59,0,0,1-34.45-2.28q-7.32-1.35-14.84-3.31a84.32,84.32,0,0,1-14.61-5.26,67.83,67.83,0,0,1-13.15-8,45.92,45.92,0,0,1-10.3-11.19,11.16,11.16,0,0,1-1.93-9.17q.54-5.61.55-10.78t.27-10.56a74.82,74.82,0,0,1,1.25-10.45,42.15,42.15,0,0,1,3.23-9.88,46.41,46.41,0,0,1,12.63-16.35A54,54,0,0,1,3292,748a103.8,103.8,0,0,1,35.93-5.31A133.51,133.51,0,0,1,3363.85,748.41Zm20.64,39.28a51.82,51.82,0,0,0-15.1-10.5,81.74,81.74,0,0,0-19.55-6.87,111.81,111.81,0,0,0-20.55-2.52,96.79,96.79,0,0,0-20.31,1,38.39,38.39,0,0,0-18.6,7.7,18.67,18.67,0,0,0-6.15,7.65,38.53,38.53,0,0,0-2.68,9.44,61.47,61.47,0,0,0-.7,10.36c.05,3.59,0,7.06-.21,10.43a37.26,37.26,0,0,0,5.14,3.77,3.41,3.41,0,0,0,1.28.94l1.42.66a87.36,87.36,0,0,0,18.78,7,107.33,107.33,0,0,0,15.95,2.79,120.33,120.33,0,0,0,14.9.57q8-.08,15.92-.85a66.12,66.12,0,0,0,14-2.76,79.08,79.08,0,0,0,7.89-2.87,17.77,17.77,0,0,0,3-1.34q2.34-1.32,3.66-1.92a9.45,9.45,0,0,0,2.54-1.74,7.72,7.72,0,0,0,2.58-2.59,5.82,5.82,0,0,0,1.09-1.22,5.22,5.22,0,0,1,1.08-1.21l1.46-3.12a8.2,8.2,0,0,1,.51-1.83,2.91,2.91,0,0,0,.24-1.27,18.63,18.63,0,0,0-.17-3.7c-.17-.88-.35-1.83-.57-2.85.1.28,0-.11-.31-1.18s-.51-1.73-.61-2l-1.21-3.32c-.68-1-1.41-2.15-2.19-3.44A15.83,15.83,0,0,0,3384.49,787.69Z" transform="translate(-545.61 -350)"/><path d="M3390.64,916.42q8.61-12.52,17.73-24.31a253.22,253.22,0,0,0,16.87-24.72,207.4,207.4,0,0,0,12.65-26,128.74,128.74,0,0,1,13.78-25.47q2.67-4.26,8.41-4.35t9.16,2.9a11,11,0,0,1,4.15,8.48,16.93,16.93,0,0,1-2.69,9.09,77,77,0,0,0-7.2,12.85q-3,6.87-5.92,13.79A222.44,222.44,0,0,1,3443.73,884q-8,12.79-16.81,24.57t-17.24,24a10.28,10.28,0,0,1-8.56,4.29,12.76,12.76,0,0,1-9-2.83,11.58,11.58,0,0,1-4.29-8.55A14.49,14.49,0,0,1,3390.64,916.42ZM3465,792.49a16,16,0,0,1-3.1-3.69,7.92,7.92,0,0,1-1.32-4.57c.14-1.78.28-3.32.44-4.63a13.66,13.66,0,0,1,1.28-4.23,17.68,17.68,0,0,1,3.23-4.7c2.34-3,5-4.79,8-5.25a7.58,7.58,0,0,1,4.31-1.09,15.4,15.4,0,0,1,8.07,1.17,12.25,12.25,0,0,1,6.09,5.43c.59,1.2,1.16,2.44,1.71,3.73a10.22,10.22,0,0,1,.74,4.31c-.06,1.13-.12,2.36-.18,3.71a6.67,6.67,0,0,1-1.16,3.6c-.8,1.23-1.57,2.37-2.28,3.42a7.45,7.45,0,0,1-2.87,2.45,27.92,27.92,0,0,1-3.59,1.78,27.56,27.56,0,0,1-3.88.94,8,8,0,0,1-4.2.11Q3468.73,795.61,3465,792.49Z" transform="translate(-545.61 -350)"/><path d="M3532.42,860.15a149.11,149.11,0,0,1,27-.52,68.44,68.44,0,0,1,25.91,6.91q10.1-24.6,20.48-48.72t21.34-48.32q2.51-5.37,7.17-6.49a13.29,13.29,0,0,1,8.9.88,13.92,13.92,0,0,1,6.53,6.32q2.28,4.35-.23,9.73-12.79,28.15-24.81,56.87t-24,57.27q-11.94,28.57-24.52,57t-26.51,56.08q-2.79,5.25-7.8,6.37a14.11,14.11,0,0,1-9.25-.87,13.26,13.26,0,0,1-6.39-6.26q-2.14-4.27.78-9.81l1.85-4a30.63,30.63,0,0,1,2.14-3.83q-2.7-1.6-5.33-3t-5.17-2.59l-6.8-3.17q-3.39-1.59-6.38-3.32-7.1-4-14.06-8.29a70.7,70.7,0,0,1-12.86-10.14,81.78,81.78,0,0,1-10.08-13.14,35.67,35.67,0,0,1-5.1-15.66,83.54,83.54,0,0,1-.37-18.8,45.65,45.65,0,0,1,5.52-18.11,49.47,49.47,0,0,1,11.49-14.29,66.93,66.93,0,0,1,15-9.57A83.46,83.46,0,0,1,3514,863,141.68,141.68,0,0,1,3532.42,860.15Zm9.32,106.42q17.7-38,33.84-77a45.64,45.64,0,0,0-20.07-5.39,123.84,123.84,0,0,0-20.88.77q-5.45.57-11.91,1.51a63.74,63.74,0,0,0-12.5,3.14,41,41,0,0,0-10.82,5.82,24.26,24.26,0,0,0-7.43,9.29,45.14,45.14,0,0,0-2.83,12,29.07,29.07,0,0,0,1,12,24.78,24.78,0,0,0,5.07,9.09,58.71,58.71,0,0,0,7.67,7.2,84.77,84.77,0,0,0,10.25,6.51q5.1,2.73,10.64,5.65,4.51,2.11,8.86,4.65C3535.48,963.47,3538.52,965.07,3541.74,966.57Z" transform="translate(-545.61 -350)"/><path d="M3772.5,840.77q2.22-5.5,6.94-6.76a12.85,12.85,0,0,1,9,.73,14.19,14.19,0,0,1,6.61,6.54q2.36,4.54.13,10.06-9.57,23.46-17.59,47.31a367.48,367.48,0,0,1-19.29,46.52,197.12,197.12,0,0,1,33.7,8,90.7,90.7,0,0,1,29.74,16.46,68.81,68.81,0,0,1,14,15.49,35.65,35.65,0,0,1,6,20,71,71,0,0,1-2.84,19,92.06,92.06,0,0,1-7.48,17.89,83.38,83.38,0,0,1-13.23,17.62,67.17,67.17,0,0,1-17.83,12.72,133.35,133.35,0,0,1-20.25,8.31,71.85,71.85,0,0,1-21.79,3.46,32.12,32.12,0,0,1-11.74-2.55,35.31,35.31,0,0,1-9.68-6.24,69.84,69.84,0,0,1-8.06-8.59q-3.69-4.65-6.9-9.6t-6.2-9.61a61.6,61.6,0,0,1-5.24-10.21l-4.34,4.87q-2.66,5.67-7.44,6.71a13.94,13.94,0,0,1-15.58-7.27c-1.53-2.89-1.4-6.23.36-10A373.57,373.57,0,0,1,3702,995.49q10.15-17.32,20.16-35.08-1-6.69,1.53-10.67a11.22,11.22,0,0,1,6.85-5.08,50.33,50.33,0,0,0,2.66-5l2.38-5.1a369,369,0,0,0,19.29-46.52Q3762.92,864.25,3772.5,840.77Zm-27.27,128.66q-5.19,9.65-10.53,18.88t-10.82,18.75a128.76,128.76,0,0,1,7.36,16,66.65,66.65,0,0,0,8.32,15.43c.78,1.28,1.83,3.1,3.15,5.44s2.76,4.68,4.32,7a31.39,31.39,0,0,0,5.12,6,7.12,7.12,0,0,0,5.72,2.15,73.17,73.17,0,0,0,14.83-2.22,71.84,71.84,0,0,0,14.4-5.35,57.59,57.59,0,0,0,12.56-8.45,40.24,40.24,0,0,0,9.05-11.64,85.27,85.27,0,0,0,5.95-12.4,32.29,32.29,0,0,0,2.3-13.41,19.12,19.12,0,0,0-5.36-11.81,58.18,58.18,0,0,0-10.58-8.73,81.84,81.84,0,0,0-26.53-11.51A158.48,158.48,0,0,0,3745.23,969.43Z" transform="translate(-545.61 -350)"/><path d="M3940.77,905.82a10.79,10.79,0,0,1,6.35,7.1,16.72,16.72,0,0,1-.31,9.52q-9.72,28.23-22,55.26T3899,1031.18q-13.56,26.43-28.08,52.42T3842,1135.27a15.57,15.57,0,0,1-7.31,6.42,11.11,11.11,0,0,1-9.31-.38,13,13,0,0,1-6.41-7,10.52,10.52,0,0,1,.37-9.66q14.4-25.7,29.08-51.61t28.21-52.35q13.55-26.44,25.81-53.48t22-55.26a9.75,9.75,0,0,1,6.82-6.48A12.7,12.7,0,0,1,3940.77,905.82Z" transform="translate(-545.61 -350)"/><path d="M4048.23,1104.93a463.46,463.46,0,0,0-19.32,50.29q-8.25,25.82-14.25,52-1.38,5.9-6,8.06a15.5,15.5,0,0,1-9.12,1.43,12.78,12.78,0,0,1-7.67-4.26q-3.16-3.56-1.79-9.46,4.14-17.73,8.85-34.49c-1.2.59-2.27,1.18-3.24,1.76s-2,1.18-3.23,1.77a68.78,68.78,0,0,1-56.32,1,65.46,65.46,0,0,1-16.35-10q-13-11.25-16.07-25.43a72.72,72.72,0,0,1-.16-29.22,149.1,149.1,0,0,1,9.11-29.88q6.24-14.85,11.77-27.44,2.51-5.38,7.16-6.49a13.28,13.28,0,0,1,8.9.88,13.9,13.9,0,0,1,6.54,6.32q2.28,4.35.06,9.86-5,11.46-10.28,23.13a117.33,117.33,0,0,0-7.77,22.93,83.16,83.16,0,0,0-2,11,40.18,40.18,0,0,0,.5,10.75c.33,1.77.49,2.76.51,3a1.61,1.61,0,0,0,.44.89,46.86,46.86,0,0,0,3.75,6.75,21.2,21.2,0,0,0,2.8,2.86,43.7,43.7,0,0,0,24.4,10.52,41.62,41.62,0,0,0,26.48-5.75,61.29,61.29,0,0,0,13-11.19,99.36,99.36,0,0,0,9.91-13.48q4.35-7.1,8.41-14.69t8.75-14.71q4-8.51,9.61-9.14a14.2,14.2,0,0,1,10.07,2.45,19,19,0,0,1,3.6,4.1l1.34,3Q4051.33,1100.5,4048.23,1104.93Z" transform="translate(-545.61 -350)"/><path d="M4092.47,1106.94q2.79-5.25,7.73-6.22a14.53,14.53,0,0,1,9.18,1,12.6,12.6,0,0,1,6.25,6.19q2,4.21-.79,9.46c-.53,1.13-1.13,2.29-1.79,3.47s-1.27,2.34-1.8,3.48a151.15,151.15,0,0,1,22.75,1.13,98.72,98.72,0,0,1,22,5.27,65.08,65.08,0,0,1,18.81,10.67,47.21,47.21,0,0,1,13.12,17.33q2.25,5.54-.16,9.58A12.74,12.74,0,0,1,4181,1174a14.53,14.53,0,0,1-9.23.18q-4.86-1.41-7.52-6.78a21.84,21.84,0,0,0-5.22-6.92,28.9,28.9,0,0,0-7.75-4.83,61.89,61.89,0,0,0-9.24-3.1q-4.8-1.2-9.28-1.92a144.32,144.32,0,0,0-34-.33q-5.91,14.14-11.25,28.54-4.29,12.15-9.18,24.86a95.09,95.09,0,0,0-6.09,25.61q-.68,5.9-4.74,8.31a12.44,12.44,0,0,1-8.69,1.63,14.58,14.58,0,0,1-8.23-4.53,11.34,11.34,0,0,1-2.92-9.64,71.89,71.89,0,0,1,3.09-14.76l4.65-14.39q2.46-6.77,4.87-13.76t4.87-13.76q5.7-16,12.36-31.31A324.94,324.94,0,0,1,4092.47,1106.94Z" transform="translate(-545.61 -350)"/><path d="M4211.13,1162.3q2.79-5.25,7.73-6.22a14.53,14.53,0,0,1,9.18,1,12.6,12.6,0,0,1,6.25,6.19q2,4.21-.79,9.46c-.53,1.13-1.13,2.29-1.79,3.47s-1.27,2.34-1.8,3.47a152.48,152.48,0,0,1,22.75,1.13,99.28,99.28,0,0,1,22,5.28,65.08,65.08,0,0,1,18.81,10.67,47.13,47.13,0,0,1,13.12,17.33q2.25,5.54-.16,9.58a12.74,12.74,0,0,1-6.76,5.64,14.53,14.53,0,0,1-9.23.18q-4.86-1.41-7.52-6.79a22,22,0,0,0-5.22-6.92A28.63,28.63,0,0,0,4270,1211a61.89,61.89,0,0,0-9.24-3.1q-4.8-1.2-9.28-1.92a143.78,143.78,0,0,0-34-.33q-5.91,14.13-11.25,28.54-4.29,12.15-9.18,24.86a95,95,0,0,0-6.09,25.61q-.68,5.88-4.74,8.3a12.44,12.44,0,0,1-8.69,1.64,14.63,14.63,0,0,1-8.23-4.53,11.34,11.34,0,0,1-2.92-9.64,71.61,71.61,0,0,1,3.09-14.76l4.65-14.39q2.46-6.78,4.87-13.76t4.86-13.77q5.71-15.95,12.37-31.3A324.94,324.94,0,0,1,4211.13,1162.3Z" transform="translate(-545.61 -350)"/><path d="M4438.84,1253.7a12.73,12.73,0,0,1,2.21,9.31,10.17,10.17,0,0,1-5.38,7.83,84.14,84.14,0,0,0-21.06,17.42q-9.22,10.53-19.17,20-10.63,10.21-21.85,19.11t-23.29,17.76a12.86,12.86,0,0,1-2.39,1.81,12.78,12.78,0,0,0-2.4,1.82,10.61,10.61,0,0,1-5,7.47,14,14,0,0,1-8.68,2q-20.86,14.4-41.67,28.32t-41.66,28.32q-5.07,3.49-9.73,2a13.86,13.86,0,0,1-9.82-14.06q.23-4.9,5.3-8.39,21.4-14.85,42.89-29.13t42.9-29.12q-2-28.89-2.75-57.67t-2.06-57.68q-.3-6,3.46-9.25a14.8,14.8,0,0,1,8.29-3.72,13.22,13.22,0,0,1,8.65,2.14q4.13,2.61,4.43,8.62,1,25.27,1.71,50.28t2.13,50.13a381.72,381.72,0,0,0,37.59-31.77q9.66-9.63,19.1-19.89a86.54,86.54,0,0,1,21.14-16.86,13.27,13.27,0,0,1,9.24-2.07A11.32,11.32,0,0,1,4438.84,1253.7Z" transform="translate(-545.61 -350)"/></svg>