<svg id="Layer_1" data-name="Layer 1" xmlns="http://www.w3.org/2000/svg" viewBox="0 0 3601.97 4300"><path d="M2168.92,1861.15c-76.52,132.81-141.22,283.67-182.44,414.59q-373.43,4.52-746.85,18.14c-41.32-62.16-79.29-126.66-114.23-192.52-30.91-58.79-124.64-194.52-93.06-261.71,25.53-54.77,119.27-56.45,169.66-69.55a2794.7,2794.7,0,0,0,664.55-265.75c33.59-18.48,75.93-6.38,92.72,28.22C2014.37,1647.81,2085.93,1757.67,2168.92,1861.15Z" transform="translate(-1017.54 -350)" style="fill:#5fff9f"/><path d="M3074,2279.74c21.4-38.82,39.1-52.31,31-84a60.24,60.24,0,0,0-29.33-37.64C2818.26,2017,2567.85,1816,2467.59,1704.79c-32-35.52-72.1-79.55-113.86-74.51-68.43,8.07-134.58,159.43-165.77,213.57-78.69,137.14-146.19,284.28-193.46,434.41-3.29,10.56-19.37,5.6-16-5.05,48-152.66,116-300,194.91-437.73,36.42-63.29,99.75-212.6,178.32-221.87,50.69-6.43,93.75,41.52,128.36,79.92,98.67,109.55,347.87,309.65,603.7,449.85a77.22,77.22,0,0,1,37.51,48.18c10.1,39.53-11.37,57.84-32.51,96.28C3086.47,2292,3068.71,2289.45,3074,2279.74Z" transform="translate(-1017.54 -350)"/><path d="M3636.09,2043.58c-51.07,80.63-94.75,167.64-132,259a142.36,142.36,0,0,0-43.34-6.39q-497.4-19.14-995.13-22.17c1.67-7.72,3.35-15.45,5-22.84,55.92-267.21,154.78-452.89,275.82-677.32q392.58,157.75,782.47,328.92c26.88,16.12,54.43,31.91,82,47C3644.48,1968.66,3656.58,2011,3636.09,2043.58Z" transform="translate(-1017.54 -350)" style="fill:#5fff9f"/><path d="M3097.53,1116.31l-51.4,125q-125.49-51.4-253.32-103.14a209.58,209.58,0,0,1,129-90.71c30.37,22.3,65.12,20.65,93.06.33,22.52,4.64,35.61,11.5,39,12.76A107.29,107.29,0,0,0,3097.53,1116.31Z" transform="translate(-1017.54 -350)"/><path d="M3046.13,1249.69a8.45,8.45,0,0,1-3.18-.62c-272.49-111.62-256.25-102.43-258.14-108.39a8.4,8.4,0,0,1,.93-7.07c30.2-47.18,79.11-81.56,134.18-94.36a8.35,8.35,0,0,1,6.87,1.41c27.59,20.25,58.45,18.31,83.15.31a8.43,8.43,0,0,1,6.65-1.42c23.5,4.86,37.25,12,40.63,13.28,5,2.19,4.64,6.64,6.48,10.32a99.61,99.61,0,0,0,38.31,46,8.43,8.43,0,0,1,3.3,10.3l-51.4,125A8.42,8.42,0,0,1,3046.13,1249.69Zm-240.54-115.44q119.14,48.36,236,96.08l45.6-110.91c-18.89-13.76-33.48-34-40.11-52.69a166.75,166.75,0,0,0-30.36-10c-29.45,19.77-65.26,20.94-96.59-.26A202.94,202.94,0,0,0,2805.59,1134.25Z" transform="translate(-1017.54 -350)"/><path d="M3621.64,1480.16c53.46-142.56,89.59-177.43,80-264.07-6.26-50.1-31.32-95.92-61.48-124.31a157.82,157.82,0,0,1,9.74-12.43L3836,1156.29c103.48,42.67,152.86,161.26,110.2,264.74L3877,1588.68" transform="translate(-1017.54 -350)"/><path d="M3869.22,1585.48l69.21-167.64c40.85-99.09-6.54-212.94-105.64-253.8l-180.45-74.57c-.4.49-.79,1-1.19,1.52,57.65,61.35,58.81,129.48,59.82,133.22,6.77,81.11-31.24,124.87-81.57,259.16-4.28,10.36-19.75,3.79-15.52-6.43,50.65-134.34,86.65-175.88,80.37-251.07-2.45-20.33-5.79-39.79-14.13-58.81-11.1-28.44-30.08-54.37-45.76-69.16a8.42,8.42,0,0,1-1.22-10.81,165.37,165.37,0,0,1,10.44-13.32c7.55-8.54,8-.43,195.62,74.75,107.65,44.39,159.14,168.08,114.75,275.72l-69.21,167.63C3880.53,1602.16,3865,1595.73,3869.22,1585.48Z" transform="translate(-1017.54 -350)"/><path d="M3360.46,1379.84a8.4,8.4,0,0,1-6.39-10,189.94,189.94,0,0,0,4.18-40.19c0-57.39-25.17-112.9-67-149.58h0c-38.9-32.87-62.15-38.64-126.4-65.1-10.2-4.25-3.85-19.76,6.49-15.48,61.12,26.56,115.81,40.5,159.7,98.9,39.64,53,51.85,118.83,39.44,175.06A8.79,8.79,0,0,1,3360.46,1379.84Z" transform="translate(-1017.54 -350)"/><path d="M3613.88,1476.94c50.65-134.34,86.65-175.88,80.37-251.07-1-3.36-3.19-74.48-59.89-128l5.08-6.79,5.94-5.94c3.08,3.86,41,39.57,56.55,92.6,32,106.44-17.93,159.93-72.53,305.6C3625.12,1493.66,3609.64,1487.19,3613.88,1476.94Z" transform="translate(-1017.54 -350)"/><path d="M2788.28,1145.21a8.39,8.39,0,0,1-2.54-11.6c35.5-55.45,97.84-90.87,144.53-96.21,11.05-1.21,12.93,15.44,1.9,16.7-42.75,4.86-100.08,38.24-132.29,88.57C2798.28,1145.18,2792.09,1147.67,2788.28,1145.21Z" transform="translate(-1017.54 -350)"/><path d="M2525.2,1039.74a8.39,8.39,0,0,1-4.56-11l66.52-161.27C2633.29,756.35,2761.07,703.36,2872,749.4l25.2,10.41c10.27,4.26,3.81,19.83-6.43,15.52l-25.2-10.42c-102.38-42.45-220.11,6.12-262.84,109C2533,1037.4,2538.29,1045.26,2525.2,1039.74Z" transform="translate(-1017.54 -350)"/><path d="M3047.48,1066.91c-3.74-1.33-20.58-9.83-48.81-13.49-10.62,0-10.86-16.73.76-16.73,27.89,3.45,41.32,9.8,54.36,14.63C3064.54,1055.3,3058.33,1071.58,3047.48,1066.91Z" transform="translate(-1017.54 -350)"/><path d="M1193.6,2605.65a9474,9474,0,0,0,400.14,1848.16c26.2,81,97.43,140.1,181.76,151.86,322.52,45.36,645.73,55.76,967.58,11.42,75.26-10.08,139.77-58.46,172.69-127,276.5-577.53,458.93-1248.79,536.54-1884.45Zm752.23,1763.83A5384.89,5384.89,0,0,1,1539,2899.28a8.29,8.29,0,0,1,7-9.4,8.61,8.61,0,0,1,9.41,7.4,5378.65,5378.65,0,0,0,405.85,1465.48C1965.32,4373.24,1950.27,4379.48,1945.83,4369.48Zm343.36-62.15a8.42,8.42,0,0,1-8.4,7.73,8.32,8.32,0,0,1-8.4-9.07,11153.17,11153.17,0,0,0,21.84-1472.22,8.13,8.13,0,0,1,8.07-8.73c4.7-.68,8.39,3.36,8.73,7.72A11188.73,11188.73,0,0,1,2289.19,4307.33Zm423,17.47a8.9,8.9,0,0,1-7.72,4.7,17.15,17.15,0,0,1-3.7-.67,8.83,8.83,0,0,1-3.69-11.42c218-442.81,344.7-937.35,365.87-1430.55a8.75,8.75,0,0,1,8.73-8.06c4.71.33,8.4,4,8.07,8.73C3058.56,3383.08,2931.23,3880,2712.17,4324.8Z" transform="translate(-1017.54 -350)" style="fill:#2c56fe"/><path d="M3460.71,2614.05H1180.5c-145.44,0-217.1-176.44-115.13-278.4,51-51,100.32-47.67,174-50.17,430.21-15.68,834.26-21.55,1226.25-19.83,520.85,2.66,998.93,22.18,995.5,22.18,144.95,0,216.86,177.47,114.7,278.43A160.6,160.6,0,0,1,3460.71,2614.05Zm-1120-331.87c-486.81,0-780.52,9.63-1160,22.44-82.11,0-146.42,66.86-146.42,146.48,0,80.58,65.57,146.15,146.15,146.15H3460.71c79.74,0,146.15-64.51,146.15-146.15,0-80.17-65.21-146.48-146.15-146.48-340.2-13.09-674.92-20.55-995.19-22.17Q2403.54,2282.18,2340.75,2282.18Z" transform="translate(-1017.54 -350)"/><path d="M4105.6,2171.14c-750.75-346-1492.6-655.27-2260.73-933.39-54.88-19.75-97-74.89-104.93-137.2-18.7-150.4,116.51-346.71,277-280.27,334.35,131.19,693.93,274.59,1032.42,413.23,443.23,181.1,856.8,356.22,1229.17,520.51,100.46,44.39,128.35,150.17,74.62,283h0C4310.35,2142.51,4211.15,2219.9,4105.6,2171.14Zm-2349-1072.67c7,55.3,45.64,106.09,94,123.48,784.91,284.16,1528.81,596,2262.07,933.93,96.23,44.43,185.93-29,224.9-125.2h0c24-59.23,65.53-203.25-65.84-261.31-372.22-164.21-785.63-339.26-1228.74-520.3-341.34-139.82-699.84-282.75-1032.33-413.2C1862.67,774.67,1739.76,963,1756.61,1098.47Zm2588.71,935.36h0Z" transform="translate(-1017.54 -350)"/><path d="M3432.71,1170.7c-41.9,56.2-85.35,58-118.82,33-13.75-9.88-21.43-21.9-24.2-25.27l0,0c-25.33-34.27-40.17-83.66-40.16-129.07-65.65,85.34-177.49,119.41-205.91,14.06-2.45-4-5.27-24.79-5.86-30.5-5.48,3.55-29.8,19-36.23,20.41-43.18,17.16-79.68,11.35-99.71-31.19-98.09-199.81,29.69-439,227.25-517.69,214-50.34,476.91-42.7,705.29-79.44,10.4-2.23,14.05,14.76,2.66,16.59-233.81,37.6-487.17,28.27-702.93,78.82-115.35,46.29-218.16,158.38-244,296.09-19.73,109.28,22.66,207.93,45.56,222.12,13.28,8.82,30.76,7.76,46.19,3.72,7.8-1.94,12-4.36,15.34-5.31,35-16.36,42.63-31,51.84-26.25,8.29,4.35,1.39,11.08,9.43,44.31,2.05,3.38,6.93,39,36.13,52.35,18.3,8.38,43.06,5.62,69.75-7.71,35-17.18,69.13-50.46,89.11-86.9,4.54-8.29,17.4-3.8,15.62,5.6-19.56,103.16,69.51,272.34,161,126.35a8.41,8.41,0,0,1,15.44,3.33c4.74,34.56,15.53,54.26,32.12,58.54,41.17,10.55,115.47-65.93,155.76-119.88l8.74,2.33-6.86-4.84c72.59-103.69,178.57-96,301.1-102,10.92-.89,12.1,16.2.82,16.76-117.73,5.89-218.91-2.84-288.2,94.89l-1.33,1.79C3575.6,1192,3461.75,1286.87,3432.71,1170.7Z" transform="translate(-1017.54 -350)"/><path d="M3045.18,1026.64a8.43,8.43,0,0,1-8.4-8.06c-4.71-115.55,41.47-230,120.54-298.65,8.38-7.24,19.42,5.37,11,12.7C3093,798,3049.05,907.31,3053.58,1017.89a8.43,8.43,0,0,1-8,8.75Z" transform="translate(-1017.54 -350)"/><path d="M3252.54,1016.33c5-75.08,37.89-144.1,92.67-194.31,8.23-7.48,19.51,4.87,11.35,12.37-52.33,48-82.5,111.27-87.26,183.06C3268.56,1028.64,3251.79,1027.46,3252.54,1016.33Z" transform="translate(-1017.54 -350)"/><path d="M3429,1147.75c14-72.08,55.21-157.88,102.66-213.51a8.4,8.4,0,1,1,12.79,10.9c-45.73,53.62-85.5,136.34-99,205.79C3443.35,1161.84,3426.9,1158.67,3429,1147.75Z" transform="translate(-1017.54 -350)"/><path d="M3864.55,836.79c-4.55,79.11-49.89,189.54-34.22,211.63,3.84,5.41,10.48,7.95,16.78,10a404.68,404.68,0,0,0,238.24,4.7c78.13-22.57,90.81-62.36,89-143.68-3.49-159.46-12.1-323.94-81.22-467.68-64.91-135-131.84-105.87-263.14-79.38-68.85,13.89-40.19,46.47-30.6,82.32C3822.82,542.26,3869.59,749.25,3864.55,836.79Z" transform="translate(-1017.54 -350)" style="fill:#f6d356"/><path d="M3840,887.06c34.05-225.59-39.06-352.74-62.45-489.33-1.86-11,14.67-13.71,16.57-2.82,23.5,137.42,97.33,263.93,62.49,494.65C3855,900.57,3838.35,898,3840,887.06Z" transform="translate(-1017.54 -350)"/><path d="M1303.12,2003.06A4851.68,4851.68,0,0,0,1826.59,1773c9.84-5,17.59,9.87,7.65,15A4872.71,4872.71,0,0,1,1309,2018.81C1298.55,2022.69,1292.7,2006.91,1303.12,2003.06Z" transform="translate(-1017.54 -350)"/><path d="M1426.81,2117.45a1377.83,1377.83,0,0,0,313.84-154.6c9.22-6.13,18.57,7.85,9.28,14a1395,1395,0,0,1-317.67,156.47C1421.75,2137,1416.3,2121,1426.81,2117.45Z" transform="translate(-1017.54 -350)"/><path d="M3544.18,2120.25c-79-10-422.74-28.25-893.48-154.74-10.63-2.84-6.51-19,4.36-16.21a4987.94,4987.94,0,0,0,889.78,154.19,8.39,8.39,0,0,1-.66,16.76Z" transform="translate(-1017.54 -350)"/><path d="M2759.1,2128.13c-10.7-3.33-5.47-19.46,5-16.05a931.41,931.41,0,0,0,369.68,37.06c4.26-.65,8.71,2.87,9.2,7.5a8.37,8.37,0,0,1-7.5,9.2A949.26,949.26,0,0,1,2759.1,2128.13Z" transform="translate(-1017.54 -350)"/><path d="M2602.67,4027.73c61.15-125.36,247.86-181.1,349.61-85.7-15-97.8,35.13-200.05,116.46-256.39,155.15-107.49,385.27-47.26,445.13,82,30.2,65.18,35,138.76,19.71,209,104-31,226.47,22.87,273.94,120.4s14.26,227.17-74.26,289.87c-46,32.56-114.46,45.1-156,7-22.13-20.3-40.77-55.14-70.26-49.47-11.52,41.66-7.28,87-22.69,127.36-23.9,62.64-92.49,100.34-159.48,103.12-45.62,1.9-101.43-8.36-140.71-32.82-12.7-7.91-52.26-60.21-66.41-57.41-12.16,2.4-28,74.85-38.75,90.23-25,35.61-64.12,64.81-107.62,72.07C2703.59,4691.63,2501.42,4235.28,2602.67,4027.73Z" transform="translate(-1017.54 -350)" style="fill:#f6d356"/><path d="M3378.36,4118.05c44.73-66.64,95.08-138.3,178.3-152.93,10.77-2.07,14,14.59,2.92,16.54-77.46,13.66-126.1,84.43-167.27,145.74C3386.11,4136.66,3372.16,4127.23,3378.36,4118.05Z" transform="translate(-1017.54 -350)"/><path d="M2993.2,4109.53c4.79-32.36,8.49-63.88,1.29-93.5-7.74-32-29.28-57-54.86-63.8-10.82-2.89-6.33-19.18,4.3-16.24,31.47,8.36,57.71,38.22,66.9,76.07,7.91,32.58,4,65.86-1,99.93C3008.2,4123,2991.55,4120.52,2993.2,4109.53Z" transform="translate(-1017.54 -350)"/><path d="M4405.06,1632a3.44,3.44,0,0,1-.65,0,8.37,8.37,0,0,1-7.73-9c3.74-48.67,10-97.82,18.59-146.12,1.95-10.85,18.5-8,16.53,3-8.48,47.73-14.66,96.32-18.39,144.44A8.38,8.38,0,0,1,4405.06,1632Z" transform="translate(-1017.54 -350)"/><path d="M4435.26,1689.32c-10.92-14.23,18.26-13.52,148.8-138,8-7.7,19.63,4.48,11.58,12.14A1850.59,1850.59,0,0,1,4447,1690.86,8.41,8.41,0,0,1,4435.26,1689.32Z" transform="translate(-1017.54 -350)"/><path d="M4611.12,1764l-127.53-9.6c-11-.86-9.94-17.52,1.28-16.76l126.88,9.58a8.4,8.4,0,0,1-.63,16.78Z" transform="translate(-1017.54 -350)"/></svg>